<svg width="233" height="235" viewBox="0 0 233 235" fill="none" xmlns="http://www.w3.org/2000/svg">
<path d="M19.3874 7.45373C19.3874 7.54267 19.085 7.64941 18.7115 7.72057C18.338 7.77393 17.8756 7.98741 17.6977 8.1831C17.5199 8.37878 17.2708 8.5211 17.1819 8.48552C16.844 8.3432 16.5772 8.82352 16.4705 9.69521C16.4349 9.89089 16.2926 10.2823 16.1503 10.5847C15.759 11.3674 15.6167 12.417 15.9191 12.5771C16.0792 12.6839 16.1147 12.9329 16.0258 13.5555C15.9547 14.0181 15.9369 14.4806 16.008 14.5873C16.0792 14.6941 16.1147 15.1566 16.0792 15.6191C16.0614 16.0817 16.008 17.4515 15.9902 18.6789C15.9724 19.9064 15.8657 21.0094 15.7768 21.1161C15.6701 21.2762 15.6701 21.3474 15.8124 21.3474C15.9369 21.3474 15.9902 21.4185 15.9191 21.5075C15.8657 21.5964 15.7768 22.8239 15.7234 24.2293C15.6701 25.6346 15.5989 27.378 15.5456 28.1074C15.51 28.8368 15.4389 30.3489 15.4033 31.4518C15.3677 32.6259 15.261 33.551 15.1365 33.6755C14.9053 33.9068 14.8697 34.5116 15.0831 34.5116C15.1543 34.5116 15.2076 35.8458 15.1899 37.4825C15.1721 39.1369 15.2432 40.6668 15.3144 40.8803C15.4033 41.1115 15.4211 41.3962 15.3499 41.5029C15.1543 41.8053 15.1365 42.1433 15.2788 42.2323C15.3499 42.2857 15.4033 43.2107 15.3855 44.2781C15.3677 45.3633 15.4389 46.2527 15.51 46.2527C15.5989 46.2527 15.6167 46.3417 15.5634 46.4484C15.3677 46.733 15.3144 48.9389 15.4922 48.8144C15.5811 48.7611 15.7057 49.0457 15.759 49.4548C15.8302 49.8462 15.9369 50.1664 16.0258 50.1664C16.097 50.1664 16.2215 50.3443 16.2748 50.5578C16.5416 51.4473 18.8538 53.1729 18.8538 52.4969C18.8538 52.4079 19.2629 52.3723 19.7787 52.4079C20.5257 52.4613 20.757 52.4079 21.0237 52.1233C21.2016 51.9276 21.4328 51.7675 21.5218 51.7675C21.5929 51.7675 21.7708 51.4829 21.8775 51.1449C21.9842 50.8069 22.1621 50.5578 22.2332 50.6112C22.3221 50.6645 22.4822 50.54 22.5889 50.3443C22.7134 50.0953 22.7134 49.9885 22.5889 49.9885C22.4822 49.9885 22.5178 49.7751 22.6779 49.4548C22.9091 48.9923 23.1403 47.3735 23.1047 46.4306C23.0514 45.1854 23.1403 44.5983 23.4071 44.3848C23.6739 44.1891 23.6739 44.1714 23.4249 44.0646C23.0158 43.9045 23.0514 42.5169 23.4605 42.4991C23.6383 42.4991 23.6561 42.4636 23.5316 42.3924C23.4071 42.3568 23.3004 42.1789 23.3004 42.001C23.3004 41.8409 23.2115 41.6097 23.1225 41.5207C22.998 41.3962 22.998 41.1649 23.087 40.8981C23.3537 40.1687 23.5138 39.1013 23.336 39.2081C23.247 39.2614 23.0514 39.1903 22.9269 39.0302C22.7668 38.8345 22.7668 38.71 22.8913 38.6388C23.1225 38.4787 23.2292 36.7353 23.0514 36.0771C22.9624 35.8103 22.9802 35.3655 23.087 35.0987L23.247 34.6006L23.4782 35.0809C23.6028 35.3655 23.7628 35.579 23.8162 35.579C23.8695 35.579 23.9407 35.9704 23.9407 36.4507C23.9585 36.9132 24.1008 37.5181 24.2786 37.7671C24.4387 38.0162 24.5276 38.3008 24.4743 38.4075C24.4031 38.4965 24.4921 38.6922 24.6344 38.8345C24.7766 38.9946 24.9012 39.2081 24.9012 39.3148C24.9012 39.4215 25.0612 39.8129 25.2569 40.2043C25.4525 40.5957 25.6126 41.0938 25.6126 41.325C25.6126 41.5385 25.7015 41.8231 25.8083 41.9299C25.915 42.0366 26.0217 42.3568 26.0573 42.6414C26.1106 43.2463 26.5197 44.2959 26.7154 44.2959C26.7865 44.2959 26.8576 44.3848 26.8576 44.4916C26.8576 44.5805 26.7687 44.6161 26.662 44.5449C26.5553 44.4916 26.6086 44.6339 26.7687 44.9007C26.9466 45.1676 27.0533 45.5767 26.9999 45.8791C26.9644 46.1816 26.9821 46.3773 27.0355 46.3417C27.1956 46.2349 27.5691 47.0533 27.5691 47.498C27.5691 47.6937 27.7292 47.9783 27.907 48.1562C28.1916 48.4231 28.405 48.9389 28.7608 50.3443C28.7963 50.4866 28.8675 50.8424 28.8853 51.1271C28.9208 51.4117 29.0631 51.7319 29.2054 51.8386C29.3477 51.9454 29.4366 52.1233 29.4011 52.23C29.3655 52.3545 29.4544 52.568 29.6145 52.7103C29.7568 52.8704 29.8813 53.0661 29.8813 53.1551C29.8813 53.244 30.0236 53.6354 30.1837 54.009C30.3437 54.4003 30.4683 54.7561 30.4505 54.8273C30.4327 54.9162 30.5394 54.9696 30.6817 54.9696C30.824 54.9696 30.9841 55.1831 31.0374 55.4499C31.1086 55.7346 31.2153 56.0904 31.322 56.2505C31.4109 56.4284 31.4821 56.7308 31.4821 56.9265C31.4821 57.1577 31.6066 57.2822 31.8378 57.2822C32.0868 57.2822 32.2291 57.4779 32.3714 58.0294C32.4781 58.4564 32.6382 58.9545 32.7449 59.1502C32.8338 59.3458 32.9405 59.6838 32.9583 59.8973C32.9583 60.1108 33.0295 60.2531 33.1006 60.1997C33.2963 60.093 33.5275 60.4844 33.9899 61.6763C34.2212 62.2811 34.4702 62.7259 34.5413 62.6903C34.6658 62.6191 34.7192 63.0461 34.6658 63.6331C34.6658 63.7221 34.8437 63.811 35.0749 63.8644C35.3239 63.9355 35.484 64.1134 35.5018 64.3091C35.5196 64.6293 37.2804 67.867 37.7428 68.4363C37.8496 68.5608 37.8673 68.6676 37.814 68.6676C37.7428 68.6676 37.814 68.7921 37.9741 68.9522C38.1341 69.1301 38.2231 69.4147 38.1875 69.5926C38.1163 69.8239 38.1697 69.9128 38.312 69.8595C38.6144 69.7349 40.5353 72.1187 40.3041 72.35C40.2685 72.4034 40.4641 72.6702 40.7665 72.9726C41.1578 73.364 41.2645 73.5953 41.1934 73.8977C41.1222 74.2179 41.1578 74.3068 41.4068 74.2891C41.5669 74.2891 41.7625 74.2001 41.8337 74.1112C41.9048 74.0044 42.0115 74.1467 42.0649 74.4136C42.136 74.6804 42.2605 74.8939 42.3317 74.8939C42.4028 74.8939 42.5096 75.0362 42.5807 75.1963C42.723 75.6766 43.0965 76.1925 43.4344 76.4594C43.6123 76.5839 43.7546 76.7974 43.7546 76.9219C43.7546 77.2065 45.0886 78.6297 45.3554 78.6297C45.4443 78.6297 45.5332 78.7542 45.5332 78.8966C45.5332 79.0389 45.6933 79.2346 45.8889 79.3413C46.0846 79.448 46.298 79.7327 46.3514 79.9639C46.4225 80.2308 46.636 80.462 46.8672 80.5154C47.0806 80.5688 47.4363 80.9246 47.6676 81.3159C47.881 81.7073 48.2723 82.1343 48.5391 82.241C48.7881 82.3477 49.2505 82.7035 49.5351 83.0059C49.8375 83.3084 50.2466 83.6642 50.4778 83.7709C50.6912 83.8776 50.8691 84.0733 50.8691 84.2156C50.8691 84.4469 51.7584 85.3008 51.7584 85.0695C51.7762 84.9984 51.9007 85.1585 52.043 85.4253C52.1853 85.71 52.4165 85.9234 52.5766 85.9234C52.7189 85.9234 52.8789 86.048 52.9323 86.1903C52.9857 86.3326 53.3058 86.5283 53.6615 86.6528C54.0173 86.7595 54.3552 87.0264 54.4797 87.2932C54.6042 87.5779 54.7821 87.7024 54.9955 87.649C55.1734 87.5956 55.3157 87.6312 55.3157 87.7202C55.3157 87.8269 55.5647 87.987 55.8492 88.076C56.365 88.2716 56.4184 88.325 56.454 88.8053C56.4896 89.2145 56.8097 89.4635 57.0409 89.2679C57.201 89.1433 57.3967 89.1967 57.7346 89.4635C58.0014 89.677 58.3215 89.8371 58.446 89.8371C58.5883 89.8371 58.695 89.9083 58.695 90.015C58.695 90.104 58.8373 90.1929 59.0152 90.1929C59.2108 90.1929 59.4954 90.353 59.6733 90.5487C59.8512 90.7444 60.1357 90.9045 60.3314 90.9045C60.5092 90.9045 60.6515 90.9579 60.6515 91.029C60.6515 91.2069 62.2345 92.2031 62.5902 92.2565C62.9637 92.3277 65.6673 93.2705 65.9163 93.4306C66.1475 93.5907 68.4953 92.7724 68.6909 92.47C68.7621 92.3455 68.8332 92.0964 68.8332 91.9363C68.8332 91.7762 68.9044 91.5805 69.0111 91.5271C69.2423 91.3848 69.2423 89.4813 69.0111 89.4813C68.9221 89.4813 68.8332 89.3746 68.8332 89.2323C68.8332 89.09 68.7087 88.9476 68.5664 88.8765C68.4241 88.8231 68.2996 88.6452 68.2996 88.4673C68.2996 88.2894 68.0506 87.8803 67.766 87.5423C67.4637 87.2221 67.2325 86.8663 67.2325 86.7773C67.2325 86.6884 67.0724 86.7062 66.8589 86.8129C66.5566 86.9908 66.4499 86.9374 66.1475 86.5638C65.5783 85.8345 65.276 85.5676 65.0092 85.5676C64.8847 85.5676 64.7424 85.4431 64.6712 85.3008C64.6179 85.1585 64.2621 84.9094 63.8531 84.7493C63.2839 84.5181 63.1416 84.3757 63.1416 84.0199C63.1416 83.6286 63.0883 83.593 62.697 83.6819C62.3412 83.7709 62.1278 83.6819 61.7187 83.255C61.4163 82.9526 61.1851 82.6324 61.1851 82.5256C61.1851 82.4189 61.0962 82.4011 60.9895 82.4545C60.7938 82.579 59.4065 81.2448 59.4065 80.9424C59.4065 80.7822 58.8907 80.6755 58.4816 80.7467C58.4105 80.7467 58.3037 80.6044 58.2504 80.4087C58.197 80.2308 58.0014 80.0173 57.8057 79.9639C57.6279 79.9106 57.4322 79.7505 57.3789 79.6081C57.3255 79.4658 57.201 79.3413 57.1121 79.3413C56.8808 79.3413 55.8492 78.3451 55.8492 78.1138C55.8492 78.0071 55.7247 77.9181 55.5825 77.9181C55.4402 77.9181 55.3157 77.8292 55.3157 77.7402C55.3157 77.6335 55.2089 77.5623 55.1022 77.5623C54.7465 77.5445 54.0706 76.9219 54.0706 76.6017C54.0706 76.4416 53.9995 76.3171 53.9105 76.3171C53.7149 76.3171 52.1141 74.7516 52.1141 74.5559C52.1141 74.4492 51.9541 74.3246 51.7584 74.2713C51.5628 74.2179 51.4027 74.0934 51.4027 74.0222C51.4027 73.9333 51.0825 73.5419 50.6912 73.1505C50.2999 72.7592 49.9798 72.3144 49.9798 72.1543C49.9798 71.9942 49.8731 71.8697 49.7308 71.8697C49.5885 71.8697 49.3928 71.6028 49.2683 71.2648C49.1616 70.9268 48.9304 70.6244 48.7347 70.571C48.5391 70.5177 48.2367 70.233 48.0767 69.9306C47.8988 69.6282 47.6142 69.3258 47.4541 69.2724C47.2763 69.219 47.134 69.0589 47.134 68.8988C47.134 68.7387 46.9205 68.3473 46.6715 68.0093C46.4225 67.6713 46.2625 67.2978 46.3158 67.1555C46.4225 66.8886 46.1379 66.6396 45.7289 66.6218C45.5866 66.6218 45.4087 66.3727 45.3198 66.0525C45.2308 65.7323 45.0886 65.4299 44.9996 65.3765C44.8929 65.3231 44.8218 65.1097 44.8218 64.9318C44.8218 64.7539 44.715 64.5226 44.5905 64.4514C44.466 64.3803 44.2704 64.0779 44.1459 63.811C44.0214 63.5442 43.8613 63.3485 43.7902 63.4019C43.5945 63.5264 43.0076 62.2989 43.1321 62.0676C43.2032 61.9787 43.1321 61.9075 43.0076 61.9075C42.7586 61.9075 42.4384 61.2849 42.2428 60.4488C42.1716 60.1819 42.0649 59.9685 41.9937 59.9863C41.6025 60.0218 41.4424 59.8973 41.4424 59.4882C41.4424 59.2391 41.2289 58.6876 40.9799 58.2429C40.7309 57.8159 40.5708 57.3356 40.6242 57.1933C40.6776 57.051 40.642 56.9265 40.5531 56.9265C40.4463 56.9265 40.3752 56.9976 40.3752 57.1044C40.3752 57.1933 40.2685 57.2289 40.1262 57.1755C39.9839 57.1221 39.9128 56.962 39.9661 56.8197C40.0195 56.6774 39.9661 56.5707 39.8594 56.5707C39.7527 56.5707 39.5392 56.2505 39.3792 55.8591C39.2191 55.4677 39.0234 55.1475 38.9523 55.1475C38.81 55.1475 38.312 53.8133 38.1519 53.0128C38.0986 52.7815 37.9918 52.5147 37.8851 52.4079C37.7962 52.319 37.7073 52.0877 37.7073 51.9098C37.7073 51.7141 37.565 51.3228 37.4049 51.0025C37.2448 50.6823 37.1203 50.3621 37.1381 50.291C37.1737 50.202 36.9958 49.9885 36.7646 49.7929C36.3911 49.5082 36.1954 48.9745 36.0354 47.7648C35.9464 47.1244 35.6974 46.4306 35.5551 46.4306C35.4662 46.4306 35.4128 46.3773 35.4306 46.2883C35.484 46.0748 35.1994 45.3633 35.0393 45.3633C34.9682 45.3633 34.9326 45.2031 34.986 45.0075C35.0571 44.7762 34.986 44.6517 34.8081 44.6517C34.5057 44.6517 34.2923 44.1536 34.1678 43.0862C34.1678 42.9617 34.0789 42.9083 33.9721 42.9617C33.8832 43.015 33.7587 42.8371 33.6876 42.5703C33.6164 42.3034 33.4208 41.7876 33.2607 41.4496C33.1006 41.1115 32.9939 40.7202 33.0295 40.5957C33.0828 40.4711 32.9228 40.062 32.6915 39.7062C32.407 39.297 32.2824 38.8701 32.318 38.5499C32.3536 38.2296 32.318 38.0873 32.1579 38.1051C32.0157 38.1407 31.9089 37.9272 31.8734 37.5714C31.8378 37.2512 31.7489 37.0377 31.6599 37.0911C31.571 37.1445 31.4109 36.8776 31.3042 36.5218C31.1797 36.1483 30.9663 35.7035 30.8062 35.5256C30.6639 35.3655 30.5928 35.1698 30.6461 35.0987C30.7173 35.0453 30.6817 34.8852 30.575 34.7429C30.4149 34.565 30.4327 34.5116 30.575 34.5116C30.6995 34.5116 30.735 34.4227 30.6639 34.2982C30.5928 34.1914 30.8062 34.2982 31.1619 34.565C31.4999 34.8318 31.82 34.9919 31.8734 34.9386C31.9445 34.8852 32.0334 34.9919 32.0868 35.1876C32.1935 35.4901 32.4603 35.6679 32.9583 35.7213C33.0473 35.7213 33.2963 35.9526 33.5275 36.2194C33.7409 36.4685 34.0255 36.6286 34.1322 36.5752C34.2389 36.5041 34.3812 36.5752 34.4346 36.7175C34.4879 36.8776 34.648 37.0022 34.7725 37.0022C34.897 37.0022 35.0393 37.0555 35.0749 37.1267C35.1638 37.358 36.48 37.9094 36.6401 37.8027C36.729 37.7493 36.8535 37.8916 36.9247 38.1407C37.0314 38.5676 37.2448 38.6388 37.6539 38.372C37.7606 38.3008 37.9741 38.372 38.1163 38.5143C38.2764 38.6566 38.6321 38.7811 38.9345 38.7811C39.2191 38.7811 39.5215 38.8523 39.5748 38.959C39.6282 39.048 39.8772 39.1369 40.1084 39.1369C40.3396 39.1369 40.5708 39.2081 40.6242 39.2792C40.6598 39.3504 40.9621 39.4393 41.2645 39.4571C41.5847 39.4749 41.9937 39.5816 42.1716 39.6884C42.3673 39.7773 42.5985 39.8129 42.6874 39.7595C42.7941 39.7062 43.3455 39.7773 43.9325 39.9196C44.5194 40.0798 45.1063 40.1509 45.2664 40.0975C45.4087 40.0264 45.5332 40.0798 45.5332 40.1865C45.5332 40.3288 45.6399 40.3466 45.8534 40.2221C46.0134 40.1331 46.5648 40.062 47.0806 40.062C47.6676 40.062 48.1122 39.973 48.2723 39.7951C48.4324 39.6528 48.717 39.5639 48.8948 39.6172C49.3928 39.7418 50.3355 39.297 50.3355 38.9234C50.3355 38.7633 50.5489 38.5143 50.8157 38.3897C51.456 38.0873 51.9541 37.1801 51.6873 36.8421C51.545 36.6464 51.545 36.5752 51.7228 36.5218C51.8296 36.4685 51.9363 36.3617 51.9363 36.255C51.9363 36.1483 51.794 36.1305 51.6339 36.2016C51.3849 36.2906 51.3671 36.2728 51.5272 36.0949C51.6873 35.9348 51.6695 35.7391 51.3849 35.2054C51.207 34.8318 51.047 34.4227 51.047 34.2982C51.047 34.1558 50.798 34.0491 50.4067 34.0313C50.0509 34.0135 49.6418 33.889 49.464 33.7467C49.1438 33.4443 47.0806 33.0529 46.9917 33.2664C46.9205 33.4443 46.2447 33.2664 46.2447 33.0707C46.2447 32.9817 45.9957 32.9106 45.6933 32.9106C45.3909 32.9106 44.9463 32.7505 44.6973 32.5548C44.4127 32.3413 44.0925 32.2346 43.8969 32.2879C43.719 32.3591 43.5767 32.3235 43.5767 32.2346C43.5767 32.1278 43.2388 32.0033 42.8297 31.9321C42.4028 31.861 41.9582 31.6475 41.8337 31.4696C41.7092 31.2739 41.5135 31.1672 41.4246 31.2206C41.2645 31.3273 40.3752 31.096 39.3792 30.6691C39.0412 30.509 38.7744 30.2421 38.7033 29.9753C38.5966 29.5839 38.5432 29.5661 38.1163 29.7262C37.6717 29.8863 37.4583 29.833 37.4227 29.5128C37.4049 29.4238 37.3871 29.2637 37.3693 29.1748C37.3693 29.068 37.227 28.9969 37.0847 28.9969C36.9425 28.9969 36.6045 28.7834 36.3377 28.5343C35.5196 27.7872 35.1638 27.4848 34.4702 26.9689C34.0966 26.702 33.7943 26.364 33.7943 26.2217C33.7943 26.0794 33.5986 25.8837 33.3674 25.7947C33.1362 25.7058 32.8872 25.4745 32.816 25.2788C32.7627 25.0654 32.6204 24.9053 32.5137 24.9053C32.2824 24.9053 31.4109 23.998 31.3754 23.7134C31.3398 23.4821 30.4149 22.6104 30.2015 22.5926C30.1125 22.5926 30.0592 22.4325 30.0592 22.2368C30.0592 21.7565 29.5789 20.8137 29.3299 20.8137C29.2232 20.8137 29.1699 20.6891 29.241 20.5468C29.2944 20.3867 29.241 20.28 29.0987 20.28C28.9564 20.28 28.6718 19.9242 28.4584 19.4795C28.245 19.0347 27.996 18.6433 27.907 18.5722C27.8181 18.5188 27.747 18.3231 27.747 18.1275C27.747 17.9496 27.6936 17.7895 27.6047 17.7895C27.4624 17.7895 26.7687 16.5798 26.7687 16.3307C26.7687 16.2418 26.662 16.0994 26.5197 16.0283C26.3952 15.9393 26.3241 15.7614 26.3596 15.6369C26.3952 15.5124 26.2529 15.1388 26.0395 14.8186C25.7905 14.445 25.6837 14.0892 25.7549 13.8402C25.826 13.5378 25.7905 13.4844 25.5592 13.5733C25.3636 13.6445 25.2035 13.5555 25.079 13.3421C24.9901 13.1642 24.7766 12.8795 24.6166 12.7194C24.4565 12.5593 24.2964 12.1502 24.2786 11.83C24.2608 11.403 24.0474 11.0294 23.585 10.5669C23.2292 10.2111 22.9447 9.83752 22.9624 9.713C23.0158 9.32162 22.9447 9.0192 22.8202 9.12594C22.6423 9.30384 22.2332 8.89468 22.2332 8.53889C22.2332 8.30762 22.1265 8.25426 21.753 8.32541C21.3617 8.39657 21.3083 8.36099 21.415 8.07635C21.4862 7.89846 21.4862 7.80952 21.415 7.88068C21.3439 7.95183 21.1838 7.91625 21.0593 7.80952C20.917 7.70278 20.7036 7.64941 20.5791 7.70278C20.4546 7.75615 20.2056 7.68499 20.0099 7.54267C19.6186 7.25804 19.3874 7.22246 19.3874 7.45373Z" fill="#98DED9"/>
<path d="M193.959 57.3532C193.71 57.6734 193.515 57.9758 193.515 58.0292C193.515 58.0826 193.372 58.4383 193.212 58.8119C193.052 59.2033 192.892 59.5591 192.874 59.6302C192.857 59.7192 192.839 59.7903 192.821 59.8081C192.768 59.8793 192.59 61.0356 192.572 61.4092C192.554 61.5871 192.501 61.7294 192.43 61.7294C192.359 61.7294 192.305 62.0318 192.287 62.3876C192.287 62.7612 192.234 63.2949 192.181 63.5973C191.967 65.0205 191.736 67.8134 191.736 68.8452C191.754 69.4857 191.754 70.0727 191.736 70.1794C191.718 70.2684 191.718 70.6953 191.736 71.1223L191.772 71.8872L191.167 71.6382C190.847 71.4959 190.473 71.4247 190.366 71.4603C190.242 71.5137 190.135 71.4603 190.135 71.3713C190.135 71.2824 189.922 71.1934 189.673 71.1934C189.406 71.1934 189.157 71.1223 189.086 71.0333C188.944 70.8021 185.706 70.8732 185.244 71.1045C185.048 71.2112 184.604 71.4247 184.248 71.567C183.323 71.9584 182.576 73.4527 182.861 74.36C182.95 74.698 183.074 75.1427 183.11 75.3384C183.163 75.5341 183.323 75.7832 183.465 75.8899C183.608 75.9966 183.732 76.1567 183.732 76.2457C183.732 76.3346 184.159 76.7438 184.675 77.1529C185.831 78.0424 186.685 78.1136 187.076 77.3131C187.361 76.7616 187.129 75.9433 186.578 75.5519C186.418 75.4274 186.133 75.1249 185.973 74.8581C185.653 74.36 185.653 74.36 186.151 74.1643C186.791 73.933 189.228 74.1287 189.602 74.4489C189.744 74.5735 190.064 74.7336 190.313 74.8047C190.562 74.8759 191.042 75.1427 191.398 75.374C191.967 75.7476 192.056 75.9077 192.252 77.0284C192.394 77.8112 192.572 78.2915 192.75 78.3448C192.91 78.416 192.981 78.5939 192.928 78.7896C192.874 79.0031 192.945 79.181 193.088 79.2343C193.23 79.2877 193.337 79.4478 193.337 79.5901C193.337 79.7146 193.657 80.1238 194.048 80.4796C194.813 81.1734 195.471 81.2979 196.521 80.9243C196.93 80.782 197.072 80.6219 197.072 80.3195C197.072 80.0882 197.161 79.8392 197.268 79.768C197.392 79.6969 197.428 79.4122 197.339 79.0031C197.285 78.6473 197.196 78.1314 197.143 77.8467C197.107 77.5621 196.93 77.1174 196.77 76.8683C196.325 76.2101 196.058 75.7654 195.791 75.2495C195.667 75.0004 195.489 74.7514 195.4 74.6802C195.311 74.6268 195.222 73.595 195.187 72.4209C195.151 71.229 195.08 70.1972 195.026 70.1083C194.973 70.0193 194.991 69.8948 195.062 69.8592C195.151 69.8059 195.187 68.5784 195.187 67.1374C195.169 65.6787 195.24 64.2555 195.329 63.9531C195.418 63.6685 195.542 62.8501 195.596 62.1741C195.649 61.4804 195.756 60.8399 195.845 60.7332C195.951 60.6087 196.022 60.2529 196.005 59.9327C196.005 59.5947 196.058 59.0432 196.111 58.6874C196.165 58.296 196.111 57.8157 195.951 57.4243C195.72 56.8551 195.613 56.7839 195.044 56.7839C194.528 56.7839 194.315 56.8906 193.959 57.3532Z" fill="black"/>
<path d="M141.223 66.1238C140.903 66.2306 139.996 67.2446 139.96 67.5114C139.942 67.7427 139.978 68.6855 140.049 69.0591C140.067 69.2192 140.191 69.4683 140.316 69.6284C140.458 69.7885 140.565 70.1087 140.565 70.3577C140.565 70.6068 140.618 70.8025 140.689 70.8025C140.814 70.8025 141.276 72.1011 141.33 72.5992C141.33 72.7593 141.525 73.2752 141.757 73.7377C142.237 74.7162 142.166 75.5523 141.49 76.7442C141.241 77.1889 141.045 77.6692 141.045 77.8116C141.045 77.9717 140.974 78.0962 140.867 78.0962C140.778 78.0962 140.689 78.2207 140.689 78.3808C140.689 78.5231 140.583 78.7722 140.476 78.8967C139.942 79.4838 139.871 79.6261 139.942 79.8396C139.978 79.9463 139.907 80.053 139.782 80.053C139.658 80.053 139.604 80.1064 139.676 80.1598C139.782 80.2665 139.498 80.6579 138.608 81.6007C138.288 81.9387 138.021 82.2767 138.021 82.3479C138.021 82.419 137.648 82.5969 137.185 82.757C136.296 83.0773 134.642 83.1662 134.642 82.9172C134.642 82.8282 134.446 82.8104 134.197 82.8638C133.931 82.8994 133.557 82.8104 133.272 82.6147C132.988 82.4368 132.721 82.3123 132.65 82.3301C132.561 82.3479 132.508 82.2767 132.508 82.17C132.508 82.081 132.437 82.0277 132.365 82.081C132.17 82.2056 129.484 79.5371 129.484 79.2169C129.484 79.128 129.342 78.8967 129.164 78.701C128.986 78.5231 128.666 77.9717 128.435 77.4913C128.203 76.9932 127.848 76.3528 127.616 76.0682C127.403 75.7658 127.012 75.1609 126.781 74.7162C125.607 72.5992 125.18 71.8876 124.877 71.6208C124.557 71.3362 123.045 70.9626 123.294 71.2472C123.366 71.3184 123.223 71.5496 122.974 71.7453C122.619 72.03 122.547 72.1901 122.636 72.5636C122.707 72.8127 122.779 73.1151 122.796 73.2219C122.814 73.3286 122.956 73.6132 123.117 73.8623C123.294 74.1113 123.472 74.5383 123.543 74.7873C123.597 75.0364 123.721 75.3032 123.81 75.3566C123.899 75.41 123.97 75.6412 123.97 75.8903C123.97 76.1393 124.041 76.2817 124.148 76.2283C124.237 76.1749 124.433 76.424 124.593 76.7976C124.753 77.1533 124.931 77.5091 125.002 77.5625C125.091 77.6159 125.429 78.2207 125.784 78.9323C126.122 79.6439 126.46 80.1598 126.532 80.1064C126.585 80.0353 126.638 80.1598 126.638 80.3733C126.638 80.5867 126.727 80.7646 126.816 80.7646C126.923 80.7646 127.083 80.9603 127.172 81.1916C127.51 82.081 129.626 84.2692 130.64 84.7673C131.031 84.963 131.476 85.212 131.618 85.3187C132.188 85.7101 134.055 86.1549 135.176 86.1371C136.634 86.1193 137.861 85.9592 138.128 85.7279C138.253 85.639 138.502 85.5322 138.697 85.4789C138.893 85.4433 139.266 85.2298 139.515 85.0163C140.725 83.949 141.223 83.4508 141.223 83.2729C141.223 83.1662 141.347 83.0773 141.508 83.0773C141.65 83.0773 141.739 83.0061 141.685 82.9172C141.632 82.846 141.739 82.6325 141.934 82.4546C142.13 82.2767 142.29 82.0277 142.29 81.9209C142.29 81.7964 142.415 81.6007 142.557 81.4762C142.806 81.2805 143.411 80.1776 143.464 79.8218C143.482 79.7506 143.5 79.6439 143.517 79.5549C143.571 79.377 144.104 80.8002 144.122 81.156C144.14 81.3339 144.193 81.4762 144.247 81.4762C144.318 81.4762 144.371 81.5829 144.389 81.6897C144.407 81.9743 144.478 82.2234 144.78 83.2552C144.923 83.6999 145.047 84.1802 145.065 84.3225C145.207 85.1231 145.527 86.2082 145.705 86.4039C145.812 86.5462 145.847 86.6885 145.794 86.7597C145.723 86.8131 145.741 86.9554 145.83 87.0621C145.936 87.1689 146.025 87.4713 146.061 87.7025C146.096 87.9516 146.221 88.3074 146.328 88.5031C146.434 88.6988 146.577 89.1791 146.648 89.5704C146.701 89.9618 146.826 90.4421 146.915 90.6378C147.377 91.7764 147.662 92.7726 147.679 93.3063C147.697 93.6443 147.751 93.9289 147.822 93.9289C148 93.9289 148.195 94.4448 148.284 95.1564C148.32 95.4766 148.462 95.9747 148.604 96.2593C148.747 96.5262 148.871 96.8997 148.871 97.0599C148.871 97.22 148.996 97.7181 149.138 98.1806C149.262 98.6253 149.476 99.3547 149.583 99.7994C149.707 100.244 149.867 100.742 149.956 100.902C150.045 101.08 150.116 101.365 150.116 101.543C150.116 101.721 150.187 101.934 150.276 102.041C150.436 102.201 150.881 103.429 150.952 103.891C151.059 104.674 151.219 105.225 151.379 105.332C151.486 105.385 151.557 105.545 151.539 105.688C151.468 106.15 151.539 106.399 151.699 106.31C151.788 106.257 151.895 106.524 151.948 106.915C152.001 107.289 152.162 107.858 152.322 108.161C152.464 108.481 152.642 108.997 152.713 109.335C152.766 109.673 152.891 109.939 152.98 109.939C153.069 109.939 153.14 110.117 153.14 110.349C153.14 110.58 153.211 110.829 153.3 110.936C153.389 111.025 153.656 111.736 153.905 112.519C154.136 113.302 154.545 114.44 154.794 115.045C155.043 115.668 155.203 116.166 155.15 116.166C155.096 116.166 155.15 116.273 155.256 116.397C155.363 116.539 155.47 116.788 155.505 116.984C155.541 117.162 155.665 117.5 155.79 117.731C155.914 117.963 156.039 118.301 156.075 118.478C156.11 118.674 156.252 119.083 156.412 119.404C156.555 119.724 156.768 120.329 156.893 120.738C157.017 121.165 157.177 121.503 157.248 121.503C157.32 121.503 157.462 121.77 157.569 122.072C157.871 123.104 158.209 123.94 158.405 124.189C158.671 124.527 159.899 127.089 159.899 127.302C159.899 127.391 160.059 127.569 160.254 127.693C160.45 127.818 160.61 127.996 160.61 128.085C160.61 128.352 161.499 129.312 162.122 129.668C162.406 129.864 162.993 130.059 163.402 130.131C164.381 130.291 164.932 129.828 165.003 128.796C165.039 128.174 164.985 128.049 164.523 127.818C164.221 127.658 163.989 127.462 163.989 127.355C163.989 127.249 163.918 127.213 163.829 127.267C163.705 127.355 163.474 127.053 163.385 126.662C163.367 126.608 163.242 126.377 163.1 126.128C162.371 124.794 161.019 121.912 160.788 121.147C160.699 120.898 160.432 120.204 160.201 119.581C159.952 118.977 159.81 118.478 159.863 118.478C159.934 118.478 159.899 118.407 159.81 118.336C159.703 118.265 159.525 117.82 159.401 117.34C159.276 116.877 159.009 116.112 158.796 115.65C158.387 114.76 158.084 113.764 158.102 113.266C158.102 113.106 158.031 112.964 157.924 112.964C157.835 112.964 157.764 112.804 157.764 112.626C157.764 112.43 157.675 112.217 157.586 112.163C157.48 112.092 157.444 111.985 157.497 111.896C157.551 111.807 157.444 111.434 157.266 111.06C157.088 110.687 156.822 109.975 156.697 109.495C156.573 108.997 156.341 108.356 156.181 108.072C156.039 107.769 155.897 107.342 155.861 107.111C155.843 106.88 155.772 106.559 155.701 106.399C155.63 106.239 155.559 106.061 155.559 105.99C155.541 105.937 155.488 105.812 155.416 105.741C155.327 105.67 155.274 105.421 155.274 105.19C155.274 104.976 155.203 104.781 155.114 104.781C155.007 104.781 154.936 104.638 154.954 104.46C154.954 104.158 153.958 100.547 153.691 99.8884C153.602 99.6927 153.442 99.1768 153.318 98.7321C153.211 98.2873 153.033 97.807 152.962 97.6469C152.891 97.5046 152.891 97.2377 152.997 97.0776C153.122 96.8464 153.086 96.7752 152.891 96.7752C152.713 96.7752 152.588 96.544 152.517 96.0992C152.464 95.7434 152.339 95.1208 152.233 94.7294C152.144 94.3381 151.984 93.662 151.877 93.2173C151.788 92.7726 151.592 92.0966 151.432 91.7052C151.272 91.3138 151.112 90.8335 151.077 90.6378C151.059 90.4421 150.916 89.8907 150.756 89.4103C150.614 88.93 150.543 88.4497 150.596 88.3608C150.667 88.254 150.614 88.2362 150.472 88.3252C150.294 88.4319 150.258 88.3963 150.347 88.2007C150.401 88.0406 150.401 87.8627 150.33 87.7915C150.258 87.7203 150.187 87.4179 150.169 87.1155C150.134 86.3505 150.134 86.3328 149.938 86.6352C149.796 86.8486 149.76 86.7775 149.743 86.3683C149.725 86.0659 149.725 85.7279 149.743 85.6034C149.76 85.4966 149.689 85.3899 149.583 85.3899C149.476 85.3899 149.422 85.3187 149.494 85.2298C149.547 85.1409 149.511 85.0163 149.405 84.9452C149.298 84.874 149.262 84.7495 149.334 84.6605C149.387 84.5716 149.334 84.3759 149.227 84.2336C149.102 84.0735 149.067 83.7711 149.12 83.5042C149.209 83.2018 149.173 83.0951 149.049 83.1662C148.96 83.2196 148.871 83.184 148.871 83.0951C148.871 82.7748 148.871 82.757 148.586 81.8854C148.426 81.405 148.195 80.5867 148.053 80.053C147.697 78.7722 147.715 78.8256 147.377 78.0606C147.217 77.687 147.092 77.2779 147.092 77.1356C147.092 76.9932 147.004 76.6552 146.879 76.3706C146.772 76.1038 146.648 75.7658 146.612 75.6412C146.594 75.5345 146.523 75.321 146.505 75.1965C146.47 75.0898 146.381 74.8585 146.328 74.7162C145.847 73.5421 145.26 71.2828 145.225 70.5356C145.225 70.4289 145.083 70.2154 144.923 70.0197C144.762 69.8418 144.531 69.3437 144.407 68.9168C144.264 68.4898 144.104 68.134 144.033 68.134C143.962 68.134 143.891 68.0273 143.891 67.885C143.891 67.7605 143.766 67.5292 143.606 67.4047C143.446 67.2801 143.251 66.9955 143.162 66.782C143.019 66.3729 142.29 65.857 142.29 66.1416C142.29 66.2306 142.166 66.3017 142.023 66.3017C141.881 66.3017 141.757 66.2306 141.757 66.1416C141.757 65.9815 141.632 65.9815 141.223 66.1238Z" fill="black"/>
<path d="M179.286 79.6437C178.61 80.2485 178.503 80.9779 178.894 82.2765C179.037 82.7568 179.179 83.3261 179.179 83.5218C179.197 83.7175 179.303 84.0377 179.41 84.2334C179.979 85.3007 180.157 86.4215 180.104 88.4139C180.086 89.5524 179.979 90.602 179.89 90.7621C179.748 91.0112 179.677 91.029 179.108 90.7799C178.752 90.6198 178.272 90.2284 178.041 89.8904C177.792 89.5346 177.329 88.9476 176.991 88.574C176.671 88.2004 176.458 87.8802 176.529 87.8802C176.6 87.8802 176.458 87.6134 176.209 87.2754C175.96 86.9552 175.693 86.4571 175.622 86.1724C175.55 85.8878 175.426 85.5498 175.319 85.4253C175.213 85.2829 175.213 85.2118 175.337 85.2118C175.782 85.2118 175.373 84.2867 174.519 83.3617C174.074 82.8814 173.807 82.7212 173.345 82.7212C173.025 82.7212 172.705 82.7746 172.634 82.8458C172.562 82.9347 172.402 82.9881 172.296 82.9881C172.011 82.9881 171.62 84.18 171.833 84.3935C171.922 84.5002 171.993 84.7493 171.993 84.9627C171.993 85.3897 173.345 88.1293 173.914 88.8586C174.128 89.1255 174.252 89.4101 174.199 89.4991C174.145 89.588 174.199 89.6592 174.288 89.6592C174.394 89.6592 174.483 89.7659 174.483 89.8904C174.483 90.015 174.892 90.5486 175.373 91.0823C175.871 91.616 176.262 92.1319 176.262 92.2209C176.262 92.3098 176.315 92.3454 176.369 92.2742C176.44 92.2209 176.742 92.3632 177.045 92.5944C177.347 92.8257 177.827 93.1103 178.112 93.2171C178.788 93.4661 180.353 93.5907 180.353 93.395C180.353 93.306 180.46 93.2704 180.584 93.3238C181.046 93.5017 182.131 92.1853 182.131 91.4559C182.131 91.2958 182.203 91.0823 182.292 90.9756C182.398 90.8866 182.505 89.9616 182.541 88.9298C182.576 87.898 182.665 86.9552 182.736 86.8306C182.807 86.7239 182.79 86.6349 182.701 86.6349C182.612 86.6349 182.541 86.2436 182.558 85.7633C182.576 84.8916 182.576 84.8916 182.932 85.194C183.288 85.5142 184.39 86.1368 185.066 86.3859C185.262 86.4571 185.813 86.4926 186.293 86.4748C187.289 86.4393 187.912 85.9234 187.752 85.3007C187.699 85.105 187.645 84.856 187.645 84.7493C187.645 84.6247 187.201 84.3579 186.649 84.1444C186.098 83.9131 185.475 83.5574 185.262 83.3617C185.048 83.1482 184.675 82.828 184.426 82.6323C184.195 82.4188 183.679 81.8851 183.288 81.4226C182.238 80.1773 181.171 79.359 180.46 79.2523C179.962 79.1633 179.748 79.2345 179.286 79.6437Z" fill="black"/>
<path d="M89.4649 84.1442C89.4649 84.2332 89.2693 84.3221 89.0381 84.3221C88.4867 84.3221 88.2377 84.6957 88.1843 85.5674C88.1665 85.7097 88.0776 85.8876 87.9709 85.9588C87.8464 86.0477 87.8642 86.1011 88.042 86.1011C88.2911 86.1011 88.38 86.3857 88.4511 87.293C88.4511 87.4175 88.5223 87.5243 88.6112 87.5243C88.6823 87.5243 88.7535 87.6488 88.7535 87.8089C88.7535 87.969 88.8602 88.3426 89.0025 88.645C89.127 88.9652 89.3404 89.5701 89.4827 90.0148C89.6072 90.4595 89.7673 90.9043 89.8562 91.011C89.9452 91.1355 89.9985 91.2956 89.963 91.3668C89.9452 91.4558 90.0875 91.8471 90.2653 92.2385C90.4432 92.6299 90.6211 93.0746 90.6388 93.2169C90.6566 93.3592 90.8345 93.8929 91.0301 94.3732C91.5459 95.743 91.6527 96.7037 91.3325 97.0239C91.1902 97.1662 91.0657 97.3441 91.0657 97.3975C91.0657 97.4686 90.8523 97.7355 90.5855 98.0023C89.7317 98.8384 88.7891 100.19 89.2693 99.9058C89.5183 99.7457 89.5183 100.03 89.2693 100.279C89.0559 100.493 89.3404 101.222 89.6428 101.222C89.7495 101.222 89.8207 101.347 89.8207 101.507C89.8207 101.685 89.9274 101.756 90.0697 101.703C90.1942 101.649 90.4076 101.703 90.5143 101.809C90.6566 101.952 90.71 101.952 90.71 101.809C90.71 101.703 90.8701 101.649 91.0657 101.703C91.6882 101.863 92.2218 101.614 92.5598 100.955C92.8443 100.439 92.8621 100.279 92.6843 100.173C92.542 100.084 92.5242 99.977 92.6309 99.9058C92.7198 99.8524 92.9866 100.173 93.2001 100.653C93.4135 101.115 93.7159 101.614 93.8404 101.774C93.9827 101.934 94.0894 102.129 94.0538 102.218C94.036 102.307 94.1072 102.539 94.2139 102.734C94.3206 102.93 94.4629 103.393 94.534 103.766C94.6052 104.122 94.7297 104.371 94.8186 104.318C94.9075 104.264 94.9787 104.318 94.9787 104.424C94.9787 104.673 95.4233 105.741 95.7791 106.381C95.9214 106.63 96.1704 107.111 96.3304 107.449C96.4905 107.787 96.8107 108.302 97.0419 108.569C97.2731 108.854 97.4688 109.228 97.4688 109.423C97.4688 109.601 97.5577 109.761 97.6466 109.761C97.7533 109.761 97.8245 109.868 97.8245 110.01C97.8245 110.135 97.949 110.348 98.0913 110.473C98.2336 110.597 98.3225 110.757 98.2691 110.829C98.2336 110.9 98.5537 111.469 98.9806 112.074C99.4252 112.696 99.781 113.301 99.781 113.408C99.781 113.568 100.119 114.013 101.133 115.151C101.275 115.329 101.364 115.525 101.328 115.578C101.275 115.632 101.471 115.899 101.755 116.183C102.04 116.468 102.235 116.699 102.182 116.699C102.129 116.699 102.235 116.877 102.449 117.091C102.645 117.304 102.805 117.589 102.805 117.713C102.805 117.855 102.894 117.909 102.982 117.855C103.089 117.802 103.16 117.82 103.16 117.927C103.16 118.016 103.409 118.336 103.712 118.638C104.014 118.958 104.192 119.279 104.121 119.385C104.05 119.528 104.067 119.545 104.21 119.474C104.334 119.385 104.69 119.599 105.081 119.972C105.437 120.328 105.811 120.613 105.917 120.613C106.024 120.613 106.202 120.773 106.326 120.969C106.451 121.164 106.664 121.324 106.807 121.324C106.949 121.324 107.073 121.413 107.073 121.52C107.073 121.609 107.162 121.645 107.269 121.573C107.376 121.52 107.536 121.556 107.607 121.662C107.803 122 110.595 122.196 110.791 121.894C110.844 121.805 111.2 121.591 111.555 121.431C111.929 121.253 112.267 120.969 112.32 120.773C112.391 120.595 112.498 120.435 112.605 120.435C112.694 120.435 112.818 120.115 112.872 119.723C112.943 119.332 113.05 119.012 113.121 119.012C113.387 119.012 113.654 116.343 113.565 114.28C113.476 111.558 113.387 111.095 112.836 110.153C112.178 109.05 111.733 108.694 110.969 108.694C110.364 108.694 110.275 108.747 110.097 109.316C109.99 109.654 109.937 110.099 110.008 110.295C110.079 110.526 110.044 110.651 109.884 110.651C109.706 110.651 109.706 110.686 109.866 110.793C110.346 111.095 110.559 114.564 110.168 115.632C110.115 115.774 110.026 116.165 109.99 116.503C109.937 116.841 109.812 117.233 109.688 117.375C109.563 117.517 109.492 117.678 109.528 117.713C109.688 117.927 109.492 118.069 109.119 117.98C108.87 117.944 108.674 117.82 108.674 117.731C108.674 117.642 108.603 117.606 108.532 117.66C108.461 117.695 108.229 117.5 108.052 117.215C107.856 116.93 107.625 116.699 107.518 116.699C107.269 116.699 106.184 115.418 106.184 115.151C106.184 115.027 106.113 114.92 106.006 114.92C105.917 114.92 105.828 114.813 105.828 114.689C105.828 114.564 105.686 114.387 105.49 114.262C105.312 114.155 104.992 113.693 104.779 113.266C104.565 112.821 104.192 112.323 103.961 112.181C103.712 112.02 103.516 111.718 103.516 111.505C103.516 111.309 103.374 111.006 103.178 110.846C103 110.686 102.68 110.242 102.484 109.85C102.271 109.459 102.111 109.21 102.093 109.316C102.093 109.405 101.969 109.299 101.826 109.05C101.417 108.32 101.151 107.715 101.168 107.573C101.186 107.502 101.133 107.449 101.044 107.449C100.902 107.449 99.5142 104.834 99.5142 104.549C99.5142 104.478 99.4252 104.353 99.3185 104.282C99.194 104.211 98.9806 103.855 98.8383 103.481C98.6782 103.126 98.4826 102.823 98.3936 102.823C98.3047 102.823 98.2336 102.61 98.2514 102.343C98.2691 102.058 98.1091 101.703 97.8778 101.453C97.6466 101.24 97.4688 100.902 97.4688 100.706C97.4688 100.511 97.3976 100.315 97.3087 100.262C97.2375 100.208 97.0241 99.7279 96.8462 99.1764C96.6862 98.6249 96.4372 98.0735 96.2949 97.9312C96.1526 97.8066 96.0459 97.522 96.0459 97.3263C96.0459 97.1306 95.9747 96.9349 95.8858 96.8638C95.5656 96.6681 95.8324 96.1166 96.5972 95.4228C98.2869 93.8751 99.3719 92.7544 99.4786 92.452C99.6387 92.0072 99.4608 91.3134 99.1584 91.1889C98.5004 90.9399 94.872 92.8789 95.2633 93.2703C95.3166 93.3059 95.1743 93.3948 94.9787 93.4482C94.6941 93.5193 94.5696 93.4304 94.4273 93.1102C94.3384 92.8611 94.2672 92.5053 94.2672 92.3274C94.2672 92.1495 94.1961 91.9361 94.0894 91.8827C94.0004 91.8293 93.9115 91.6159 93.9115 91.4202C93.9115 91.1889 93.8404 91.1 93.6981 91.1889C93.5914 91.2601 93.5558 91.2423 93.6091 91.1355C93.787 90.8687 93.3957 89.7835 92.3285 87.4887C92.0262 86.8305 91.7772 86.2078 91.7772 86.1011C91.7772 86.0121 91.706 85.9232 91.6171 85.9232C91.5281 85.9232 91.3503 85.6386 91.2436 85.2828C91.1191 84.9448 90.9946 84.6957 90.9412 84.7313C90.9056 84.7847 90.6566 84.6246 90.4076 84.3933C89.9274 83.9486 89.4649 83.824 89.4649 84.1442Z" fill="black"/>
<path d="M163.367 89.2499C163.171 89.3033 162.94 89.4456 162.869 89.5879C162.798 89.7302 162.637 89.837 162.513 89.837C162.175 89.837 161.286 91.4025 160.93 92.5944C160.61 93.6262 160.468 95.5296 160.61 96.7393C160.717 97.5576 161.553 98.2692 162.228 98.1269C162.691 98.038 162.762 98.1091 163.171 98.963C163.562 99.8169 165.394 102.005 165.715 102.041C165.803 102.041 166.106 102.147 166.39 102.272C167.048 102.557 169.45 102.557 169.788 102.272C169.93 102.165 170.037 102.13 170.037 102.201C170.037 102.325 170.606 101.738 171.264 100.955C171.531 100.617 171.993 99.1231 172.118 98.1447C172.171 97.7889 172.278 97.4865 172.384 97.4865C172.473 97.4865 172.509 97.4153 172.456 97.3442C172.42 97.273 172.349 96.5259 172.331 95.7075C172.278 93.9642 171.833 92.79 170.873 91.7938C170.143 91.0467 169.894 90.8688 168.614 90.2284C168.08 89.9615 167.582 89.6947 167.529 89.6057C167.475 89.5346 167.244 89.4278 166.995 89.3567C166.426 89.2143 163.811 89.1432 163.367 89.2499ZM166.871 92.3987C167.902 92.8434 169.45 94.4445 169.61 95.245C169.752 96.0811 169.592 98.4293 169.325 99.2121C169.041 100.013 168.24 100.279 167.386 99.8347C166.817 99.5323 165.394 97.8423 165.715 97.8423C165.803 97.8423 165.75 97.7711 165.608 97.6822C165.288 97.4687 165.483 96.9528 165.946 96.8283C166.141 96.7749 166.301 96.6326 166.301 96.5081C166.301 96.3657 166.355 96.1523 166.408 95.9922C166.515 95.7075 165.003 94.0531 164.132 93.4838C163.527 93.1103 163.509 92.8256 164.043 92.3097C164.381 91.9895 164.576 91.9539 165.341 92.0429C165.839 92.0963 166.533 92.2564 166.871 92.3987Z" fill="black"/>
<path d="M22.7488 106.097C22.2863 106.311 21.6816 106.72 21.397 107.022C20.6678 107.823 19.8852 108.872 20.0275 108.872C20.0808 108.872 20.0453 108.997 19.9208 109.139C19.7963 109.281 19.7607 109.406 19.8318 109.406C19.9208 109.406 19.8318 109.566 19.654 109.762C19.4761 109.957 19.3872 110.117 19.4583 110.117C19.5117 110.117 19.4583 110.295 19.316 110.509C19.1737 110.74 19.0137 111.203 18.9425 111.541C18.8714 111.879 18.7291 112.252 18.6402 112.377C18.5512 112.501 18.5157 112.661 18.569 112.75C18.6224 112.857 18.5512 113.017 18.4089 113.142C18.2666 113.266 18.1421 113.515 18.1421 113.693C18.1421 113.889 18.0888 114.031 18.0176 114.031C17.9287 114.031 17.8576 114.423 17.8398 114.921C17.822 115.401 17.6797 116.006 17.5196 116.237C17.3595 116.486 17.2706 116.771 17.3418 116.878C17.4129 116.984 17.3595 117.18 17.2528 117.322C17.1283 117.465 17.0928 117.589 17.1639 117.589C17.235 117.589 17.1995 117.714 17.075 117.856C16.9505 117.998 16.8971 118.247 16.9683 118.39C17.0216 118.532 17.0038 118.656 16.9327 118.656C16.8615 118.656 16.7904 118.834 16.7726 119.048C16.7015 120.151 16.5236 122.001 16.4347 122.481C16.1679 124.029 16.0434 128.316 16.2212 129.864C16.2924 130.504 16.3991 131.376 16.4525 131.821C16.5058 132.265 16.6303 132.639 16.7192 132.675C16.826 132.71 16.8971 132.888 16.8971 133.066C16.8971 133.244 16.9683 133.44 17.0394 133.493C17.1283 133.546 17.1995 133.884 17.2173 134.24C17.235 134.614 17.3062 134.952 17.3773 135.005C17.4663 135.058 17.6441 135.343 17.7864 135.645C17.9287 135.93 18.1777 136.339 18.3378 136.535C18.5157 136.731 18.6757 136.962 18.7113 137.051C18.818 137.407 19.8141 138.403 20.0453 138.403C20.1698 138.403 20.2765 138.474 20.2765 138.581C20.2765 138.776 21.1836 139.648 21.397 139.648C21.4682 139.648 21.7172 139.844 21.9484 140.093C22.1796 140.342 22.4464 140.538 22.5531 140.538C22.6599 140.538 22.7666 140.591 22.8021 140.662C22.8377 140.751 23.3357 141.036 23.9227 141.338C24.5096 141.623 25.0254 141.907 25.0788 141.979C25.1321 142.032 25.6479 142.174 26.2349 142.299C26.8218 142.423 27.6756 142.637 28.138 142.779C28.6005 142.939 29.0629 143.01 29.1696 142.939C29.2586 142.886 29.3475 142.904 29.3475 143.01C29.3475 143.099 29.4898 143.153 29.6676 143.117C29.8277 143.099 30.1479 143.135 30.3435 143.224C30.557 143.295 31.0905 143.402 31.4996 143.473C31.9265 143.526 32.4245 143.615 32.6024 143.669C32.798 143.74 33.4383 143.793 34.0253 143.811C34.63 143.846 35.2881 143.935 35.4837 144.024C35.6794 144.131 36.1596 144.238 36.5509 144.256C36.9422 144.291 38.0983 144.469 39.1299 144.665C40.1615 144.86 41.2643 145.056 41.5844 145.11C41.8868 145.163 42.1536 145.27 42.1536 145.376C42.1536 145.465 42.2603 145.519 42.3848 145.501C42.7405 145.43 44.2879 145.732 44.2879 145.857C44.2879 145.928 44.5547 145.999 44.8749 146.017C45.1773 146.052 45.4796 146.141 45.4974 146.23C45.533 146.337 45.7108 146.408 45.9065 146.408C46.0844 146.408 46.2444 146.462 46.2444 146.55C46.2444 146.622 46.5646 146.817 46.9559 146.995C47.3472 147.155 47.6673 147.369 47.6673 147.476C47.6673 147.564 47.7207 147.653 47.8096 147.636C48.0586 147.6 48.7345 147.867 48.7345 148.009C48.7345 148.098 48.8946 148.205 49.0902 148.276C49.5349 148.418 51.7582 150.66 51.7582 150.962C51.7582 151.087 51.9005 151.3 52.0961 151.425C52.5586 151.763 53.0032 154.965 52.6297 155.41C52.5408 155.516 52.5052 155.73 52.5763 155.89C52.6297 156.068 52.5052 156.281 52.2206 156.459C51.9716 156.637 51.7582 156.833 51.7582 156.904C51.7582 157.206 50.94 158.292 50.4776 158.612C50.2108 158.79 49.9618 159.092 49.9084 159.27C49.8728 159.466 49.7305 159.555 49.6238 159.483C49.5171 159.43 49.4637 159.43 49.4815 159.519C49.5527 159.733 48.7701 160.48 47.8452 161.102C46.9203 161.707 46.4223 162.17 46.4223 162.419C46.4223 162.508 46.3156 162.543 46.1733 162.49C46.031 162.437 45.7642 162.543 45.5863 162.721C45.1595 163.148 44.0389 163.842 43.7899 163.842C43.6832 163.842 43.2919 164.038 42.9362 164.287C42.5805 164.536 42.2247 164.678 42.1358 164.625C42.0469 164.571 41.9757 164.607 41.9757 164.714C41.9757 164.82 41.7801 164.945 41.5489 165.016C41.2999 165.069 41.0686 165.229 41.0153 165.372C40.9619 165.514 40.7841 165.621 40.624 165.621C40.4639 165.621 40.126 165.728 39.877 165.87C39.2189 166.226 38.7208 166.386 38.4896 166.35C38.3829 166.35 38.1873 166.457 38.0628 166.599C37.9383 166.742 37.6537 166.866 37.4225 166.866C37.209 166.866 36.96 166.955 36.9067 167.044C36.8355 167.151 36.711 167.186 36.6221 167.133C36.5331 167.062 36.462 167.115 36.462 167.222C36.462 167.346 36.3375 167.382 36.1774 167.329C36.0351 167.275 35.964 167.293 36.0173 167.4C36.0707 167.507 36.0173 167.578 35.8928 167.578C35.7683 167.578 35.2703 167.773 34.7723 168.022C34.2921 168.254 33.7229 168.467 33.5095 168.467C33.3138 168.467 33.0648 168.556 32.9581 168.663C32.8514 168.77 32.5134 168.876 32.2111 168.912C31.9087 168.93 31.553 169.054 31.3929 169.179C31.2506 169.303 31.1261 169.357 31.1261 169.303C31.1261 169.25 30.8593 169.286 30.557 169.374C30.2368 169.446 29.6676 169.57 29.2763 169.606C28.9028 169.659 28.4937 169.784 28.3515 169.908C28.2092 170.033 27.8357 170.05 27.3732 169.979C26.9641 169.908 26.6796 169.926 26.7329 169.997C26.8396 170.175 25.2744 170.317 23.0689 170.335C22.2152 170.335 21.5215 170.388 21.5215 170.442C21.5215 170.513 21.2014 170.477 20.8101 170.388C20.4188 170.282 20.0986 170.139 20.0986 170.068C20.0986 169.979 19.9563 169.944 19.7963 169.979C19.6184 169.997 19.2983 169.855 19.0848 169.659C18.8536 169.463 18.6757 169.357 18.6757 169.446C18.6757 169.535 18.4801 169.41 18.2311 169.179C17.9821 168.948 17.7864 168.645 17.7864 168.521C17.7864 168.378 17.6619 168.236 17.5196 168.183C17.3773 168.111 17.3062 168.005 17.3418 167.916C17.3951 167.827 17.3062 167.56 17.1283 167.293C16.9683 167.026 16.8082 166.439 16.7726 165.994C16.7548 165.55 16.7015 164.963 16.6659 164.696C16.5592 164.002 15.7054 162.952 15.243 162.935C15.0296 162.935 14.6738 162.899 14.4604 162.846C14.247 162.81 14.0513 162.881 13.9802 163.041C13.9268 163.184 13.7489 163.308 13.6066 163.308C13.4466 163.308 13.3576 163.379 13.4288 163.468C13.4821 163.557 13.3754 163.753 13.1976 163.877C12.8241 164.144 12.326 165.372 12.664 165.158C12.8063 165.069 12.8241 165.141 12.7173 165.372C12.3616 166.172 12.7529 170.246 13.1798 170.246C13.2687 170.246 13.3399 170.388 13.3399 170.566C13.3399 170.744 13.5711 171.136 13.8734 171.42C14.158 171.705 14.407 172.025 14.407 172.114C14.407 172.292 14.6738 172.541 15.9189 173.502C16.4347 173.911 17.0216 174.195 17.1461 174.106C17.1639 174.089 17.324 174.178 17.4841 174.32C17.6619 174.444 17.7864 174.498 17.7864 174.409C17.7864 174.338 17.8931 174.391 18.0176 174.551C18.2489 174.871 19.8674 175.37 20.7212 175.405C21.8239 175.441 24.1539 175.405 25.5234 175.352C27.9424 175.227 27.8712 175.245 27.5689 175.032C27.3554 174.889 27.3554 174.854 27.6578 174.889C28.2447 174.96 29.7744 174.658 30.1301 174.409C30.3079 174.284 30.557 174.231 30.6815 174.267C30.806 174.32 30.966 174.267 31.0372 174.178C31.0905 174.071 31.215 174.018 31.304 174.071C31.3929 174.124 31.7664 174.053 32.1221 173.893C32.4779 173.751 32.8158 173.662 32.8692 173.715C32.9225 173.768 33.0648 173.715 33.1893 173.626C33.296 173.519 33.4739 173.448 33.545 173.484C33.634 173.502 33.8652 173.43 34.0608 173.324C34.2565 173.217 34.4521 173.128 34.5055 173.128C34.5589 173.128 34.8968 173.004 35.2881 172.843C35.6616 172.683 36.0351 172.559 36.1241 172.559C36.213 172.559 36.2841 172.47 36.2841 172.363C36.2841 172.256 36.4086 172.203 36.5509 172.256C36.6932 172.328 36.8533 172.292 36.9244 172.185C36.9778 172.078 37.1379 172.043 37.2624 172.096C37.3869 172.132 37.547 172.043 37.6181 171.883C37.707 171.634 37.7426 171.634 37.8849 171.847C38.0272 172.061 38.0628 172.061 38.1695 171.794C38.2228 171.634 38.4718 171.491 38.7031 171.491C38.9343 171.491 39.1299 171.385 39.1299 171.26C39.1299 171.011 40.0904 170.602 40.6596 170.602C40.8552 170.602 41.1754 170.46 41.371 170.282C41.6734 169.997 42.4204 169.606 42.4204 169.748C42.4204 169.784 42.6694 169.624 42.9718 169.41C43.2919 169.179 43.6832 168.983 43.8789 168.948C44.0567 168.93 44.5014 168.716 44.8393 168.503C45.195 168.289 45.5686 168.111 45.6753 168.111C45.782 168.111 45.9421 168.005 46.0132 167.88C46.0844 167.773 46.6713 167.311 47.3116 166.884C47.9519 166.439 48.5033 166.03 48.5211 165.941C48.5567 165.87 48.6989 165.799 48.8234 165.799C48.9479 165.799 49.0902 165.674 49.1614 165.532C49.2147 165.39 49.357 165.265 49.4815 165.265C49.606 165.265 50.2641 164.749 50.94 164.109C51.6159 163.468 52.2206 162.952 52.3096 162.952C52.3985 162.952 52.4696 162.863 52.4696 162.775C52.4696 162.668 52.7186 162.348 53.0032 162.063C53.3056 161.778 53.5368 161.458 53.5368 161.351C53.5368 161.262 53.6257 161.173 53.7147 161.173C53.9281 161.173 54.604 160.515 54.604 160.32C54.604 160.231 54.7641 159.999 54.9597 159.786C55.4044 159.306 56.0447 158.185 56.1336 157.722C56.1692 157.509 56.2759 157.331 56.3826 157.295C56.4893 157.26 56.5071 157.153 56.4538 157.046C56.3826 156.94 56.436 156.797 56.5427 156.726C57.0051 156.459 57.0763 152.279 56.6494 151.585C56.596 151.478 56.596 151.389 56.6494 151.389C56.7205 151.389 56.6316 151.265 56.4893 151.105C56.3292 150.962 56.2403 150.749 56.2937 150.66C56.3648 150.571 56.2937 150.286 56.1336 150.019C55.9913 149.735 55.7423 149.219 55.5822 148.845C55.4221 148.49 55.1909 148.187 55.0664 148.187C54.9241 148.187 54.7285 147.938 54.604 147.653C54.4795 147.351 54.2838 147.12 54.1593 147.12C54.0526 147.12 53.7502 146.853 53.519 146.533C52.8254 145.572 51.1712 144.22 50.6554 144.184C50.4954 144.184 49.855 143.758 49.446 143.384C49.0191 143.01 48.4144 142.672 48.1476 142.672C48.0231 142.672 47.8096 142.512 47.6673 142.317C47.4895 142.068 47.365 142.014 47.1871 142.174C47.027 142.299 46.9559 142.299 46.9559 142.174C46.9559 142.068 46.7247 141.943 46.4223 141.872C46.1377 141.801 45.8887 141.676 45.8887 141.569C45.8887 141.463 45.7642 141.445 45.6041 141.498C45.4618 141.552 45.1595 141.48 44.9283 141.338C44.7148 141.196 44.3235 141.053 44.0567 141.036C43.7899 141.018 43.5765 140.947 43.5765 140.893C43.5765 140.84 43.4342 140.787 43.2741 140.769C43.0963 140.751 42.5983 140.68 42.1536 140.627C41.7089 140.555 41.2109 140.502 41.0508 140.484C40.873 140.466 40.7307 140.413 40.7307 140.342C40.7307 140.217 38.6497 139.897 38.3651 139.968C38.294 139.986 38.0628 139.933 37.8849 139.826C37.5114 139.63 36.3197 139.452 35.0925 139.417C34.6656 139.417 34.3276 139.328 34.3276 139.257C34.3276 139.186 34.2743 139.132 34.2031 139.15C34.1142 139.168 33.5984 139.079 33.0292 138.954C32.4423 138.83 31.8376 138.759 31.6597 138.812C31.4641 138.865 31.304 138.83 31.2684 138.723C31.2328 138.634 30.6992 138.527 30.0945 138.492C29.472 138.456 28.8673 138.349 28.7605 138.261C28.5471 138.1 27.6756 137.816 27.3021 137.78C27.2131 137.78 27.0175 137.709 26.9108 137.638C26.7863 137.549 26.6796 137.549 26.6796 137.602C26.6796 137.673 26.555 137.585 26.395 137.442C26.2527 137.282 26.0215 137.158 25.9147 137.158C25.7902 137.158 25.4879 136.962 25.2211 136.713C24.7231 136.268 24.4385 136.126 24.6341 136.446C24.9187 136.909 24.4207 136.517 23.3713 135.432C22.7488 134.774 22.1796 134.062 22.1263 133.831C22.0551 133.6 21.9484 133.422 21.8417 133.422C21.7528 133.422 21.7172 133.351 21.7883 133.262C21.8417 133.173 21.735 132.959 21.5749 132.781C21.397 132.603 21.2903 132.461 21.3259 132.461C21.4504 132.426 21.1302 131.572 20.899 131.358C20.7745 131.234 20.6678 130.593 20.65 129.917C20.5789 127.658 20.5077 126.395 20.4544 126.306C20.4366 126.253 20.4188 126.146 20.4544 126.039C20.4721 125.95 20.5077 125.185 20.5433 124.349C20.5611 123.513 20.65 122.641 20.7034 122.392C20.7745 122.143 20.8634 121.698 20.899 121.414C20.9346 121.111 20.9879 120.88 21.0057 120.88C21.0235 120.88 21.0591 120.684 21.0769 120.435C21.1125 120.186 21.1836 119.706 21.2547 119.368C21.3081 119.03 21.397 118.496 21.4326 118.212C21.4682 117.909 21.5927 117.393 21.7172 117.055C22.0907 115.97 22.1085 115.899 22.0729 115.739C22.0373 115.597 22.3041 114.672 22.5354 114.031C22.5887 113.889 22.6776 113.604 22.6954 113.409C22.8021 112.804 24.0828 110.295 24.2606 110.349C24.3673 110.384 24.4563 110.687 24.4918 111.025C24.5274 111.363 24.6519 111.914 24.7408 112.252C24.8476 112.59 24.9543 113.159 25.0076 113.497C25.0432 113.835 25.1321 114.405 25.2033 114.743C25.2566 115.081 25.3278 115.525 25.3456 115.721C25.4345 116.486 25.6657 118.781 25.7013 119.368C25.808 120.578 25.9859 122.481 26.057 123.104C26.0926 123.442 26.1815 124.153 26.2349 124.687C26.306 125.221 26.4305 125.861 26.5373 126.11C26.6262 126.359 26.7151 126.608 26.7151 126.662C26.8218 127.249 27.9424 128.974 28.227 128.974C28.3337 128.974 28.4582 129.046 28.4937 129.134C28.5293 129.241 28.9206 129.366 29.3653 129.419C30.0767 129.508 30.2546 129.472 30.6815 129.099C31.0728 128.761 31.1617 128.583 31.055 128.209C31.0016 127.943 30.7704 127.694 30.5392 127.64C30.3257 127.569 29.8989 127.249 29.5965 126.929C29.1341 126.448 29.0096 126.11 28.8317 124.936C28.7072 124.171 28.636 122.73 28.6716 121.716C28.7072 120.72 28.6894 119.902 28.636 119.902C28.5827 119.902 28.5293 118.959 28.5293 117.803C28.4937 114.458 28.1558 110.527 27.9068 110.367C27.8179 110.313 27.7467 109.922 27.7467 109.477C27.7467 109.05 27.6578 108.694 27.5511 108.694C27.4621 108.694 27.4088 108.623 27.4799 108.534C27.5333 108.445 27.4444 108.25 27.3021 108.089C27.1598 107.947 27.0531 107.751 27.0708 107.68C27.1598 107.413 26.2527 106.488 25.6124 106.15C24.6875 105.688 23.6915 105.67 22.7488 106.097Z" fill="black"/>
<path d="M87.6508 106.79C86.7437 107.538 86.1745 109.743 86.2279 112.252C86.2456 113.123 86.0678 113.337 85.3563 113.195C85.0895 113.141 84.5737 113.212 84.1824 113.337C83.8089 113.461 83.3821 113.55 83.222 113.533C83.0619 113.497 82.8307 113.604 82.7062 113.764C82.5817 113.906 82.3505 114.031 82.1726 114.031C81.9947 114.031 81.5501 114.351 81.1766 114.742C80.3228 115.614 79.8604 116.948 80.0382 117.962C80.1805 118.727 80.8742 119.545 81.3722 119.545C81.5145 119.545 81.639 119.617 81.639 119.706C81.639 119.901 83.6311 120.15 84.0757 120.008C84.2536 119.955 84.4848 119.688 84.6093 119.439C84.805 119.012 84.7694 118.923 84.3069 118.46C84.0402 118.176 83.6844 117.944 83.5421 117.944C83.3998 117.944 83.1864 117.838 83.0797 117.695C82.9196 117.5 82.9374 117.393 83.222 117.197C83.4354 117.055 83.5421 116.877 83.4532 116.788C83.3821 116.717 83.5421 116.699 83.8267 116.735C84.0935 116.788 84.3603 116.753 84.4137 116.664C84.467 116.575 84.9117 116.521 85.3919 116.557C86.1389 116.61 86.2634 116.664 86.1923 116.913C86.1567 117.091 86.1745 117.233 86.2456 117.233C86.3346 117.233 86.3879 117.678 86.3702 118.211C86.3524 118.745 86.4235 119.19 86.4947 119.19C86.5836 119.19 86.6192 119.403 86.6014 119.67C86.5302 120.417 86.8148 121.858 87.0282 121.858C87.135 121.858 87.1527 121.912 87.0994 121.965C87.046 122.036 87.0994 122.25 87.2417 122.463C87.384 122.659 87.5085 122.961 87.5085 123.139C87.5085 123.317 87.6686 123.619 87.8642 123.815C88.0598 124.011 88.1666 124.171 88.0954 124.171C88.0065 124.171 88.0954 124.26 88.2733 124.366C88.4334 124.455 88.5757 124.669 88.5757 124.811C88.5757 124.954 88.6468 125.042 88.7357 124.971C88.8424 124.918 88.9669 124.989 89.0559 125.131C89.127 125.274 89.6073 125.576 90.0875 125.825C90.8523 126.199 91.1547 126.252 92.2218 126.181C92.9155 126.128 93.5202 126.003 93.5914 125.879C93.6625 125.772 93.7337 125.754 93.7337 125.843C93.7337 125.932 93.8582 125.896 94.0005 125.772C94.1428 125.647 94.2673 125.612 94.2673 125.665C94.2673 125.736 94.4629 125.594 94.7119 125.345C94.9609 125.096 95.1566 124.811 95.1566 124.704C95.1566 124.616 95.2455 124.527 95.37 124.527C95.4767 124.527 95.5123 124.473 95.4589 124.402C95.3878 124.349 95.4767 124.189 95.6368 124.082C96.0281 123.797 96.117 121.342 95.7969 120.524C95.6724 120.221 95.5834 119.706 95.6012 119.35C95.6012 118.905 95.5301 118.727 95.3878 118.781C95.2633 118.834 95.1566 118.745 95.1566 118.585C95.1566 118.282 95.0321 118.087 94.4096 117.393C94.2317 117.215 94.0894 116.984 94.0894 116.877C94.0894 116.788 93.7692 116.486 93.3779 116.237C92.9866 115.97 92.6665 115.65 92.6665 115.525C92.6665 115.383 92.542 115.276 92.3997 115.276C92.2574 115.276 92.1329 115.187 92.1329 115.08C92.1329 114.991 92.0618 114.938 91.9906 114.991C91.9195 115.027 91.4926 114.885 91.0657 114.671C90.3009 114.298 90.2653 114.226 90.2476 113.479C90.1053 107.715 89.8207 106.452 88.7179 106.417C88.3622 106.417 87.9531 106.559 87.6508 106.79ZM91.2614 119.065C91.795 119.528 92.3997 120.791 92.542 121.716C92.6309 122.267 92.5776 122.392 92.293 122.481C91.8661 122.623 91.2436 122.143 91.2436 121.68C91.2436 121.52 91.1547 121.307 91.0302 121.182C90.9057 121.058 90.8701 120.969 90.9234 120.969C90.9768 120.969 90.8879 120.453 90.71 119.812C90.3721 118.549 90.4788 118.371 91.2614 119.065Z" fill="black"/>
<path d="M46.4578 110.687C46.3511 110.793 46.2443 110.829 46.2443 110.722C46.2443 110.633 46.0843 110.829 45.8708 111.167C45.6752 111.505 45.5507 111.914 45.5862 112.11C45.6396 112.288 45.604 112.43 45.5151 112.43C45.4084 112.43 45.4084 112.554 45.5151 112.732C45.604 112.91 45.6752 113.106 45.693 113.177C45.7107 113.266 45.7285 113.355 45.7285 113.408C45.7463 113.462 45.7641 113.551 45.7819 113.622C45.7997 113.711 45.8886 113.995 45.9953 114.298C46.2265 114.885 46.689 116.379 46.689 116.522C46.689 116.575 46.7423 116.682 46.7957 116.788C46.8669 116.877 46.9736 117.251 47.0447 117.589C47.1159 117.927 47.2937 118.372 47.4182 118.567C47.5605 118.763 47.6672 119.083 47.6672 119.315C47.6672 119.528 47.7384 119.741 47.8273 119.795C47.8985 119.848 48.0407 120.151 48.1119 120.471C48.183 120.791 48.272 121.111 48.2898 121.182C48.3075 121.271 48.3431 121.414 48.3609 121.52C48.3609 121.609 48.4676 121.645 48.5921 121.574C48.6988 121.503 48.7344 121.52 48.6811 121.645C48.6099 121.734 48.6633 122.054 48.8056 122.339C49.1969 123.121 49.4992 123.869 49.5704 124.26C49.6059 124.456 49.7127 124.634 49.8016 124.669C49.9083 124.705 49.9794 124.865 49.9794 125.043C49.9794 125.203 50.1751 125.737 50.4241 126.235L50.851 127.106L49.9617 127.942C49.4814 128.423 49.1435 128.796 49.2146 128.796C49.2858 128.796 49.1791 128.921 48.9834 129.063C47.6494 129.988 48.3075 132.603 49.7127 131.963C49.9617 131.856 50.1573 131.625 50.1573 131.465C50.1573 131.305 50.5308 130.753 50.9755 130.255L51.7936 129.33L52.1316 129.757C52.3272 129.988 52.4695 130.273 52.4695 130.38C52.4695 130.486 52.5585 130.575 52.6474 130.575C52.7541 130.575 52.8253 130.771 52.8253 131.02C52.8253 131.269 52.8964 131.465 52.9853 131.465C53.0743 131.465 53.2343 131.696 53.3411 131.998C53.43 132.283 53.6078 132.532 53.7324 132.532C53.8569 132.532 53.8924 132.586 53.8391 132.639C53.7857 132.71 53.8746 132.959 54.0703 133.208C54.2659 133.439 54.3727 133.706 54.3193 133.795C54.2659 133.884 54.3193 133.955 54.4082 133.955C54.5149 133.955 54.6039 134.08 54.6039 134.222C54.6039 134.364 54.764 134.631 54.9774 134.827C55.3331 135.147 55.5999 135.592 56.3291 136.98C56.507 137.318 56.9517 137.905 57.3252 138.26C57.6809 138.616 57.9833 138.972 57.9833 139.043C57.9833 139.203 59.4951 141.107 60.2421 141.872C60.4556 142.103 60.5801 142.334 60.5089 142.405C60.4378 142.477 60.4911 142.512 60.6334 142.459C60.7757 142.423 61.1314 142.619 61.4338 142.886C61.7362 143.153 62.0741 143.384 62.1986 143.384C62.3231 143.384 62.501 143.526 62.5899 143.704C62.9278 144.327 64.6887 145.003 66.1649 145.092C67.0898 145.145 67.4989 145.074 68.2637 144.718C68.7795 144.487 69.242 144.167 69.2953 144.024C69.3487 143.864 69.491 143.793 69.5977 143.864C69.7044 143.935 69.7222 143.882 69.6511 143.757C69.5621 143.633 69.6511 143.384 69.8467 143.17C70.0246 142.975 70.1491 142.779 70.1313 142.743C70.1135 142.708 70.2202 142.388 70.3625 142.05C70.6827 141.285 71.1451 138.723 71.2518 137.246C71.2874 136.659 71.3407 135.823 71.3585 135.414C71.3941 134.987 71.3585 134.596 71.2874 134.56C71.1985 134.507 71.1451 134.044 71.1451 133.546C71.1273 132.568 70.7538 131.251 70.4337 131.145C70.3447 131.109 70.2558 131.002 70.2558 130.896C70.2558 130.629 69.5443 130.042 69.0641 129.935C68.3704 129.757 67.8191 130.006 67.6234 130.575C67.4989 130.931 67.4811 131.109 67.6056 131.109C67.7124 131.109 67.7479 131.269 67.6768 131.447C67.6234 131.643 67.659 131.838 67.7479 131.892C67.908 131.998 68.1748 133.279 68.1926 134.044C68.1926 134.347 67.9791 137.211 67.8546 138.492C67.8369 138.83 67.7479 139.079 67.3922 139.968C67.3033 140.199 67.2321 140.537 67.2321 140.715C67.2321 140.911 67.161 141.071 67.0543 141.071C66.9653 141.071 66.8764 141.196 66.8764 141.338C66.8764 141.48 66.7697 141.605 66.663 141.605C66.1649 141.605 65.0444 141.107 64.8843 140.822C64.7954 140.662 64.5998 140.537 64.4575 140.537C64.084 140.537 60.5445 136.855 60.6868 136.624C60.7224 136.57 60.6334 136.41 60.5089 136.268C60.0998 135.77 58.5169 133.582 58.5169 133.493C58.5169 133.439 58.2678 133.048 57.9655 132.603C57.6809 132.176 57.4853 131.732 57.5386 131.643C57.592 131.536 57.5386 131.411 57.3963 131.358C57.254 131.305 56.9517 130.913 56.7382 130.486C56.507 130.042 56.258 129.739 56.1513 129.81C56.0446 129.864 56.0268 129.828 56.0801 129.739C56.1513 129.632 56.009 129.259 55.76 128.903C55.511 128.547 55.2798 128.067 55.2086 127.818C55.1553 127.587 54.9952 127.302 54.8529 127.177C54.426 126.839 54.5683 126.573 55.6888 125.523C56.2936 124.972 56.7204 124.527 56.6493 124.527C56.5959 124.527 56.7738 124.331 57.0584 124.082C57.343 123.851 57.6809 123.406 57.7876 123.121C58.0722 122.463 57.9833 121.592 57.6275 121.574C57.1295 121.556 55.7244 122.428 54.7106 123.388C53.7324 124.296 53.679 124.331 53.3766 124.029C53.092 123.762 52.4517 122.321 52.4162 121.912C52.4162 121.841 52.2917 121.663 52.1672 121.538C52.0427 121.414 51.9359 121.147 51.9359 120.969C51.9359 120.791 51.8648 120.595 51.7759 120.542C51.6869 120.489 51.5624 120.222 51.4913 119.955C51.4379 119.688 51.2778 119.35 51.1711 119.226C51.0644 119.083 50.9577 118.852 50.9399 118.692C50.9043 118.532 50.8154 118.247 50.7087 118.034C50.6198 117.838 50.4063 117.198 50.2285 116.61C50.0684 116.023 49.7304 115.205 49.4814 114.778C49.2502 114.369 49.1079 114.031 49.1613 114.031C49.2146 114.031 49.0723 113.586 48.8233 113.053C48.5921 112.519 48.4498 112.074 48.5032 112.074C48.5565 112.074 48.4854 111.932 48.3253 111.754C48.183 111.594 48.023 111.327 47.9874 111.185C47.8985 110.758 47.436 110.491 47.0981 110.669C46.9202 110.776 46.7779 110.758 46.7423 110.651C46.7068 110.526 46.6001 110.544 46.4578 110.687Z" fill="black"/>
<path d="M74.1332 120.915C73.2083 121.218 72.6569 121.769 72.1945 122.819C71.8387 123.637 71.8032 124.028 71.8032 127.017C71.7854 130.041 71.8921 131.447 72.1767 131.909C72.319 132.14 72.3901 132.496 72.4257 133.012C72.4257 133.243 72.4968 133.421 72.568 133.421C72.6391 133.421 72.7458 133.635 72.7992 133.902C72.9415 134.702 73.3683 135.698 73.7241 136.09C73.9019 136.285 73.9909 136.446 73.9375 136.446C73.6351 136.446 74.898 137.495 75.645 137.851C76.3386 138.189 76.641 138.242 77.4236 138.136C78.5086 137.975 78.8643 137.815 79.469 137.175C80.1627 136.446 81.0698 134.311 81.1765 133.137C81.2299 132.55 81.2654 132.034 81.2654 131.98C81.2832 131.856 82.7061 132.283 83.2753 132.55C83.6666 132.745 84.2002 132.763 84.378 132.585C84.4492 132.514 84.7871 132.478 85.1251 132.514C85.463 132.532 85.8721 132.461 86.0321 132.318C86.1922 132.194 86.3523 132.105 86.3879 132.14C86.5302 132.247 87.4728 131.625 88.042 131.038C88.5222 130.522 88.6645 130.237 88.6645 129.703C88.6645 128.351 87.9531 128.12 86.2812 128.956C85.712 129.241 85.0361 129.436 84.8049 129.419C84.0934 129.33 83.0796 128.796 82.9729 128.422C82.9018 128.245 82.7773 128.084 82.6883 128.084C82.5994 128.084 82.5283 127.818 82.5283 127.497C82.5283 126.946 81.9413 125.879 81.301 125.22C81.1409 125.06 80.8919 124.74 80.7496 124.509C80.3406 123.886 77.7793 121.307 77.6015 121.36C77.5303 121.378 77.2991 121.307 77.1035 121.2C76.9078 121.093 76.3564 120.986 75.8584 120.951C75.3782 120.915 74.9335 120.844 74.8802 120.791C74.8268 120.737 74.4889 120.791 74.1332 120.915ZM75.307 124.74C75.2359 124.865 75.2537 124.882 75.3782 124.811C75.5027 124.74 75.6806 124.882 75.8051 125.185C75.9296 125.452 76.1252 125.754 76.2497 125.825C76.3742 125.896 76.4809 126.092 76.4809 126.217C76.4809 126.359 76.5343 126.483 76.6232 126.483C76.6944 126.483 76.8544 126.732 76.979 127.017C77.1212 127.32 77.3169 127.658 77.4236 127.782C77.9394 128.334 78.4196 129.134 78.4196 129.436C78.4552 131.553 78.3841 132.39 78.0639 133.35C77.8683 133.955 77.6015 134.578 77.477 134.773C77.2635 135.058 77.1924 135.058 76.9256 134.845C76.6588 134.631 76.0896 133.706 76.0185 133.368C76.0007 133.297 75.9651 133.208 75.9474 133.155C75.9296 133.101 75.894 133.012 75.8762 132.923C75.8584 132.852 75.6983 132.372 75.5383 131.838C75.3782 131.304 75.2359 130.575 75.2359 130.219C75.2359 129.863 75.1825 129.508 75.1114 129.436C74.9335 129.276 74.8624 125.38 75.0047 124.544C75.0936 124.064 75.147 124.011 75.2715 124.242C75.3604 124.402 75.3782 124.616 75.307 124.74Z" fill="black"/>
<path d="M195.097 144.771C194.902 144.896 194.759 145.127 194.759 145.269C194.759 145.412 194.653 145.5 194.546 145.465C194.404 145.447 194.333 145.589 194.368 145.856C194.386 146.105 194.333 146.337 194.244 146.408C194.119 146.479 194.155 146.835 194.297 147.422C194.582 148.489 194.564 150.891 194.261 151.62C194.137 151.905 194.048 152.207 194.048 152.314C194.048 152.403 193.799 152.812 193.479 153.203L192.91 153.915L191.843 153.826C191.238 153.773 190.562 153.648 190.313 153.541C189.619 153.221 188.25 152.403 187.876 152.065C187.432 151.673 185.582 151.158 185.066 151.282C184.23 151.496 183.928 153.008 184.568 153.666C185.102 154.2 185.831 154.591 186.293 154.591C186.542 154.591 186.773 154.662 186.845 154.769C186.898 154.858 187.592 155.249 188.392 155.658C191.184 157.064 193.906 156.975 195.311 155.445C195.56 155.178 195.862 154.947 195.969 154.947C196.076 154.947 196.129 154.822 196.058 154.662C196.005 154.52 196.129 154.217 196.378 153.951C196.805 153.488 196.823 153.435 197.001 152.492C197.072 152.172 197.196 151.94 197.321 151.976C197.587 152.065 198.139 153.203 197.997 153.417C197.943 153.506 197.997 153.524 198.085 153.47C198.352 153.31 199.17 154.111 199.313 154.662C199.366 154.911 199.526 155.125 199.651 155.125C199.757 155.125 200.006 155.445 200.184 155.836C200.362 156.228 200.576 156.548 200.664 156.548C200.753 156.548 200.771 156.619 200.718 156.726C200.664 156.815 200.682 156.904 200.771 156.904C200.86 156.904 201.038 157.099 201.163 157.348C201.287 157.58 201.447 157.74 201.518 157.704C201.589 157.669 201.749 157.829 201.874 158.06C201.998 158.309 202.176 158.505 202.265 158.505C202.354 158.505 202.39 158.576 202.319 158.665C202.265 158.754 202.354 158.949 202.496 159.092C202.639 159.252 202.763 159.519 202.763 159.697C202.763 159.946 202.799 159.963 202.923 159.768C203.048 159.572 203.101 159.59 203.19 159.857C203.244 160.052 203.475 160.39 203.688 160.639C203.919 160.888 204.204 161.298 204.346 161.564C204.489 161.849 204.666 162.063 204.738 162.063C204.826 162.063 204.844 162.169 204.791 162.312C204.738 162.454 204.773 162.614 204.88 162.685C204.987 162.739 205.075 162.703 205.075 162.614C205.075 162.507 205.164 162.418 205.271 162.418C205.36 162.418 205.413 162.49 205.342 162.578C205.289 162.667 205.324 162.792 205.431 162.863C205.538 162.934 205.574 163.059 205.52 163.148C205.449 163.237 205.538 163.308 205.68 163.308C205.84 163.308 205.947 163.361 205.929 163.432C205.894 163.521 206.143 163.948 206.463 164.411C206.765 164.873 207.032 165.318 207.032 165.407C207.032 165.496 207.139 165.674 207.281 165.798C207.423 165.905 207.494 166.136 207.441 166.279C207.37 166.474 207.405 166.528 207.53 166.439C207.654 166.368 207.797 166.421 207.85 166.581C207.904 166.741 208.046 166.812 208.153 166.741C208.241 166.688 208.277 166.723 208.206 166.83C208.153 166.937 208.188 167.115 208.313 167.257C208.437 167.382 208.739 167.791 208.988 168.147C209.237 168.52 209.486 168.823 209.575 168.823C209.647 168.823 209.7 168.947 209.7 169.107C209.7 169.25 209.789 169.321 209.878 169.267C209.984 169.214 210.056 169.321 210.056 169.499C210.056 169.694 210.18 169.89 210.322 169.961C210.465 170.015 210.589 170.175 210.589 170.317C210.589 170.459 210.874 170.833 211.212 171.153C211.532 171.473 211.781 171.793 211.745 171.865C211.639 172.007 212.635 173.288 212.83 173.27C212.901 173.27 212.99 173.377 213.026 173.537C213.062 173.679 213.097 173.928 213.133 174.071C213.168 174.231 213.257 174.355 213.364 174.355C213.542 174.373 214.289 175.476 214.146 175.511C214.093 175.529 214.2 175.689 214.36 175.867C214.52 176.063 214.68 176.33 214.716 176.472C214.751 176.614 214.947 176.917 215.143 177.148C215.356 177.379 215.712 177.984 215.943 178.5C216.174 178.998 216.423 179.425 216.512 179.461C216.583 179.496 216.637 179.639 216.637 179.781C216.637 179.923 216.708 180.03 216.779 180.03C216.868 180.03 217.046 180.368 217.17 180.759C217.312 181.169 217.561 181.667 217.722 181.898C217.899 182.111 218.059 182.396 218.095 182.538C218.131 182.663 218.326 182.983 218.557 183.232C218.913 183.624 219.038 183.962 218.967 184.335C218.967 184.424 219.02 184.477 219.109 184.477C219.304 184.477 220.105 186.274 220.034 186.594C220.016 186.719 220.069 186.772 220.176 186.701C220.283 186.648 220.372 186.737 220.372 186.915C220.372 187.092 220.496 187.395 220.638 187.573C220.781 187.768 220.905 188.106 220.905 188.32C220.905 188.533 220.959 188.747 221.048 188.782C221.225 188.854 221.901 190.206 221.83 190.384C221.777 190.579 222.328 191.647 222.577 191.807C222.702 191.896 222.702 191.949 222.524 191.949C222.328 191.949 222.328 192.002 222.506 192.216C222.631 192.358 222.666 192.483 222.595 192.483C222.524 192.483 222.542 192.589 222.631 192.696C222.737 192.821 222.862 193.23 222.933 193.586C223.004 193.959 223.129 194.262 223.235 194.262C223.342 194.262 223.378 194.333 223.324 194.422C223.253 194.511 223.306 194.813 223.413 195.098C223.627 195.649 223.751 196.236 223.822 197.019C223.84 197.304 223.911 197.837 223.982 198.175C224.16 199.011 224.267 200.986 224.142 201.111C224.089 201.164 224.018 201.555 224 202C223.964 202.943 223.609 203.904 223.342 203.744C223.235 203.672 223.2 203.779 223.271 204.046C223.395 204.544 222.773 205.54 222.453 205.362C222.328 205.291 222.293 205.291 222.364 205.38C222.613 205.665 221.866 206.554 221.083 206.928C220.638 207.124 220.087 207.39 219.838 207.515C219.287 207.782 218.486 207.995 217.793 208.049C217.508 208.084 217.135 208.138 216.992 208.191C216.37 208.404 215.712 208.493 215.534 208.387C215.409 208.315 214.716 208.262 213.986 208.262C213.044 208.262 212.51 208.173 212.19 207.977C211.852 207.764 211.799 207.746 211.923 207.942C212.03 208.138 211.994 208.173 211.781 208.084C211.603 208.031 211.479 208.049 211.479 208.138C211.479 208.333 210.909 208.155 210.732 207.888C210.643 207.746 210.589 207.764 210.589 207.906C210.589 208.102 210.162 208.066 209.522 207.835C209.38 207.782 209.077 207.746 208.864 207.764C208.668 207.782 208.437 207.711 208.366 207.604C208.313 207.515 208.188 207.462 208.099 207.515C208.01 207.568 207.601 207.497 207.174 207.337C206.747 207.195 206 207.035 205.538 206.999C205.058 206.946 204.56 206.803 204.417 206.679C204.275 206.554 203.937 206.43 203.688 206.394C203.421 206.359 203.137 206.27 203.03 206.181C202.923 206.092 202.532 205.985 202.141 205.949C201.429 205.878 201.074 205.772 200.273 205.416C200.024 205.309 199.775 205.238 199.704 205.256C199.615 205.273 199.562 205.22 199.562 205.113C199.562 205.024 199.331 204.989 198.993 205.06C198.566 205.149 198.477 205.113 198.584 204.935C198.69 204.758 198.655 204.722 198.441 204.811C198.263 204.864 198.139 204.864 198.139 204.793C198.139 204.722 197.997 204.651 197.836 204.633C197.089 204.562 196.325 204.402 196.022 204.242C195.844 204.135 195.649 204.117 195.578 204.17C195.524 204.224 195.471 204.188 195.471 204.082C195.471 203.957 195.311 203.868 195.115 203.868C194.92 203.868 194.759 203.779 194.759 203.672C194.759 203.566 194.617 203.53 194.439 203.583C194.244 203.655 193.835 203.583 193.497 203.441C192.927 203.21 191.949 203.21 191.095 203.406C190.544 203.548 189.833 205.291 190.331 205.291C190.42 205.291 190.491 205.451 190.491 205.629C190.491 205.825 190.615 206.092 190.758 206.234C190.9 206.376 190.953 206.554 190.882 206.625C190.811 206.714 190.846 206.714 190.953 206.661C191.078 206.59 191.256 206.661 191.38 206.803C191.505 206.946 191.718 207.07 191.843 207.07C191.985 207.07 192.092 207.159 192.092 207.248C192.092 207.355 192.198 207.426 192.323 207.39C192.429 207.355 192.785 207.515 193.105 207.746C193.408 207.96 193.763 208.138 193.906 208.138C194.03 208.138 194.297 208.262 194.475 208.404C194.653 208.547 194.866 208.618 194.937 208.582C195.008 208.529 195.471 208.671 195.933 208.885C196.414 209.08 196.823 209.258 196.84 209.24C196.858 209.24 197.374 209.418 197.979 209.65C198.584 209.899 199.135 210.041 199.206 210.005C199.277 209.952 199.402 210.041 199.455 210.201C199.508 210.343 199.633 210.432 199.722 210.361C199.811 210.308 199.935 210.326 199.989 210.415C200.024 210.486 200.309 210.575 200.593 210.592C200.896 210.61 201.34 210.753 201.607 210.877C201.874 211.019 202.212 211.091 202.336 211.037C202.479 210.984 202.585 211.037 202.585 211.144C202.585 211.251 202.781 211.34 203.012 211.34C203.261 211.34 203.51 211.429 203.581 211.535C203.635 211.642 203.848 211.695 204.026 211.642C204.204 211.589 204.364 211.624 204.4 211.731C204.435 211.82 204.631 211.909 204.844 211.927C205.075 211.927 205.289 212.051 205.324 212.176C205.378 212.3 205.502 212.407 205.609 212.407C205.716 212.407 205.751 212.318 205.698 212.229C205.52 211.944 206.072 212.033 206.321 212.318C206.498 212.532 206.587 212.549 206.676 212.389C206.783 212.247 206.907 212.247 207.156 212.389C207.904 212.781 209.451 213.03 212.35 213.19C213.168 213.243 213.72 213.368 213.809 213.51C213.915 213.67 213.969 213.652 213.986 213.385C213.986 213.19 214.04 213.136 214.093 213.261C214.146 213.421 214.253 213.439 214.395 213.314C214.538 213.19 214.822 213.19 215.178 213.296C215.534 213.385 215.747 213.385 215.747 213.279C215.747 213.083 216.761 213.119 217.206 213.332C217.401 213.421 217.526 213.385 217.597 213.208C217.65 213.047 217.917 212.941 218.273 212.958C218.593 212.976 219.18 212.887 219.571 212.763C219.963 212.656 220.496 212.514 220.781 212.46C221.048 212.407 221.261 212.3 221.261 212.211C221.261 212.122 221.403 212.051 221.599 212.051C221.777 212.051 222.133 211.891 222.399 211.678C222.648 211.482 222.933 211.357 223.022 211.429C223.129 211.482 223.253 211.429 223.342 211.286C223.413 211.162 223.68 210.93 223.929 210.77C225.281 209.881 227.308 207.408 227.308 206.643C227.308 206.519 227.504 206.216 227.735 205.985C228.482 205.22 228.642 204.082 228.624 199.937C228.624 197.037 228.393 195.24 227.913 194.155C227.789 193.853 227.682 193.301 227.7 192.945C227.717 192.589 227.628 192.198 227.522 192.091C227.415 191.985 227.379 191.789 227.433 191.664C227.486 191.522 227.433 191.415 227.326 191.415C227.219 191.415 227.13 191.22 227.13 190.988C227.13 190.739 227.059 190.508 226.97 190.437C226.881 190.384 226.704 190.046 226.579 189.672C226.472 189.316 226.223 188.658 226.028 188.231C225.832 187.804 225.654 187.324 225.619 187.164C225.512 186.612 225.174 185.865 224.907 185.616C224.765 185.474 224.694 185.242 224.747 185.1C224.818 184.958 224.729 184.78 224.569 184.726C224.409 184.673 224.285 184.46 224.285 184.282C224.285 184.104 224.196 183.944 224.089 183.944C224 183.944 223.947 183.873 224.018 183.784C224.071 183.695 224.036 183.57 223.947 183.499C223.858 183.446 223.804 183.25 223.84 183.054C223.876 182.841 223.84 182.734 223.769 182.787C223.449 182.965 222.915 181.809 222.88 180.866C222.862 180.688 222.791 180.599 222.684 180.653C222.595 180.706 222.506 180.653 222.506 180.51C222.506 180.368 222.346 180.083 222.168 179.87C221.972 179.639 221.848 179.372 221.901 179.229C221.955 179.105 221.866 178.963 221.723 178.909C221.457 178.803 220.799 177.717 220.994 177.717C221.065 177.717 220.976 177.593 220.834 177.433C220.674 177.29 220.585 177.095 220.638 177.006C220.692 176.935 220.603 176.757 220.443 176.632C220.176 176.419 219.607 175.458 219.696 175.369C219.767 175.28 219.038 174.071 218.824 173.928C218.7 173.857 218.593 173.679 218.593 173.555C218.593 173.43 218.397 173.092 218.166 172.825C217.917 172.541 217.757 172.256 217.81 172.167C217.864 172.096 217.793 172.025 217.65 172.025C217.508 172.025 217.295 171.811 217.188 171.527C216.939 170.851 216.405 170.015 216.156 169.837C216.032 169.765 215.925 169.57 215.925 169.445C215.925 169.303 215.854 169.178 215.747 169.178C215.658 169.178 215.534 168.983 215.463 168.751C215.409 168.502 215.249 168.271 215.107 168.218C214.965 168.164 214.858 168.022 214.858 167.898C214.858 167.773 214.538 167.328 214.146 166.901C213.755 166.474 213.435 166.047 213.435 165.958C213.435 165.763 212.617 164.66 211.888 163.859C211.656 163.628 211.479 163.29 211.479 163.112C211.479 162.934 211.301 162.65 211.069 162.472C210.856 162.294 210.536 161.867 210.376 161.529C210.216 161.191 209.913 160.8 209.7 160.675C209.398 160.497 208.971 159.803 208.917 159.376C208.9 159.323 208.597 158.967 208.241 158.576C207.868 158.202 207.601 157.793 207.654 157.669C207.69 157.544 207.619 157.491 207.459 157.562C207.317 157.615 207.21 157.544 207.21 157.384C207.21 157.224 207.103 157.028 206.979 156.957C206.854 156.886 206.445 156.37 206.054 155.836C205.662 155.303 205.218 154.733 205.04 154.573C204.862 154.413 204.72 154.2 204.72 154.075C204.72 153.968 204.631 153.879 204.524 153.879C204.435 153.879 204.222 153.577 204.079 153.221C203.884 152.794 203.759 152.652 203.67 152.794C203.528 153.008 203.386 152.865 203.315 152.403C203.315 152.332 203.066 152.029 202.763 151.709C202.479 151.407 202.23 151.051 202.23 150.926C202.23 150.784 202.159 150.677 202.052 150.677C201.767 150.677 201.163 149.983 201.163 149.645C201.145 149.272 200.718 148.685 200.576 148.827C200.522 148.898 200.327 148.614 200.149 148.205C199.971 147.813 199.74 147.475 199.615 147.475C199.508 147.475 199.348 147.315 199.295 147.102C199.224 146.906 198.904 146.461 198.566 146.105C198.228 145.767 197.961 145.429 197.961 145.34C197.961 145.091 196.645 144.54 196.022 144.54C195.702 144.54 195.275 144.647 195.097 144.771Z" fill="black"/>
<path d="M173.309 157.455C173.256 157.544 173.078 157.615 172.918 157.615C172.58 157.633 171.815 158.202 171.815 158.469C171.815 158.558 171.655 158.772 171.442 158.967C170.997 159.359 170.73 159.821 170.641 160.355C170.606 160.551 170.481 161.102 170.374 161.582C170.125 162.525 170.357 165.123 170.748 166.065C170.89 166.35 170.997 166.635 171.015 166.688C171.157 167.239 171.371 167.702 171.566 167.844C171.691 167.933 171.904 168.236 172.046 168.503C172.349 169.107 173.54 170.424 173.772 170.424C173.861 170.424 173.95 170.495 173.95 170.602C173.95 170.691 174.056 170.78 174.199 170.78C174.536 170.78 174.697 171.278 174.43 171.491C173.558 172.238 173.345 172.345 172.704 172.345C172.313 172.345 171.957 172.274 171.904 172.185C171.833 172.096 171.708 172.06 171.62 172.114C171.531 172.185 171.459 172.132 171.459 172.007C171.459 171.883 171.406 171.829 171.353 171.9C171.299 171.954 171.157 171.936 171.033 171.847C170.926 171.74 170.57 171.456 170.232 171.189C169.894 170.922 169.396 170.388 169.112 169.979C168.827 169.588 168.543 169.303 168.489 169.321C168.418 169.374 167.262 168.325 166.533 167.542C166.408 167.417 166.159 167.186 165.999 167.026C165.608 166.688 164.452 166.261 164.63 166.528C164.683 166.635 164.63 166.688 164.505 166.67C164.06 166.599 163.278 166.901 163.278 167.151C163.278 167.293 163.135 167.524 162.975 167.666C162.726 167.88 162.655 168.182 162.691 169.054C162.833 174.177 162.869 177.593 162.762 177.362C162.566 176.881 161.962 176.028 161.73 175.885C161.606 175.814 161.499 175.672 161.499 175.565C161.499 175.067 159.027 172.221 158.031 171.562C157.746 171.367 157.213 171.189 156.857 171.153C156.323 171.118 156.128 171.207 155.736 171.669C155.132 172.398 155.149 172.754 155.808 173.733C156.377 174.551 156.821 174.871 157.355 174.871C157.551 174.871 157.924 175.191 158.226 175.601C158.511 175.992 158.849 176.419 158.974 176.561C159.08 176.686 159.187 176.864 159.187 176.953C159.187 177.024 159.383 177.308 159.614 177.557C159.845 177.806 160.094 178.198 160.165 178.411C160.29 178.82 160.592 179.247 161.197 179.888C161.357 180.066 161.499 180.297 161.499 180.404C161.499 180.599 161.908 181.115 162.726 181.916C162.958 182.147 163.42 182.378 163.74 182.45C164.256 182.539 164.434 182.485 164.807 182.076C165.394 181.436 165.554 181.026 165.59 179.852C165.626 178.643 165.732 176.917 165.768 176.917C165.768 176.917 165.803 176.49 165.821 175.974C165.839 175.476 165.803 175.049 165.715 175.049C165.643 175.049 165.626 174.96 165.697 174.853C165.768 174.729 165.839 174.106 165.857 173.466C165.91 171.918 165.928 171.9 166.124 172.203C166.213 172.345 166.355 172.47 166.444 172.47C166.533 172.47 166.871 172.754 167.226 173.092C168.045 173.911 168.792 174.533 168.792 174.391C168.792 174.338 168.934 174.409 169.112 174.551C169.699 175.067 171.033 175.601 172.082 175.725C173.149 175.867 174.661 175.654 174.661 175.369C174.661 175.298 174.768 175.227 174.91 175.227C175.23 175.227 176.849 173.857 176.991 173.466C177.062 173.306 177.4 172.879 177.756 172.523C178.343 171.918 178.485 171.865 179.339 171.865C180.993 171.865 181.277 171.811 182.932 171.011C184.372 170.335 185.013 169.89 186.098 168.787C187.538 167.328 188.018 166.03 187.36 165.372C186.72 164.713 185.777 165.069 183.501 166.83C182.949 167.257 182.398 167.631 182.273 167.649C182.149 167.666 181.74 167.827 181.384 168.004C180.388 168.485 180.139 168.325 180.477 167.364C180.797 166.457 180.886 165.781 180.975 164.109C181.028 162.596 180.673 161.298 179.961 160.568C179.694 160.266 179.463 159.981 179.463 159.892C179.463 159.661 178.467 158.683 178.218 158.683C178.094 158.683 177.88 158.54 177.756 158.362C177.631 158.202 177.471 158.06 177.382 158.042C177.311 158.042 177.08 157.971 176.884 157.882C176.689 157.811 176.262 157.633 175.924 157.509C175.283 157.242 173.469 157.206 173.309 157.455ZM175.728 160.995C175.942 160.995 177.418 162.258 177.418 162.436C177.418 162.507 177.507 162.668 177.631 162.792C177.756 162.917 177.791 163.344 177.738 163.913C177.649 164.856 177.08 167.364 176.902 167.524C176.778 167.666 175.586 166.652 175.568 166.386C175.55 166.279 175.479 166.154 175.39 166.119C175.159 166.03 174.287 164.02 174.394 163.842C174.448 163.753 174.394 163.628 174.305 163.575C174.181 163.504 174.145 163.237 174.216 162.952C174.27 162.668 174.359 162.169 174.394 161.849C174.483 161.227 174.946 160.746 175.337 160.906C175.479 160.96 175.639 160.995 175.728 160.995Z" fill="black"/>
<path d="M106.362 168.467C106.362 168.574 106.255 168.645 106.149 168.627C105.704 168.574 105.544 168.645 105.01 169.125C103.783 170.228 103.338 170.602 103.338 170.531C103.338 170.477 102.983 170.78 102.556 171.189C100.386 173.288 99.8168 173.768 99.6923 173.662C99.6033 173.59 99.6033 173.626 99.6567 173.733C99.7812 173.946 98.6607 175.227 98.3583 175.227C98.2694 175.227 98.1804 175.316 98.1804 175.423C98.1804 175.672 96.8998 176.828 96.722 176.721C96.6508 176.668 96.3129 176.632 95.975 176.615C94.8722 176.579 94.0896 177.967 94.6766 178.909C94.7477 179.034 94.6766 179.283 94.4987 179.479C93.5738 180.475 93.3782 180.724 93.3782 180.902C93.3782 181.009 93.307 181.098 93.2181 181.098C93.1292 181.098 92.7912 181.489 92.4711 181.987C92.1509 182.467 91.8308 182.877 91.7418 182.877C91.6707 182.877 91.5995 182.983 91.5995 183.108C91.5995 183.232 91.315 183.606 90.977 183.944C90.6391 184.282 90.3545 184.62 90.3545 184.691C90.3545 184.78 90.0877 185.1 89.7676 185.42C89.4474 185.741 88.8071 186.523 88.3447 187.146C87.5621 188.178 87.4909 188.338 87.5799 189.067C87.6866 190.117 88.5937 190.775 89.234 190.295C89.3585 190.206 89.5719 190.17 89.7142 190.224C89.8921 190.295 89.9988 190.135 90.0699 189.708C90.1411 189.37 90.2656 189.103 90.3545 189.103C90.4434 189.103 90.479 188.978 90.4079 188.818C90.3545 188.64 90.6391 188.231 91.2616 187.609C91.7952 187.093 92.5066 186.328 92.8446 185.901C93.1825 185.492 93.805 184.816 94.2319 184.406C94.641 183.997 94.9789 183.588 94.9789 183.499C94.9789 183.392 95.4592 182.823 96.0461 182.201C96.6153 181.596 97.0421 181.098 96.9888 181.098C96.9354 181.098 97.0599 180.937 97.2911 180.742C97.5224 180.546 97.7536 180.386 97.8247 180.386C98.0204 180.386 99.4255 181.951 99.4255 182.147C99.4255 182.254 99.55 182.343 99.7279 182.343C99.8879 182.343 99.9769 182.396 99.9057 182.45C99.8524 182.521 100.137 183.054 100.564 183.659C100.973 184.246 101.595 185.207 101.916 185.758C102.253 186.328 102.591 186.79 102.663 186.79C102.734 186.79 102.805 186.915 102.805 187.075C102.805 187.235 103.214 188.124 103.712 189.049C104.708 190.953 104.761 191.042 105.206 192.038C105.366 192.43 105.58 192.874 105.668 193.017C106.024 193.657 106.718 195.134 106.718 195.276C106.718 195.472 107.483 197.001 107.643 197.108C107.696 197.162 107.821 197.428 107.874 197.695C107.945 197.98 108.123 198.247 108.247 198.3C108.39 198.353 108.461 198.442 108.425 198.514C108.372 198.567 108.532 199.029 108.781 199.51C109.012 200.008 109.208 200.488 109.208 200.613C109.208 200.719 109.332 200.951 109.492 201.093C109.635 201.253 109.777 201.538 109.795 201.733C109.813 201.929 109.884 202.089 109.955 202.089C110.026 202.089 110.044 202.196 109.991 202.32C109.937 202.463 110.026 202.676 110.186 202.801C110.328 202.925 110.453 203.157 110.453 203.317C110.453 203.477 110.577 203.833 110.72 204.099C110.862 204.366 111.022 204.864 111.093 205.22C111.147 205.558 111.271 205.878 111.36 205.932C111.449 205.985 111.52 206.216 111.52 206.448C111.52 206.679 111.591 206.91 111.68 206.964C111.805 207.053 112.107 208.405 112.089 208.849C112.089 208.903 112.16 209.045 112.267 209.152C112.374 209.276 112.392 209.383 112.338 209.383C112.267 209.383 112.303 209.525 112.392 209.703C112.534 209.988 112.747 210.966 113.245 214.008C113.388 214.809 113.388 218.705 113.245 219.559C113.192 219.932 112.996 220.43 112.836 220.679C112.676 220.928 112.605 221.124 112.676 221.124C112.765 221.124 112.694 221.266 112.534 221.444C112.356 221.622 112.285 221.836 112.356 221.889C112.409 221.96 112.392 222.014 112.285 222.014C112.178 222.014 112.054 222.174 112 222.387C111.929 222.618 111.822 222.707 111.68 222.618C111.538 222.547 111.502 222.565 111.591 222.69C111.983 223.33 109.564 225.465 107.945 225.909C107.518 226.016 107.002 226.158 106.807 226.212C105.953 226.461 103.178 226.479 102.769 226.265C102.556 226.141 102.129 225.998 101.827 225.963C101.542 225.927 101.24 225.82 101.186 225.732C101.133 225.625 101.008 225.571 100.92 225.589C100.493 225.66 100.137 225.554 100.173 225.34C100.208 225.216 100.066 225.127 99.8346 225.144C99.6033 225.162 99.3899 225.038 99.3366 224.86C99.2654 224.629 99.1231 224.575 98.8563 224.646C98.6073 224.7 98.5184 224.664 98.6073 224.54C98.6785 224.415 98.6251 224.326 98.465 224.326C98.305 224.326 98.0382 224.184 97.8603 224.006C97.6824 223.846 97.3089 223.579 97.0243 223.437C96.722 223.294 96.4196 223.063 96.3485 222.956C96.2773 222.832 96.0817 222.725 95.9572 222.725C95.8149 222.725 95.6904 222.654 95.6904 222.547C95.6904 222.458 95.139 221.836 94.4631 221.16C93.2892 219.968 92.7201 219.221 92.809 218.936C92.8268 218.865 92.7023 218.811 92.5244 218.811C92.311 218.811 92.0976 218.545 91.8841 218.011C91.7063 217.584 91.475 217.264 91.3861 217.317C91.2972 217.37 91.2616 217.353 91.2794 217.264C91.3327 217.086 91.0126 216.232 90.3901 214.898C89.8387 213.706 89.6431 211.037 90.0877 210.877C90.23 210.806 90.3011 210.699 90.2478 210.593C90.1944 210.504 90.2656 210.29 90.4079 210.13C90.9237 209.525 91.315 207.871 91.0482 207.391C90.7992 206.946 89.8921 206.803 89.3763 207.141C89.1273 207.302 88.9316 207.391 88.9316 207.337C88.9316 207.266 88.7004 207.391 88.398 207.604C88.1134 207.817 87.8644 208.138 87.8644 208.333C87.8644 208.529 87.7933 208.636 87.6866 208.582C87.5087 208.476 86.406 210.539 86.5838 210.699C86.6194 210.753 86.5838 210.895 86.4771 211.02C86.2637 211.286 86.2992 214.275 86.5305 214.791C86.6372 215.04 86.6194 215.093 86.4771 215.004C86.3526 214.933 86.2637 214.969 86.2637 215.058C86.2637 215.165 86.3526 215.253 86.4415 215.253C86.5483 215.253 86.6016 215.307 86.5838 215.396C86.566 215.467 86.6194 215.752 86.6905 216.054C86.7617 216.339 86.904 216.979 87.0285 217.477C87.1352 217.958 87.3664 218.58 87.5443 218.829C87.7044 219.078 87.8111 219.345 87.7399 219.416C87.6866 219.47 87.7044 219.523 87.7933 219.523C87.9 219.523 88.0779 219.808 88.2024 220.146C88.3269 220.484 88.487 220.768 88.5581 220.768C88.647 220.768 88.8249 221.035 88.9494 221.338C89.0739 221.658 89.4118 222.138 89.6786 222.405C89.9454 222.654 90.1766 222.939 90.1766 223.045C90.1766 223.294 91.1727 224.326 91.4039 224.326C91.5106 224.326 91.5995 224.433 91.5995 224.557C91.5995 224.682 91.7952 224.967 92.0442 225.18C92.2932 225.411 92.4533 225.66 92.3999 225.749C92.3466 225.856 92.4177 225.874 92.56 225.82C92.7201 225.749 92.8802 225.838 92.9513 225.998C93.0047 226.158 93.1469 226.283 93.2359 226.283C93.3426 226.283 93.7517 226.568 94.1608 226.906C94.5521 227.244 95.0323 227.635 95.1924 227.777C95.3524 227.92 95.5125 227.991 95.5659 227.955C95.6014 227.92 95.7437 227.991 95.8682 228.151C95.9927 228.293 96.2062 228.418 96.3485 228.418C96.473 228.418 96.633 228.542 96.6864 228.685C96.7576 228.827 96.8821 228.951 96.971 228.951C97.1311 228.951 97.3801 229.04 98.803 229.663C99.1053 229.788 99.4788 229.877 99.6567 229.859C99.8168 229.841 99.9591 229.894 99.9591 229.983C99.9591 230.268 100.831 230.481 102.627 230.624C103.267 230.677 104.05 230.802 104.37 230.891C104.672 230.979 104.939 230.997 104.939 230.926C104.939 230.766 105.668 230.784 105.935 230.962C106.06 231.033 106.202 230.962 106.255 230.802C106.327 230.624 106.487 230.57 106.7 230.641C106.896 230.695 107.091 230.659 107.145 230.57C107.216 230.481 107.5 230.428 107.785 230.464C108.159 230.517 108.283 230.481 108.212 230.339C108.141 230.215 108.159 230.197 108.301 230.268C108.408 230.339 108.692 230.286 108.906 230.143C109.119 230.019 109.51 229.912 109.759 229.912C110.079 229.93 110.204 229.859 110.151 229.716C110.097 229.574 110.204 229.485 110.417 229.485C110.613 229.485 110.862 229.361 110.987 229.218C111.111 229.058 111.307 228.969 111.413 229.005C111.609 229.076 112.071 228.756 112.783 228.009C113.05 227.742 113.334 227.528 113.441 227.528C113.53 227.528 113.743 227.261 113.903 226.959C114.046 226.639 114.188 226.443 114.188 226.514C114.188 226.692 115.237 225.554 115.273 225.358C115.291 225.269 115.309 225.162 115.326 225.073C115.326 225.002 115.54 224.682 115.753 224.362C115.984 224.042 116.198 223.668 116.216 223.543C116.233 223.401 116.34 223.188 116.465 223.045C116.66 222.796 117.087 221.16 117.301 219.861C117.461 218.883 117.532 215.431 117.39 215.342C117.283 215.271 117.301 214.631 117.443 213.919C117.496 213.724 117.479 213.475 117.407 213.386C117.354 213.279 117.283 213.012 117.247 212.763C117.23 212.514 117.069 212.229 116.927 212.123C116.749 211.98 116.731 211.891 116.856 211.838C117.016 211.785 117.016 211.589 116.874 211.073C116.625 210.13 116.5 209.454 116.376 208.529C116.305 208.049 116.18 207.782 116.02 207.782C115.842 207.782 115.824 207.711 115.967 207.444C116.073 207.248 116.073 207.053 115.984 206.999C115.735 206.839 115.131 205.434 115.006 204.687C114.864 203.975 114.508 203.05 113.779 201.573C113.566 201.129 113.423 200.63 113.441 200.453C113.477 200.275 113.405 200.132 113.299 200.132C113.192 200.132 113.139 200.061 113.192 199.972C113.263 199.883 113.245 199.777 113.174 199.741C112.996 199.67 112.054 197.713 112.054 197.446C112.054 197.339 111.929 197.144 111.787 196.984C111.627 196.841 111.449 196.486 111.396 196.201C111.342 195.916 111.236 195.685 111.182 195.685C111.111 195.685 110.738 195.027 110.364 194.208C109.991 193.408 109.635 192.714 109.581 192.661C109.528 192.607 109.315 192.252 109.137 191.86C108.959 191.469 108.728 191.024 108.657 190.882C108.585 190.739 108.016 189.619 107.394 188.391C106.771 187.164 106.238 186.132 106.184 186.079C105.917 185.83 104.939 184.264 104.939 184.104C104.939 184.015 104.779 183.766 104.583 183.553C104.388 183.339 104.228 183.054 104.228 182.93C104.228 182.805 104.157 182.699 104.085 182.699C104.014 182.699 103.801 182.45 103.623 182.165C103.463 181.863 103.125 181.418 102.894 181.169C102.645 180.902 102.414 180.546 102.36 180.368C102.289 180.172 102.129 180.03 101.987 180.03C101.844 180.03 101.738 179.959 101.738 179.888C101.738 179.674 100.333 178.251 100.137 178.251C99.6923 178.251 100.101 177.7 101.702 176.134C104.833 173.074 106.593 171.456 106.967 171.296C107.447 171.064 108.194 169.926 108.23 169.356C108.247 168.752 107.732 168.289 106.985 168.289C106.647 168.289 106.362 168.378 106.362 168.467Z" fill="black"/>
<path d="M149.529 170.637C148.907 171.278 148.658 172.398 148.693 174.338C148.711 175.512 148.711 175.761 148.675 176.152C148.658 176.277 148.711 176.935 148.782 177.629L148.907 178.874H146.541C144.407 178.874 144.069 178.909 143.322 179.283C142.842 179.514 142.415 179.781 142.361 179.87C142.308 179.977 142.077 180.119 141.846 180.208C140.974 180.546 140.44 182.912 140.974 184.033C141.312 184.762 142.237 185.598 142.735 185.652C143.215 185.705 144.033 185.029 143.98 184.638C143.891 184.051 143.678 183.588 143.517 183.588C143.429 183.588 143.357 183.357 143.357 183.054C143.357 182.361 143.873 182.04 145.207 181.898C145.794 181.827 146.399 181.756 146.541 181.72C146.701 181.702 146.897 181.72 147.004 181.774C147.092 181.827 147.359 181.898 147.59 181.916C147.822 181.951 148.195 182.094 148.444 182.236C148.675 182.396 149.013 182.521 149.191 182.521C149.511 182.521 150.116 183.588 150.116 184.14C150.116 184.282 150.276 184.691 150.454 185.065C150.632 185.42 150.845 185.919 150.899 186.15C150.952 186.381 151.29 186.986 151.628 187.502C151.966 188.018 152.25 188.48 152.25 188.551C152.268 188.765 152.926 189.459 153.122 189.459C153.229 189.459 153.3 189.548 153.264 189.672C153.247 189.797 153.318 189.886 153.442 189.903C153.549 189.903 153.798 190.081 153.994 190.313C154.189 190.544 154.42 190.739 154.509 190.739C154.58 190.739 154.847 190.828 155.096 190.917C155.505 191.077 156.217 191.113 157.213 191.024C157.711 190.971 158.369 190.419 158.529 189.903C158.778 189.121 158.831 188.231 158.654 188.124C158.565 188.071 158.476 187.786 158.476 187.484C158.476 187.199 158.405 186.968 158.298 186.968C158.209 186.968 158.138 186.915 158.156 186.826C158.209 186.612 157.693 185.652 157.373 185.349C157.195 185.189 157.053 185.011 157.053 184.94C157.053 184.869 156.839 184.584 156.573 184.317C156.288 184.033 155.986 183.695 155.879 183.553C155.577 183.197 154.1 181.951 153.709 181.738C152.731 181.169 152.286 180.599 152.144 179.674C152.019 178.892 151.841 177.735 151.77 177.184C151.681 176.472 151.503 172.576 151.539 171.722C151.557 170.833 151.077 170.228 150.401 170.282C150.098 170.299 149.707 170.459 149.529 170.637Z" fill="black"/>
<path d="M135.816 189.405C135.176 189.512 134.926 189.743 134.731 190.437C134.535 191.131 134.571 192.679 134.784 192.821C134.873 192.874 134.944 193.052 134.962 193.195C134.98 193.337 135.104 193.942 135.247 194.529C135.513 195.578 135.567 195.863 135.798 197.411C135.905 198.14 135.887 198.176 135.442 198.176C134.944 198.176 133.895 197.482 133.308 196.752C133.112 196.521 132.81 196.201 132.632 196.041C132.454 195.899 132.134 195.472 131.938 195.098C131.725 194.742 131.476 194.44 131.387 194.44C131.316 194.44 131.263 194.297 131.298 194.12C131.351 193.942 131.049 193.497 130.533 192.981C130.071 192.536 129.573 191.985 129.431 191.754C128.808 190.882 126.834 191.576 126.78 192.696C126.745 193.444 126.816 193.639 127.261 194.12C127.51 194.386 127.705 194.689 127.705 194.796C127.705 194.902 127.937 195.24 128.239 195.561C128.523 195.881 128.772 196.183 128.772 196.254C128.772 196.343 128.915 196.557 129.093 196.735C129.253 196.93 129.591 197.322 129.84 197.642C130.676 198.674 132.17 200.044 133.148 200.666C134.037 201.218 134.251 201.271 135.425 201.271C137.826 201.253 138.502 200.488 138.644 197.678C138.697 196.841 138.768 196.112 138.822 196.076C138.946 195.952 139.693 196.361 140.156 196.788C140.351 196.984 140.6 197.073 140.689 197.019C140.778 196.966 141.152 197.055 141.525 197.215C142.254 197.517 144.905 197.695 145.065 197.428C145.118 197.357 145.243 197.322 145.331 197.393C145.42 197.446 145.616 197.393 145.758 197.286C145.901 197.162 146.025 197.126 146.025 197.179C146.025 197.251 146.15 197.197 146.292 197.037C146.434 196.895 146.559 196.717 146.559 196.628C146.559 196.539 146.701 196.379 146.879 196.237C147.306 195.934 147.181 195.045 146.665 194.707C146.363 194.511 144.335 194.244 142.948 194.244C142.77 194.244 142.575 194.12 142.521 193.977C142.468 193.835 142.29 193.728 142.112 193.728C141.952 193.728 141.401 193.301 140.903 192.768C140.405 192.252 139.96 191.843 139.924 191.896C139.871 191.931 139.8 191.754 139.729 191.522C139.675 191.273 139.551 191.078 139.48 191.113C139.337 191.149 137.986 190.117 137.506 189.583C137.239 189.299 136.883 189.245 135.816 189.405Z" fill="black"/>
<path d="M121.391 195.294C121.196 195.33 120.982 195.454 120.911 195.579C120.804 195.721 120.769 195.703 120.769 195.543C120.769 195.383 120.627 195.401 120.289 195.632C119.115 196.361 118.421 197.856 118.581 199.261C118.688 200.168 118.635 200.239 118.101 199.955C117.87 199.83 117.727 199.848 117.585 200.026C117.461 200.168 117.229 200.239 117.034 200.186C116.589 200.062 116.251 200.72 116.376 201.538C116.571 202.997 118.972 207.622 120.36 209.241C121.32 210.326 121.836 210.86 121.836 210.717C121.836 210.646 121.978 210.735 122.156 210.931C122.548 211.393 123.49 211.874 124.148 211.963C124.433 211.998 124.753 212.069 124.842 212.123C125.091 212.283 126.834 211.874 126.71 211.678C126.656 211.589 126.727 211.518 126.852 211.518C127.136 211.518 127.901 210.433 128.186 209.597C128.844 207.64 129.022 201.894 128.417 201.111C128.346 201.004 128.186 200.631 128.079 200.275C127.955 199.919 127.741 199.528 127.599 199.421C127.474 199.297 127.35 199.083 127.35 198.941C127.35 198.674 125.251 196.575 124.984 196.575C124.895 196.575 124.717 196.468 124.593 196.344C123.988 195.81 123.828 195.721 123.721 195.81C123.668 195.863 123.419 195.774 123.152 195.614C122.903 195.436 122.654 195.347 122.601 195.401C122.548 195.436 122.334 195.418 122.121 195.347C121.925 195.276 121.587 195.258 121.391 195.294ZM123.277 199.581C123.65 199.83 123.953 200.15 123.97 200.275C123.97 200.4 124.059 200.453 124.148 200.4C124.255 200.346 124.326 200.417 124.326 200.577C124.326 200.738 124.415 200.809 124.504 200.755C124.611 200.702 124.682 200.738 124.682 200.862C124.682 200.987 124.806 201.218 124.966 201.396C125.287 201.752 125.411 202.303 125.482 203.78C125.518 204.367 125.553 204.918 125.571 205.025C125.589 205.114 125.607 205.238 125.589 205.292C125.571 205.345 125.518 205.985 125.464 206.715C125.411 207.444 125.269 208.102 125.162 208.174C125.002 208.28 125.02 208.316 125.198 208.316C125.393 208.316 125.376 208.405 125.127 208.672C124.824 209.01 124.789 209.01 124.468 208.743C124.291 208.565 124.148 208.494 124.148 208.565C124.148 208.654 123.935 208.44 123.668 208.138C123.383 207.818 122.992 207.391 122.761 207.177C122.37 206.839 120.591 204.189 120.591 203.957C120.591 203.904 120.769 203.868 121 203.886C121.836 203.957 122.138 203.851 122.334 203.424C122.565 202.926 122.441 202.018 122.05 201.414C121.783 201.004 121.623 199.563 121.783 199.119C121.907 198.816 122.387 198.959 123.277 199.581Z" fill="black"/>
</svg>
