<svg width="1440" height="1014" viewBox="0 0 1440 1014" fill="none" xmlns="http://www.w3.org/2000/svg">
<path d="M-14 115.556C-14 115.556 128.625 205.488 209.106 115.556C289.588 25.6238 332.375 199.347 451.059 115.556C569.744 31.7647 647.678 206.805 746.497 115.556C845.316 24.3068 885.047 216.895 967.056 115.556C1049.07 14.2171 1110.7 232.688 1234.48 115.556C1358.26 -1.5764 1453 115.556 1453 115.556V1014H-14V115.556Z" fill="#C6ECE5"/>
<path d="M385.815 65.6905C384.823 65.8085 383.523 66.0444 382.908 66.196C381.437 66.533 378.051 67.9484 376.239 68.9594C375.435 69.3975 374.597 69.8187 374.375 69.8861C374.152 69.9535 373.605 70.2062 373.178 70.459C372.545 70.8297 372.34 71.0656 372.117 71.689C371.981 72.1271 371.416 73.037 370.852 73.711C368.612 76.4743 367.124 79.1366 366.457 81.5629C366.201 82.557 366.081 83.568 366.03 85.8259C365.876 90.628 366.303 93.1218 367.757 96.0031C369.176 98.8169 372.613 102.574 374.785 103.703C377.179 104.917 377.914 105.068 382.395 105.169L386.396 105.27L386.789 106.618C387.302 108.337 388.123 112.297 388.482 114.79C388.91 117.807 389.013 128.624 388.653 132.584C388.277 136.459 387.764 140.099 387.337 141.969C387.131 142.778 387.029 143.637 387.08 143.873C387.2 144.345 387.405 144.362 389.03 144.092C390.09 143.907 390.141 143.873 390.449 143.182C390.825 142.34 391.167 139.644 391.56 134.521C391.766 131.674 391.817 129.349 391.749 123.805C391.646 115.464 391.458 113.712 389.987 107.309C389.662 105.911 389.457 104.731 389.526 104.681C389.611 104.63 390.603 104.293 391.766 103.956C396.93 102.406 401.051 100.098 403.137 97.6038C404.078 96.4748 405.018 94.5708 405.788 92.2119C406.746 89.2969 406.917 88.168 406.78 85.6405C406.643 82.9614 406.233 80.99 405.155 77.7212C403.668 73.2223 402.847 71.908 400.179 69.7344C397.802 67.7967 394.143 66.1118 391.218 65.6063C389.902 65.3704 388.055 65.4041 385.815 65.6905ZM391.389 68.8751C393.099 69.448 394.314 70.0714 396.434 71.4531C399.512 73.4919 400.384 74.6545 401.701 78.5637C402.881 82.0178 403.103 83.1131 403.206 85.809C403.291 88.2354 403.291 88.2691 402.676 90.3584C401.855 93.1555 400.931 95.0258 399.854 96.0873C398.093 97.8228 394.519 99.7605 390.517 101.125C388.038 101.985 386.123 102.288 382.395 102.423C379.881 102.507 379.419 102.473 378.205 102.17C375.572 101.479 374.186 100.468 371.741 97.4353C370.27 95.6155 369.706 94.6382 369.159 93.0207C368.27 90.3079 368.133 85.2193 368.885 82.3717C369.296 80.7878 370.39 78.6985 371.69 77.0135C373.383 74.8062 373.52 74.6714 374.306 74.604C375.315 74.5029 375.64 74.2502 376.427 72.9696C376.974 72.0934 377.35 71.689 378.205 71.1498C379.539 70.2905 381.694 69.3806 383.404 68.9594C385.233 68.5044 385.302 68.5044 387.833 68.4707C389.85 68.4539 390.261 68.5044 391.389 68.8751Z" fill="#C6ECE5"/>
<path d="M387.815 65.6905C386.823 65.8085 385.523 66.0444 384.908 66.196C383.437 66.533 380.051 67.9484 378.239 68.9594C377.435 69.3975 376.597 69.8187 376.375 69.8861C376.152 69.9535 375.605 70.2062 375.178 70.459C374.545 70.8297 374.34 71.0656 374.117 71.689C373.981 72.1271 373.416 73.037 372.852 73.711C370.612 76.4743 369.124 79.1366 368.457 81.5629C368.201 82.557 368.081 83.568 368.03 85.8259C367.876 90.628 368.303 93.1218 369.757 96.0031C371.176 98.8169 374.613 102.574 376.785 103.703C379.179 104.917 379.914 105.068 384.395 105.169L388.396 105.27L388.789 106.618C389.302 108.337 390.123 112.297 390.482 114.79C390.91 117.807 391.013 128.624 390.653 132.584C390.277 136.459 389.764 140.099 389.337 141.969C389.131 142.778 389.029 143.637 389.08 143.873C389.2 144.345 389.405 144.362 391.03 144.092C392.09 143.907 392.141 143.873 392.449 143.182C392.825 142.34 393.167 139.644 393.56 134.521C393.766 131.674 393.817 129.349 393.749 123.805C393.646 115.464 393.458 113.712 391.987 107.309C391.662 105.911 391.457 104.731 391.526 104.681C391.611 104.63 392.603 104.293 393.766 103.956C398.93 102.406 403.051 100.098 405.137 97.6038C406.078 96.4748 407.018 94.5708 407.788 92.2119C408.746 89.2969 408.917 88.168 408.78 85.6405C408.643 82.9614 408.233 80.99 407.155 77.7212C405.668 73.2223 404.847 71.908 402.179 69.7344C399.802 67.7967 396.143 66.1118 393.218 65.6063C391.902 65.3704 390.055 65.4041 387.815 65.6905ZM393.389 68.8751C395.099 69.448 396.314 70.0714 398.434 71.4531C401.512 73.4919 402.384 74.6545 403.701 78.5637C404.881 82.0178 405.103 83.1131 405.206 85.809C405.291 88.2354 405.291 88.2691 404.676 90.3584C403.855 93.1555 402.931 95.0258 401.854 96.0873C400.093 97.8228 396.519 99.7605 392.517 101.125C390.038 101.985 388.123 102.288 384.395 102.423C381.881 102.507 381.419 102.473 380.205 102.17C377.572 101.479 376.186 100.468 373.741 97.4353C372.27 95.6155 371.706 94.6382 371.159 93.0207C370.27 90.3079 370.133 85.2193 370.885 82.3717C371.296 80.7878 372.39 78.6985 373.69 77.0135C375.383 74.8062 375.52 74.6714 376.306 74.604C377.315 74.5029 377.64 74.2502 378.427 72.9696C378.974 72.0934 379.35 71.689 380.205 71.1498C381.539 70.2905 383.694 69.3806 385.404 68.9594C387.233 68.5044 387.302 68.5044 389.833 68.4707C391.85 68.4539 392.261 68.5044 393.389 68.8751Z" fill="#C6ECE5"/>
<path d="M386.815 63.7364C385.823 63.8544 384.523 64.0903 383.908 64.2419C382.437 64.5789 379.051 65.9943 377.239 67.0053C376.435 67.4434 375.597 67.8646 375.375 67.932C375.152 67.9994 374.605 68.2521 374.178 68.5049C373.545 68.8756 373.34 69.1115 373.117 69.7349C372.981 70.173 372.416 71.0829 371.852 71.7569C369.612 74.5202 368.124 77.1825 367.457 79.6088C367.201 80.6029 367.081 81.6139 367.03 83.8718C366.876 88.6739 367.303 91.1677 368.757 94.049C370.176 96.8629 373.613 100.62 375.785 101.749C378.179 102.962 378.914 103.114 383.395 103.215L387.396 103.316L387.789 104.664C388.302 106.383 389.123 110.343 389.482 112.836C389.91 115.852 390.013 126.67 389.653 130.63C389.277 134.505 388.764 138.144 388.337 140.015C388.131 140.824 388.029 141.683 388.08 141.919C388.2 142.391 388.405 142.407 390.03 142.138C391.09 141.953 391.141 141.919 391.449 141.228C391.825 140.385 392.167 137.69 392.56 132.567C392.766 129.72 392.817 127.394 392.749 121.851C392.646 113.51 392.458 111.758 390.987 105.355C390.662 103.957 390.457 102.777 390.526 102.727C390.611 102.676 391.603 102.339 392.766 102.002C397.93 100.452 402.051 98.1434 404.137 95.6497C405.078 94.5208 406.018 92.6167 406.788 90.2578C407.746 87.3428 407.917 86.2139 407.78 83.6864C407.643 81.0073 407.233 79.0359 406.155 75.7671C404.668 71.2682 403.847 69.954 401.179 67.7804C398.802 65.8426 395.143 64.1577 392.218 63.6522C390.902 63.4163 389.055 63.45 386.815 63.7364ZM392.389 66.921C394.099 67.4939 395.314 68.1174 397.434 69.499C400.512 71.5378 401.384 72.7005 402.701 76.6096C403.881 80.0638 404.103 81.159 404.206 83.8549C404.291 86.2813 404.291 86.315 403.676 88.4043C402.855 91.2014 401.931 93.0717 400.854 94.1332C399.093 95.8687 395.519 97.8064 391.517 99.1713C389.038 100.031 387.123 100.334 383.395 100.469C380.881 100.553 380.419 100.519 379.205 100.216C376.572 99.5251 375.186 98.5141 372.741 95.4812C371.27 93.6614 370.706 92.6841 370.159 91.0666C369.27 88.3538 369.133 83.2652 369.885 80.4176C370.296 78.8337 371.39 76.7444 372.69 75.0594C374.383 72.8521 374.52 72.7173 375.306 72.6499C376.315 72.5488 376.64 72.2961 377.427 71.0155C377.974 70.1393 378.35 69.7349 379.205 69.1957C380.539 68.3364 382.694 67.4265 384.404 67.0053C386.233 66.5503 386.302 66.5503 388.833 66.5166C390.85 66.4998 391.261 66.5503 392.389 66.921Z" fill="#C6ECE5"/>
<path d="M791.815 23.6847C790.823 23.8026 789.523 24.0385 788.908 24.1902C787.437 24.5272 784.051 25.9425 782.239 26.9535C781.435 27.3916 780.597 27.8128 780.375 27.8802C780.152 27.9476 779.605 28.2004 779.178 28.4531C778.545 28.8238 778.34 29.0597 778.117 29.6832C777.981 30.1212 777.416 31.0311 776.852 31.7051C774.612 34.4685 773.124 37.1307 772.457 39.5571C772.201 40.5512 772.081 41.5622 772.03 43.82C771.876 48.6222 772.303 51.1159 773.757 53.9972C775.176 56.8111 778.613 60.5686 780.785 61.6975C783.179 62.9107 783.914 63.0623 788.395 63.1634L792.396 63.2645L792.789 64.6125C793.302 66.3311 794.123 70.2908 794.482 72.7846C794.91 75.8006 795.013 86.6181 794.653 90.5778C794.277 94.4532 793.764 98.0927 793.337 99.963C793.131 100.772 793.029 101.631 793.08 101.867C793.2 102.339 793.405 102.356 795.03 102.086C796.09 101.901 796.141 101.867 796.449 101.176C796.825 100.334 797.167 97.6378 797.56 92.5155C797.766 89.6679 797.817 87.3427 797.749 81.7991C797.646 73.4585 797.458 71.7062 795.987 65.3033C795.662 63.9048 795.457 62.7253 795.526 62.6748C795.611 62.6242 796.603 62.2872 797.766 61.9502C802.93 60.4001 807.051 58.0917 809.137 55.5979C810.078 54.469 811.018 52.565 811.788 50.206C812.746 47.291 812.917 46.1621 812.78 43.6347C812.643 40.9556 812.233 38.9842 811.155 35.7153C809.668 31.2165 808.847 29.9022 806.179 27.7286C803.802 25.7909 800.143 24.1059 797.218 23.6004C795.902 23.3645 794.055 23.3982 791.815 23.6847ZM797.389 26.8693C799.099 27.4422 800.314 28.0656 802.434 29.4473C805.512 31.4861 806.384 32.6487 807.701 36.5578C808.881 40.012 809.103 41.1072 809.206 43.8032C809.291 46.2295 809.291 46.2632 808.676 48.3526C807.855 51.1496 806.931 53.0199 805.854 54.0814C804.093 55.817 800.519 57.7547 796.517 59.1195C794.038 59.9788 792.123 60.2821 788.395 60.4169C785.881 60.5012 785.419 60.4675 784.205 60.1642C781.572 59.4733 780.186 58.4624 777.741 55.4294C776.27 53.6097 775.706 52.6324 775.159 51.0148C774.27 48.302 774.133 43.2134 774.885 40.3658C775.296 38.782 776.39 36.6926 777.69 35.0076C779.383 32.8003 779.52 32.6655 780.306 32.5981C781.315 32.497 781.64 32.2443 782.427 30.9637C782.974 30.0875 783.35 29.6832 784.205 29.144C785.539 28.2846 787.694 27.3748 789.404 26.9535C791.233 26.4986 791.302 26.4986 793.833 26.4649C795.85 26.448 796.261 26.4986 797.389 26.8693Z" fill="#C6ECE5"/>
<path d="M793.815 23.6847C792.823 23.8026 791.523 24.0385 790.908 24.1902C789.437 24.5272 786.051 25.9425 784.239 26.9535C783.435 27.3916 782.597 27.8128 782.375 27.8802C782.152 27.9476 781.605 28.2004 781.178 28.4531C780.545 28.8238 780.34 29.0597 780.117 29.6832C779.981 30.1212 779.416 31.0311 778.852 31.7051C776.612 34.4685 775.124 37.1307 774.457 39.5571C774.201 40.5512 774.081 41.5622 774.03 43.82C773.876 48.6222 774.303 51.1159 775.757 53.9972C777.176 56.8111 780.613 60.5686 782.785 61.6975C785.179 62.9107 785.914 63.0623 790.395 63.1634L794.396 63.2645L794.789 64.6125C795.302 66.3311 796.123 70.2908 796.482 72.7846C796.91 75.8006 797.013 86.6181 796.653 90.5778C796.277 94.4532 795.764 98.0927 795.337 99.963C795.131 100.772 795.029 101.631 795.08 101.867C795.2 102.339 795.405 102.356 797.03 102.086C798.09 101.901 798.141 101.867 798.449 101.176C798.825 100.334 799.167 97.6378 799.56 92.5155C799.766 89.6679 799.817 87.3427 799.749 81.7991C799.646 73.4585 799.458 71.7062 797.987 65.3033C797.662 63.9048 797.457 62.7253 797.526 62.6748C797.611 62.6242 798.603 62.2872 799.766 61.9502C804.93 60.4001 809.051 58.0917 811.137 55.5979C812.078 54.469 813.018 52.565 813.788 50.206C814.746 47.291 814.917 46.1621 814.78 43.6347C814.643 40.9556 814.233 38.9842 813.155 35.7153C811.668 31.2165 810.847 29.9022 808.179 27.7286C805.802 25.7909 802.143 24.1059 799.218 23.6004C797.902 23.3645 796.055 23.3982 793.815 23.6847ZM799.389 26.8693C801.099 27.4422 802.314 28.0656 804.434 29.4473C807.512 31.4861 808.384 32.6487 809.701 36.5578C810.881 40.012 811.103 41.1072 811.206 43.8032C811.291 46.2295 811.291 46.2632 810.676 48.3526C809.855 51.1496 808.931 53.0199 807.854 54.0814C806.093 55.817 802.519 57.7547 798.517 59.1195C796.038 59.9788 794.123 60.2821 790.395 60.4169C787.881 60.5012 787.419 60.4675 786.205 60.1642C783.572 59.4733 782.186 58.4624 779.741 55.4294C778.27 53.6097 777.706 52.6324 777.159 51.0148C776.27 48.302 776.133 43.2134 776.885 40.3658C777.296 38.782 778.39 36.6926 779.69 35.0076C781.383 32.8003 781.52 32.6655 782.306 32.5981C783.315 32.497 783.64 32.2443 784.427 30.9637C784.974 30.0875 785.35 29.6832 786.205 29.144C787.539 28.2846 789.694 27.3748 791.404 26.9535C793.233 26.4986 793.302 26.4986 795.833 26.4649C797.85 26.448 798.261 26.4986 799.389 26.8693Z" fill="#C6ECE5"/>
<path d="M792.815 21.7306C791.823 21.8485 790.523 22.0844 789.908 22.2361C788.437 22.5731 785.051 23.9884 783.239 24.9994C782.435 25.4375 781.597 25.8588 781.375 25.9262C781.152 25.9935 780.605 26.2463 780.178 26.499C779.545 26.8697 779.34 27.1056 779.117 27.7291C778.981 28.1671 778.416 29.077 777.852 29.751C775.612 32.5144 774.124 35.1766 773.457 37.603C773.201 38.5971 773.081 39.6081 773.03 41.8659C772.876 46.6681 773.303 49.1618 774.757 52.0431C776.176 54.857 779.613 58.6145 781.785 59.7434C784.179 60.9566 784.914 61.1082 789.395 61.2093L793.396 61.3104L793.789 62.6584C794.302 64.377 795.123 68.3367 795.482 70.8305C795.91 73.8465 796.013 84.664 795.653 88.6237C795.277 92.4991 794.764 96.1386 794.337 98.0089C794.131 98.8177 794.029 99.6771 794.08 99.913C794.2 100.385 794.405 100.402 796.03 100.132C797.09 99.9467 797.141 99.913 797.449 99.2221C797.825 98.3796 798.167 95.6837 798.56 90.5614C798.766 87.7138 798.817 85.3886 798.749 79.845C798.646 71.5044 798.458 69.7521 796.987 63.3492C796.662 61.9507 796.457 60.7712 796.526 60.7207C796.611 60.6701 797.603 60.3331 798.766 59.9961C803.93 58.446 808.051 56.1376 810.137 53.6438C811.078 52.5149 812.018 50.6109 812.788 48.2519C813.746 45.3369 813.917 44.208 813.78 41.6806C813.643 39.0015 813.233 37.0301 812.155 33.7612C810.668 29.2624 809.847 27.9481 807.179 25.7745C804.802 23.8368 801.143 22.1518 798.218 21.6463C796.902 21.4104 795.055 21.4441 792.815 21.7306ZM798.389 24.9152C800.099 25.4881 801.314 26.1115 803.434 27.4932C806.512 29.532 807.384 30.6946 808.701 34.6037C809.881 38.0579 810.103 39.1531 810.206 41.8491C810.291 44.2754 810.291 44.3091 809.676 46.3985C808.855 49.1955 807.931 51.0658 806.854 52.1273C805.093 53.8629 801.519 55.8006 797.517 57.1654C795.038 58.0247 793.123 58.328 789.395 58.4628C786.881 58.5471 786.419 58.5134 785.205 58.2101C782.572 57.5192 781.186 56.5083 778.741 53.4753C777.27 51.6556 776.706 50.6783 776.159 49.0607C775.27 46.3479 775.133 41.2593 775.885 38.4117C776.296 36.8279 777.39 34.7385 778.69 33.0535C780.383 30.8462 780.52 30.7114 781.306 30.644C782.315 30.543 782.64 30.2902 783.427 29.0096C783.974 28.1334 784.35 27.7291 785.205 27.1899C786.539 26.3305 788.694 25.4207 790.404 24.9994C792.233 24.5445 792.302 24.5445 794.833 24.5108C796.85 24.4939 797.261 24.5445 798.389 24.9152Z" fill="#C6ECE5"/>
<path d="M1045.81 40.2921C1044.82 40.4101 1043.52 40.6459 1042.91 40.7976C1041.44 41.1346 1038.05 42.55 1036.24 43.5609C1035.43 43.999 1034.6 44.4203 1034.37 44.4877C1034.15 44.5551 1033.61 44.8078 1033.18 45.0606C1032.54 45.4312 1032.34 45.6671 1032.12 46.2906C1031.98 46.7287 1031.42 47.6386 1030.85 48.3125C1028.61 51.0759 1027.12 53.7381 1026.46 56.1645C1026.2 57.1586 1026.08 58.1696 1026.03 60.4274C1025.88 65.2296 1026.3 67.7233 1027.76 70.6046C1029.18 73.4185 1032.61 77.176 1034.78 78.3049C1037.18 79.5181 1037.91 79.6697 1042.39 79.7708L1046.4 79.8719L1046.79 81.2199C1047.3 82.9386 1048.12 86.8982 1048.48 89.392C1048.91 92.4081 1049.01 103.226 1048.65 107.185C1048.28 111.061 1047.76 114.7 1047.34 116.57C1047.13 117.379 1047.03 118.239 1047.08 118.474C1047.2 118.946 1047.41 118.963 1049.03 118.694C1050.09 118.508 1050.14 118.474 1050.45 117.784C1050.83 116.941 1051.17 114.245 1051.56 109.123C1051.77 106.275 1051.82 103.95 1051.75 98.4065C1051.65 90.066 1051.46 88.3136 1049.99 81.9107C1049.66 80.5122 1049.46 79.3327 1049.53 79.2822C1049.61 79.2316 1050.6 78.8947 1051.77 78.5577C1056.93 77.0075 1061.05 74.6991 1063.14 72.2053C1064.08 71.0764 1065.02 69.1724 1065.79 66.8135C1066.75 63.8985 1066.92 62.7695 1066.78 60.2421C1066.64 57.563 1066.23 55.5916 1065.16 52.3228C1063.67 47.8239 1062.85 46.5096 1060.18 44.336C1057.8 42.3983 1054.14 40.7134 1051.22 40.2079C1049.9 39.972 1048.05 40.0057 1045.81 40.2921ZM1051.39 43.4767C1053.1 44.0496 1054.31 44.673 1056.43 46.0547C1059.51 48.0935 1060.38 49.2561 1061.7 53.1652C1062.88 56.6194 1063.1 57.7146 1063.21 60.4106C1063.29 62.8369 1063.29 62.8706 1062.68 64.96C1061.85 67.757 1060.93 69.6273 1059.85 70.6889C1058.09 72.4244 1054.52 74.3621 1050.52 75.7269C1048.04 76.5862 1046.12 76.8895 1042.39 77.0243C1039.88 77.1086 1039.42 77.0749 1038.21 76.7716C1035.57 76.0808 1034.19 75.0698 1031.74 72.0368C1030.27 70.2171 1029.71 69.2398 1029.16 67.6222C1028.27 64.9094 1028.13 59.8209 1028.89 56.9733C1029.3 55.3894 1030.39 53.3 1031.69 51.6151C1033.38 49.4078 1033.52 49.273 1034.31 49.2056C1035.32 49.1045 1035.64 48.8517 1036.43 47.5712C1036.97 46.695 1037.35 46.2906 1038.21 45.7514C1039.54 44.8921 1041.69 43.9822 1043.4 43.5609C1045.23 43.106 1045.3 43.106 1047.83 43.0723C1049.85 43.0555 1050.26 43.106 1051.39 43.4767Z" fill="#C6ECE5"/>
<path d="M1047.81 40.2921C1046.82 40.4101 1045.52 40.6459 1044.91 40.7976C1043.44 41.1346 1040.05 42.55 1038.24 43.5609C1037.43 43.999 1036.6 44.4203 1036.37 44.4877C1036.15 44.5551 1035.61 44.8078 1035.18 45.0606C1034.54 45.4312 1034.34 45.6671 1034.12 46.2906C1033.98 46.7287 1033.42 47.6386 1032.85 48.3125C1030.61 51.0759 1029.12 53.7381 1028.46 56.1645C1028.2 57.1586 1028.08 58.1696 1028.03 60.4274C1027.88 65.2296 1028.3 67.7233 1029.76 70.6046C1031.18 73.4185 1034.61 77.176 1036.78 78.3049C1039.18 79.5181 1039.91 79.6697 1044.39 79.7708L1048.4 79.8719L1048.79 81.2199C1049.3 82.9386 1050.12 86.8982 1050.48 89.392C1050.91 92.4081 1051.01 103.226 1050.65 107.185C1050.28 111.061 1049.76 114.7 1049.34 116.57C1049.13 117.379 1049.03 118.239 1049.08 118.474C1049.2 118.946 1049.41 118.963 1051.03 118.694C1052.09 118.508 1052.14 118.474 1052.45 117.784C1052.83 116.941 1053.17 114.245 1053.56 109.123C1053.77 106.275 1053.82 103.95 1053.75 98.4065C1053.65 90.066 1053.46 88.3136 1051.99 81.9107C1051.66 80.5122 1051.46 79.3327 1051.53 79.2822C1051.61 79.2316 1052.6 78.8947 1053.77 78.5577C1058.93 77.0075 1063.05 74.6991 1065.14 72.2053C1066.08 71.0764 1067.02 69.1724 1067.79 66.8135C1068.75 63.8985 1068.92 62.7695 1068.78 60.2421C1068.64 57.563 1068.23 55.5916 1067.16 52.3228C1065.67 47.8239 1064.85 46.5096 1062.18 44.336C1059.8 42.3983 1056.14 40.7134 1053.22 40.2079C1051.9 39.972 1050.05 40.0057 1047.81 40.2921ZM1053.39 43.4767C1055.1 44.0496 1056.31 44.673 1058.43 46.0547C1061.51 48.0935 1062.38 49.2561 1063.7 53.1652C1064.88 56.6194 1065.1 57.7146 1065.21 60.4106C1065.29 62.8369 1065.29 62.8706 1064.68 64.96C1063.85 67.757 1062.93 69.6273 1061.85 70.6889C1060.09 72.4244 1056.52 74.3621 1052.52 75.7269C1050.04 76.5862 1048.12 76.8895 1044.39 77.0243C1041.88 77.1086 1041.42 77.0749 1040.21 76.7716C1037.57 76.0808 1036.19 75.0698 1033.74 72.0368C1032.27 70.2171 1031.71 69.2398 1031.16 67.6222C1030.27 64.9094 1030.13 59.8209 1030.89 56.9733C1031.3 55.3894 1032.39 53.3 1033.69 51.6151C1035.38 49.4078 1035.52 49.273 1036.31 49.2056C1037.32 49.1045 1037.64 48.8517 1038.43 47.5712C1038.97 46.695 1039.35 46.2906 1040.21 45.7514C1041.54 44.8921 1043.69 43.9822 1045.4 43.5609C1047.23 43.106 1047.3 43.106 1049.83 43.0723C1051.85 43.0555 1052.26 43.106 1053.39 43.4767Z" fill="#C6ECE5"/>
<path d="M1046.81 38.338C1045.82 38.456 1044.52 38.6918 1043.91 38.8435C1042.44 39.1805 1039.05 40.5959 1037.24 41.6068C1036.43 42.0449 1035.6 42.4662 1035.37 42.5336C1035.15 42.601 1034.61 42.8537 1034.18 43.1064C1033.54 43.4771 1033.34 43.713 1033.12 44.3365C1032.98 44.7746 1032.42 45.6844 1031.85 46.3584C1029.61 49.1218 1028.12 51.784 1027.46 54.2104C1027.2 55.2045 1027.08 56.2155 1027.03 58.4733C1026.88 63.2755 1027.3 65.7692 1028.76 68.6505C1030.18 71.4644 1033.61 75.2219 1035.78 76.3508C1038.18 77.564 1038.91 77.7156 1043.39 77.8167L1047.4 77.9178L1047.79 79.2658C1048.3 80.9845 1049.12 84.9441 1049.48 87.4379C1049.91 90.454 1050.01 101.271 1049.65 105.231C1049.28 109.107 1048.76 112.746 1048.34 114.616C1048.13 115.425 1048.03 116.284 1048.08 116.52C1048.2 116.992 1048.41 117.009 1050.03 116.739C1051.09 116.554 1051.14 116.52 1051.45 115.83C1051.83 114.987 1052.17 112.291 1052.56 107.169C1052.77 104.321 1052.82 101.996 1052.75 96.4524C1052.65 88.1119 1052.46 86.3595 1050.99 79.9566C1050.66 78.5581 1050.46 77.3786 1050.53 77.3281C1050.61 77.2775 1051.6 76.9405 1052.77 76.6036C1057.93 75.0534 1062.05 72.745 1064.14 70.2512C1065.08 69.1223 1066.02 67.2183 1066.79 64.8594C1067.75 61.9444 1067.92 60.8154 1067.78 58.288C1067.64 55.6089 1067.23 53.6375 1066.16 50.3686C1064.67 45.8698 1063.85 44.5555 1061.18 42.3819C1058.8 40.4442 1055.14 38.7592 1052.22 38.2538C1050.9 38.0179 1049.05 38.0516 1046.81 38.338ZM1052.39 41.5226C1054.1 42.0955 1055.31 42.7189 1057.43 44.1006C1060.51 46.1394 1061.38 47.302 1062.7 51.2111C1063.88 54.6653 1064.1 55.7605 1064.21 58.4565C1064.29 60.8828 1064.29 60.9165 1063.68 63.0059C1062.85 65.8029 1061.93 67.6732 1060.85 68.7348C1059.09 70.4703 1055.52 72.408 1051.52 73.7728C1049.04 74.6321 1047.12 74.9354 1043.39 75.0702C1040.88 75.1545 1040.42 75.1208 1039.21 74.8175C1036.57 74.1267 1035.19 73.1157 1032.74 70.0827C1031.27 68.263 1030.71 67.2857 1030.16 65.6681C1029.27 62.9553 1029.13 57.8667 1029.89 55.0192C1030.3 53.4353 1031.39 51.3459 1032.69 49.661C1034.38 47.4537 1034.52 47.3189 1035.31 47.2515C1036.32 47.1504 1036.64 46.8976 1037.43 45.617C1037.97 44.7409 1038.35 44.3365 1039.21 43.7973C1040.54 42.938 1042.69 42.0281 1044.4 41.6068C1046.23 41.1519 1046.3 41.1519 1048.83 41.1182C1050.85 41.1013 1051.26 41.1519 1052.39 41.5226Z" fill="#C6ECE5"/>
<path d="M1359.81 6.19445C1358.82 6.3124 1357.52 6.54829 1356.91 6.69993C1355.44 7.03693 1352.05 8.4523 1350.24 9.46328C1349.43 9.90137 1348.6 10.3226 1348.37 10.39C1348.15 10.4574 1347.61 10.7102 1347.18 10.9629C1346.54 11.3336 1346.34 11.5695 1346.12 12.1929C1345.98 12.631 1345.42 13.5409 1344.85 14.2149C1342.61 16.9782 1341.12 19.6405 1340.46 22.0668C1340.2 23.0609 1340.08 24.0719 1340.03 26.3298C1339.88 31.1319 1340.3 33.6257 1341.76 36.507C1343.18 39.3209 1346.61 43.0783 1348.78 44.2073C1351.18 45.4204 1351.91 45.5721 1356.39 45.6732L1360.4 45.7743L1360.79 47.1222C1361.3 48.8409 1362.12 52.8006 1362.48 55.2943C1362.91 58.3104 1363.01 69.1279 1362.65 73.0876C1362.28 76.963 1361.76 80.6025 1361.34 82.4728C1361.13 83.2816 1361.03 84.1409 1361.08 84.3768C1361.2 84.8486 1361.41 84.8655 1363.03 84.5959C1364.09 84.4105 1364.14 84.3768 1364.45 83.686C1364.83 82.8435 1365.17 80.1476 1365.56 75.0253C1365.77 72.1777 1365.82 69.8524 1365.75 64.3089C1365.65 55.9683 1365.46 54.2159 1363.99 47.8131C1363.66 46.4146 1363.46 45.2351 1363.53 45.1845C1363.61 45.134 1364.6 44.797 1365.77 44.46C1370.93 42.9098 1375.05 40.6014 1377.14 38.1077C1378.08 36.9788 1379.02 35.0747 1379.79 32.7158C1380.75 29.8008 1380.92 28.6719 1380.78 26.1444C1380.64 23.4653 1380.23 21.4939 1379.16 18.2251C1377.67 13.7262 1376.85 12.412 1374.18 10.2384C1371.8 8.30065 1368.14 6.61569 1365.22 6.1102C1363.9 5.87431 1362.05 5.90801 1359.81 6.19445ZM1365.39 9.37903C1367.1 9.95192 1368.31 10.5754 1370.43 11.957C1373.51 13.9958 1374.38 15.1585 1375.7 19.0676C1376.88 22.5218 1377.1 23.617 1377.21 26.3129C1377.29 28.7393 1377.29 28.773 1376.68 30.8623C1375.85 33.6594 1374.93 35.5297 1373.85 36.5912C1372.09 38.3267 1368.52 40.2644 1364.52 41.6293C1362.04 42.4886 1360.12 42.7919 1356.39 42.9267C1353.88 43.0109 1353.42 42.9772 1352.21 42.6739C1349.57 41.9831 1348.19 40.9721 1345.74 37.9392C1344.27 36.1194 1343.71 35.1421 1343.16 33.5246C1342.27 30.8118 1342.13 25.7232 1342.89 22.8756C1343.3 21.2917 1344.39 19.2024 1345.69 17.5174C1347.38 15.3101 1347.52 15.1753 1348.31 15.1079C1349.32 15.0068 1349.64 14.7541 1350.43 13.4735C1350.97 12.5973 1351.35 12.1929 1352.21 11.6537C1353.54 10.7944 1355.69 9.88452 1357.4 9.46328C1359.23 9.00834 1359.3 9.00834 1361.83 8.97464C1363.85 8.95779 1364.26 9.00834 1365.39 9.37903Z" fill="#C6ECE5"/>
<path d="M1361.81 6.19445C1360.82 6.3124 1359.52 6.54829 1358.91 6.69993C1357.44 7.03693 1354.05 8.4523 1352.24 9.46328C1351.43 9.90137 1350.6 10.3226 1350.37 10.39C1350.15 10.4574 1349.61 10.7102 1349.18 10.9629C1348.54 11.3336 1348.34 11.5695 1348.12 12.1929C1347.98 12.631 1347.42 13.5409 1346.85 14.2149C1344.61 16.9782 1343.12 19.6405 1342.46 22.0668C1342.2 23.0609 1342.08 24.0719 1342.03 26.3298C1341.88 31.1319 1342.3 33.6257 1343.76 36.507C1345.18 39.3209 1348.61 43.0783 1350.78 44.2073C1353.18 45.4204 1353.91 45.5721 1358.39 45.6732L1362.4 45.7743L1362.79 47.1222C1363.3 48.8409 1364.12 52.8006 1364.48 55.2943C1364.91 58.3104 1365.01 69.1279 1364.65 73.0876C1364.28 76.963 1363.76 80.6025 1363.34 82.4728C1363.13 83.2816 1363.03 84.1409 1363.08 84.3768C1363.2 84.8486 1363.41 84.8655 1365.03 84.5959C1366.09 84.4105 1366.14 84.3768 1366.45 83.686C1366.83 82.8435 1367.17 80.1476 1367.56 75.0253C1367.77 72.1777 1367.82 69.8524 1367.75 64.3089C1367.65 55.9683 1367.46 54.2159 1365.99 47.8131C1365.66 46.4146 1365.46 45.2351 1365.53 45.1845C1365.61 45.134 1366.6 44.797 1367.77 44.46C1372.93 42.9098 1377.05 40.6014 1379.14 38.1077C1380.08 36.9788 1381.02 35.0747 1381.79 32.7158C1382.75 29.8008 1382.92 28.6719 1382.78 26.1444C1382.64 23.4653 1382.23 21.4939 1381.16 18.2251C1379.67 13.7262 1378.85 12.412 1376.18 10.2384C1373.8 8.30065 1370.14 6.61569 1367.22 6.1102C1365.9 5.87431 1364.05 5.90801 1361.81 6.19445ZM1367.39 9.37903C1369.1 9.95192 1370.31 10.5754 1372.43 11.957C1375.51 13.9958 1376.38 15.1585 1377.7 19.0676C1378.88 22.5218 1379.1 23.617 1379.21 26.3129C1379.29 28.7393 1379.29 28.773 1378.68 30.8623C1377.85 33.6594 1376.93 35.5297 1375.85 36.5912C1374.09 38.3267 1370.52 40.2644 1366.52 41.6293C1364.04 42.4886 1362.12 42.7919 1358.39 42.9267C1355.88 43.0109 1355.42 42.9772 1354.21 42.6739C1351.57 41.9831 1350.19 40.9721 1347.74 37.9392C1346.27 36.1194 1345.71 35.1421 1345.16 33.5246C1344.27 30.8118 1344.13 25.7232 1344.89 22.8756C1345.3 21.2917 1346.39 19.2024 1347.69 17.5174C1349.38 15.3101 1349.52 15.1753 1350.31 15.1079C1351.32 15.0068 1351.64 14.7541 1352.43 13.4735C1352.97 12.5973 1353.35 12.1929 1354.21 11.6537C1355.54 10.7944 1357.69 9.88452 1359.4 9.46328C1361.23 9.00834 1361.3 9.00834 1363.83 8.97464C1365.85 8.95779 1366.26 9.00834 1367.39 9.37903Z" fill="#C6ECE5"/>
<path d="M1360.81 4.24035C1359.82 4.3583 1358.52 4.59419 1357.91 4.74584C1356.44 5.08283 1353.05 6.4982 1351.24 7.50918C1350.43 7.94727 1349.6 8.36852 1349.37 8.43592C1349.15 8.50332 1348.61 8.75605 1348.18 9.0088C1347.54 9.37949 1347.34 9.61539 1347.12 10.2388C1346.98 10.6769 1346.42 11.5868 1345.85 12.2608C1343.61 15.0241 1342.12 17.6864 1341.46 20.1127C1341.2 21.1069 1341.08 22.1178 1341.03 24.3757C1340.88 29.1778 1341.3 31.6716 1342.76 34.5529C1344.18 37.3668 1347.61 41.1242 1349.78 42.2532C1352.18 43.4663 1352.91 43.618 1357.39 43.7191L1361.4 43.8202L1361.79 45.1681C1362.3 46.8868 1363.12 50.8465 1363.48 53.3402C1363.91 56.3563 1364.01 67.1738 1363.65 71.1335C1363.28 75.0089 1362.76 78.6484 1362.34 80.5187C1362.13 81.3275 1362.03 82.1868 1362.08 82.4227C1362.2 82.8945 1362.41 82.9114 1364.03 82.6418C1365.09 82.4564 1365.14 82.4227 1365.45 81.7319C1365.83 80.8894 1366.17 78.1935 1366.56 73.0712C1366.77 70.2236 1366.82 67.8983 1366.75 62.3548C1366.65 54.0142 1366.46 52.2618 1364.99 45.859C1364.66 44.4605 1364.46 43.281 1364.53 43.2304C1364.61 43.1799 1365.6 42.8429 1366.77 42.5059C1371.93 40.9557 1376.05 38.6473 1378.14 36.1536C1379.08 35.0247 1380.02 33.1206 1380.79 30.7617C1381.75 27.8467 1381.92 26.7178 1381.78 24.1903C1381.64 21.5112 1381.23 19.5398 1380.16 16.271C1378.67 11.7721 1377.85 10.4579 1375.18 8.28426C1372.8 6.34655 1369.14 4.66159 1366.22 4.15611C1364.9 3.92021 1363.05 3.95391 1360.81 4.24035ZM1366.39 7.42493C1368.1 7.99782 1369.31 8.62126 1371.43 10.0029C1374.51 12.0417 1375.38 13.2044 1376.7 17.1135C1377.88 20.5677 1378.1 21.6629 1378.21 24.3588C1378.29 26.7852 1378.29 26.8189 1377.68 28.9082C1376.85 31.7053 1375.93 33.5756 1374.85 34.6371C1373.09 36.3726 1369.52 38.3103 1365.52 39.6752C1363.04 40.5345 1361.12 40.8378 1357.39 40.9726C1354.88 41.0568 1354.42 41.0231 1353.21 40.7198C1350.57 40.029 1349.19 39.018 1346.74 35.9851C1345.27 34.1653 1344.71 33.188 1344.16 31.5705C1343.27 28.8577 1343.13 23.7691 1343.89 20.9215C1344.3 19.3376 1345.39 17.2483 1346.69 15.5633C1348.38 13.356 1348.52 13.2212 1349.31 13.1538C1350.32 13.0527 1350.64 12.8 1351.43 11.5194C1351.97 10.6432 1352.35 10.2388 1353.21 9.69964C1354.54 8.84031 1356.69 7.93042 1358.4 7.50918C1360.23 7.05424 1360.3 7.05424 1362.83 7.02054C1364.85 7.00369 1365.26 7.05424 1366.39 7.42493Z" fill="#C6ECE5"/>
<path d="M1312.81 4.19445C1311.82 4.3124 1310.52 4.54829 1309.91 4.69993C1308.44 5.03693 1305.05 6.4523 1303.24 7.46328C1302.43 7.90137 1301.6 8.32262 1301.37 8.39001C1301.15 8.45741 1300.61 8.71015 1300.18 8.9629C1299.54 9.33359 1299.34 9.56948 1299.12 10.1929C1298.98 10.631 1298.42 11.5409 1297.85 12.2149C1295.61 14.9782 1294.12 17.6405 1293.46 20.0668C1293.2 21.0609 1293.08 22.0719 1293.03 24.3298C1292.88 29.1319 1293.3 31.6257 1294.76 34.507C1296.18 37.3209 1299.61 41.0783 1301.78 42.2073C1304.18 43.4204 1304.91 43.5721 1309.39 43.6732L1313.4 43.7743L1313.79 45.1222C1314.3 46.8409 1315.12 50.8006 1315.48 53.2943C1315.91 56.3104 1316.01 67.1279 1315.65 71.0876C1315.28 74.963 1314.76 78.6025 1314.34 80.4728C1314.13 81.2816 1314.03 82.1409 1314.08 82.3768C1314.2 82.8486 1314.41 82.8655 1316.03 82.5959C1317.09 82.4105 1317.14 82.3768 1317.45 81.686C1317.83 80.8435 1318.17 78.1476 1318.56 73.0253C1318.77 70.1777 1318.82 67.8524 1318.75 62.3089C1318.65 53.9683 1318.46 52.2159 1316.99 45.8131C1316.66 44.4146 1316.46 43.2351 1316.53 43.1845C1316.61 43.134 1317.6 42.797 1318.77 42.46C1323.93 40.9098 1328.05 38.6014 1330.14 36.1077C1331.08 34.9788 1332.02 33.0747 1332.79 30.7158C1333.75 27.8008 1333.92 26.6719 1333.78 24.1444C1333.64 21.4653 1333.23 19.4939 1332.16 16.2251C1330.67 11.7262 1329.85 10.412 1327.18 8.23836C1324.8 6.30065 1321.14 4.61569 1318.22 4.1102C1316.9 3.87431 1315.05 3.90801 1312.81 4.19445ZM1318.39 7.37903C1320.1 7.95192 1321.31 8.57536 1323.43 9.95703C1326.51 11.9958 1327.38 13.1585 1328.7 17.0676C1329.88 20.5218 1330.1 21.617 1330.21 24.3129C1330.29 26.7393 1330.29 26.773 1329.68 28.8623C1328.85 31.6594 1327.93 33.5297 1326.85 34.5912C1325.09 36.3267 1321.52 38.2644 1317.52 39.6293C1315.04 40.4886 1313.12 40.7919 1309.39 40.9267C1306.88 41.0109 1306.42 40.9772 1305.21 40.6739C1302.57 39.9831 1301.19 38.9721 1298.74 35.9392C1297.27 34.1194 1296.71 33.1421 1296.16 31.5246C1295.27 28.8118 1295.13 23.7232 1295.89 20.8756C1296.3 19.2917 1297.39 17.2024 1298.69 15.5174C1300.38 13.3101 1300.52 13.1753 1301.31 13.1079C1302.32 13.0068 1302.64 12.7541 1303.43 11.4735C1303.97 10.5973 1304.35 10.1929 1305.21 9.65374C1306.54 8.7944 1308.69 7.88452 1310.4 7.46328C1312.23 7.00834 1312.3 7.00834 1314.83 6.97464C1316.85 6.95779 1317.26 7.00834 1318.39 7.37903Z" fill="#C6ECE5"/>
<path d="M1314.81 4.19445C1313.82 4.3124 1312.52 4.54829 1311.91 4.69993C1310.44 5.03693 1307.05 6.4523 1305.24 7.46328C1304.43 7.90137 1303.6 8.32262 1303.37 8.39001C1303.15 8.45741 1302.61 8.71015 1302.18 8.9629C1301.54 9.33359 1301.34 9.56948 1301.12 10.1929C1300.98 10.631 1300.42 11.5409 1299.85 12.2149C1297.61 14.9782 1296.12 17.6405 1295.46 20.0668C1295.2 21.0609 1295.08 22.0719 1295.03 24.3298C1294.88 29.1319 1295.3 31.6257 1296.76 34.507C1298.18 37.3209 1301.61 41.0783 1303.78 42.2073C1306.18 43.4204 1306.91 43.5721 1311.39 43.6732L1315.4 43.7743L1315.79 45.1222C1316.3 46.8409 1317.12 50.8006 1317.48 53.2943C1317.91 56.3104 1318.01 67.1279 1317.65 71.0876C1317.28 74.963 1316.76 78.6025 1316.34 80.4728C1316.13 81.2816 1316.03 82.1409 1316.08 82.3768C1316.2 82.8486 1316.41 82.8655 1318.03 82.5959C1319.09 82.4105 1319.14 82.3768 1319.45 81.686C1319.83 80.8435 1320.17 78.1476 1320.56 73.0253C1320.77 70.1777 1320.82 67.8524 1320.75 62.3089C1320.65 53.9683 1320.46 52.2159 1318.99 45.8131C1318.66 44.4146 1318.46 43.2351 1318.53 43.1845C1318.61 43.134 1319.6 42.797 1320.77 42.46C1325.93 40.9098 1330.05 38.6014 1332.14 36.1077C1333.08 34.9788 1334.02 33.0747 1334.79 30.7158C1335.75 27.8008 1335.92 26.6719 1335.78 24.1444C1335.64 21.4653 1335.23 19.4939 1334.16 16.2251C1332.67 11.7262 1331.85 10.412 1329.18 8.23836C1326.8 6.30065 1323.14 4.61569 1320.22 4.1102C1318.9 3.87431 1317.05 3.90801 1314.81 4.19445ZM1320.39 7.37903C1322.1 7.95192 1323.31 8.57536 1325.43 9.95703C1328.51 11.9958 1329.38 13.1585 1330.7 17.0676C1331.88 20.5218 1332.1 21.617 1332.21 24.3129C1332.29 26.7393 1332.29 26.773 1331.68 28.8623C1330.85 31.6594 1329.93 33.5297 1328.85 34.5912C1327.09 36.3267 1323.52 38.2644 1319.52 39.6293C1317.04 40.4886 1315.12 40.7919 1311.39 40.9267C1308.88 41.0109 1308.42 40.9772 1307.21 40.6739C1304.57 39.9831 1303.19 38.9721 1300.74 35.9392C1299.27 34.1194 1298.71 33.1421 1298.16 31.5246C1297.27 28.8118 1297.13 23.7232 1297.89 20.8756C1298.3 19.2917 1299.39 17.2024 1300.69 15.5174C1302.38 13.3101 1302.52 13.1753 1303.31 13.1079C1304.32 13.0068 1304.64 12.7541 1305.43 11.4735C1305.97 10.5973 1306.35 10.1929 1307.21 9.65374C1308.54 8.7944 1310.69 7.88452 1312.4 7.46328C1314.23 7.00834 1314.3 7.00834 1316.83 6.97464C1318.85 6.95779 1319.26 7.00834 1320.39 7.37903Z" fill="#C6ECE5"/>
<path d="M1313.81 2.24035C1312.82 2.3583 1311.52 2.59419 1310.91 2.74584C1309.44 3.08283 1306.05 4.4982 1304.24 5.50918C1303.43 5.94727 1302.6 6.36852 1302.37 6.43592C1302.15 6.50332 1301.61 6.75605 1301.18 7.0088C1300.54 7.37949 1300.34 7.61539 1300.12 8.23882C1299.98 8.67692 1299.42 9.5868 1298.85 10.2608C1296.61 13.0241 1295.12 15.6864 1294.46 18.1127C1294.2 19.1069 1294.08 20.1178 1294.03 22.3757C1293.88 27.1778 1294.3 29.6716 1295.76 32.5529C1297.18 35.3668 1300.61 39.1242 1302.78 40.2532C1305.18 41.4663 1305.91 41.618 1310.39 41.7191L1314.4 41.8202L1314.79 43.1681C1315.3 44.8868 1316.12 48.8465 1316.48 51.3402C1316.91 54.3563 1317.01 65.1738 1316.65 69.1335C1316.28 73.0089 1315.76 76.6484 1315.34 78.5187C1315.13 79.3275 1315.03 80.1868 1315.08 80.4227C1315.2 80.8945 1315.41 80.9114 1317.03 80.6418C1318.09 80.4564 1318.14 80.4227 1318.45 79.7319C1318.83 78.8894 1319.17 76.1935 1319.56 71.0712C1319.77 68.2236 1319.82 65.8983 1319.75 60.3548C1319.65 52.0142 1319.46 50.2618 1317.99 43.859C1317.66 42.4605 1317.46 41.281 1317.53 41.2304C1317.61 41.1799 1318.6 40.8429 1319.77 40.5059C1324.93 38.9557 1329.05 36.6473 1331.14 34.1536C1332.08 33.0247 1333.02 31.1206 1333.79 28.7617C1334.75 25.8467 1334.92 24.7178 1334.78 22.1903C1334.64 19.5112 1334.23 17.5398 1333.16 14.271C1331.67 9.77214 1330.85 8.45787 1328.18 6.28426C1325.8 4.34655 1322.14 2.66159 1319.22 2.15611C1317.9 1.92021 1316.05 1.95391 1313.81 2.24035ZM1319.39 5.42493C1321.1 5.99782 1322.31 6.62126 1324.43 8.00293C1327.51 10.0417 1328.38 11.2044 1329.7 15.1135C1330.88 18.5677 1331.1 19.6629 1331.21 22.3588C1331.29 24.7852 1331.29 24.8189 1330.68 26.9082C1329.85 29.7053 1328.93 31.5756 1327.85 32.6371C1326.09 34.3726 1322.52 36.3103 1318.52 37.6752C1316.04 38.5345 1314.12 38.8378 1310.39 38.9726C1307.88 39.0568 1307.42 39.0231 1306.21 38.7198C1303.57 38.029 1302.19 37.018 1299.74 33.9851C1298.27 32.1653 1297.71 31.188 1297.16 29.5705C1296.27 26.8577 1296.13 21.7691 1296.89 18.9215C1297.3 17.3376 1298.39 15.2483 1299.69 13.5633C1301.38 11.356 1301.52 11.2212 1302.31 11.1538C1303.32 11.0527 1303.64 10.8 1304.43 9.5194C1304.97 8.64322 1305.35 8.23883 1306.21 7.69964C1307.54 6.84031 1309.69 5.93042 1311.4 5.50918C1313.23 5.05424 1313.3 5.05424 1315.83 5.02054C1317.85 5.00369 1318.26 5.05424 1319.39 5.42493Z" fill="#C6ECE5"/>
<path d="M1253.81 23.1945C1252.82 23.3124 1251.52 23.5483 1250.91 23.6999C1249.44 24.0369 1246.05 25.4523 1244.24 26.4633C1243.43 26.9014 1242.6 27.3226 1242.37 27.39C1242.15 27.4574 1241.61 27.7102 1241.18 27.9629C1240.54 28.3336 1240.34 28.5695 1240.12 29.1929C1239.98 29.631 1239.42 30.5409 1238.85 31.2149C1236.61 33.9782 1235.12 36.6405 1234.46 39.0668C1234.2 40.0609 1234.08 41.0719 1234.03 43.3298C1233.88 48.1319 1234.3 50.6257 1235.76 53.507C1237.18 56.3209 1240.61 60.0783 1242.78 61.2073C1245.18 62.4204 1245.91 62.5721 1250.39 62.6732L1254.4 62.7743L1254.79 64.1222C1255.3 65.8409 1256.12 69.8006 1256.48 72.2943C1256.91 75.3104 1257.01 86.1279 1256.65 90.0876C1256.28 93.963 1255.76 97.6025 1255.34 99.4728C1255.13 100.282 1255.03 101.141 1255.08 101.377C1255.2 101.849 1255.41 101.865 1257.03 101.596C1258.09 101.411 1258.14 101.377 1258.45 100.686C1258.83 99.8435 1259.17 97.1476 1259.56 92.0253C1259.77 89.1777 1259.82 86.8524 1259.75 81.3089C1259.65 72.9683 1259.46 71.2159 1257.99 64.8131C1257.66 63.4146 1257.46 62.2351 1257.53 62.1845C1257.61 62.134 1258.6 61.797 1259.77 61.46C1264.93 59.9098 1269.05 57.6014 1271.14 55.1077C1272.08 53.9788 1273.02 52.0747 1273.79 49.7158C1274.75 46.8008 1274.92 45.6719 1274.78 43.1444C1274.64 40.4653 1274.23 38.4939 1273.16 35.2251C1271.67 30.7262 1270.85 29.412 1268.18 27.2384C1265.8 25.3007 1262.14 23.6157 1259.22 23.1102C1257.9 22.8743 1256.05 22.908 1253.81 23.1945ZM1259.39 26.379C1261.1 26.9519 1262.31 27.5754 1264.43 28.957C1267.51 30.9958 1268.38 32.1585 1269.7 36.0676C1270.88 39.5218 1271.1 40.617 1271.21 43.3129C1271.29 45.7393 1271.29 45.773 1270.68 47.8623C1269.85 50.6594 1268.93 52.5297 1267.85 53.5912C1266.09 55.3267 1262.52 57.2644 1258.52 58.6293C1256.04 59.4886 1254.12 59.7919 1250.39 59.9267C1247.88 60.0109 1247.42 59.9772 1246.21 59.6739C1243.57 58.9831 1242.19 57.9721 1239.74 54.9392C1238.27 53.1194 1237.71 52.1421 1237.16 50.5246C1236.27 47.8118 1236.13 42.7232 1236.89 39.8756C1237.3 38.2917 1238.39 36.2024 1239.69 34.5174C1241.38 32.3101 1241.52 32.1753 1242.31 32.1079C1243.32 32.0068 1243.64 31.7541 1244.43 30.4735C1244.97 29.5973 1245.35 29.1929 1246.21 28.6537C1247.54 27.7944 1249.69 26.8845 1251.4 26.4633C1253.23 26.0083 1253.3 26.0083 1255.83 25.9746C1257.85 25.9578 1258.26 26.0083 1259.39 26.379Z" fill="#C6ECE5"/>
<path d="M1255.81 23.1945C1254.82 23.3124 1253.52 23.5483 1252.91 23.6999C1251.44 24.0369 1248.05 25.4523 1246.24 26.4633C1245.43 26.9014 1244.6 27.3226 1244.37 27.39C1244.15 27.4574 1243.61 27.7102 1243.18 27.9629C1242.54 28.3336 1242.34 28.5695 1242.12 29.1929C1241.98 29.631 1241.42 30.5409 1240.85 31.2149C1238.61 33.9782 1237.12 36.6405 1236.46 39.0668C1236.2 40.0609 1236.08 41.0719 1236.03 43.3298C1235.88 48.1319 1236.3 50.6257 1237.76 53.507C1239.18 56.3209 1242.61 60.0783 1244.78 61.2073C1247.18 62.4204 1247.91 62.5721 1252.39 62.6732L1256.4 62.7743L1256.79 64.1222C1257.3 65.8409 1258.12 69.8006 1258.48 72.2943C1258.91 75.3104 1259.01 86.1279 1258.65 90.0876C1258.28 93.963 1257.76 97.6025 1257.34 99.4728C1257.13 100.282 1257.03 101.141 1257.08 101.377C1257.2 101.849 1257.41 101.865 1259.03 101.596C1260.09 101.411 1260.14 101.377 1260.45 100.686C1260.83 99.8435 1261.17 97.1476 1261.56 92.0253C1261.77 89.1777 1261.82 86.8524 1261.75 81.3089C1261.65 72.9683 1261.46 71.2159 1259.99 64.8131C1259.66 63.4146 1259.46 62.2351 1259.53 62.1845C1259.61 62.134 1260.6 61.797 1261.77 61.46C1266.93 59.9098 1271.05 57.6014 1273.14 55.1077C1274.08 53.9788 1275.02 52.0747 1275.79 49.7158C1276.75 46.8008 1276.92 45.6719 1276.78 43.1444C1276.64 40.4653 1276.23 38.4939 1275.16 35.2251C1273.67 30.7262 1272.85 29.412 1270.18 27.2384C1267.8 25.3007 1264.14 23.6157 1261.22 23.1102C1259.9 22.8743 1258.05 22.908 1255.81 23.1945ZM1261.39 26.379C1263.1 26.9519 1264.31 27.5754 1266.43 28.957C1269.51 30.9958 1270.38 32.1585 1271.7 36.0676C1272.88 39.5218 1273.1 40.617 1273.21 43.3129C1273.29 45.7393 1273.29 45.773 1272.68 47.8623C1271.85 50.6594 1270.93 52.5297 1269.85 53.5912C1268.09 55.3267 1264.52 57.2644 1260.52 58.6293C1258.04 59.4886 1256.12 59.7919 1252.39 59.9267C1249.88 60.0109 1249.42 59.9772 1248.21 59.6739C1245.57 58.9831 1244.19 57.9721 1241.74 54.9392C1240.27 53.1194 1239.71 52.1421 1239.16 50.5246C1238.27 47.8118 1238.13 42.7232 1238.89 39.8756C1239.3 38.2917 1240.39 36.2024 1241.69 34.5174C1243.38 32.3101 1243.52 32.1753 1244.31 32.1079C1245.32 32.0068 1245.64 31.7541 1246.43 30.4735C1246.97 29.5973 1247.35 29.1929 1248.21 28.6537C1249.54 27.7944 1251.69 26.8845 1253.4 26.4633C1255.23 26.0083 1255.3 26.0083 1257.83 25.9746C1259.85 25.9578 1260.26 26.0083 1261.39 26.379Z" fill="#C6ECE5"/>
<path d="M1254.81 21.2404C1253.82 21.3583 1252.52 21.5942 1251.91 21.7458C1250.44 22.0828 1247.05 23.4982 1245.24 24.5092C1244.43 24.9473 1243.6 25.3685 1243.37 25.4359C1243.15 25.5033 1242.61 25.7561 1242.18 26.0088C1241.54 26.3795 1241.34 26.6154 1241.12 27.2388C1240.98 27.6769 1240.42 28.5868 1239.85 29.2608C1237.61 32.0241 1236.12 34.6864 1235.46 37.1127C1235.2 38.1069 1235.08 39.1178 1235.03 41.3757C1234.88 46.1778 1235.3 48.6716 1236.76 51.5529C1238.18 54.3668 1241.61 58.1242 1243.78 59.2532C1246.18 60.4663 1246.91 60.618 1251.39 60.7191L1255.4 60.8202L1255.79 62.1681C1256.3 63.8868 1257.12 67.8465 1257.48 70.3402C1257.91 73.3563 1258.01 84.1738 1257.65 88.1335C1257.28 92.0089 1256.76 95.6484 1256.34 97.5187C1256.13 98.3275 1256.03 99.1868 1256.08 99.4227C1256.2 99.8945 1256.41 99.9114 1258.03 99.6418C1259.09 99.4564 1259.14 99.4227 1259.45 98.7319C1259.83 97.8894 1260.17 95.1935 1260.56 90.0712C1260.77 87.2236 1260.82 84.8983 1260.75 79.3548C1260.65 71.0142 1260.46 69.2618 1258.99 62.859C1258.66 61.4605 1258.46 60.281 1258.53 60.2304C1258.61 60.1799 1259.6 59.8429 1260.77 59.5059C1265.93 57.9557 1270.05 55.6473 1272.14 53.1536C1273.08 52.0247 1274.02 50.1206 1274.79 47.7617C1275.75 44.8467 1275.92 43.7178 1275.78 41.1903C1275.64 38.5112 1275.23 36.5398 1274.16 33.271C1272.67 28.7721 1271.85 27.4579 1269.18 25.2843C1266.8 23.3466 1263.14 21.6616 1260.22 21.1561C1258.9 20.9202 1257.05 20.9539 1254.81 21.2404ZM1260.39 24.4249C1262.1 24.9978 1263.31 25.6213 1265.43 27.0029C1268.51 29.0417 1269.38 30.2044 1270.7 34.1135C1271.88 37.5677 1272.1 38.6629 1272.21 41.3588C1272.29 43.7852 1272.29 43.8189 1271.68 45.9082C1270.85 48.7053 1269.93 50.5756 1268.85 51.6371C1267.09 53.3726 1263.52 55.3103 1259.52 56.6752C1257.04 57.5345 1255.12 57.8378 1251.39 57.9726C1248.88 58.0568 1248.42 58.0231 1247.21 57.7198C1244.57 57.029 1243.19 56.018 1240.74 52.9851C1239.27 51.1653 1238.71 50.188 1238.16 48.5705C1237.27 45.8577 1237.13 40.7691 1237.89 37.9215C1238.3 36.3376 1239.39 34.2483 1240.69 32.5633C1242.38 30.356 1242.52 30.2212 1243.31 30.1538C1244.32 30.0527 1244.64 29.8 1245.43 28.5194C1245.97 27.6432 1246.35 27.2388 1247.21 26.6996C1248.54 25.8403 1250.69 24.9304 1252.4 24.5092C1254.23 24.0542 1254.3 24.0542 1256.83 24.0205C1258.85 24.0037 1259.26 24.0542 1260.39 24.4249Z" fill="#C6ECE5"/>
<path d="M1003.81 21.7316C1002.82 21.8495 1001.52 22.0854 1000.91 22.237C999.437 22.574 996.051 23.9894 994.239 25.0004C993.435 25.4385 992.597 25.8597 992.375 25.9271C992.152 25.9945 991.605 26.2473 991.178 26.5C990.545 26.8707 990.34 27.1066 990.117 27.73C989.981 28.1681 989.416 29.078 988.852 29.752C986.612 32.5153 985.124 35.1776 984.457 37.6039C984.201 38.5981 984.081 39.609 984.03 41.8669C983.876 46.669 984.303 49.1628 985.757 52.0441C987.176 54.858 990.613 58.6154 992.785 59.7444C995.179 60.9575 995.914 61.1092 1000.39 61.2103L1004.4 61.3114L1004.79 62.6594C1005.3 64.378 1006.12 68.3377 1006.48 70.8314C1006.91 73.8475 1007.01 84.665 1006.65 88.6247C1006.28 92.5001 1005.76 96.1396 1005.34 98.0099C1005.13 98.8187 1005.03 99.678 1005.08 99.9139C1005.2 100.386 1005.41 100.403 1007.03 100.133C1008.09 99.9476 1008.14 99.9139 1008.45 99.2231C1008.83 98.3806 1009.17 95.6847 1009.56 90.5624C1009.77 87.7148 1009.82 85.3895 1009.75 79.846C1009.65 71.5054 1009.46 69.7531 1007.99 63.3502C1007.66 61.9517 1007.46 60.7722 1007.53 60.7216C1007.61 60.6711 1008.6 60.3341 1009.77 59.9971C1014.93 58.4469 1019.05 56.1385 1021.14 53.6448C1022.08 52.5159 1023.02 50.6119 1023.79 48.2529C1024.75 45.3379 1024.92 44.209 1024.78 41.6815C1024.64 39.0025 1024.23 37.031 1023.16 33.7622C1021.67 29.2634 1020.85 27.9491 1018.18 25.7755C1015.8 23.8378 1012.14 22.1528 1009.22 21.6473C1007.9 21.4114 1006.05 21.4451 1003.81 21.7316ZM1009.39 24.9161C1011.1 25.489 1012.31 26.1125 1014.43 27.4941C1017.51 29.5329 1018.38 30.6956 1019.7 34.6047C1020.88 38.0589 1021.1 39.1541 1021.21 41.85C1021.29 44.2764 1021.29 44.3101 1020.68 46.3994C1019.85 49.1965 1018.93 51.0668 1017.85 52.1283C1016.09 53.8638 1012.52 55.8015 1008.52 57.1664C1006.04 58.0257 1004.12 58.329 1000.39 58.4638C997.881 58.548 997.419 58.5143 996.205 58.211C993.572 57.5202 992.186 56.5092 989.741 53.4763C988.27 51.6565 987.706 50.6793 987.159 49.0617C986.27 46.3489 986.133 41.2603 986.885 38.4127C987.296 36.8288 988.39 34.7395 989.69 33.0545C991.383 30.8472 991.52 30.7124 992.306 30.645C993.315 30.5439 993.64 30.2912 994.427 29.0106C994.974 28.1344 995.35 27.73 996.205 27.1908C997.539 26.3315 999.694 25.4216 1001.4 25.0004C1003.23 24.5455 1003.3 24.5455 1005.83 24.5118C1007.85 24.4949 1008.26 24.5455 1009.39 24.9161Z" fill="#C6ECE5"/>
<path d="M1005.81 21.7316C1004.82 21.8495 1003.52 22.0854 1002.91 22.237C1001.44 22.574 998.051 23.9894 996.239 25.0004C995.435 25.4385 994.597 25.8597 994.375 25.9271C994.152 25.9945 993.605 26.2473 993.178 26.5C992.545 26.8707 992.34 27.1066 992.117 27.73C991.981 28.1681 991.416 29.078 990.852 29.752C988.612 32.5153 987.124 35.1776 986.457 37.6039C986.201 38.5981 986.081 39.609 986.03 41.8669C985.876 46.669 986.303 49.1628 987.757 52.0441C989.176 54.858 992.613 58.6154 994.785 59.7444C997.179 60.9575 997.914 61.1092 1002.39 61.2103L1006.4 61.3114L1006.79 62.6594C1007.3 64.378 1008.12 68.3377 1008.48 70.8314C1008.91 73.8475 1009.01 84.665 1008.65 88.6247C1008.28 92.5001 1007.76 96.1396 1007.34 98.0099C1007.13 98.8187 1007.03 99.678 1007.08 99.9139C1007.2 100.386 1007.41 100.403 1009.03 100.133C1010.09 99.9476 1010.14 99.9139 1010.45 99.2231C1010.83 98.3806 1011.17 95.6847 1011.56 90.5624C1011.77 87.7148 1011.82 85.3895 1011.75 79.846C1011.65 71.5054 1011.46 69.7531 1009.99 63.3502C1009.66 61.9517 1009.46 60.7722 1009.53 60.7216C1009.61 60.6711 1010.6 60.3341 1011.77 59.9971C1016.93 58.4469 1021.05 56.1385 1023.14 53.6448C1024.08 52.5159 1025.02 50.6119 1025.79 48.2529C1026.75 45.3379 1026.92 44.209 1026.78 41.6815C1026.64 39.0025 1026.23 37.031 1025.16 33.7622C1023.67 29.2634 1022.85 27.9491 1020.18 25.7755C1017.8 23.8378 1014.14 22.1528 1011.22 21.6473C1009.9 21.4114 1008.05 21.4451 1005.81 21.7316ZM1011.39 24.9161C1013.1 25.489 1014.31 26.1125 1016.43 27.4941C1019.51 29.5329 1020.38 30.6956 1021.7 34.6047C1022.88 38.0589 1023.1 39.1541 1023.21 41.85C1023.29 44.2764 1023.29 44.3101 1022.68 46.3994C1021.85 49.1965 1020.93 51.0668 1019.85 52.1283C1018.09 53.8638 1014.52 55.8015 1010.52 57.1664C1008.04 58.0257 1006.12 58.329 1002.39 58.4638C999.881 58.548 999.419 58.5143 998.205 58.211C995.572 57.5202 994.186 56.5092 991.741 53.4763C990.27 51.6565 989.706 50.6793 989.159 49.0617C988.27 46.3489 988.133 41.2603 988.885 38.4127C989.296 36.8288 990.39 34.7395 991.69 33.0545C993.383 30.8472 993.52 30.7124 994.306 30.645C995.315 30.5439 995.64 30.2912 996.427 29.0106C996.974 28.1344 997.35 27.73 998.205 27.1908C999.539 26.3315 1001.69 25.4216 1003.4 25.0004C1005.23 24.5455 1005.3 24.5455 1007.83 24.5118C1009.85 24.4949 1010.26 24.5455 1011.39 24.9161Z" fill="#C6ECE5"/>
<path d="M1004.81 19.7775C1003.82 19.8954 1002.52 20.1313 1001.91 20.2829C1000.44 20.6199 997.051 22.0353 995.239 23.0463C994.435 23.4844 993.597 23.9056 993.375 23.973C993.152 24.0404 992.605 24.2932 992.178 24.5459C991.545 24.9166 991.34 25.1525 991.117 25.7759C990.981 26.214 990.416 27.1239 989.852 27.7979C987.612 30.5612 986.124 33.2235 985.457 35.6498C985.201 36.644 985.081 37.6549 985.03 39.9128C984.876 44.7149 985.303 47.2087 986.757 50.09C988.176 52.9039 991.613 56.6613 993.785 57.7903C996.179 59.0034 996.914 59.1551 1001.39 59.2562L1005.4 59.3573L1005.79 60.7053C1006.3 62.4239 1007.12 66.3836 1007.48 68.8773C1007.91 71.8934 1008.01 82.7109 1007.65 86.6706C1007.28 90.546 1006.76 94.1855 1006.34 96.0558C1006.13 96.8646 1006.03 97.7239 1006.08 97.9598C1006.2 98.4316 1006.41 98.4485 1008.03 98.1789C1009.09 97.9935 1009.14 97.9598 1009.45 97.269C1009.83 96.4265 1010.17 93.7306 1010.56 88.6083C1010.77 85.7607 1010.82 83.4354 1010.75 77.8919C1010.65 69.5513 1010.46 67.799 1008.99 61.3961C1008.66 59.9976 1008.46 58.8181 1008.53 58.7675C1008.61 58.717 1009.6 58.38 1010.77 58.043C1015.93 56.4928 1020.05 54.1844 1022.14 51.6907C1023.08 50.5618 1024.02 48.6578 1024.79 46.2988C1025.75 43.3838 1025.92 42.2549 1025.78 39.7274C1025.64 37.0483 1025.23 35.0769 1024.16 31.8081C1022.67 27.3092 1021.85 25.995 1019.18 23.8214C1016.8 21.8837 1013.14 20.1987 1010.22 19.6932C1008.9 19.4573 1007.05 19.491 1004.81 19.7775ZM1010.39 22.962C1012.1 23.5349 1013.31 24.1584 1015.43 25.54C1018.51 27.5788 1019.38 28.7415 1020.7 32.6506C1021.88 36.1048 1022.1 37.2 1022.21 39.8959C1022.29 42.3223 1022.29 42.356 1021.68 44.4453C1020.85 47.2424 1019.93 49.1127 1018.85 50.1742C1017.09 51.9097 1013.52 53.8474 1009.52 55.2123C1007.04 56.0716 1005.12 56.3749 1001.39 56.5097C998.881 56.5939 998.419 56.5602 997.205 56.2569C994.572 55.5661 993.186 54.5551 990.741 51.5222C989.27 49.7024 988.706 48.7252 988.159 47.1076C987.27 44.3948 987.133 39.3062 987.885 36.4586C988.296 34.8747 989.39 32.7854 990.69 31.1004C992.383 28.8931 992.52 28.7583 993.306 28.6909C994.315 28.5898 994.64 28.3371 995.427 27.0565C995.974 26.1803 996.35 25.7759 997.205 25.2367C998.539 24.3774 1000.69 23.4675 1002.4 23.0463C1004.23 22.5913 1004.3 22.5913 1006.83 22.5576C1008.85 22.5408 1009.26 22.5913 1010.39 22.962Z" fill="#C6ECE5"/>
<path d="M748.815 44.1993C747.823 44.3173 746.523 44.5532 745.908 44.7048C744.437 45.0418 741.051 46.4572 739.239 47.4682C738.435 47.9063 737.597 48.3275 737.375 48.3949C737.152 48.4623 736.605 48.715 736.178 48.9678C735.545 49.3385 735.34 49.5744 735.117 50.1978C734.981 50.6359 734.416 51.5458 733.852 52.2198C731.612 54.9831 730.124 57.6454 729.457 60.0717C729.201 61.0658 729.081 62.0768 729.03 64.3347C728.876 69.1368 729.303 71.6306 730.757 74.5119C732.176 77.3257 735.613 81.0832 737.785 82.2121C740.179 83.4253 740.914 83.577 745.395 83.6781L749.396 83.7792L749.789 85.1271C750.302 86.8458 751.123 90.8055 751.482 93.2992C751.91 96.3153 752.013 107.133 751.653 111.092C751.277 114.968 750.764 118.607 750.337 120.478C750.131 121.286 750.029 122.146 750.08 122.382C750.2 122.853 750.405 122.87 752.03 122.601C753.09 122.415 753.141 122.382 753.449 121.691C753.825 120.848 754.167 118.152 754.56 113.03C754.766 110.183 754.817 107.857 754.749 102.314C754.646 93.9732 754.458 92.2208 752.987 85.818C752.662 84.4194 752.457 83.24 752.526 83.1894C752.611 83.1389 753.603 82.8019 754.766 82.4649C759.93 80.9147 764.051 78.6063 766.137 76.1126C767.078 74.9836 768.018 73.0796 768.788 70.7207C769.746 67.8057 769.917 66.6768 769.78 64.1493C769.643 61.4702 769.233 59.4988 768.155 56.23C766.668 51.7311 765.847 50.4168 763.179 48.2432C760.802 46.3055 757.143 44.6206 754.218 44.1151C752.902 43.8792 751.055 43.9129 748.815 44.1993ZM754.389 47.3839C756.099 47.9568 757.314 48.5802 759.434 49.9619C762.512 52.0007 763.384 53.1633 764.701 57.0725C765.881 60.5266 766.103 61.6219 766.206 64.3178C766.291 66.7442 766.291 66.7779 765.676 68.8672C764.855 71.6643 763.931 73.5346 762.854 74.5961C761.093 76.3316 757.519 78.2693 753.517 79.6341C751.038 80.4935 749.123 80.7968 745.395 80.9316C742.881 81.0158 742.419 80.9821 741.205 80.6788C738.572 79.988 737.186 78.977 734.741 75.9441C733.27 74.1243 732.706 73.147 732.159 71.5295C731.27 68.8167 731.133 63.7281 731.885 60.8805C732.296 59.2966 733.39 57.2073 734.69 55.5223C736.383 53.315 736.52 53.1802 737.306 53.1128C738.315 53.0117 738.64 52.759 739.427 51.4784C739.974 50.6022 740.35 50.1978 741.205 49.6586C742.539 48.7993 744.694 47.8894 746.404 47.4682C748.233 47.0132 748.302 47.0132 750.833 46.9795C752.85 46.9627 753.261 47.0132 754.389 47.3839Z" fill="#C6ECE5"/>
<path d="M750.815 44.1993C749.823 44.3173 748.523 44.5532 747.908 44.7048C746.437 45.0418 743.051 46.4572 741.239 47.4682C740.435 47.9063 739.597 48.3275 739.375 48.3949C739.152 48.4623 738.605 48.715 738.178 48.9678C737.545 49.3385 737.34 49.5744 737.117 50.1978C736.981 50.6359 736.416 51.5458 735.852 52.2198C733.612 54.9831 732.124 57.6454 731.457 60.0717C731.201 61.0658 731.081 62.0768 731.03 64.3347C730.876 69.1368 731.303 71.6306 732.757 74.5119C734.176 77.3257 737.613 81.0832 739.785 82.2121C742.179 83.4253 742.914 83.577 747.395 83.6781L751.396 83.7792L751.789 85.1271C752.302 86.8458 753.123 90.8055 753.482 93.2992C753.91 96.3153 754.013 107.133 753.653 111.092C753.277 114.968 752.764 118.607 752.337 120.478C752.131 121.286 752.029 122.146 752.08 122.382C752.2 122.853 752.405 122.87 754.03 122.601C755.09 122.415 755.141 122.382 755.449 121.691C755.825 120.848 756.167 118.152 756.56 113.03C756.766 110.183 756.817 107.857 756.749 102.314C756.646 93.9732 756.458 92.2208 754.987 85.818C754.662 84.4194 754.457 83.24 754.526 83.1894C754.611 83.1389 755.603 82.8019 756.766 82.4649C761.93 80.9147 766.051 78.6063 768.137 76.1126C769.078 74.9836 770.018 73.0796 770.788 70.7207C771.746 67.8057 771.917 66.6768 771.78 64.1493C771.643 61.4702 771.233 59.4988 770.155 56.23C768.668 51.7311 767.847 50.4168 765.179 48.2432C762.802 46.3055 759.143 44.6206 756.218 44.1151C754.902 43.8792 753.055 43.9129 750.815 44.1993ZM756.389 47.3839C758.099 47.9568 759.314 48.5802 761.434 49.9619C764.512 52.0007 765.384 53.1633 766.701 57.0725C767.881 60.5266 768.103 61.6219 768.206 64.3178C768.291 66.7442 768.291 66.7779 767.676 68.8672C766.855 71.6643 765.931 73.5346 764.854 74.5961C763.093 76.3316 759.519 78.2693 755.517 79.6341C753.038 80.4935 751.123 80.7968 747.395 80.9316C744.881 81.0158 744.419 80.9821 743.205 80.6788C740.572 79.988 739.186 78.977 736.741 75.9441C735.27 74.1243 734.706 73.147 734.159 71.5295C733.27 68.8167 733.133 63.7281 733.885 60.8805C734.296 59.2966 735.39 57.2073 736.69 55.5223C738.383 53.315 738.52 53.1802 739.306 53.1128C740.315 53.0117 740.64 52.759 741.427 51.4784C741.974 50.6022 742.35 50.1978 743.205 49.6586C744.539 48.7993 746.694 47.8894 748.404 47.4682C750.233 47.0132 750.302 47.0132 752.833 46.9795C754.85 46.9627 755.261 47.0132 756.389 47.3839Z" fill="#C6ECE5"/>
<path d="M749.815 42.2452C748.823 42.3632 747.523 42.5991 746.908 42.7507C745.437 43.0877 742.051 44.5031 740.239 45.5141C739.435 45.9522 738.597 46.3734 738.375 46.4408C738.152 46.5082 737.605 46.7609 737.178 47.0137C736.545 47.3844 736.34 47.6203 736.117 48.2437C735.981 48.6818 735.416 49.5917 734.852 50.2657C732.612 53.029 731.124 55.6913 730.457 58.1176C730.201 59.1117 730.081 60.1227 730.03 62.3806C729.876 67.1827 730.303 69.6765 731.757 72.5577C733.176 75.3716 736.613 79.1291 738.785 80.258C741.179 81.4712 741.914 81.6229 746.395 81.724L750.396 81.8251L750.789 83.173C751.302 84.8917 752.123 88.8514 752.482 91.3451C752.91 94.3612 753.013 105.179 752.653 109.138C752.277 113.014 751.764 116.653 751.337 118.524C751.131 119.332 751.029 120.192 751.08 120.428C751.2 120.899 751.405 120.916 753.03 120.647C754.09 120.461 754.141 120.428 754.449 119.737C754.825 118.894 755.167 116.198 755.56 111.076C755.766 108.228 755.817 105.903 755.749 100.36C755.646 92.0191 755.458 90.2667 753.987 83.8639C753.662 82.4653 753.457 81.2859 753.526 81.2353C753.611 81.1848 754.603 80.8478 755.766 80.5108C760.93 78.9606 765.051 76.6522 767.137 74.1585C768.078 73.0295 769.018 71.1255 769.788 68.7666C770.746 65.8516 770.917 64.7227 770.78 62.1952C770.643 59.5161 770.233 57.5447 769.155 54.2759C767.668 49.777 766.847 48.4627 764.179 46.2891C761.802 44.3514 758.143 42.6665 755.218 42.161C753.902 41.9251 752.055 41.9588 749.815 42.2452ZM755.389 45.4298C757.099 46.0027 758.314 46.6261 760.434 48.0078C763.512 50.0466 764.384 51.2092 765.701 55.1184C766.881 58.5725 767.103 59.6678 767.206 62.3637C767.291 64.7901 767.291 64.8238 766.676 66.9131C765.855 69.7102 764.931 71.5805 763.854 72.642C762.093 74.3775 758.519 76.3152 754.517 77.68C752.038 78.5394 750.123 78.8427 746.395 78.9775C743.881 79.0617 743.419 79.028 742.205 78.7247C739.572 78.0339 738.186 77.0229 735.741 73.99C734.27 72.1702 733.706 71.1929 733.159 69.5754C732.27 66.8626 732.133 61.774 732.885 58.9264C733.296 57.3425 734.39 55.2532 735.69 53.5682C737.383 51.3609 737.52 51.2261 738.306 51.1587C739.315 51.0576 739.64 50.8048 740.427 49.5243C740.974 48.6481 741.35 48.2437 742.205 47.7045C743.539 46.8452 745.694 45.9353 747.404 45.5141C749.233 45.0591 749.302 45.0591 751.833 45.0254C753.85 45.0086 754.261 45.0591 755.389 45.4298Z" fill="#C6ECE5"/>
<path d="M338.815 53.9679C337.823 54.0858 336.523 54.3217 335.908 54.4734C334.437 54.8104 331.051 56.2257 329.239 57.2367C328.435 57.6748 327.597 58.096 327.375 58.1634C327.152 58.2308 326.605 58.4836 326.178 58.7363C325.545 59.107 325.34 59.3429 325.117 59.9664C324.981 60.4044 324.416 61.3143 323.852 61.9883C321.612 64.7517 320.124 67.4139 319.457 69.8403C319.201 70.8344 319.081 71.8454 319.03 74.1032C318.876 78.9054 319.303 81.3991 320.757 84.2804C322.176 87.0943 325.613 90.8518 327.785 91.9807C330.179 93.1939 330.914 93.3455 335.395 93.4466L339.396 93.5477L339.789 94.8957C340.302 96.6143 341.123 100.574 341.482 103.068C341.91 106.084 342.013 116.901 341.653 120.861C341.277 124.736 340.764 128.376 340.337 130.246C340.131 131.055 340.029 131.914 340.08 132.15C340.2 132.622 340.405 132.639 342.03 132.369C343.09 132.184 343.141 132.15 343.449 131.459C343.825 130.617 344.167 127.921 344.56 122.799C344.766 119.951 344.817 117.626 344.749 112.082C344.646 103.742 344.458 101.989 342.987 95.5865C342.662 94.188 342.457 93.0085 342.526 92.958C342.611 92.9074 343.603 92.5704 344.766 92.2334C349.93 90.6833 354.051 88.3749 356.137 85.8811C357.078 84.7522 358.018 82.8482 358.788 80.4892C359.746 77.5742 359.917 76.4453 359.78 73.9179C359.643 71.2388 359.233 69.2674 358.155 65.9985C356.668 61.4997 355.847 60.1854 353.179 58.0118C350.802 56.0741 347.143 54.3891 344.218 53.8836C342.902 53.6477 341.055 53.6814 338.815 53.9679ZM344.389 57.1525C346.099 57.7253 347.314 58.3488 349.434 59.7305C352.512 61.7693 353.384 62.9319 354.701 66.841C355.881 70.2952 356.103 71.3904 356.206 74.0864C356.291 76.5127 356.291 76.5464 355.676 78.6358C354.855 81.4328 353.931 83.3031 352.854 84.3646C351.093 86.1002 347.519 88.0379 343.517 89.4027C341.038 90.262 339.123 90.5653 335.395 90.7001C332.881 90.7844 332.419 90.7507 331.205 90.4474C328.572 89.7565 327.186 88.7456 324.741 85.7126C323.27 83.8929 322.706 82.9156 322.159 81.298C321.27 78.5852 321.133 73.4966 321.885 70.649C322.296 69.0652 323.39 66.9758 324.69 65.2908C326.383 63.0835 326.52 62.9487 327.306 62.8813C328.315 62.7802 328.64 62.5275 329.427 61.2469C329.974 60.3707 330.35 59.9664 331.205 59.4272C332.539 58.5678 334.694 57.6579 336.404 57.2367C338.233 56.7818 338.302 56.7818 340.833 56.7481C342.85 56.7312 343.261 56.7818 344.389 57.1525Z" fill="#C6ECE5"/>
<path d="M340.815 53.9679C339.823 54.0858 338.523 54.3217 337.908 54.4734C336.437 54.8104 333.051 56.2257 331.239 57.2367C330.435 57.6748 329.597 58.096 329.375 58.1634C329.152 58.2308 328.605 58.4836 328.178 58.7363C327.545 59.107 327.34 59.3429 327.117 59.9664C326.981 60.4044 326.416 61.3143 325.852 61.9883C323.612 64.7517 322.124 67.4139 321.457 69.8403C321.201 70.8344 321.081 71.8454 321.03 74.1032C320.876 78.9054 321.303 81.3991 322.757 84.2804C324.176 87.0943 327.613 90.8518 329.785 91.9807C332.179 93.1939 332.914 93.3455 337.395 93.4466L341.396 93.5477L341.789 94.8957C342.302 96.6143 343.123 100.574 343.482 103.068C343.91 106.084 344.013 116.901 343.653 120.861C343.277 124.736 342.764 128.376 342.337 130.246C342.131 131.055 342.029 131.914 342.08 132.15C342.2 132.622 342.405 132.639 344.03 132.369C345.09 132.184 345.141 132.15 345.449 131.459C345.825 130.617 346.167 127.921 346.56 122.799C346.766 119.951 346.817 117.626 346.749 112.082C346.646 103.742 346.458 101.989 344.987 95.5865C344.662 94.188 344.457 93.0085 344.526 92.958C344.611 92.9074 345.603 92.5704 346.766 92.2334C351.93 90.6833 356.051 88.3749 358.137 85.8811C359.078 84.7522 360.018 82.8482 360.788 80.4892C361.746 77.5742 361.917 76.4453 361.78 73.9179C361.643 71.2388 361.233 69.2674 360.155 65.9985C358.668 61.4997 357.847 60.1854 355.179 58.0118C352.802 56.0741 349.143 54.3891 346.218 53.8836C344.902 53.6477 343.055 53.6814 340.815 53.9679ZM346.389 57.1525C348.099 57.7253 349.314 58.3488 351.434 59.7305C354.512 61.7693 355.384 62.9319 356.701 66.841C357.881 70.2952 358.103 71.3904 358.206 74.0864C358.291 76.5127 358.291 76.5464 357.676 78.6358C356.855 81.4328 355.931 83.3031 354.854 84.3646C353.093 86.1002 349.519 88.0379 345.517 89.4027C343.038 90.262 341.123 90.5653 337.395 90.7001C334.881 90.7844 334.419 90.7507 333.205 90.4474C330.572 89.7565 329.186 88.7456 326.741 85.7126C325.27 83.8929 324.706 82.9156 324.159 81.298C323.27 78.5852 323.133 73.4966 323.885 70.649C324.296 69.0652 325.39 66.9758 326.69 65.2908C328.383 63.0835 328.52 62.9487 329.306 62.8813C330.315 62.7802 330.64 62.5275 331.427 61.2469C331.974 60.3707 332.35 59.9664 333.205 59.4272C334.539 58.5678 336.694 57.6579 338.404 57.2367C340.233 56.7818 340.302 56.7818 342.833 56.7481C344.85 56.7312 345.261 56.7818 346.389 57.1525Z" fill="#C6ECE5"/>
<path d="M339.815 52.0138C338.823 52.1317 337.523 52.3676 336.908 52.5193C335.437 52.8562 332.051 54.2716 330.239 55.2826C329.435 55.7207 328.597 56.1419 328.375 56.2093C328.152 56.2767 327.605 56.5295 327.178 56.7822C326.545 57.1529 326.34 57.3888 326.117 58.0122C325.981 58.4503 325.416 59.3602 324.852 60.0342C322.612 62.7975 321.124 65.4598 320.457 67.8861C320.201 68.8803 320.081 69.8912 320.03 72.1491C319.876 76.9513 320.303 79.445 321.757 82.3263C323.176 85.1402 326.613 88.8977 328.785 90.0266C331.179 91.2398 331.914 91.3914 336.395 91.4925L340.396 91.5936L340.789 92.9416C341.302 94.6602 342.123 98.6199 342.482 101.114C342.91 104.13 343.013 114.947 342.653 118.907C342.277 122.782 341.764 126.422 341.337 128.292C341.131 129.101 341.029 129.96 341.08 130.196C341.2 130.668 341.405 130.685 343.03 130.415C344.09 130.23 344.141 130.196 344.449 129.505C344.825 128.663 345.167 125.967 345.56 120.845C345.766 117.997 345.817 115.672 345.749 110.128C345.646 101.788 345.458 100.035 343.987 93.6324C343.662 92.2339 343.457 91.0544 343.526 91.0039C343.611 90.9533 344.603 90.6163 345.766 90.2793C350.93 88.7292 355.051 86.4208 357.137 83.927C358.078 82.7981 359.018 80.8941 359.788 78.5351C360.746 75.6201 360.917 74.4912 360.78 71.9638C360.643 69.2847 360.233 67.3133 359.155 64.0444C357.668 59.5456 356.847 58.2313 354.179 56.0577C351.802 54.12 348.143 52.435 345.218 51.9295C343.902 51.6936 342.055 51.7273 339.815 52.0138ZM345.389 55.1984C347.099 55.7712 348.314 56.3947 350.434 57.7763C353.512 59.8152 354.384 60.9778 355.701 64.8869C356.881 68.3411 357.103 69.4363 357.206 72.1323C357.291 74.5586 357.291 74.5923 356.676 76.6817C355.855 79.4787 354.931 81.349 353.854 82.4105C352.093 84.1461 348.519 86.0838 344.517 87.4486C342.038 88.3079 340.123 88.6112 336.395 88.746C333.881 88.8303 333.419 88.7966 332.205 88.4933C329.572 87.8024 328.186 86.7915 325.741 83.7585C324.27 81.9388 323.706 80.9615 323.159 79.3439C322.27 76.6311 322.133 71.5425 322.885 68.6949C323.296 67.1111 324.39 65.0217 325.69 63.3367C327.383 61.1294 327.52 60.9946 328.306 60.9272C329.315 60.8261 329.64 60.5734 330.427 59.2928C330.974 58.4166 331.35 58.0122 332.205 57.4731C333.539 56.6137 335.694 55.7038 337.404 55.2826C339.233 54.8277 339.302 54.8277 341.833 54.794C343.85 54.7771 344.261 54.8277 345.389 55.1984Z" fill="#C6ECE5"/>
<path d="M297.815 32.4767C296.823 32.5946 295.523 32.8305 294.908 32.9822C293.437 33.3192 290.051 34.7345 288.239 35.7455C287.435 36.1836 286.597 36.6048 286.375 36.6722C286.152 36.7396 285.605 36.9924 285.178 37.2451C284.545 37.6158 284.34 37.8517 284.117 38.4751C283.981 38.9132 283.416 39.8231 282.852 40.4971C280.612 43.2604 279.124 45.9227 278.457 48.349C278.201 49.3432 278.081 50.3542 278.03 52.612C277.876 57.4142 278.303 59.9079 279.757 62.7892C281.176 65.6031 284.613 69.3606 286.785 70.4895C289.179 71.7027 289.914 71.8543 294.395 71.9554L298.396 72.0565L298.789 73.4045C299.302 75.1231 300.123 79.0828 300.482 81.5766C300.91 84.5926 301.013 95.4101 300.653 99.3698C300.277 103.245 299.764 106.885 299.337 108.755C299.131 109.564 299.029 110.423 299.08 110.659C299.2 111.131 299.405 111.148 301.03 110.878C302.09 110.693 302.141 110.659 302.449 109.968C302.825 109.126 303.167 106.43 303.56 101.307C303.766 98.4599 303.817 96.1346 303.749 90.5911C303.646 82.2505 303.458 80.4982 301.987 74.0953C301.662 72.6968 301.457 71.5173 301.526 71.4668C301.611 71.4162 302.603 71.0792 303.766 70.7422C308.93 69.1921 313.051 66.8837 315.137 64.3899C316.078 63.261 317.018 61.357 317.788 58.998C318.746 56.083 318.917 54.9541 318.78 52.4267C318.643 49.7476 318.233 47.7762 317.155 44.5073C315.668 40.0085 314.847 38.6942 312.179 36.5206C309.802 34.5829 306.143 32.8979 303.218 32.3924C301.902 32.1565 300.055 32.1902 297.815 32.4767ZM303.389 35.6613C305.099 36.2341 306.314 36.8576 308.434 38.2393C311.512 40.2781 312.384 41.4407 313.701 45.3498C314.881 48.804 315.103 49.8992 315.206 52.5952C315.291 55.0215 315.291 55.0552 314.676 57.1446C313.855 59.9416 312.931 61.8119 311.854 62.8734C310.093 64.609 306.519 66.5467 302.517 67.9115C300.038 68.7708 298.123 69.0741 294.395 69.2089C291.881 69.2932 291.419 69.2595 290.205 68.9562C287.572 68.2653 286.186 67.2543 283.741 64.2214C282.27 62.4017 281.706 61.4244 281.159 59.8068C280.27 57.094 280.133 52.0054 280.885 49.1578C281.296 47.574 282.39 45.4846 283.69 43.7996C285.383 41.5923 285.52 41.4575 286.306 41.3901C287.315 41.289 287.64 41.0363 288.427 39.7557C288.974 38.8795 289.35 38.4752 290.205 37.936C291.539 37.0766 293.694 36.1667 295.404 35.7455C297.233 35.2906 297.302 35.2906 299.833 35.2569C301.85 35.24 302.261 35.2906 303.389 35.6613Z" fill="#C6ECE5"/>
<path d="M299.815 32.4767C298.823 32.5946 297.523 32.8305 296.908 32.9822C295.437 33.3192 292.051 34.7345 290.239 35.7455C289.435 36.1836 288.597 36.6048 288.375 36.6722C288.152 36.7396 287.605 36.9924 287.178 37.2451C286.545 37.6158 286.34 37.8517 286.117 38.4751C285.981 38.9132 285.416 39.8231 284.852 40.4971C282.612 43.2604 281.124 45.9227 280.457 48.349C280.201 49.3432 280.081 50.3542 280.03 52.612C279.876 57.4142 280.303 59.9079 281.757 62.7892C283.176 65.6031 286.613 69.3606 288.785 70.4895C291.179 71.7027 291.914 71.8543 296.395 71.9554L300.396 72.0565L300.789 73.4045C301.302 75.1231 302.123 79.0828 302.482 81.5766C302.91 84.5926 303.013 95.4101 302.653 99.3698C302.277 103.245 301.764 106.885 301.337 108.755C301.131 109.564 301.029 110.423 301.08 110.659C301.2 111.131 301.405 111.148 303.03 110.878C304.09 110.693 304.141 110.659 304.449 109.968C304.825 109.126 305.167 106.43 305.56 101.307C305.766 98.4599 305.817 96.1346 305.749 90.5911C305.646 82.2505 305.458 80.4982 303.987 74.0953C303.662 72.6968 303.457 71.5173 303.526 71.4668C303.611 71.4162 304.603 71.0792 305.766 70.7422C310.93 69.1921 315.051 66.8837 317.137 64.3899C318.078 63.261 319.018 61.357 319.788 58.998C320.746 56.083 320.917 54.9541 320.78 52.4267C320.643 49.7476 320.233 47.7762 319.155 44.5073C317.668 40.0085 316.847 38.6942 314.179 36.5206C311.802 34.5829 308.143 32.8979 305.218 32.3924C303.902 32.1565 302.055 32.1902 299.815 32.4767ZM305.389 35.6613C307.099 36.2341 308.314 36.8576 310.434 38.2393C313.512 40.2781 314.384 41.4407 315.701 45.3498C316.881 48.804 317.103 49.8992 317.206 52.5952C317.291 55.0215 317.291 55.0552 316.676 57.1446C315.855 59.9416 314.931 61.8119 313.854 62.8734C312.093 64.609 308.519 66.5467 304.517 67.9115C302.038 68.7708 300.123 69.0741 296.395 69.2089C293.881 69.2932 293.419 69.2595 292.205 68.9562C289.572 68.2653 288.186 67.2543 285.741 64.2214C284.27 62.4017 283.706 61.4244 283.159 59.8068C282.27 57.094 282.133 52.0054 282.885 49.1578C283.296 47.574 284.39 45.4846 285.69 43.7996C287.383 41.5923 287.52 41.4575 288.306 41.3901C289.315 41.289 289.64 41.0363 290.427 39.7557C290.974 38.8795 291.35 38.4752 292.205 37.936C293.539 37.0766 295.694 36.1667 297.404 35.7455C299.233 35.2906 299.302 35.2906 301.833 35.2569C303.85 35.24 304.261 35.2906 305.389 35.6613Z" fill="#C6ECE5"/>
<path d="M298.815 30.5226C297.823 30.6405 296.523 30.8764 295.908 31.0281C294.437 31.3651 291.051 32.7804 289.239 33.7914C288.435 34.2295 287.597 34.6507 287.375 34.7181C287.152 34.7855 286.605 35.0383 286.178 35.291C285.545 35.6617 285.34 35.8976 285.117 36.5211C284.981 36.9591 284.416 37.869 283.852 38.543C281.612 41.3064 280.124 43.9686 279.457 46.3949C279.201 47.3891 279.081 48.4001 279.03 50.6579C278.876 55.4601 279.303 57.9538 280.757 60.8351C282.176 63.649 285.613 67.4065 287.785 68.5354C290.179 69.7486 290.914 69.9002 295.395 70.0013L299.396 70.1024L299.789 71.4504C300.302 73.169 301.123 77.1287 301.482 79.6225C301.91 82.6385 302.013 93.456 301.653 97.4157C301.277 101.291 300.764 104.931 300.337 106.801C300.131 107.61 300.029 108.469 300.08 108.705C300.2 109.177 300.405 109.194 302.03 108.924C303.09 108.739 303.141 108.705 303.449 108.014C303.825 107.172 304.167 104.476 304.56 99.3534C304.766 96.5058 304.817 94.1805 304.749 88.637C304.646 80.2964 304.458 78.5441 302.987 72.1412C302.662 70.7427 302.457 69.5632 302.526 69.5127C302.611 69.4621 303.603 69.1251 304.766 68.7881C309.93 67.238 314.051 64.9296 316.137 62.4358C317.078 61.3069 318.018 59.4029 318.788 57.0439C319.746 54.1289 319.917 53 319.78 50.4726C319.643 47.7935 319.233 45.8221 318.155 42.5532C316.668 38.0544 315.847 36.7401 313.179 34.5665C310.802 32.6288 307.143 30.9438 304.218 30.4383C302.902 30.2024 301.055 30.2361 298.815 30.5226ZM304.389 33.7072C306.099 34.28 307.314 34.9035 309.434 36.2852C312.512 38.324 313.384 39.4866 314.701 43.3957C315.881 46.8499 316.103 47.9451 316.206 50.6411C316.291 53.0674 316.291 53.1011 315.676 55.1905C314.855 57.9875 313.931 59.8578 312.854 60.9193C311.093 62.6549 307.519 64.5926 303.517 65.9574C301.038 66.8167 299.123 67.12 295.395 67.2548C292.881 67.3391 292.419 67.3054 291.205 67.0021C288.572 66.3112 287.186 65.3003 284.741 62.2673C283.27 60.4476 282.706 59.4703 282.159 57.8527C281.27 55.1399 281.133 50.0513 281.885 47.2037C282.296 45.6199 283.39 43.5305 284.69 41.8455C286.383 39.6382 286.52 39.5034 287.306 39.436C288.315 39.3349 288.64 39.0822 289.427 37.8016C289.974 36.9254 290.35 36.5211 291.205 35.9819C292.539 35.1225 294.694 34.2127 296.404 33.7914C298.233 33.3365 298.302 33.3365 300.833 33.3028C302.85 33.2859 303.261 33.3365 304.389 33.7072Z" fill="#C6ECE5"/>
<path d="M250.815 23.6847C249.823 23.8026 248.523 24.0385 247.908 24.1902C246.437 24.5272 243.051 25.9425 241.239 26.9535C240.435 27.3916 239.597 27.8128 239.375 27.8802C239.152 27.9476 238.605 28.2004 238.178 28.4531C237.545 28.8238 237.34 29.0597 237.117 29.6832C236.981 30.1212 236.416 31.0311 235.852 31.7051C233.612 34.4685 232.124 37.1307 231.457 39.5571C231.201 40.5512 231.081 41.5622 231.03 43.82C230.876 48.6222 231.303 51.1159 232.757 53.9972C234.176 56.8111 237.613 60.5686 239.785 61.6975C242.179 62.9107 242.914 63.0623 247.395 63.1634L251.396 63.2645L251.789 64.6125C252.302 66.3311 253.123 70.2908 253.482 72.7846C253.91 75.8006 254.013 86.6181 253.653 90.5778C253.277 94.4532 252.764 98.0927 252.337 99.963C252.131 100.772 252.029 101.631 252.08 101.867C252.2 102.339 252.405 102.356 254.03 102.086C255.09 101.901 255.141 101.867 255.449 101.176C255.825 100.334 256.167 97.6378 256.56 92.5155C256.766 89.6679 256.817 87.3427 256.749 81.7991C256.646 73.4585 256.458 71.7062 254.987 65.3033C254.662 63.9048 254.457 62.7253 254.526 62.6748C254.611 62.6242 255.603 62.2872 256.766 61.9502C261.93 60.4001 266.051 58.0917 268.137 55.5979C269.078 54.469 270.018 52.565 270.788 50.206C271.746 47.291 271.917 46.1621 271.78 43.6347C271.643 40.9556 271.233 38.9842 270.155 35.7153C268.668 31.2165 267.847 29.9022 265.179 27.7286C262.802 25.7909 259.143 24.1059 256.218 23.6004C254.902 23.3645 253.055 23.3982 250.815 23.6847ZM256.389 26.8693C258.099 27.4422 259.314 28.0656 261.434 29.4473C264.512 31.4861 265.384 32.6487 266.701 36.5578C267.881 40.012 268.103 41.1072 268.206 43.8032C268.291 46.2295 268.291 46.2632 267.676 48.3526C266.855 51.1496 265.931 53.0199 264.854 54.0814C263.093 55.817 259.519 57.7547 255.517 59.1195C253.038 59.9788 251.123 60.2821 247.395 60.4169C244.881 60.5012 244.419 60.4675 243.205 60.1642C240.572 59.4733 239.186 58.4624 236.741 55.4294C235.27 53.6097 234.706 52.6324 234.159 51.0148C233.27 48.302 233.133 43.2134 233.885 40.3658C234.296 38.782 235.39 36.6926 236.69 35.0076C238.383 32.8003 238.52 32.6655 239.306 32.5981C240.315 32.497 240.64 32.2443 241.427 30.9637C241.974 30.0875 242.35 29.6832 243.205 29.144C244.539 28.2846 246.694 27.3748 248.404 26.9535C250.233 26.4986 250.302 26.4986 252.833 26.4649C254.85 26.448 255.261 26.4986 256.389 26.8693Z" fill="#C6ECE5"/>
<path d="M252.815 23.6847C251.823 23.8026 250.523 24.0385 249.908 24.1902C248.437 24.5272 245.051 25.9425 243.239 26.9535C242.435 27.3916 241.597 27.8128 241.375 27.8802C241.152 27.9476 240.605 28.2004 240.178 28.4531C239.545 28.8238 239.34 29.0597 239.117 29.6832C238.981 30.1212 238.416 31.0311 237.852 31.7051C235.612 34.4685 234.124 37.1307 233.457 39.5571C233.201 40.5512 233.081 41.5622 233.03 43.82C232.876 48.6222 233.303 51.1159 234.757 53.9972C236.176 56.8111 239.613 60.5686 241.785 61.6975C244.179 62.9107 244.914 63.0623 249.395 63.1634L253.396 63.2645L253.789 64.6125C254.302 66.3311 255.123 70.2908 255.482 72.7846C255.91 75.8006 256.013 86.6181 255.653 90.5778C255.277 94.4532 254.764 98.0927 254.337 99.963C254.131 100.772 254.029 101.631 254.08 101.867C254.2 102.339 254.405 102.356 256.03 102.086C257.09 101.901 257.141 101.867 257.449 101.176C257.825 100.334 258.167 97.6378 258.56 92.5155C258.766 89.6679 258.817 87.3427 258.749 81.7991C258.646 73.4585 258.458 71.7062 256.987 65.3033C256.662 63.9048 256.457 62.7253 256.526 62.6748C256.611 62.6242 257.603 62.2872 258.766 61.9502C263.93 60.4001 268.051 58.0917 270.137 55.5979C271.078 54.469 272.018 52.565 272.788 50.206C273.746 47.291 273.917 46.1621 273.78 43.6347C273.643 40.9556 273.233 38.9842 272.155 35.7153C270.668 31.2165 269.847 29.9022 267.179 27.7286C264.802 25.7909 261.143 24.1059 258.218 23.6004C256.902 23.3645 255.055 23.3982 252.815 23.6847ZM258.389 26.8693C260.099 27.4422 261.314 28.0656 263.434 29.4473C266.512 31.4861 267.384 32.6487 268.701 36.5578C269.881 40.012 270.103 41.1072 270.206 43.8032C270.291 46.2295 270.291 46.2632 269.676 48.3526C268.855 51.1496 267.931 53.0199 266.854 54.0814C265.093 55.817 261.519 57.7547 257.517 59.1195C255.038 59.9788 253.123 60.2821 249.395 60.4169C246.881 60.5012 246.419 60.4675 245.205 60.1642C242.572 59.4733 241.186 58.4624 238.741 55.4294C237.27 53.6097 236.706 52.6324 236.159 51.0148C235.27 48.302 235.133 43.2134 235.885 40.3658C236.296 38.782 237.39 36.6926 238.69 35.0076C240.383 32.8003 240.52 32.6655 241.306 32.5981C242.315 32.497 242.64 32.2443 243.427 30.9637C243.974 30.0875 244.35 29.6832 245.205 29.144C246.539 28.2846 248.694 27.3748 250.404 26.9535C252.233 26.4986 252.302 26.4986 254.833 26.4649C256.85 26.448 257.261 26.4986 258.389 26.8693Z" fill="#C6ECE5"/>
<path d="M251.815 21.7306C250.823 21.8485 249.523 22.0844 248.908 22.2361C247.437 22.5731 244.051 23.9884 242.239 24.9994C241.435 25.4375 240.597 25.8588 240.375 25.9262C240.152 25.9935 239.605 26.2463 239.178 26.499C238.545 26.8697 238.34 27.1056 238.117 27.7291C237.981 28.1671 237.416 29.077 236.852 29.751C234.612 32.5144 233.124 35.1766 232.457 37.603C232.201 38.5971 232.081 39.6081 232.03 41.8659C231.876 46.6681 232.303 49.1618 233.757 52.0431C235.176 54.857 238.613 58.6145 240.785 59.7434C243.179 60.9566 243.914 61.1082 248.395 61.2093L252.396 61.3104L252.789 62.6584C253.302 64.377 254.123 68.3367 254.482 70.8305C254.91 73.8465 255.013 84.664 254.653 88.6237C254.277 92.4991 253.764 96.1386 253.337 98.0089C253.131 98.8177 253.029 99.6771 253.08 99.913C253.2 100.385 253.405 100.402 255.03 100.132C256.09 99.9467 256.141 99.913 256.449 99.2221C256.825 98.3796 257.167 95.6837 257.56 90.5614C257.766 87.7138 257.817 85.3886 257.749 79.845C257.646 71.5044 257.458 69.7521 255.987 63.3492C255.662 61.9507 255.457 60.7712 255.526 60.7207C255.611 60.6701 256.603 60.3331 257.766 59.9961C262.93 58.446 267.051 56.1376 269.137 53.6438C270.078 52.5149 271.018 50.6109 271.788 48.2519C272.746 45.3369 272.917 44.208 272.78 41.6806C272.643 39.0015 272.233 37.0301 271.155 33.7612C269.668 29.2624 268.847 27.9481 266.179 25.7745C263.802 23.8368 260.143 22.1518 257.218 21.6463C255.902 21.4104 254.055 21.4441 251.815 21.7306ZM257.389 24.9152C259.099 25.4881 260.314 26.1115 262.434 27.4932C265.512 29.532 266.384 30.6946 267.701 34.6037C268.881 38.0579 269.103 39.1531 269.206 41.8491C269.291 44.2754 269.291 44.3091 268.676 46.3985C267.855 49.1955 266.931 51.0658 265.854 52.1273C264.093 53.8629 260.519 55.8006 256.517 57.1654C254.038 58.0247 252.123 58.328 248.395 58.4628C245.881 58.5471 245.419 58.5134 244.205 58.2101C241.572 57.5192 240.186 56.5083 237.741 53.4753C236.27 51.6556 235.706 50.6783 235.159 49.0607C234.27 46.3479 234.133 41.2593 234.885 38.4117C235.296 36.8279 236.39 34.7385 237.69 33.0535C239.383 30.8462 239.52 30.7114 240.306 30.644C241.315 30.543 241.64 30.2902 242.427 29.0096C242.974 28.1334 243.35 27.7291 244.205 27.1899C245.539 26.3305 247.694 25.4207 249.404 24.9994C251.233 24.5445 251.302 24.5445 253.833 24.5108C255.85 24.4939 256.261 24.5445 257.389 24.9152Z" fill="#C6ECE5"/>
<path d="M206.815 44.1993C205.823 44.3173 204.523 44.5532 203.908 44.7048C202.437 45.0418 199.051 46.4572 197.239 47.4682C196.435 47.9063 195.597 48.3275 195.375 48.3949C195.152 48.4623 194.605 48.715 194.178 48.9678C193.545 49.3385 193.34 49.5744 193.117 50.1978C192.981 50.6359 192.416 51.5458 191.852 52.2198C189.612 54.9831 188.124 57.6454 187.457 60.0717C187.201 61.0658 187.081 62.0768 187.03 64.3347C186.876 69.1368 187.303 71.6306 188.757 74.5119C190.176 77.3257 193.613 81.0832 195.785 82.2121C198.179 83.4253 198.914 83.577 203.395 83.6781L207.396 83.7792L207.789 85.1271C208.302 86.8458 209.123 90.8055 209.482 93.2992C209.91 96.3153 210.012 107.133 209.653 111.092C209.277 114.968 208.764 118.607 208.337 120.478C208.131 121.286 208.029 122.146 208.08 122.382C208.2 122.853 208.405 122.87 210.03 122.601C211.09 122.415 211.141 122.382 211.449 121.691C211.825 120.848 212.167 118.152 212.56 113.03C212.766 110.183 212.817 107.857 212.749 102.314C212.646 93.9732 212.458 92.2208 210.987 85.818C210.662 84.4194 210.457 83.24 210.526 83.1894C210.611 83.1389 211.603 82.8019 212.766 82.4649C217.93 80.9147 222.051 78.6063 224.137 76.1126C225.078 74.9836 226.018 73.0796 226.788 70.7207C227.746 67.8057 227.917 66.6768 227.78 64.1493C227.643 61.4702 227.233 59.4988 226.155 56.23C224.668 51.7311 223.847 50.4168 221.179 48.2432C218.802 46.3055 215.143 44.6206 212.218 44.1151C210.902 43.8792 209.055 43.9129 206.815 44.1993ZM212.389 47.3839C214.099 47.9568 215.314 48.5802 217.434 49.9619C220.512 52.0007 221.384 53.1633 222.701 57.0725C223.881 60.5266 224.103 61.6219 224.206 64.3178C224.291 66.7442 224.291 66.7779 223.676 68.8672C222.855 71.6643 221.931 73.5346 220.854 74.5961C219.093 76.3316 215.519 78.2693 211.517 79.6341C209.038 80.4935 207.123 80.7968 203.395 80.9316C200.881 81.0158 200.419 80.9821 199.205 80.6788C196.572 79.988 195.186 78.977 192.741 75.9441C191.27 74.1243 190.706 73.147 190.159 71.5295C189.27 68.8167 189.133 63.7281 189.885 60.8805C190.296 59.2966 191.39 57.2073 192.69 55.5223C194.383 53.315 194.52 53.1802 195.306 53.1128C196.315 53.0117 196.64 52.759 197.427 51.4784C197.974 50.6022 198.35 50.1978 199.205 49.6586C200.539 48.7993 202.694 47.8894 204.404 47.4682C206.233 47.0132 206.302 47.0132 208.833 46.9795C210.85 46.9627 211.261 47.0132 212.389 47.3839Z" fill="#C6ECE5"/>
<path d="M208.815 44.1993C207.823 44.3173 206.523 44.5532 205.908 44.7048C204.437 45.0418 201.051 46.4572 199.239 47.4682C198.435 47.9063 197.597 48.3275 197.375 48.3949C197.152 48.4623 196.605 48.715 196.178 48.9678C195.545 49.3385 195.34 49.5744 195.117 50.1978C194.981 50.6359 194.416 51.5458 193.852 52.2198C191.612 54.9831 190.124 57.6454 189.457 60.0717C189.201 61.0658 189.081 62.0768 189.03 64.3347C188.876 69.1368 189.303 71.6306 190.757 74.5119C192.176 77.3257 195.613 81.0832 197.785 82.2121C200.179 83.4253 200.914 83.577 205.395 83.6781L209.396 83.7792L209.789 85.1271C210.302 86.8458 211.123 90.8055 211.482 93.2992C211.91 96.3153 212.012 107.133 211.653 111.092C211.277 114.968 210.764 118.607 210.337 120.478C210.131 121.286 210.029 122.146 210.08 122.382C210.2 122.853 210.405 122.87 212.03 122.601C213.09 122.415 213.141 122.382 213.449 121.691C213.825 120.848 214.167 118.152 214.56 113.03C214.766 110.183 214.817 107.857 214.749 102.314C214.646 93.9732 214.458 92.2208 212.987 85.818C212.662 84.4194 212.457 83.24 212.526 83.1894C212.611 83.1389 213.603 82.8019 214.766 82.4649C219.93 80.9147 224.051 78.6063 226.137 76.1126C227.078 74.9836 228.018 73.0796 228.788 70.7207C229.746 67.8057 229.917 66.6768 229.78 64.1493C229.643 61.4702 229.233 59.4988 228.155 56.23C226.668 51.7311 225.847 50.4168 223.179 48.2432C220.802 46.3055 217.143 44.6206 214.218 44.1151C212.902 43.8792 211.055 43.9129 208.815 44.1993ZM214.389 47.3839C216.099 47.9568 217.314 48.5802 219.434 49.9619C222.512 52.0007 223.384 53.1633 224.701 57.0725C225.881 60.5266 226.103 61.6219 226.206 64.3178C226.291 66.7442 226.291 66.7779 225.676 68.8672C224.855 71.6643 223.931 73.5346 222.854 74.5961C221.093 76.3316 217.519 78.2693 213.517 79.6341C211.038 80.4935 209.123 80.7968 205.395 80.9316C202.881 81.0158 202.419 80.9821 201.205 80.6788C198.572 79.988 197.186 78.977 194.741 75.9441C193.27 74.1243 192.706 73.147 192.159 71.5295C191.27 68.8167 191.133 63.7281 191.885 60.8805C192.296 59.2966 193.39 57.2073 194.69 55.5223C196.383 53.315 196.52 53.1802 197.306 53.1128C198.315 53.0117 198.64 52.759 199.427 51.4784C199.974 50.6022 200.35 50.1978 201.205 49.6586C202.539 48.7993 204.694 47.8894 206.404 47.4682C208.233 47.0132 208.302 47.0132 210.833 46.9795C212.85 46.9627 213.261 47.0132 214.389 47.3839Z" fill="#C6ECE5"/>
<path d="M207.815 42.2452C206.823 42.3632 205.523 42.5991 204.908 42.7507C203.437 43.0877 200.051 44.5031 198.239 45.5141C197.435 45.9522 196.597 46.3734 196.375 46.4408C196.152 46.5082 195.605 46.7609 195.178 47.0137C194.545 47.3844 194.34 47.6203 194.117 48.2437C193.981 48.6818 193.416 49.5917 192.852 50.2657C190.612 53.029 189.124 55.6913 188.457 58.1176C188.201 59.1117 188.081 60.1227 188.03 62.3806C187.876 67.1827 188.303 69.6765 189.757 72.5577C191.176 75.3716 194.613 79.1291 196.785 80.258C199.179 81.4712 199.914 81.6229 204.395 81.724L208.396 81.8251L208.789 83.173C209.302 84.8917 210.123 88.8514 210.482 91.3451C210.91 94.3612 211.012 105.179 210.653 109.138C210.277 113.014 209.764 116.653 209.337 118.524C209.131 119.332 209.029 120.192 209.08 120.428C209.2 120.899 209.405 120.916 211.03 120.647C212.09 120.461 212.141 120.428 212.449 119.737C212.825 118.894 213.167 116.198 213.56 111.076C213.766 108.228 213.817 105.903 213.749 100.36C213.646 92.0191 213.458 90.2667 211.987 83.8639C211.662 82.4653 211.457 81.2859 211.526 81.2353C211.611 81.1848 212.603 80.8478 213.766 80.5108C218.93 78.9606 223.051 76.6522 225.137 74.1585C226.078 73.0295 227.018 71.1255 227.788 68.7666C228.746 65.8516 228.917 64.7227 228.78 62.1952C228.643 59.5161 228.233 57.5447 227.155 54.2759C225.668 49.777 224.847 48.4627 222.179 46.2891C219.802 44.3514 216.143 42.6665 213.218 42.161C211.902 41.9251 210.055 41.9588 207.815 42.2452ZM213.389 45.4298C215.099 46.0027 216.314 46.6261 218.434 48.0078C221.512 50.0466 222.384 51.2092 223.701 55.1184C224.881 58.5725 225.103 59.6678 225.206 62.3637C225.291 64.7901 225.291 64.8238 224.676 66.9131C223.855 69.7102 222.931 71.5805 221.854 72.642C220.093 74.3775 216.519 76.3152 212.517 77.68C210.038 78.5394 208.123 78.8427 204.395 78.9775C201.881 79.0617 201.419 79.028 200.205 78.7247C197.572 78.0339 196.186 77.0229 193.741 73.99C192.27 72.1702 191.706 71.1929 191.159 69.5754C190.27 66.8626 190.133 61.774 190.885 58.9264C191.296 57.3425 192.39 55.2532 193.69 53.5682C195.383 51.3609 195.52 51.2261 196.306 51.1587C197.315 51.0576 197.64 50.8048 198.427 49.5243C198.974 48.6481 199.35 48.2437 200.205 47.7045C201.539 46.8452 203.694 45.9353 205.404 45.5141C207.233 45.0591 207.302 45.0591 209.833 45.0254C211.85 45.0086 212.261 45.0591 213.389 45.4298Z" fill="#C6ECE5"/>
<path d="M74.8147 83.2745C73.8229 83.3925 72.5233 83.6284 71.9077 83.78C70.437 84.117 67.0512 85.5324 65.2385 86.5433C64.4348 86.9814 63.5969 87.4027 63.3746 87.4701C63.1523 87.5375 62.6051 87.7902 62.1775 88.043C61.5448 88.4137 61.3396 88.6496 61.1173 89.273C60.9805 89.7111 60.4162 90.621 59.8519 91.2949C57.6118 94.0583 56.124 96.7205 55.4571 99.1469C55.2006 100.141 55.0809 101.152 55.0296 103.41C54.8757 108.212 55.3032 110.706 56.7567 113.587C58.1761 116.401 61.6132 120.158 63.785 121.287C66.179 122.501 66.9144 122.652 71.3946 122.753L75.3961 122.854L75.7894 124.202C76.3025 125.921 77.1233 129.881 77.4824 132.374C77.9099 135.39 78.0125 146.208 77.6534 150.168C77.2772 154.043 76.7642 157.683 76.3367 159.553C76.1315 160.362 76.0288 161.221 76.0802 161.457C76.1999 161.929 76.4051 161.946 78.0296 161.676C79.0898 161.491 79.1411 161.457 79.4489 160.766C79.8251 159.924 80.1671 157.228 80.5604 152.105C80.7657 149.258 80.817 146.932 80.7486 141.389C80.646 133.048 80.4578 131.296 78.9872 124.893C78.6623 123.495 78.4571 122.315 78.5255 122.265C78.611 122.214 79.6028 121.877 80.7657 121.54C85.93 119.99 90.0512 117.682 92.1374 115.188C93.0779 114.059 94.0184 112.155 94.788 109.796C95.7456 106.881 95.9166 105.752 95.7798 103.225C95.643 100.545 95.2326 98.574 94.1552 95.3052C92.6675 90.8063 91.8467 89.492 89.179 87.3184C86.8021 85.3807 83.1426 83.6958 80.2184 83.1903C78.9017 82.9544 77.0549 82.9881 74.8147 83.2745ZM80.3894 86.4591C82.0995 87.032 83.3136 87.6554 85.4341 89.0371C88.5121 91.0759 89.3842 92.2385 90.701 96.1477C91.8809 99.6018 92.1032 100.697 92.2058 103.393C92.2913 105.819 92.2913 105.853 91.6757 107.942C90.8549 110.739 89.9315 112.61 88.8541 113.671C87.0928 115.407 83.5188 117.345 79.5173 118.709C77.0378 119.569 75.1225 119.872 71.3946 120.007C68.8809 120.091 68.4192 120.057 67.2051 119.754C64.5716 119.063 63.1865 118.052 60.7411 115.019C59.2705 113.199 58.7062 112.222 58.159 110.605C57.2697 107.892 57.1329 102.803 57.8854 99.9557C58.2958 98.3718 59.3902 96.2824 60.6898 94.5975C62.3828 92.3902 62.5196 92.2554 63.3062 92.188C64.3151 92.0869 64.64 91.8341 65.4266 90.5536C65.9738 89.6774 66.35 89.273 67.2051 88.7338C68.5389 87.8745 70.6935 86.9646 72.4036 86.5433C74.2333 86.0884 74.3017 86.0884 76.8326 86.0547C78.8504 86.0379 79.2608 86.0884 80.3894 86.4591Z" fill="#C6ECE5"/>
<path d="M76.8147 83.2745C75.8229 83.3925 74.5233 83.6284 73.9077 83.78C72.437 84.117 69.0512 85.5324 67.2385 86.5433C66.4348 86.9814 65.5969 87.4027 65.3746 87.4701C65.1523 87.5375 64.6051 87.7902 64.1775 88.043C63.5448 88.4137 63.3396 88.6496 63.1173 89.273C62.9805 89.7111 62.4162 90.621 61.8519 91.2949C59.6118 94.0583 58.124 96.7205 57.4571 99.1469C57.2006 100.141 57.0809 101.152 57.0296 103.41C56.8757 108.212 57.3032 110.706 58.7567 113.587C60.1761 116.401 63.6132 120.158 65.785 121.287C68.179 122.501 68.9144 122.652 73.3946 122.753L77.3961 122.854L77.7894 124.202C78.3025 125.921 79.1233 129.881 79.4824 132.374C79.9099 135.39 80.0125 146.208 79.6534 150.168C79.2772 154.043 78.7642 157.683 78.3367 159.553C78.1315 160.362 78.0288 161.221 78.0802 161.457C78.1999 161.929 78.4051 161.946 80.0296 161.676C81.0898 161.491 81.1411 161.457 81.4489 160.766C81.8251 159.924 82.1671 157.228 82.5604 152.105C82.7657 149.258 82.817 146.932 82.7486 141.389C82.646 133.048 82.4578 131.296 80.9872 124.893C80.6623 123.495 80.4571 122.315 80.5255 122.265C80.611 122.214 81.6028 121.877 82.7657 121.54C87.93 119.99 92.0512 117.682 94.1374 115.188C95.0779 114.059 96.0184 112.155 96.788 109.796C97.7456 106.881 97.9166 105.752 97.7798 103.225C97.643 100.545 97.2326 98.574 96.1552 95.3052C94.6675 90.8063 93.8467 89.492 91.179 87.3184C88.8021 85.3807 85.1426 83.6958 82.2184 83.1903C80.9017 82.9544 79.0549 82.9881 76.8147 83.2745ZM82.3894 86.4591C84.0995 87.032 85.3136 87.6554 87.4341 89.0371C90.5121 91.0759 91.3842 92.2385 92.701 96.1477C93.8809 99.6018 94.1032 100.697 94.2058 103.393C94.2913 105.819 94.2913 105.853 93.6757 107.942C92.8549 110.739 91.9315 112.61 90.8541 113.671C89.0928 115.407 85.5188 117.345 81.5173 118.709C79.0378 119.569 77.1225 119.872 73.3946 120.007C70.8809 120.091 70.4192 120.057 69.2051 119.754C66.5716 119.063 65.1865 118.052 62.7411 115.019C61.2705 113.199 60.7062 112.222 60.159 110.605C59.2697 107.892 59.1329 102.803 59.8854 99.9557C60.2958 98.3718 61.3902 96.2824 62.6898 94.5975C64.3828 92.3902 64.5196 92.2554 65.3062 92.188C66.3151 92.0869 66.64 91.8341 67.4266 90.5536C67.9738 89.6774 68.35 89.273 69.2051 88.7338C70.5389 87.8745 72.6935 86.9646 74.4036 86.5433C76.2333 86.0884 76.3017 86.0884 78.8326 86.0547C80.8504 86.0379 81.2608 86.0884 82.3894 86.4591Z" fill="#C6ECE5"/>
<path d="M75.8147 81.3205C74.8229 81.4384 73.5233 81.6743 72.9077 81.8259C71.437 82.1629 68.0512 83.5783 66.2385 84.5893C65.4348 85.0274 64.5969 85.4486 64.3746 85.516C64.1523 85.5834 63.6051 85.8361 63.1775 86.0889C62.5448 86.4596 62.3396 86.6955 62.1173 87.3189C61.9805 87.757 61.4162 88.6669 60.8519 89.3409C58.6118 92.1042 57.124 94.7665 56.4571 97.1928C56.2006 98.1869 56.0809 99.1979 56.0296 101.456C55.8757 106.258 56.3032 108.752 57.7567 111.633C59.1761 114.447 62.6132 118.204 64.785 119.333C67.179 120.546 67.9144 120.698 72.3946 120.799L76.3961 120.9L76.7894 122.248C77.3025 123.967 78.1233 127.927 78.4824 130.42C78.9099 133.436 79.0125 144.254 78.6534 148.214C78.2772 152.089 77.7642 155.728 77.3367 157.599C77.1315 158.408 77.0288 159.267 77.0802 159.503C77.1999 159.975 77.4051 159.991 79.0296 159.722C80.0898 159.536 80.1411 159.503 80.4489 158.812C80.8251 157.969 81.1671 155.274 81.5604 150.151C81.7657 147.304 81.817 144.978 81.7486 139.435C81.646 131.094 81.4578 129.342 79.9872 122.939C79.6623 121.541 79.4571 120.361 79.5255 120.311C79.611 120.26 80.6028 119.923 81.7657 119.586C86.93 118.036 91.0512 115.727 93.1374 113.234C94.0779 112.105 95.0184 110.201 95.788 107.842C96.7456 104.927 96.9166 103.798 96.7798 101.27C96.643 98.5913 96.2326 96.6199 95.1552 93.3511C93.6675 88.8522 92.8467 87.538 90.179 85.3644C87.8021 83.4267 84.1426 81.7417 81.2184 81.2362C79.9017 81.0003 78.0549 81.034 75.8147 81.3205ZM81.3894 84.505C83.0995 85.0779 84.3136 85.7014 86.4341 87.083C89.5121 89.1218 90.3842 90.2845 91.701 94.1936C92.8809 97.6478 93.1032 98.743 93.2058 101.439C93.2913 103.865 93.2913 103.899 92.6757 105.988C91.8549 108.785 90.9315 110.656 89.8541 111.717C88.0928 113.453 84.5188 115.39 80.5173 116.755C78.0378 117.615 76.1225 117.918 72.3946 118.053C69.8809 118.137 69.4192 118.103 68.2051 117.8C65.5716 117.109 64.1865 116.098 61.7411 113.065C60.2705 111.245 59.7062 110.268 59.159 108.651C58.2697 105.938 58.1329 100.849 58.8854 98.0016C59.2958 96.4177 60.3902 94.3284 61.6898 92.6434C63.3828 90.4361 63.5196 90.3013 64.3062 90.2339C65.3151 90.1328 65.64 89.8801 66.4266 88.5995C66.9738 87.7233 67.35 87.3189 68.2051 86.7797C69.5389 85.9204 71.6935 85.0105 73.4036 84.5893C75.2333 84.1343 75.3017 84.1343 77.8326 84.1006C79.8504 84.0838 80.2608 84.1343 81.3894 84.505Z" fill="#C6ECE5"/>
</svg>
