<svg width="122" height="122" viewBox="0 0 122 122" fill="none" xmlns="http://www.w3.org/2000/svg">
<circle cx="61" cy="61" r="61" fill="#FFE7E7"/>
<g clip-path="url(#clip0)">
<mask id="path-2-outside-1" maskUnits="userSpaceOnUse" x="36.5598" y="36.9551" width="47" height="87" fill="black">
<rect fill="white" x="36.5598" y="36.9551" width="47" height="87"/>
<path d="M59.3745 40.5182C58.3827 40.6389 57.0831 40.8804 56.4675 41.0356C54.9968 41.3806 51.611 42.8295 49.7983 43.8644C48.9946 44.3129 48.1567 44.7441 47.9344 44.8131C47.7121 44.8821 47.1649 45.1408 46.7374 45.3995C46.1047 45.779 45.8994 46.0205 45.6771 46.6586C45.5403 47.1071 44.976 48.0385 44.4117 48.7285C42.1716 51.5572 40.6838 54.2825 40.0169 56.7663C39.7604 57.7839 39.6407 58.8188 39.5894 61.1301C39.4355 66.0459 39.863 68.5987 41.3165 71.5482C42.7359 74.4287 46.1731 78.2751 48.3448 79.4307C50.7389 80.6726 51.4742 80.8279 55.9545 80.9313L59.9559 81.0348L60.3493 82.4147C60.8623 84.1741 61.6831 88.2274 62.0422 90.7802C62.4697 93.8677 62.5723 104.941 62.2132 108.995C61.837 112.962 61.324 116.687 60.8965 118.602C60.6913 119.43 60.5887 120.31 60.64 120.551C60.7597 121.034 60.9649 121.051 62.5894 120.775C63.6496 120.586 63.7009 120.551 64.0087 119.844C64.3849 118.981 64.727 116.222 65.1203 110.978C65.3255 108.063 65.3768 105.683 65.3084 100.008C65.2058 91.4702 65.0177 89.6763 63.547 83.1219C63.2221 81.6903 63.0169 80.4829 63.0853 80.4311C63.1708 80.3794 64.1626 80.0344 65.3255 79.6895C70.4898 78.1026 74.611 75.7396 76.6972 73.1868C77.6377 72.0311 78.5783 70.0821 79.3478 67.6673C80.3054 64.6833 80.4764 63.5276 80.3396 60.9404C80.2028 58.1979 79.7924 56.1798 78.7151 52.8336C77.2273 48.2283 76.4065 46.8829 73.7388 44.6578C71.3619 42.6743 67.7024 40.9494 64.7783 40.432C63.4615 40.1905 61.6147 40.225 59.3745 40.5182ZM64.9493 43.7782C66.6593 44.3646 67.8734 45.0028 69.9939 46.4172C73.0719 48.5042 73.9441 49.6944 75.2608 53.696C76.4407 57.232 76.663 58.3531 76.7656 61.1129C76.8511 63.5966 76.8511 63.6311 76.2355 65.7699C75.4147 68.6332 74.4913 70.5478 73.4139 71.6344C71.6526 73.411 68.0786 75.3946 64.0771 76.7917C61.5976 77.6714 59.6823 77.9819 55.9545 78.1198C53.4407 78.2061 52.979 78.1716 51.7649 77.8611C49.1314 77.1539 47.7463 76.119 45.3009 73.0143C43.8303 71.1515 43.266 70.1511 42.7188 68.4952C41.8296 65.7182 41.6928 60.5092 42.4452 57.5942C42.8556 55.9728 43.95 53.834 45.2496 52.1092C46.9426 49.8496 47.0794 49.7116 47.866 49.6426C48.8749 49.5391 49.1998 49.2804 49.9864 47.9695C50.5336 47.0726 50.9099 46.6586 51.7649 46.1067C53.0987 45.227 55.2533 44.2956 56.9634 43.8644C58.7931 43.3987 58.8615 43.3987 61.3924 43.3642C63.4102 43.3469 63.8206 43.3987 64.9493 43.7782Z"/>
</mask>
<path d="M59.3745 40.5182C58.3827 40.6389 57.0831 40.8804 56.4675 41.0356C54.9968 41.3806 51.611 42.8295 49.7983 43.8644C48.9946 44.3129 48.1567 44.7441 47.9344 44.8131C47.7121 44.8821 47.1649 45.1408 46.7374 45.3995C46.1047 45.779 45.8994 46.0205 45.6771 46.6586C45.5403 47.1071 44.976 48.0385 44.4117 48.7285C42.1716 51.5572 40.6838 54.2825 40.0169 56.7663C39.7604 57.7839 39.6407 58.8188 39.5894 61.1301C39.4355 66.0459 39.863 68.5987 41.3165 71.5482C42.7359 74.4287 46.1731 78.2751 48.3448 79.4307C50.7389 80.6726 51.4742 80.8279 55.9545 80.9313L59.9559 81.0348L60.3493 82.4147C60.8623 84.1741 61.6831 88.2274 62.0422 90.7802C62.4697 93.8677 62.5723 104.941 62.2132 108.995C61.837 112.962 61.324 116.687 60.8965 118.602C60.6913 119.43 60.5887 120.31 60.64 120.551C60.7597 121.034 60.9649 121.051 62.5894 120.775C63.6496 120.586 63.7009 120.551 64.0087 119.844C64.3849 118.981 64.727 116.222 65.1203 110.978C65.3255 108.063 65.3768 105.683 65.3084 100.008C65.2058 91.4702 65.0177 89.6763 63.547 83.1219C63.2221 81.6903 63.0169 80.4829 63.0853 80.4311C63.1708 80.3794 64.1626 80.0344 65.3255 79.6895C70.4898 78.1026 74.611 75.7396 76.6972 73.1868C77.6377 72.0311 78.5783 70.0821 79.3478 67.6673C80.3054 64.6833 80.4764 63.5276 80.3396 60.9404C80.2028 58.1979 79.7924 56.1798 78.7151 52.8336C77.2273 48.2283 76.4065 46.8829 73.7388 44.6578C71.3619 42.6743 67.7024 40.9494 64.7783 40.432C63.4615 40.1905 61.6147 40.225 59.3745 40.5182ZM64.9493 43.7782C66.6593 44.3646 67.8734 45.0028 69.9939 46.4172C73.0719 48.5042 73.9441 49.6944 75.2608 53.696C76.4407 57.232 76.663 58.3531 76.7656 61.1129C76.8511 63.5966 76.8511 63.6311 76.2355 65.7699C75.4147 68.6332 74.4913 70.5478 73.4139 71.6344C71.6526 73.411 68.0786 75.3946 64.0771 76.7917C61.5976 77.6714 59.6823 77.9819 55.9545 78.1198C53.4407 78.2061 52.979 78.1716 51.7649 77.8611C49.1314 77.1539 47.7463 76.119 45.3009 73.0143C43.8303 71.1515 43.266 70.1511 42.7188 68.4952C41.8296 65.7182 41.6928 60.5092 42.4452 57.5942C42.8556 55.9728 43.95 53.834 45.2496 52.1092C46.9426 49.8496 47.0794 49.7116 47.866 49.6426C48.8749 49.5391 49.1998 49.2804 49.9864 47.9695C50.5336 47.0726 50.9099 46.6586 51.7649 46.1067C53.0987 45.227 55.2533 44.2956 56.9634 43.8644C58.7931 43.3987 58.8615 43.3987 61.3924 43.3642C63.4102 43.3469 63.8206 43.3987 64.9493 43.7782Z" fill="#5B6791"/>
<path d="M59.3745 40.5182L59.7312 43.243L59.7189 43.2446L59.7066 43.2461L59.3745 40.5182ZM56.4675 41.0356L57.1394 43.7003L57.1173 43.7059L57.0951 43.7111L56.4675 41.0356ZM49.7983 43.8644L51.1609 46.2509L51.1491 46.2576L51.1374 46.2642L49.7983 43.8644ZM46.7374 45.3995L48.1602 47.7506L48.1508 47.7562L46.7374 45.3995ZM45.6771 46.6586L43.0487 45.8568L43.0643 45.8054L43.082 45.7547L45.6771 46.6586ZM44.4117 48.7285L42.2574 47.0224L42.2708 47.0054L42.2846 46.9886L44.4117 48.7285ZM40.0169 56.7663L37.3522 56.0946L37.3574 56.0741L37.3629 56.0536L40.0169 56.7663ZM39.5894 61.1301L42.3368 61.1911L42.3365 61.2036L42.3361 61.2161L39.5894 61.1301ZM41.3165 71.5482L43.7815 70.3334L43.7816 70.3336L41.3165 71.5482ZM48.3448 79.4307L47.0794 81.8701L47.0666 81.8635L47.0539 81.8567L48.3448 79.4307ZM55.9545 80.9313L56.0179 78.184L56.0255 78.1842L55.9545 80.9313ZM59.9559 81.0348L60.027 78.2877L62.0453 78.3399L62.5987 80.2816L59.9559 81.0348ZM60.3493 82.4147L57.7111 83.184L57.7087 83.176L57.7065 83.168L60.3493 82.4147ZM62.0422 90.7802L64.7635 90.3974L64.7643 90.4033L62.0422 90.7802ZM62.2132 108.995L64.9505 109.237L64.9498 109.246L64.949 109.254L62.2132 108.995ZM60.8965 118.602L63.5785 119.201L63.5715 119.232L63.5638 119.263L60.8965 118.602ZM60.64 120.551L57.9726 121.212L57.9615 121.167L57.9519 121.122L60.64 120.551ZM62.5894 120.775L63.0735 123.48L63.0616 123.483L63.0497 123.485L62.5894 120.775ZM64.0087 119.844L61.489 118.747L61.4899 118.745L64.0087 119.844ZM65.1203 110.978L67.8616 111.171L67.8606 111.184L65.1203 110.978ZM65.3084 100.008L62.5605 100.041L62.5605 100.041L65.3084 100.008ZM63.547 83.1219L66.2269 82.5137L66.2284 82.5203L63.547 83.1219ZM63.0853 80.4311L61.4274 78.2396L61.5408 78.1537L61.6625 78.0801L63.0853 80.4311ZM65.3255 79.6895L66.1326 82.3163L66.1199 82.3202L66.107 82.324L65.3255 79.6895ZM76.6972 73.1868L78.8286 74.9214L78.8251 74.9258L76.6972 73.1868ZM79.3478 67.6673L76.7294 66.8329L76.7312 66.8276L79.3478 67.6673ZM80.3396 60.9404L77.5954 61.0855L77.595 61.0773L80.3396 60.9404ZM78.7151 52.8336L81.3301 51.9888L81.3309 51.9914L78.7151 52.8336ZM73.7388 44.6578L71.9787 46.7682L71.9781 46.7677L73.7388 44.6578ZM64.7783 40.432L64.2994 43.138L64.291 43.1365L64.2825 43.1349L64.7783 40.432ZM64.9493 43.7782L65.825 41.1734L65.8329 41.176L65.8407 41.1787L64.9493 43.7782ZM69.9939 46.4172L71.5188 44.131L71.5274 44.1368L71.5361 44.1427L69.9939 46.4172ZM75.2608 53.696L72.654 54.5659L72.6504 54.555L75.2608 53.696ZM76.7656 61.1129L79.5118 61.0108L79.512 61.0183L76.7656 61.1129ZM76.2355 65.7699L73.5939 65.0127L73.5947 65.0098L76.2355 65.7699ZM64.0771 76.7917L63.1583 74.2018L63.1713 74.1973L64.0771 76.7917ZM55.9545 78.1198L56.0561 80.866L56.0487 80.8663L55.9545 78.1198ZM51.7649 77.8611L51.0841 80.5235L51.0681 80.5194L51.0522 80.5151L51.7649 77.8611ZM45.3009 73.0143L47.4578 71.3115L47.4598 71.3139L45.3009 73.0143ZM42.7188 68.4952L40.1095 69.3575L40.1055 69.3454L40.1016 69.3332L42.7188 68.4952ZM42.4452 57.5942L45.1092 58.2685L45.106 58.281L42.4452 57.5942ZM45.2496 52.1092L47.4489 53.7569L47.4444 53.7629L45.2496 52.1092ZM47.866 49.6426L48.1464 52.3763L48.1263 52.3784L48.1061 52.3802L47.866 49.6426ZM49.9864 47.9695L47.6301 46.5556L47.6353 46.5469L47.6405 46.5383L49.9864 47.9695ZM51.7649 46.1067L53.2778 48.4008L53.2666 48.4082L53.2553 48.4155L51.7649 46.1067ZM56.9634 43.8644L57.6412 46.5275L57.6353 46.529L56.9634 43.8644ZM61.3924 43.3642L61.3549 40.6164L61.3689 40.6162L61.3924 43.3642ZM59.7066 43.2461C58.808 43.3555 57.6242 43.578 57.1394 43.7003L55.7955 38.371C56.542 38.1828 57.9574 37.9224 59.0425 37.7903L59.7066 43.2461ZM57.0951 43.7111C56.6059 43.8258 55.5763 44.1928 54.3369 44.72C53.1352 45.2313 51.9411 45.8054 51.1609 46.2509L48.4358 41.4779C49.4682 40.8885 50.8733 40.2207 52.1854 39.6626C53.4598 39.1204 54.8585 38.5904 55.8399 38.3602L57.0951 43.7111ZM51.1374 46.2642C50.7112 46.5019 50.2708 46.7381 49.8982 46.9284C49.6334 47.0636 49.1348 47.3179 48.7489 47.4376L47.1198 42.1885C47.0621 42.2064 47.0215 42.2216 47.0057 42.2276C46.996 42.2313 46.989 42.2341 46.9849 42.2357C46.9828 42.2366 46.9813 42.2372 46.9803 42.2376C46.9793 42.238 46.9788 42.2382 46.9788 42.2383C46.9787 42.2383 46.9791 42.2381 46.98 42.2377C46.9808 42.2374 46.982 42.2369 46.9835 42.2362C46.9867 42.2348 46.9912 42.2328 46.997 42.2303C47.0087 42.225 47.0242 42.2179 47.0438 42.2088C47.1264 42.1702 47.2459 42.1116 47.3984 42.0337C47.7013 41.879 48.0817 41.6753 48.4593 41.4646L51.1374 46.2642ZM48.7489 47.4376C48.8237 47.4144 48.8461 47.402 48.7903 47.4258C48.7493 47.4433 48.6878 47.471 48.6111 47.5082C48.4532 47.5847 48.2868 47.6739 48.1602 47.7505L45.3145 43.0485C45.8319 42.7353 46.5953 42.3513 47.1198 42.1885L48.7489 47.4376ZM48.1508 47.7562C48.0398 47.8228 48.0073 47.848 48.0123 47.8442C48.0256 47.8339 48.084 47.7868 48.1542 47.7036C48.1879 47.6636 48.2178 47.6231 48.2432 47.5841C48.2684 47.5457 48.2854 47.5147 48.2953 47.4953C48.3123 47.462 48.3047 47.4696 48.2723 47.5626L43.082 45.7547C43.2403 45.3004 43.4814 44.7193 43.9525 44.1605C44.4064 43.6223 44.9276 43.2805 45.3239 43.0428L48.1508 47.7562ZM48.3056 47.4605C48.131 48.033 47.8013 48.6231 47.5511 49.0335C47.2648 49.5031 46.9106 50.0138 46.5389 50.4683L42.2846 46.9886C42.4771 46.7532 42.6872 46.4533 42.8584 46.1725C42.9425 46.0345 43.005 45.9211 43.0454 45.8407C43.0955 45.7411 43.0795 45.7559 43.0487 45.8568L48.3056 47.4605ZM46.566 50.4345C44.4726 53.078 43.2104 55.47 42.671 57.4789L37.3629 56.0536C38.1573 53.095 39.8705 50.0364 42.2574 47.0224L46.566 50.4345ZM42.6816 57.4379C42.5012 58.1537 42.3867 58.9438 42.3368 61.1911L36.842 61.0691C36.8948 58.6938 37.0196 57.4141 37.3522 56.0946L42.6816 57.4379ZM42.3361 61.2161C42.19 65.8834 42.6004 67.9366 43.7815 70.3334L38.8516 72.7629C37.1257 69.2607 36.681 66.2085 36.8427 61.0441L42.3361 61.2161ZM43.7816 70.3336C44.3462 71.4794 45.3929 72.955 46.599 74.3067C47.8412 75.6989 48.984 76.6579 49.6357 77.0048L47.0539 81.8567C45.5339 81.0479 43.8722 79.5059 42.498 77.9659C41.0878 76.3853 39.7062 74.4975 38.8515 72.7628L43.7816 70.3336ZM49.6102 76.9914C50.7453 77.5802 51.2492 77.7829 51.9021 77.9124C52.6721 78.0652 53.7349 78.1313 56.0179 78.184L55.891 83.6787C53.6937 83.6279 52.1487 83.5646 50.8324 83.3034C49.3991 83.019 48.3383 82.5232 47.0794 81.8701L49.6102 76.9914ZM56.0255 78.1842L60.027 78.2877L59.8849 83.782L55.8834 83.6785L56.0255 78.1842ZM62.5987 80.2816L62.9921 81.6614L57.7065 83.168L57.3132 81.7881L62.5987 80.2816ZM62.9874 81.6454C63.5487 83.5703 64.3926 87.7614 64.7635 90.3974L59.3209 91.163C58.9735 88.6935 58.1758 84.7778 57.7111 83.184L62.9874 81.6454ZM64.7643 90.4033C65.0062 92.1503 65.1367 95.8663 65.1706 99.4995C65.2049 103.167 65.1429 107.066 64.9505 109.237L59.4759 108.752C59.6426 106.87 59.7089 103.205 59.6747 99.5509C59.6403 95.8621 59.5057 92.4976 59.3201 91.1571L64.7643 90.4033ZM64.949 109.254C64.5703 113.247 64.0448 117.112 63.5785 119.201L58.2145 118.003C58.6031 116.262 59.1037 112.676 59.4774 108.735L64.949 109.254ZM63.5638 119.263C63.4877 119.57 63.43 119.892 63.3982 120.143C63.3822 120.269 63.3764 120.348 63.375 120.38C63.3743 120.396 63.3757 120.379 63.3742 120.336C63.3734 120.312 63.3691 120.173 63.328 119.98L57.9519 121.122C57.861 120.694 57.8776 120.292 57.8841 120.142C57.8939 119.915 57.917 119.678 57.9459 119.45C58.0038 118.994 58.1001 118.462 58.2291 117.941L63.5638 119.263ZM63.3073 119.89C63.304 119.877 63.2762 119.762 63.2082 119.607C63.1353 119.441 63.0017 119.194 62.7667 118.944C62.2313 118.376 61.6114 118.245 61.3564 118.217C61.1624 118.195 61.084 118.22 61.2921 118.196C61.466 118.175 61.7224 118.135 62.1292 118.066L63.0497 123.485C62.6441 123.553 62.2657 123.615 61.9405 123.653C61.6495 123.688 61.2077 123.731 60.7443 123.679C60.22 123.62 59.4248 123.412 58.7666 122.713C58.1947 122.106 58.025 121.423 57.9726 121.212L63.3073 119.89ZM62.1053 118.07C62.3903 118.019 62.4879 117.999 62.5284 117.988C62.5629 117.979 62.3455 118.028 62.0726 118.207C61.9273 118.302 61.7951 118.415 61.681 118.539C61.5714 118.659 61.5007 118.764 61.4623 118.827C61.4267 118.885 61.4124 118.917 61.4228 118.895C61.4336 118.873 61.4517 118.833 61.489 118.747L66.5285 120.941C66.4488 121.124 66.0787 122.151 65.0899 122.801C64.6332 123.101 64.1849 123.237 63.902 123.31C63.6251 123.381 63.3186 123.437 63.0735 123.48L62.1053 118.07ZM61.4899 118.745C61.4608 118.812 61.5076 118.717 61.5897 118.3C61.6635 117.926 61.7446 117.406 61.8313 116.713C62.0044 115.328 62.1843 113.381 62.3799 110.773L67.8606 111.184C67.6629 113.819 67.4751 115.873 67.2849 117.395C67.1126 118.773 66.9017 120.085 66.5276 120.943L61.4899 118.745ZM62.379 110.785C62.5764 107.981 62.6286 105.687 62.5605 100.041L68.0562 99.975C68.125 105.679 68.0745 108.146 67.8615 111.171L62.379 110.785ZM62.5605 100.041C62.4596 91.6462 62.285 90.0494 60.8656 83.7235L66.2284 82.5203C67.7503 89.3033 67.9519 91.2941 68.0562 99.9751L62.5605 100.041ZM60.8671 83.7301C60.6968 82.9797 60.5537 82.2701 60.46 81.7225C60.4145 81.4563 60.3732 81.1861 60.3493 80.9533C60.3385 80.8486 60.3228 80.6742 60.3242 80.4826C60.3248 80.3978 60.3286 80.2023 60.3714 79.9654C60.3927 79.8479 60.4387 79.6321 60.5443 79.3793C60.6356 79.161 60.8764 78.6563 61.4274 78.2396L64.7432 82.6227C65.2899 82.2092 65.527 81.71 65.6151 81.4994C65.7175 81.2543 65.7608 81.0484 65.7799 80.9429C65.8184 80.7301 65.8198 80.5673 65.8202 80.5232C65.821 80.4131 65.8126 80.3528 65.8165 80.3908C65.822 80.4437 65.8395 80.5745 65.8774 80.7957C65.9504 81.2226 66.0723 81.8325 66.2269 82.5137L60.8671 83.7301ZM61.6625 78.0801C61.8255 77.9815 61.969 77.9188 61.9938 77.9077C62.0494 77.883 62.0998 77.8623 62.1361 77.8477C62.2106 77.8179 62.2901 77.7881 62.3648 77.7608C62.5175 77.705 62.7097 77.6381 62.9256 77.5655C63.3596 77.4196 63.9297 77.2371 64.5439 77.0549L66.107 82.324C65.5584 82.4868 65.0512 82.6493 64.6772 82.775C64.4891 82.8383 64.3446 82.8889 64.251 82.9231C64.2284 82.9313 64.2109 82.9379 64.1979 82.9428C64.1845 82.9479 64.1793 82.9499 64.1807 82.9494C64.1817 82.949 64.186 82.9473 64.1931 82.9443C64.1999 82.9415 64.2127 82.9361 64.2298 82.9284C64.2301 82.9283 64.3559 82.8743 64.5082 82.7822L61.6625 78.0801ZM64.5183 77.0626C69.4595 75.5443 72.9799 73.3927 74.5694 71.4478L78.8251 74.9258C76.2421 78.0864 71.52 80.6609 66.1326 82.3163L64.5183 77.0626ZM74.5658 71.4522C75.1911 70.6838 76.0038 69.1102 76.7295 66.8329L81.9661 68.5017C81.1528 71.054 80.0844 73.3784 78.8286 74.9214L74.5658 71.4522ZM76.7312 66.8276C77.1996 65.368 77.4242 64.5081 77.5355 63.754C77.6427 63.0268 77.6594 62.2962 77.5954 61.0855L83.0838 60.7953C83.1566 62.1718 83.1562 63.3127 82.9727 64.5561C82.7933 65.7726 82.4536 66.9825 81.9644 68.507L76.7312 66.8276ZM77.595 61.0773C77.4731 58.6354 77.1244 56.8599 76.0992 53.6758L81.3309 51.9914C82.4604 55.4997 82.9324 57.7604 83.0842 60.8035L77.595 61.0773ZM76.1001 53.6784C75.3624 51.3948 74.8659 50.1751 74.3222 49.2822C73.8195 48.4566 73.2015 47.7881 71.9787 46.7682L75.499 42.5475C76.9438 43.7526 78.0701 44.8693 79.0166 46.424C79.9222 47.9114 80.58 49.6671 81.3301 51.9888L76.1001 53.6784ZM71.9781 46.7677C69.9535 45.0782 66.7319 43.5684 64.2994 43.138L65.2571 37.7259C68.6729 38.3304 72.7703 40.2703 75.4996 42.5479L71.9781 46.7677ZM64.2825 43.1349C63.3805 42.9695 61.8641 42.9638 59.7312 43.243L59.0179 37.7934C61.3653 37.4861 63.5426 37.4115 65.274 37.729L64.2825 43.1349ZM65.8407 41.1787C67.8479 41.8671 69.2787 42.6369 71.5188 44.131L68.469 48.7033C66.4681 47.3687 65.4707 46.8621 64.0578 46.3776L65.8407 41.1787ZM71.5361 44.1427C73.1572 45.2419 74.4619 46.2761 75.5128 47.7258C76.543 49.147 77.1964 50.7865 77.8712 52.8371L72.6504 54.555C72.0084 52.6039 71.5674 51.6475 71.0629 50.9515C70.579 50.2839 69.9086 49.6795 68.4517 48.6917L71.5361 44.1427ZM77.8675 52.8262C79.1052 56.5351 79.3969 57.921 79.5118 61.0108L74.0195 61.215C73.9291 58.7852 73.7762 57.9288 72.654 54.5659L77.8675 52.8262ZM79.512 61.0183C79.5519 62.1774 79.5885 63.0447 79.4942 63.8793C79.3966 64.7427 79.165 65.527 78.8763 66.5301L73.5947 65.0098C73.9216 63.8741 73.9978 63.5717 74.0328 63.2622C74.071 62.924 74.0648 62.5321 74.0192 61.2074L79.512 61.0183ZM78.8772 66.5272C78.0273 69.4918 76.9504 71.9705 75.3655 73.5692L71.4624 69.6997C72.0321 69.125 72.8021 67.7745 73.5939 65.0127L78.8772 66.5272ZM75.3655 73.5692C73.1768 75.7768 69.1487 77.9317 64.983 79.3862L63.1713 74.1973C67.0085 72.8575 70.1284 71.0452 71.4624 69.6997L75.3655 73.5692ZM64.996 79.3816C62.1671 80.3852 59.9533 80.7218 56.0561 80.866L55.8528 75.3737C59.4114 75.242 61.0281 74.9576 63.1583 74.2018L64.996 79.3816ZM56.0487 80.8663C54.8127 80.9087 53.936 80.9283 53.1994 80.8819C52.3773 80.83 51.7732 80.6997 51.0841 80.5235L52.4457 75.1987C52.9707 75.333 53.2045 75.3752 53.5452 75.3966C53.9714 75.4235 54.5824 75.4173 55.8602 75.3734L56.0487 80.8663ZM51.0522 80.5151C49.4963 80.0973 48.1471 79.5346 46.8144 78.5359C45.5415 77.5821 44.4068 76.3204 43.1421 74.7147L47.4598 71.3139C48.6404 72.8129 49.4209 73.6211 50.1103 74.1377C50.7399 74.6094 51.3999 74.9177 52.4776 75.2071L51.0522 80.5151ZM43.144 74.7171C41.5348 72.6788 40.7838 71.3979 40.1095 69.3575L45.328 67.6329C45.7482 68.9042 46.1258 69.6242 47.4578 71.3115L43.144 74.7171ZM40.1016 69.3332C39.5453 67.5958 39.2738 65.309 39.2192 63.1664C39.1645 61.0194 39.3198 58.7072 39.7843 56.9074L45.106 58.281C44.8182 59.3961 44.6656 61.1459 44.7135 63.0264C44.7615 64.9113 45.0031 66.6176 45.3359 67.6572L40.1016 69.3332ZM39.7811 56.9198C40.3035 54.8562 41.5972 52.39 43.0549 50.4555L47.4444 53.7629C46.3028 55.278 45.4077 57.0894 45.1092 58.2685L39.7811 56.9198ZM43.0504 50.4614C43.8211 49.4327 44.45 48.5871 45.0092 48.0581C45.3587 47.7274 45.7982 47.3982 46.3726 47.1762C46.9063 46.9699 47.391 46.9257 47.6259 46.9051L48.1061 52.3802C47.9477 52.3941 48.1203 52.393 48.3542 52.3026C48.4795 52.2542 48.5868 52.1954 48.6711 52.1388C48.7491 52.0864 48.7889 52.0482 48.7862 52.0508C48.762 52.0736 48.6605 52.1785 48.4149 52.4881C48.1794 52.785 47.8763 53.1865 47.4489 53.7569L43.0504 50.4614ZM47.5856 46.9089C47.664 46.9009 47.7046 46.8944 47.7208 46.8915C47.7355 46.8888 47.7151 46.8916 47.6721 46.9054C47.6265 46.9201 47.5637 46.9444 47.4923 46.982C47.4202 47.0199 47.3573 47.062 47.3061 47.1025C47.2092 47.179 47.1928 47.2196 47.2626 47.1261C47.296 47.0814 47.3425 47.015 47.4057 46.9176C47.4687 46.8205 47.5421 46.7022 47.6301 46.5556L52.3428 49.3835C51.9661 50.0112 51.4624 50.8232 50.7131 51.4152C49.8028 52.1343 48.8509 52.3041 48.1464 52.3763L47.5856 46.9089ZM47.6405 46.5383C47.9572 46.0191 48.304 45.5063 48.7643 45.0199C49.2341 44.5234 49.7343 44.1466 50.2745 43.7979L53.2553 48.4155C52.9404 48.6187 52.8251 48.7249 52.7562 48.7976C52.6778 48.8804 52.5628 49.023 52.3324 49.4008L47.6405 46.5383ZM50.2519 43.8126C51.8662 42.748 54.3101 41.6994 56.2915 41.1998L57.6353 46.529C56.1966 46.8918 54.3312 47.7061 53.2778 48.4008L50.2519 43.8126ZM56.2856 41.2012C57.1707 40.976 57.8285 40.8084 58.6112 40.7214C59.339 40.6404 60.1516 40.6328 61.3549 40.6164L61.4298 46.112C60.1023 46.1301 59.6153 46.1397 59.2187 46.1838C58.877 46.2218 58.5858 46.2871 57.6412 46.5275L56.2856 41.2012ZM61.3689 40.6162C62.3586 40.6078 63.1322 40.6118 63.8247 40.6931C64.5969 40.7837 65.1892 40.9596 65.825 41.1734L64.0735 46.3829C63.5807 46.2172 63.4035 46.1775 63.1839 46.1517C62.8845 46.1166 62.444 46.1034 61.4159 46.1121L61.3689 40.6162Z" fill="#5B6791" mask="url(#path-2-outside-1)"/>
</g>
<defs>
<clipPath id="clip0">
<rect width="46" height="84" fill="white" transform="translate(38 38)"/>
</clipPath>
</defs>
</svg>
