<svg width="41" height="81" viewBox="0 0 41 81" fill="none" xmlns="http://www.w3.org/2000/svg">
<path d="M19.8147 0.246221C18.8229 0.36696 17.5233 0.608439 16.9077 0.763675C15.437 1.10864 12.0512 2.55752 10.2385 3.59242C9.4348 4.04088 8.59688 4.47209 8.37458 4.54109C8.15227 4.61008 7.60506 4.86881 7.17755 5.12754C6.54484 5.507 6.33963 5.74848 6.11733 6.38667C5.98052 6.83513 5.41621 7.76655 4.8519 8.45649C2.61175 11.2852 1.12402 14.0105 0.457104 16.4943C0.200598 17.5119 0.0808958 18.5468 0.0295947 20.8581C-0.124309 25.7739 0.303201 28.3267 1.75673 31.2762C3.17606 34.1567 6.61324 38.0031 8.78498 39.1588C11.179 40.4006 11.9144 40.5559 16.3947 40.6594L20.3961 40.7629L20.7894 42.1427C21.3025 43.9021 22.1233 47.9555 22.4824 50.5082C22.9099 53.5957 23.0125 64.6692 22.6534 68.7226C22.2772 72.6898 21.7642 76.4154 21.3367 78.33C21.1315 79.1579 21.0288 80.0376 21.0802 80.2791C21.1999 80.7621 21.4051 80.7793 23.0296 80.5033C24.0898 80.3136 24.1411 80.2791 24.4489 79.5719C24.8251 78.7095 25.1671 75.9497 25.5604 70.7062C25.7657 67.7912 25.817 65.4109 25.7486 59.7362C25.646 51.1982 25.4578 49.4043 23.9872 42.8499C23.6623 41.4183 23.4571 40.2109 23.5255 40.1592C23.611 40.1074 24.6028 39.7625 25.7657 39.4175C30.93 37.8306 35.0512 35.4676 37.1374 32.9148C38.0779 31.7592 39.0184 29.8101 39.788 27.3953C40.7456 24.4113 40.9166 23.2557 40.7798 20.6684C40.643 17.9259 40.2326 15.9078 39.1552 12.5616C37.6675 7.95628 36.8467 6.6109 34.179 4.38585C31.8021 2.40228 28.1426 0.677432 25.2184 0.159978C23.9017 -0.0815 22.0549 -0.0470031 19.8147 0.246221ZM25.3894 3.50618C27.0995 4.09263 28.3136 4.73082 30.4341 6.1452C33.5121 8.23226 34.3842 9.4224 35.701 13.424C36.8809 16.96 37.1032 18.0811 37.2058 20.8409C37.2913 23.3247 37.2913 23.3592 36.6757 25.498C35.8549 28.3612 34.9315 30.2758 33.8541 31.3625C32.0928 33.139 28.5188 35.1226 24.5173 36.5197C22.0378 37.3994 20.1225 37.7099 16.3947 37.8479C13.8809 37.9341 13.4192 37.8996 12.2051 37.5891C9.5716 36.882 8.18647 35.8471 5.74112 32.7423C4.27049 30.8795 3.70617 29.8791 3.15896 28.2232C2.26974 25.4462 2.13294 20.2372 2.88536 17.3222C3.29577 15.7008 4.39019 13.562 5.68982 11.8372C7.38275 9.57764 7.51956 9.43965 8.30617 9.37066C9.3151 9.26717 9.64 9.00844 10.4266 7.69756C10.9738 6.80064 11.35 6.38667 12.2051 5.83472C13.5389 4.95505 15.6935 4.02363 17.4036 3.59242C19.2333 3.12671 19.3017 3.12671 21.8326 3.09222C23.8504 3.07497 24.2608 3.12671 25.3894 3.50618Z" fill="#5B6791"/>
</svg>
