<svg width="35" height="35" viewBox="0 0 35 35" fill="none" xmlns="http://www.w3.org/2000/svg">
<g clip-path="url(#clip0)">
<path d="M34.6589 17.9031C34.6589 16.7135 34.5624 15.5175 34.3567 14.3472H17.8501V21.0861H27.3026C26.9104 23.2595 25.65 25.1822 23.8045 26.4039V30.7765H29.4439C32.7555 27.7286 34.6589 23.2274 34.6589 17.9031Z" fill="#4285F4"/>
<path d="M17.8501 35.0011C22.5699 35.0011 26.5503 33.4514 29.4503 30.7764L23.811 26.4038C22.242 27.4712 20.2165 28.0757 17.8565 28.0757C13.291 28.0757 9.42001 24.9956 8.03107 20.8545H2.21167V25.3621C5.18246 31.2715 11.2334 35.0011 17.8501 35.0011V35.0011Z" fill="#34A853"/>
<path d="M8.02463 20.8545C7.29158 18.681 7.29158 16.3275 8.02463 14.1541V9.64648H2.21166C-0.270424 14.5914 -0.270424 20.4172 2.21166 25.3621L8.02463 20.8545V20.8545Z" fill="#FBBC04"/>
<path d="M17.8501 6.92659C20.3451 6.88801 22.7564 7.82683 24.5633 9.55014L29.5596 4.55382C26.3959 1.58303 22.197 -0.0502629 17.8501 0.0011793C11.2333 0.0011793 5.18246 3.73074 2.21167 9.6466L8.02464 14.1542C9.40715 10.0067 13.2846 6.92659 17.8501 6.92659V6.92659Z" fill="#EA4335"/>
</g>
<defs>
<clipPath id="clip0">
<rect width="35" height="35" fill="white"/>
</clipPath>
</defs>
</svg>
