<svg width="160" height="145" viewBox="0 0 160 145" fill="none" xmlns="http://www.w3.org/2000/svg">
<path d="M49.6374 115.057C49.62 115.057 49.6028 115.053 49.5868 115.046C49.5707 115.039 49.5561 115.028 49.5439 115.015C49.5316 115.002 49.5218 114.986 49.5152 114.968C49.5085 114.951 49.5051 114.932 49.5051 114.913V101.251C49.5056 101.213 49.5198 101.177 49.5445 101.15C49.5693 101.123 49.6026 101.108 49.6374 101.108C49.6721 101.108 49.7054 101.123 49.7302 101.15C49.7549 101.177 49.7691 101.213 49.7696 101.251V114.913C49.7696 114.932 49.7662 114.951 49.7595 114.968C49.7529 114.986 49.7431 115.002 49.7309 115.015C49.7186 115.028 49.704 115.039 49.688 115.046C49.6719 115.053 49.6547 115.057 49.6374 115.057V115.057Z" fill="#57827F"/>
<path d="M62.8148 90.4165C62.5302 90.9445 62.1951 91.4381 61.8152 91.889C61.4505 92.3537 61.0507 92.7806 60.6578 93.2159C59.8476 94.0572 59.0156 94.8762 58.1406 95.6375C56.3951 97.1705 54.5455 98.5565 52.6077 99.7835C50.6718 101.027 48.6258 102.054 46.5007 102.849C45.4343 103.245 44.3426 103.556 43.2346 103.778C42.6734 103.851 42.1142 103.971 41.5508 104.005C40.9869 104.023 40.4222 104.051 39.8582 104.059C37.6092 103.976 35.3748 103.631 33.1933 103.028C31.0157 102.453 28.872 101.734 26.7742 100.875C24.6745 100.032 22.6127 99.0853 20.5613 98.1286C20.0482 97.8924 19.5339 97.6514 19.0171 97.4455C18.7642 97.3485 18.4916 97.2475 18.2209 97.1254C18.0956 97.0453 17.9642 96.9755 17.8447 96.8864C17.7272 96.7939 17.6149 96.6937 17.5084 96.5864C17.1011 96.1413 16.7952 95.5979 16.6155 95.0001C16.4327 94.4112 16.3316 93.7957 16.3156 93.1741L16.3171 93.1921C14.9729 85.1479 13.247 77.1853 11.1465 69.3365C10.1242 65.4049 8.98239 61.512 7.80917 57.6327C6.63379 53.7538 5.38082 49.9046 4.05026 46.0853C3.37888 44.179 2.70627 42.2733 2.00116 40.3822C1.65992 39.4337 1.25976 38.5119 0.96448 37.508C0.671821 36.513 0.480593 35.4858 0.394269 34.445C0.345933 33.9176 0.332258 33.3871 0.353349 32.8577C0.406897 32.2845 0.623662 31.744 0.973161 31.3123C1.32266 30.8805 1.78731 30.5793 2.30179 30.4508C2.76892 30.323 3.24487 30.2374 3.72485 30.1947C4.6948 30.1238 5.66782 30.2693 6.58455 30.6225L9.25392 31.5788L19.9317 35.4041C20.3888 35.5471 20.8347 35.7294 21.2654 35.9493C21.6962 36.1863 22.0911 36.494 22.4364 36.8618C23.1344 37.5965 23.5899 38.5628 23.7319 39.6098L24.5242 45.6842C24.5251 45.6917 24.5233 45.6992 24.5191 45.7053C24.515 45.7113 24.5088 45.7154 24.502 45.7165C24.4952 45.7177 24.4882 45.7158 24.4826 45.7115C24.477 45.7071 24.4732 45.7004 24.472 45.693L23.5392 39.6444C23.3788 38.6556 22.9303 37.7497 22.2604 37.0616C21.93 36.7189 21.5532 36.4336 21.1434 36.2159C20.7227 36.0093 20.2878 35.8394 19.8426 35.7076L9.11831 32.0407L6.43721 31.1241C5.57818 30.8053 4.66848 30.6819 3.76413 30.7615C3.31095 30.8099 2.86167 30.8948 2.41993 31.0155C2.01475 31.1178 1.64909 31.3561 1.37429 31.6969C1.0995 32.0377 0.929365 32.4639 0.88778 32.9156C0.872057 33.4079 0.886931 33.9007 0.932299 34.3908C1.01712 35.3882 1.20249 36.3723 1.48503 37.3254C1.76346 38.2697 2.16762 39.2012 2.51338 40.154C3.22332 42.0495 3.90721 43.9558 4.56506 45.873C7.19588 53.541 9.50058 61.3281 11.4792 69.2344C12.4675 73.1816 13.3896 77.1487 14.207 81.1416C15.0701 85.1234 15.7787 89.1414 16.4989 93.156L16.5 93.1664L16.5003 93.1741C16.4968 94.3759 16.9075 95.5351 17.6508 96.4216C17.7499 96.5199 17.8543 96.6118 17.9634 96.6967C18.0737 96.7787 18.1969 96.8389 18.3125 96.9115C18.5586 97.0162 18.8164 97.1084 19.0916 97.2072C19.626 97.4089 20.1416 97.6396 20.6602 97.8668C22.7284 98.7855 24.7973 99.6903 26.9001 100.492C28.9982 101.298 31.1333 101.985 33.2967 102.549C35.4508 103.122 37.6518 103.458 39.867 103.553C40.4182 103.549 40.9692 103.525 41.5206 103.512C42.0706 103.483 42.612 103.37 43.1586 103.303C44.2471 103.093 45.32 102.795 46.3688 102.414C48.4713 101.636 50.5024 100.645 52.4356 99.4532C54.3766 98.265 56.2349 96.9228 57.9957 95.4373C58.8849 94.7057 59.732 93.9159 60.5591 93.1024C60.9601 92.6815 61.369 92.2679 61.7422 91.8175C62.1292 91.3825 62.4729 90.904 62.7677 90.39L62.7694 90.3871C62.773 90.3805 62.7788 90.3758 62.7856 90.3739C62.7923 90.372 62.7995 90.3731 62.8055 90.377C62.8116 90.3809 62.8159 90.3873 62.8176 90.3947C62.8193 90.4021 62.8183 90.4099 62.8147 90.4165L62.8148 90.4165Z" fill="#57827F"/>
<path d="M2.52137 33.0885L6.57155 34.6404L10.6117 36.2215L14.6469 37.8172L18.675 39.4336C18.7092 39.4473 18.7397 39.47 18.764 39.4996C18.7882 39.5293 18.8053 39.5651 18.8138 39.6037L18.8146 39.6079C19.6202 43.3699 20.3943 47.1397 21.1369 50.9174C21.8863 54.6933 22.6049 58.4769 23.3836 62.2455C24.917 69.7888 26.592 77.297 28.2103 84.8193C28.5965 86.6758 29.3017 88.4355 30.2887 90.0051C31.2738 91.5668 32.5625 92.8719 34.0629 93.8272C35.5678 94.7617 37.2647 95.2659 38.9959 95.2929C39.87 95.2866 40.7431 95.2308 41.6119 95.1256C42.4866 95.023 43.3609 94.9161 44.2272 94.7589C45.9619 94.4698 47.6683 94.0051 49.3242 93.3708C50.9761 92.7102 52.5805 91.916 54.1241 90.9947C55.681 90.0907 57.2012 89.1045 58.7073 88.0934C60.2208 87.0948 61.7202 86.0684 63.221 85.0449C63.2269 85.0409 63.234 85.0395 63.2408 85.0411C63.2476 85.0428 63.2535 85.0472 63.2573 85.0536C63.2611 85.0599 63.2625 85.0677 63.2611 85.0751C63.2597 85.0826 63.2557 85.0891 63.2499 85.0933C60.3155 87.2528 57.3955 89.4424 54.3026 91.3503C52.7582 92.3186 51.1463 93.1524 49.4819 93.8439C47.807 94.5215 46.0758 95.0197 44.3127 95.3315C43.4334 95.4941 42.5493 95.6055 41.6652 95.7123C40.7755 95.823 39.8812 95.8829 38.9858 95.8917C37.1602 95.8757 35.3695 95.3443 33.7877 94.349C32.2436 93.3172 30.9122 91.9473 29.8773 90.3257C28.8424 88.704 28.1266 86.8659 27.775 84.9271C26.2615 77.3789 24.8046 69.8167 23.2061 62.2895C22.419 58.5229 21.5717 54.7712 20.7551 51.0119C19.9355 47.2534 19.1436 43.488 18.3796 39.7157L18.5192 39.8899L14.5048 38.2332L10.4975 36.5559L6.49524 34.8639L2.50284 33.1427C2.49639 33.1399 2.49119 33.1345 2.48837 33.1275C2.48555 33.1206 2.48533 33.1128 2.48776 33.1057C2.49018 33.0986 2.49506 33.0928 2.50134 33.0896C2.50762 33.0864 2.51481 33.086 2.52134 33.0886L2.52137 33.0885Z" fill="#57827F"/>
<path d="M49.3021 10.8115C48.1927 10.076 47.913 7.86018 48.7683 6.37703C49.847 4.50671 51.0526 7.90101 51.0526 7.90101C53.0196 11.0875 57.017 2.56711 57.017 2.56711C57.017 2.56711 53.8445 -1.79699 46.611 1.11241C39.3774 4.02181 44.3267 13.9276 44.3267 13.9276C44.3267 13.9276 36.7759 17.8068 39.314 28.1282C39.314 28.1282 46.0613 26.4141 45.6592 14.1203C45.6592 14.1203 48.4828 12.9059 49.3021 10.8115" fill="#5AAED2"/>
<path d="M50.0931 11.0311C49.6897 11.1399 49.2633 11.0732 48.9041 10.8451C48.8892 10.8351 48.8762 10.8221 48.8658 10.8067C48.8555 10.7912 48.848 10.7738 48.8439 10.7552C48.8397 10.7366 48.839 10.7173 48.8417 10.6985C48.8443 10.6796 48.8504 10.6614 48.8595 10.6451C48.8686 10.6288 48.8805 10.6146 48.8947 10.6033C48.9088 10.592 48.9248 10.5839 48.9418 10.5793C48.9588 10.5748 48.9765 10.574 48.9938 10.5769C49.0111 10.5798 49.0277 10.5864 49.0426 10.5964C49.0522 10.603 49.0611 10.6108 49.0692 10.6196C49.3495 10.895 49.7161 11.0423 50.0931 11.0311V11.0311Z" fill="#57827F"/>
<path d="M56.8114 3.01291C57.2423 3.7657 57.5794 4.57783 57.8138 5.42786C58.0648 6.28915 58.1595 7.19565 58.0925 8.09653L58.0418 7.93285C58.2831 8.2097 58.5184 8.49278 58.7508 8.77895L59.4471 9.65333C59.5081 9.74165 59.552 9.84263 59.576 9.95008C59.6 10.0575 59.6037 10.1692 59.5868 10.2783C59.57 10.3874 59.5329 10.4915 59.4779 10.5844C59.4228 10.6773 59.351 10.7569 59.2669 10.8185C59.1238 10.9381 58.9709 11.0429 58.8101 11.1316C58.7272 11.1882 58.6337 11.2238 58.5366 11.2359C58.4394 11.2479 58.341 11.2361 58.2485 11.2012L58.3406 11.1407C58.3301 12.3872 58.2102 13.6297 57.9824 14.8512C57.8632 15.4887 57.6155 16.0891 57.2572 16.6091C57.0475 16.8934 56.7515 17.0866 56.4228 17.1538C56.2574 17.1746 56.0901 17.1673 55.9268 17.1319L55.5196 17.0555C54.9895 16.9516 54.4466 16.9518 53.9165 17.056C53.3953 17.1741 52.9131 17.4438 52.5208 17.8366C51.7562 18.7221 51.1662 19.7695 50.7872 20.914C50.7852 20.9197 50.7812 20.9243 50.776 20.9268C50.7709 20.9292 50.7651 20.9294 50.7599 20.9272C50.7551 20.925 50.7512 20.921 50.7489 20.916C50.7466 20.9109 50.746 20.9051 50.7472 20.8997C50.8839 20.2941 51.0724 19.7039 51.31 19.1367C51.543 18.5513 51.8684 18.0152 52.2715 17.5529C52.6925 17.0763 53.2308 16.7426 53.8215 16.5922C54.4043 16.4576 55.0058 16.4512 55.5909 16.5735L56.0176 16.6682C56.1314 16.6968 56.2485 16.7068 56.365 16.698C56.5982 16.6541 56.8094 16.5211 56.9609 16.3227C57.294 15.8596 57.5372 15.3272 57.6756 14.7581C58.0007 13.5828 58.1817 12.3657 58.2139 11.1385C58.2145 11.12 58.2219 11.1024 58.2344 11.0897C58.2469 11.0771 58.2635 11.0703 58.2805 11.071C58.2893 11.0715 58.298 11.0739 58.306 11.0779C58.3808 11.1001 58.4591 11.1044 58.5355 11.0907C58.612 11.077 58.6848 11.0456 58.7492 10.9986C58.8986 10.9094 59.0388 10.8029 59.1673 10.681C59.2273 10.633 59.2775 10.5719 59.3148 10.5016C59.352 10.4313 59.3755 10.3534 59.3837 10.2726C59.392 10.1919 59.3848 10.1102 59.3626 10.0327C59.3405 9.95518 59.3038 9.88352 59.255 9.82224L58.5079 9.03109C58.2578 8.76344 58.0105 8.49276 57.7693 8.2158C57.7513 8.19516 57.7374 8.17063 57.7286 8.14379C57.7197 8.11695 57.7161 8.0884 57.718 8.05995L57.7186 8.05204C57.7521 7.62962 57.7511 7.20477 57.7156 6.78254C57.675 6.35518 57.6105 5.93094 57.5223 5.51222C57.3376 4.66495 57.0874 3.83628 56.7746 3.03509C56.7734 3.03236 56.7727 3.02939 56.7726 3.02637C56.7724 3.02334 56.7728 3.02031 56.7737 3.01746C56.7747 3.0146 56.7761 3.01198 56.778 3.00972C56.7798 3.00747 56.7821 3.00564 56.7846 3.00434C56.7893 3.00218 56.7945 3.00185 56.7994 3.00341C56.8043 3.00498 56.8085 3.00833 56.8114 3.01291V3.01291Z" fill="#57827F"/>
<path d="M55.6687 6.41149C55.9074 6.14869 56.2269 5.99189 56.5654 5.97143C56.8996 5.93614 57.2354 6.01745 57.5246 6.20367C57.1908 6.23156 56.8906 6.22914 56.5882 6.25884C56.2791 6.28852 55.972 6.33951 55.6687 6.41149Z" fill="#57827F"/>
<path d="M56.4778 8.19549C56.5806 8.19161 56.678 8.14429 56.7495 8.06352C56.821 7.98275 56.8609 7.87484 56.8609 7.76254C56.8609 7.65024 56.821 7.54233 56.7495 7.46156C56.678 7.38079 56.5806 7.33348 56.4778 7.32959C56.375 7.33348 56.2776 7.38079 56.2061 7.46156C56.1347 7.54233 56.0947 7.65024 56.0947 7.76254C56.0947 7.87484 56.1347 7.98275 56.2061 8.06352C56.2776 8.14429 56.375 8.19161 56.4778 8.19549V8.19549Z" fill="#57827F"/>
<path d="M51.3381 13.1655C51.708 13.6562 52.0446 14.1524 52.4043 14.6285C52.7576 15.1127 53.1493 15.5619 53.5749 15.971C53.0314 15.7227 52.5573 15.3228 52.2 14.8115C51.8278 14.3213 51.5362 13.7644 51.3381 13.1655V13.1655Z" fill="#57827F"/>
<path d="M24.1917 43.8103C24.4542 42.4786 24.7733 41.1857 25.1177 39.8873C25.4664 38.5936 25.8305 37.3029 26.2521 36.0333C27.0715 33.4788 28.0509 30.9889 29.1835 28.5812C29.7609 27.377 30.3991 26.2087 31.095 25.0817C31.786 23.9399 32.5681 22.8672 33.4324 21.8761C34.2972 20.8601 35.2953 19.9898 36.394 19.2936C37.5149 18.5871 38.7702 18.1732 40.0619 18.0841L40.0654 18.0839C40.0874 18.0828 40.1094 18.0839 40.1311 18.0872C41.3807 18.2861 42.6187 18.5209 43.8549 18.7871C45.0907 19.0502 46.3234 19.3349 47.5485 19.6654C48.79 19.9668 50.0029 20.3949 51.1711 20.9441C51.7498 21.2576 52.2748 21.5891 52.845 21.8858L54.5444 22.7734C55.1179 23.0696 55.673 23.4065 56.2062 23.7818C56.7542 24.1572 57.2282 24.648 57.6006 25.2255C58.3319 26.317 59.1908 27.3315 60.0127 28.3611C61.6753 30.4118 63.3702 32.4319 65.0973 34.4213C65.1264 34.4549 65.1449 34.4978 65.15 34.5437C65.1551 34.5896 65.1466 34.6361 65.1258 34.6763L65.1241 34.6795C64.4836 35.9111 63.7925 37.0976 63.0665 38.2659C62.3393 39.4318 61.5674 40.567 60.7391 41.6574C59.9087 42.7556 58.9979 43.7782 58.0156 44.715C57.0214 45.6985 55.8535 46.4497 54.5837 46.9223L54.753 46.8126C53.8351 47.8312 52.8963 48.8093 51.9065 49.7472C51.4106 50.2142 50.9031 50.6696 50.3602 51.094C50.0851 51.3126 49.798 51.5128 49.5007 51.6935C49.1575 51.9276 48.7641 52.0593 48.3596 52.0753L48.8041 51.5112C49.0145 52.5189 49.2332 53.5285 49.4623 54.5308L49.8163 56.0277C49.8761 56.2758 49.9392 56.5224 50.005 56.7633C50.0625 56.9867 50.1317 57.2064 50.2123 57.4212L50.2218 57.4445C50.2454 57.5022 50.2584 57.5643 50.26 57.6275C50.2615 57.6907 50.2517 57.7535 50.231 57.8125C50.2103 57.8715 50.1792 57.9255 50.1394 57.9714C50.0996 58.0172 50.0519 58.0541 49.999 58.0798C49.9551 58.101 49.9084 58.1144 49.8606 58.1195C46.9128 58.4216 43.9698 58.628 41.0146 58.7405C38.0541 58.8723 35.0889 58.798 32.137 58.5181C31.3972 58.4339 30.6574 58.3321 29.9209 58.1774C29.1723 58.0376 28.4396 57.8103 27.7356 57.4992C27.3664 57.3345 27.0216 57.111 26.7124 56.8358C26.5488 56.6828 26.4091 56.5017 26.2989 56.2996C26.1933 56.096 26.1351 55.9182 26.0512 55.7263C25.754 54.9748 25.511 54.1991 25.3243 53.4064C24.9571 51.8383 24.6909 50.2441 24.5276 48.6354C24.3555 47.0303 24.2418 45.4331 24.1917 43.8103ZM24.2755 43.819C24.4942 47.0139 24.994 50.1785 25.768 53.2689C25.9704 54.0275 26.2267 54.7676 26.5345 55.4826C26.6138 55.6505 26.6904 55.8496 26.7714 55.9919C26.8549 56.1323 26.9586 56.2572 27.0784 56.3617C27.3491 56.5841 27.6481 56.7621 27.9659 56.8902C29.3364 57.3813 30.7605 57.6722 32.201 57.7553C35.1254 57.9557 38.0578 57.9751 40.9842 57.8136C43.9162 57.6885 46.8541 57.4686 49.7704 57.1561L49.4188 57.8543C49.3133 57.5912 49.2245 57.3206 49.1529 57.0443C49.0818 56.7881 49.016 56.5348 48.9539 56.2812C48.8257 55.7746 48.7156 55.2668 48.6038 54.7597C48.3826 53.7445 48.1738 52.7307 47.9718 51.7112C47.9599 51.6513 47.9589 51.5895 47.9689 51.5292C47.979 51.4689 47.9997 51.4114 48.0301 51.3599C48.0605 51.3084 48.0999 51.264 48.146 51.2291C48.1921 51.1942 48.2441 51.1696 48.2989 51.1567C48.3375 51.1478 48.3769 51.1446 48.4162 51.147C48.6593 51.1141 48.893 51.0246 49.1017 50.8846C49.3712 50.7246 49.6316 50.547 49.8814 50.3528C50.3948 49.9609 50.8927 49.525 51.3807 49.0755C52.3545 48.1736 53.299 47.2111 54.2055 46.2269L54.2085 46.2237C54.2549 46.1736 54.3122 46.1369 54.3749 46.1171C55.5492 45.6925 56.6344 45.0172 57.5673 44.1304C58.5367 43.2388 59.4396 42.2644 60.2674 41.2164C61.1087 40.1729 61.9009 39.0771 62.6511 37.9469C63.4007 36.8177 64.1172 35.6529 64.7735 34.4614L64.8002 34.7194C63.1327 32.6678 61.4591 30.6248 59.8045 28.5607C58.9833 27.5196 58.157 26.4966 57.3825 25.3942C56.6789 24.2927 55.5203 23.6729 54.4076 23.0827C53.2806 22.507 52.1124 21.9417 50.9987 21.3392C49.8439 20.8456 48.6496 20.4704 47.4311 20.2185C44.9894 19.6423 42.5035 19.2546 40.0323 18.8564L40.1013 18.8595C38.9218 18.9548 37.7785 19.3466 36.7607 20.0044C35.7301 20.6715 34.7862 21.4868 33.9544 22.4282C33.1071 23.377 32.3385 24.4059 31.6577 25.5029C30.963 26.5993 30.3246 27.737 29.7454 28.9108C28.5719 31.2641 27.5401 33.6983 26.6563 36.198C25.7577 38.6929 24.956 41.2476 24.2754 43.8189L24.2755 43.819Z" fill="white"/>
<path d="M54.4793 46.5197C54.1787 45.7724 53.8963 45.0192 53.6106 44.2679C53.3238 43.5171 53.0538 42.7594 52.7565 42.0147C52.4803 41.2603 52.1839 40.5154 51.8761 39.7779C51.7271 39.4064 51.5648 39.0425 51.3892 38.6861C51.3073 38.5049 51.2152 38.3294 51.1134 38.1606C51.0651 38.0746 51.0126 37.9914 50.9562 37.9114L50.7673 37.6875C51.3134 38.2529 51.7522 38.9301 52.0589 39.6805C52.4076 40.4049 52.7039 41.1551 53.0003 41.9039C53.2785 42.6611 53.553 43.4195 53.7998 44.189C54.0465 44.9584 54.2814 45.7324 54.4793 46.5197Z" fill="#57827F"/>
<path d="M50.2914 60.8997C50.2663 60.8996 50.2417 60.8918 50.2205 60.8771C50.1993 60.8624 50.1824 60.8414 50.1717 60.8166L48.8635 57.7851C48.856 57.768 48.8516 57.7493 48.8508 57.7303C48.8499 57.7114 48.8524 57.6924 48.8583 57.6744C48.8642 57.6565 48.8732 57.6401 48.8849 57.626C48.8966 57.6119 48.9108 57.6005 48.9265 57.5924C48.9423 57.5843 48.9594 57.5796 48.9768 57.5788C48.9942 57.5779 49.0116 57.5808 49.0279 57.5873C49.0443 57.5937 49.0594 57.6037 49.0722 57.6165C49.0851 57.6294 49.0955 57.6449 49.1028 57.6621L50.411 60.6936C50.4205 60.7156 50.4247 60.7399 50.4233 60.7642C50.4218 60.7884 50.4149 60.8119 50.4029 60.8325C50.391 60.853 50.3745 60.8699 50.355 60.8817C50.3355 60.8934 50.3136 60.8996 50.2914 60.8997V60.8997Z" fill="#57827F"/>
<path d="M26.5471 56.2871L28.144 62.7034C27.3085 59.4852 26.7163 57 26.5471 56.2871Z" fill="#57827F"/>
<path d="M82.937 96.605C82.0442 98.3198 82.4569 101.846 82.2716 103.046C82.02 104.743 81.429 106.358 80.5407 107.777C80.3007 105.759 80.0185 103.745 79.7279 101.731C79.4374 99.7221 79.1089 97.7175 78.8057 95.7084C78.4646 93.7085 78.1445 91.6994 77.7866 89.704L77.2433 86.7064C77.0454 85.7088 76.8643 84.7111 76.6537 83.718C76.7716 84.7295 76.9106 85.7363 77.0411 86.7478L77.4665 89.7639C77.7571 91.7775 78.0814 93.782 78.3888 95.7866C78.7299 97.7911 79.0499 99.7956 79.4079 101.796C79.7659 103.791 80.128 105.791 80.5407 107.777C78.5445 110.972 75.184 112.991 71.436 114.531C68.6275 115.678 65.7353 116.564 62.7902 117.179C60.634 96.4992 63.9988 81.9525 63.9988 81.9525C63.9988 81.9525 63.6156 81.4331 62.2848 81.4331C60.9498 81.4331 57.2397 83.8238 57.2397 83.8238C43.1528 93.1752 38.7731 87.98 35.442 84.0307C33.2563 81.4377 30.0768 70.1737 28.1565 62.7625C41.102 67.9577 48.2907 60.7534 49.6383 60.7534C50.0636 60.7534 52.1482 60.5143 55.054 60.2108C55.3963 60.5924 55.6627 61.0471 55.8366 61.5462C56.0105 62.0454 56.0882 62.5784 56.0647 63.1119C57.2692 64.9785 58.7305 61.8613 58.0946 60.7534C57.9521 60.4995 57.8416 60.2258 57.7661 59.9396C58.343 59.8844 58.9411 59.8247 59.5517 59.7695C60.5666 61.2867 61.7416 63.5303 62.7902 64.6337C64.6305 66.5739 64.9506 63.4567 64.9506 63.4567C67.2331 65.2589 67.2331 62.0728 67.2331 62.0728C69.2629 63.3878 68.5638 60.2108 68.5638 60.2108C68.7031 60.0785 68.806 59.9066 68.861 59.7142C68.916 59.5219 68.921 59.3166 68.8755 59.1213C71.4679 58.9806 74.0659 59.0205 76.6537 59.2408C84.5541 60.1143 92.0755 85.2766 92.0755 85.2766C92.3618 89.7455 86.1713 90.3707 82.937 96.605Z" fill="black"/>
<path d="M37.7455 103.655C38.0401 105.661 38.2216 107.676 38.4132 109.691C38.5913 111.706 38.676 113.73 38.7909 115.75L39.1424 121.813L39.4675 127.877C39.4679 127.884 39.4656 127.892 39.461 127.898C39.4565 127.903 39.45 127.907 39.4431 127.907C39.4362 127.908 39.4294 127.906 39.424 127.901C39.4187 127.896 39.4154 127.889 39.4147 127.881L38.8789 121.835L38.3692 115.786C38.1973 113.77 37.9951 111.757 37.8861 109.735C37.7907 107.713 37.6852 105.691 37.6928 103.66C37.6928 103.653 37.6953 103.646 37.6998 103.64C37.7044 103.635 37.7106 103.632 37.7172 103.631C37.7239 103.63 37.7305 103.633 37.7358 103.637C37.741 103.642 37.7445 103.648 37.7455 103.655H37.7455Z" fill="#57827F"/>
<path d="M43.5285 103.495C43.7144 105.524 43.7868 107.555 43.8695 109.586C43.9385 111.617 43.9139 113.651 43.9197 115.683L43.9435 121.781L43.9409 127.879C43.9409 127.886 43.9382 127.894 43.9333 127.899C43.9285 127.904 43.9218 127.908 43.9149 127.908C43.9079 127.908 43.9012 127.905 43.8962 127.9C43.8912 127.894 43.8882 127.887 43.888 127.88L43.6792 121.786L43.4968 115.692C43.4339 113.66 43.3405 111.63 43.3408 109.597C43.3546 107.564 43.3584 105.531 43.4756 103.496C43.4761 103.489 43.479 103.482 43.4838 103.477C43.4886 103.472 43.495 103.469 43.5016 103.469C43.5083 103.469 43.5147 103.472 43.5197 103.476C43.5246 103.481 43.5278 103.488 43.5285 103.495V103.495Z" fill="#57827F"/>
<path d="M41.6114 132.743C48.8128 132.743 54.6507 130.161 54.6507 126.976C54.6507 123.791 48.8128 121.209 41.6114 121.209C34.4099 121.209 28.572 123.791 28.572 126.976C28.572 130.161 34.4099 132.743 41.6114 132.743Z" fill="#949494"/>
<path d="M48.3877 51.6113C48.1115 51.8256 47.7909 51.9618 47.4546 52.0077C47.2818 52.034 47.106 52.0269 46.9354 51.9866C46.8441 51.9727 46.7586 51.9297 46.6896 51.8629C46.6206 51.7962 46.5712 51.7086 46.5476 51.6113C46.6037 51.6666 46.6696 51.7086 46.7412 51.7348C46.8128 51.761 46.8887 51.7708 46.9639 51.7635C47.1169 51.7594 47.2696 51.7454 47.4211 51.7215C47.7413 51.6663 48.0639 51.6295 48.3877 51.6113V51.6113Z" fill="#57827F"/>
<path d="M54.1932 46.8251C55.5852 47.81 56.9729 48.8026 58.3767 49.7568C58.7287 49.9926 59.082 50.2279 59.4403 50.4448C59.6179 50.5586 59.8002 50.6548 59.9777 50.7572C60.0623 50.7956 60.1619 50.8523 60.2335 50.8767C60.2654 50.8848 60.2968 50.895 60.3275 50.9073C60.3979 50.9217 60.4694 50.9397 60.5392 50.961C60.9347 51.1428 61.3173 51.3563 61.6839 51.5998C62.0454 51.8304 62.4014 52.0686 62.7521 52.3146C64.1671 53.2838 65.5065 54.3787 66.7567 55.5882C67.3983 56.1934 67.9644 56.8881 68.4402 57.6543L68.601 57.9667L68.7302 58.2731C68.8265 58.4834 68.909 58.7009 68.9771 58.9239C69.0448 59.1656 69.0543 59.4223 69.0049 59.6692C68.9487 59.9176 68.8221 60.1403 68.6432 60.3055L68.6779 60.1828C68.7312 60.4765 68.7647 60.774 68.778 61.0731C68.7989 61.3795 68.7653 61.6875 68.6791 61.98C68.6567 62.0582 68.6215 62.1313 68.5753 62.1959L68.5063 62.2966L68.4096 62.373C68.346 62.4239 68.2717 62.4564 68.1936 62.4675C68.1204 62.487 68.0442 62.4895 67.97 62.4748C67.828 62.4569 67.6891 62.4171 67.5574 62.3566L67.1908 62.1487L67.3159 62.071C67.3065 62.4094 67.2585 62.7452 67.173 63.0707C67.0962 63.4137 66.9148 63.718 66.6585 63.9333C66.5175 64.0259 66.359 64.082 66.195 64.0973C66.0311 64.1126 65.8662 64.0868 65.7128 64.0217C65.566 63.9618 65.4224 63.8926 65.2828 63.8146L64.8906 63.5444L65.0476 63.4684C65.0069 64.013 64.8407 64.5375 64.5644 64.9931C64.4839 65.1159 64.379 65.2173 64.2577 65.2898C64.1364 65.3623 64.0017 65.4041 63.8636 65.4121L63.6548 65.3945C63.5897 65.377 63.5283 65.3492 63.4649 65.3262C63.343 65.2777 63.2273 65.2124 63.1205 65.132C62.7195 64.8184 62.3601 64.4457 62.0526 64.0246C61.7425 63.6187 61.4523 63.1992 61.1757 62.7716C60.6212 61.9177 60.1013 61.0431 59.5482 60.2069C59.2822 59.7899 58.9915 59.3925 58.6779 59.017C58.5353 58.8439 58.3705 58.6942 58.1887 58.5725C58.1241 58.5263 58.0494 58.4996 57.9722 58.4949C57.9178 58.4958 57.8658 58.5196 57.8271 58.5614L57.9075 58.3979C57.8529 58.9518 57.9117 59.512 58.0798 60.038C58.1228 60.1668 58.1738 60.2922 58.2327 60.4133C58.262 60.4734 58.2933 60.5324 58.3264 60.5896C58.3649 60.6709 58.4043 60.765 58.4398 60.8538C58.5333 61.193 58.5517 61.5515 58.4936 61.8999C58.3951 62.5717 58.0967 63.1894 57.6445 63.6575C57.5106 63.7941 57.3483 63.893 57.1715 63.9456C56.9948 63.9983 56.8089 64.0032 56.63 63.9599C56.3038 63.8389 56.0247 63.6009 55.8383 63.2847C55.8029 63.2385 55.7847 63.1796 55.7871 63.1195L55.7886 63.0845C55.8154 62.3962 55.6683 61.7131 55.3633 61.11C55.2853 60.9623 55.1972 60.8212 55.0999 60.6878C54.9988 60.5483 54.9027 60.4494 54.7692 60.2889C54.5199 59.9949 54.313 59.6611 54.1559 59.2991C53.8661 58.5893 53.694 57.829 53.6476 57.0536C53.5937 56.2982 53.5996 55.5392 53.6653 54.7849L53.6771 54.8685C53.4661 54.4296 53.1524 54.0596 52.7678 53.7962C52.3717 53.5111 51.9378 53.2943 51.4813 53.1534C51.021 53.0003 50.5489 52.8937 50.0709 52.835C49.8302 52.8149 49.5891 52.7877 49.3471 52.7734L48.619 52.7539C48.612 52.7542 48.6052 52.7514 48.6 52.7462C48.5949 52.741 48.5918 52.7338 48.5916 52.7261C48.5917 52.7186 48.5944 52.7115 48.599 52.706C48.6036 52.7005 48.6099 52.697 48.6167 52.6962L49.3489 52.6582C49.5933 52.6561 49.8381 52.6687 50.0835 52.6734C50.576 52.7024 51.0651 52.7809 51.5445 52.9077C52.0325 53.0329 52.4995 53.2406 52.9288 53.5231C53.1469 53.6674 53.3497 53.8377 53.5334 54.0309C53.7306 54.2288 53.8929 54.4645 54.0124 54.7263C54.0212 54.7463 54.0255 54.7683 54.0249 54.7904L54.0243 54.8102C53.991 55.5429 54.0072 56.2774 54.0729 57.0075C54.132 57.7216 54.306 58.4187 54.5871 59.0667C54.73 59.3753 54.9152 59.6584 55.1363 59.906C55.2334 60.02 55.3889 60.1753 55.5019 60.3258C55.6217 60.4799 55.7291 60.645 55.8231 60.8193C56.192 61.5228 56.372 62.3255 56.3425 63.1355L56.2929 62.9355C56.4422 63.1275 56.6042 63.3353 56.7731 63.3623C56.8642 63.3802 56.958 63.3736 57.0462 63.343C57.1344 63.3123 57.2145 63.2586 57.2794 63.1865C57.6291 62.8115 57.8603 62.3246 57.9393 61.7965C57.9807 61.5501 57.9731 61.2968 57.9169 61.054L57.8582 60.9068C57.8184 60.8358 57.7813 60.7636 57.7468 60.6901C57.6781 60.5436 57.6187 60.3921 57.5692 60.2367C57.3779 59.6168 57.3188 58.9575 57.3961 58.3089C57.4029 58.2489 57.429 58.1934 57.4697 58.1523L57.4766 58.1453C57.6139 58.0081 57.7939 57.9331 57.9801 57.9354C58.1422 57.9426 58.2998 57.9958 58.4373 58.0897C58.6621 58.2413 58.8651 58.4285 59.0397 58.645C59.364 59.0438 59.6638 59.4655 59.9372 59.9073C60.4808 60.7748 60.9787 61.662 61.5075 62.5218C61.7725 62.9507 62.0381 63.3782 62.3261 63.7832C62.5992 64.1891 62.9217 64.5523 63.2848 64.8629C63.3713 64.9347 63.4662 64.9935 63.567 65.0378C63.6159 65.0571 63.6646 65.0829 63.7137 65.0987L63.8611 65.116C63.9609 65.1127 64.0586 65.0847 64.147 65.0342C64.2355 64.9837 64.3123 64.9119 64.3716 64.8244C64.6329 64.4145 64.7972 63.9405 64.8499 63.4445C64.8543 63.4151 64.8691 63.3889 64.8911 63.3715C64.9131 63.3541 64.9406 63.347 64.9674 63.3517C64.9815 63.3544 64.995 63.36 65.007 63.3684L65.3769 63.6312C65.5049 63.7044 65.6364 63.77 65.771 63.8276C65.8977 63.8853 66.0348 63.9103 66.1718 63.901C66.3088 63.8916 66.442 63.848 66.5611 63.7735C66.7864 63.5846 66.9466 63.3182 67.0157 63.0175C67.1028 62.7109 67.1481 62.392 67.1502 62.071C67.1504 62.0557 67.1541 62.0406 67.1611 62.0272C67.168 62.0139 67.1779 62.0026 67.1899 61.9946C67.2019 61.9865 67.2156 61.9819 67.2297 61.9812C67.2437 61.9805 67.2577 61.9837 67.2704 61.9904L67.2754 61.9932L67.6235 62.1829C67.739 62.2333 67.8604 62.266 67.9841 62.28C68.0971 62.2986 68.2125 62.2707 68.3078 62.2015C68.403 62.1324 68.4712 62.027 68.4992 61.906C68.5712 61.6397 68.5961 61.3609 68.5726 61.0845C68.5566 60.8002 68.5167 60.518 68.4533 60.2417C68.4484 60.2197 68.449 60.1966 68.4552 60.175C68.4613 60.1534 68.4726 60.1339 68.488 60.1188C68.6221 59.98 68.7147 59.8003 68.7537 59.6032C68.7926 59.406 68.7761 59.2006 68.7063 59.0139C68.6347 58.8108 68.5502 58.6134 68.4534 58.4232L68.3108 58.1192L68.1557 57.8469C67.6711 57.1357 67.104 56.4962 66.4686 55.9445C65.2056 54.7898 63.8835 53.7145 62.5086 52.7238C61.8409 52.2199 61.1395 51.7717 60.4101 51.3829C60.3796 51.3749 60.3499 51.3637 60.3213 51.3493C60.2628 51.3352 60.1816 51.3176 60.114 51.2963C59.9896 51.2499 59.906 51.1959 59.8004 51.1456C59.6122 51.0353 59.427 50.9212 59.2504 50.7997C58.8917 50.562 58.5454 50.3105 58.1995 50.058C56.8182 49.0463 55.4792 47.976 54.1626 46.8721C54.1571 46.8676 54.1535 46.8609 54.1525 46.8535C54.1515 46.8461 54.1531 46.8386 54.1571 46.8325C54.1611 46.8264 54.1671 46.8222 54.1738 46.8208C54.1805 46.8194 54.1875 46.821 54.1932 46.8251Z" fill="#57827F"/>
<path d="M60.1265 57.1528C61.0479 58.0878 61.9217 59.0772 62.7439 60.1166C63.573 61.1536 64.3462 62.2425 65.0594 63.3775C65.0786 63.4091 65.0857 63.4476 65.079 63.4848C65.0724 63.5221 65.0527 63.5549 65.0241 63.5764C64.9954 63.5978 64.9603 63.6061 64.9261 63.5995C64.8919 63.5928 64.8615 63.5718 64.8414 63.5409L64.8382 63.5355C64.166 62.3812 63.4329 61.2706 62.6426 60.2093C61.8557 59.141 61.0157 58.1207 60.1265 57.1528Z" fill="#57827F"/>
<path d="M62.7913 56.5293C64.3896 58.2625 65.9069 60.0826 67.3373 61.9826C67.3591 62.0124 67.3692 62.0503 67.3655 62.0881C67.3617 62.126 67.3445 62.1607 67.3174 62.1847C67.2904 62.2087 67.2557 62.2201 67.221 62.2164C67.1864 62.2126 67.1544 62.1941 67.1322 62.1648L67.1284 62.1594C65.7702 60.2044 64.3227 58.3253 62.7913 56.5293V56.5293Z" fill="#57827F"/>
<path d="M64.6948 56.0791C65.3742 56.7287 66.0481 57.3854 66.7163 58.0493L67.71 59.0573C68.0368 59.4009 68.3628 59.7389 68.6688 60.1225C68.6918 60.1514 68.7034 60.189 68.701 60.2273C68.6986 60.2655 68.6824 60.3011 68.656 60.3262C68.6295 60.3514 68.595 60.364 68.56 60.3614C68.525 60.3588 68.4924 60.3411 68.4693 60.3122L68.4655 60.3071L68.4619 60.3021C68.1911 59.9271 67.8778 59.5669 67.5698 59.2104L66.6249 58.1535C65.9882 57.4553 65.3448 56.7638 64.6948 56.0791Z" fill="#57827F"/>
<path d="M56.8482 45.2223C57.1889 45.6847 57.5679 46.1118 57.9803 46.4984C58.3857 46.8998 58.7967 47.2948 59.2133 47.6834L61.7337 49.9895C63.4175 51.5224 65.1388 53.0099 66.8402 54.5174L66.8639 54.5407L66.8693 54.5467C67.6112 55.3924 68.4536 56.1258 69.3739 56.7273C70.2947 57.3138 71.2944 57.7385 72.3361 57.9857C74.4327 58.485 76.6183 58.2841 78.6089 57.4092C79.5837 56.9743 80.5687 56.3528 81.5729 55.8564C82.5705 55.3298 83.5926 54.8583 84.6189 54.4028C85.6517 53.9626 86.6972 53.559 87.7585 53.2076C88.8212 52.8378 89.9141 52.5805 91.0219 52.4393C91.0353 52.438 91.0487 52.4396 91.0615 52.444L91.0663 52.4457C92.0354 52.7973 93.0483 52.9843 94.0694 53C95.0828 53.0226 96.0866 52.7816 96.9978 52.2969C97.4488 52.0325 97.8823 51.7339 98.2951 51.4034C98.7995 51.1368 99.3669 51.0463 99.9202 51.144C100.447 51.2051 100.967 51.3178 101.475 51.4808C101.586 51.5221 101.7 51.5528 101.815 51.5726C101.914 51.5858 102.015 51.5789 102.112 51.5523C102.297 51.4952 102.459 51.3702 102.569 51.1984L102.675 51.0904C102.655 51.1011 102.637 51.115 102.621 51.1316C102.581 51.1715 102.554 51.225 102.545 51.2835C102.538 51.327 102.54 51.3718 102.552 51.4141C102.564 51.4564 102.585 51.4951 102.613 51.5269L102.575 51.1886C102.641 51.0465 102.667 50.8864 102.649 50.7283C102.641 50.6398 102.626 50.5523 102.603 50.4668C102.581 50.3828 102.553 50.3011 102.518 50.2224C102.502 50.1866 102.492 50.1475 102.489 50.1075C102.487 50.0674 102.492 50.0273 102.504 49.9894L102.51 49.9708C102.582 49.6113 102.56 49.2371 102.447 48.8904C102.342 48.4971 102.205 48.115 102.037 47.7487C102.018 47.7066 102.007 47.6608 102.005 47.6139C102.003 47.5671 102.009 47.5202 102.023 47.476L102.031 47.4542C102.081 47.3102 102.104 47.1566 102.098 47.0026C102.083 46.8375 102.043 46.6761 101.982 46.5245C101.913 46.3604 101.828 46.2053 101.727 46.062C101.628 45.9166 101.517 45.7815 101.395 45.6583C101.342 45.6065 101.305 45.5382 101.289 45.4627C101.273 45.3872 101.278 45.3081 101.304 45.2361L101.313 45.2142C101.421 44.9311 101.427 44.6135 101.329 44.326C101.193 44.0495 100.966 43.8399 100.694 43.74C100.033 43.5135 99.3317 43.4642 98.6495 43.5965C97.1819 43.8197 95.7364 44.1907 94.3314 44.7048L94.3281 44.7059C94.281 44.7222 94.2318 44.7294 94.1825 44.7273C92.8717 44.6674 91.5461 45.3001 90.1784 45.7664C89.4872 46.0014 88.8344 46.2653 88.0732 46.4402C87.343 46.6066 86.6264 46.691 85.9062 46.7819C83.0315 47.0741 80.1676 47.1752 77.3008 47.2121L76.226 47.2233L75.6887 47.2267L75.4201 47.2279C75.3264 47.2283 75.2175 47.2247 75.1171 47.2147C74.4999 47.1517 73.9202 46.8632 73.4718 46.3958C73.321 46.2331 73.2184 46.1063 73.0894 45.9597L70.1586 42.5371C68.2062 40.2538 66.2683 37.9552 64.3447 35.6414C64.3373 35.6326 64.3334 35.6209 64.3338 35.609C64.3341 35.597 64.3387 35.5857 64.3466 35.5774C64.3544 35.5691 64.365 35.5644 64.3759 35.5645C64.3869 35.5645 64.3974 35.5692 64.4052 35.5775C66.4631 37.7494 68.5043 39.939 70.5286 42.1463L73.5664 45.4559C73.688 45.5878 73.828 45.7481 73.9344 45.8567C74.2769 46.1966 74.7143 46.4006 75.176 46.4361C75.3183 46.4479 75.4935 46.4354 75.6766 46.4313L76.2119 46.4139L77.2822 46.3744C80.1335 46.2456 82.9923 46.1237 85.8123 45.802C86.5125 45.7152 87.2203 45.6317 87.8913 45.4791C88.5319 45.3373 89.2282 45.0659 89.9015 44.8367C90.5808 44.599 91.2578 44.3512 91.9673 44.1361C92.696 43.8941 93.4561 43.7838 94.2174 43.8094L94.0687 43.832C94.808 43.5805 95.54 43.3664 96.2885 43.1792C97.0393 42.9859 97.8002 42.8424 98.5669 42.7494C98.9611 42.7032 99.3577 42.6874 99.7539 42.702C100.177 42.7174 100.595 42.8161 100.986 42.9934C101.429 43.182 101.789 43.5504 101.989 44.0215C102.079 44.2674 102.118 44.5324 102.101 44.7969C102.088 45.0533 102.032 45.3049 101.935 45.5391L101.853 45.0953C102.009 45.2571 102.15 45.4349 102.274 45.6263C102.4 45.8172 102.507 46.0231 102.591 46.2401C102.68 46.4713 102.732 46.7169 102.747 46.9668C102.753 47.2296 102.707 47.4907 102.613 47.7325L102.606 47.4382C102.784 47.8518 102.925 48.2837 103.025 48.7275C103.078 48.9568 103.112 49.1912 103.124 49.4275C103.143 49.6913 103.109 49.9564 103.022 50.2035L103.014 49.952C103.109 50.1847 103.166 50.4344 103.181 50.689C103.199 50.9628 103.141 51.2361 103.015 51.4737L102.978 51.1355C103.006 51.168 103.028 51.2075 103.04 51.2508C103.052 51.2941 103.055 51.3399 103.048 51.3844C103.038 51.4449 103.01 51.5001 102.968 51.5414C102.949 51.5607 102.928 51.5768 102.904 51.5892L103.01 51.4814C102.923 51.6378 102.802 51.7679 102.657 51.8597C102.523 51.952 102.377 52.0215 102.224 52.0657C102.068 52.1022 101.909 52.1072 101.752 52.0805C101.613 52.0523 101.476 52.0112 101.344 51.9577C100.866 51.7863 100.374 51.6621 99.8758 51.5868C99.4067 51.4848 98.9205 51.5384 98.4796 51.7405C98.0498 52.0609 97.6008 52.3496 97.1357 52.6045C96.1778 53.0999 95.1258 53.3396 94.0665 53.3038C93.0202 53.2676 91.984 53.0698 90.9886 52.7162L91.0328 52.7225C89.9486 52.8668 88.8816 53.1365 87.8496 53.5271C86.8052 53.8945 85.7852 54.3423 84.7791 54.8214C83.7785 55.3153 82.7848 55.8255 81.8142 56.3873C80.826 56.9245 79.9178 57.5569 78.8679 58.0799C76.7632 59.0928 74.4161 59.3413 72.1723 58.7887C71.0573 58.5119 69.9891 58.0452 69.007 57.4058C68.0383 56.7575 67.1578 55.964 66.3912 55.0486L66.4201 55.0778C64.7311 53.5411 63.0832 51.9556 61.4395 50.3627C60.6162 49.5684 59.8083 48.7544 59.016 47.9207C58.618 47.5066 58.2261 47.0848 57.8405 46.6554C57.6517 46.4352 57.4573 46.2236 57.2787 45.992L57.0109 45.6461C56.9271 45.5237 56.8522 45.3913 56.7739 45.2656C56.7678 45.2557 56.7655 45.2435 56.7676 45.2317C56.7696 45.22 56.7759 45.2096 56.7849 45.2028C56.7939 45.196 56.805 45.1933 56.8158 45.1953C56.8266 45.1974 56.8362 45.204 56.8426 45.2137L56.8482 45.2223Z" fill="#57827F"/>
<path d="M96.2305 45.4459C97.1135 45.1377 98.0217 44.9231 98.9425 44.8052C99.4071 44.7433 99.8764 44.7339 100.343 44.7772C100.829 44.8023 101.299 44.9702 101.705 45.263C101.734 45.2856 101.752 45.3196 101.758 45.3574C101.763 45.3953 101.755 45.4339 101.734 45.4648C101.713 45.4957 101.682 45.5163 101.647 45.5222C101.613 45.528 101.577 45.5186 101.549 45.496L101.542 45.4903C101.183 45.2083 100.76 45.0363 100.319 44.992C99.8664 44.9265 99.4088 44.9121 98.9535 44.9489C98.0333 45.0188 97.1214 45.1852 96.2305 45.4459V45.4459Z" fill="#57827F"/>
<path d="M97.436 47.1405C98.264 46.9442 99.1061 46.8272 99.9528 46.7908C100.381 46.7751 100.809 46.8037 101.232 46.8762C101.684 46.93 102.106 47.1516 102.426 47.5041C102.449 47.5327 102.461 47.5703 102.459 47.6086C102.456 47.6468 102.441 47.6826 102.414 47.708C102.401 47.7206 102.386 47.7302 102.37 47.7364C102.353 47.7426 102.336 47.7452 102.319 47.7441C102.284 47.7417 102.251 47.7243 102.227 47.6957L102.223 47.6892L102.218 47.6829C101.947 47.3645 101.586 47.1549 101.192 47.0882C100.785 46.9948 100.37 46.9435 99.953 46.9351C99.1102 46.9236 98.268 46.9923 97.436 47.1405V47.1405Z" fill="#57827F"/>
<path d="M97.8801 48.9787C98.7389 48.809 99.6144 48.7625 100.484 48.8402C100.926 48.8753 101.36 48.9792 101.775 49.1486C102.208 49.3158 102.589 49.6125 102.875 50.0049C102.885 50.0201 102.893 50.0374 102.897 50.0558C102.902 50.0742 102.903 50.0934 102.9 50.1123C102.898 50.1311 102.892 50.1492 102.883 50.1656C102.874 50.182 102.862 50.1963 102.849 50.2077C102.835 50.2192 102.819 50.2275 102.802 50.2321C102.785 50.2368 102.767 50.2378 102.75 50.2351C102.733 50.2323 102.716 50.2259 102.701 50.2161C102.686 50.2063 102.673 50.1934 102.663 50.1781L102.659 50.1726L102.657 50.1693C102.414 49.8036 102.082 49.5193 101.699 49.3486C101.307 49.1634 100.892 49.0405 100.468 48.9835C99.6095 48.859 98.7394 48.8574 97.8801 48.9787Z" fill="#57827F"/>
<path d="M84.2175 2.75928V30.6064L119.624 34.0353V2.75928H84.2175ZM115.721 29.879L87.8343 27.3852V6.49992L115.721 6.18818V29.879Z" fill="#DAC3A2"/>
<path d="M89.9378 8.75205C89.9748 9.60427 90.0074 10.4223 90.0244 11.227C90.0433 12.0328 90.0549 12.8252 90.0269 13.6254L89.9285 13.518C90.5577 13.541 91.1869 13.5752 91.8161 13.5783C92.4453 13.5852 93.0746 13.5693 93.7038 13.5465L93.6315 13.6254C93.604 12.8115 93.5841 11.9975 93.5772 11.1837C93.5628 10.3697 93.5619 9.55579 93.5693 8.74192L93.7038 8.88879C93.0915 8.89171 92.4763 8.85848 91.8541 8.84198L89.9378 8.75205ZM89.9191 8.73161L91.7781 8.64165C92.4143 8.62521 93.0577 8.592 93.7038 8.5949C93.7394 8.59529 93.7734 8.61089 93.7986 8.63838C93.8238 8.66586 93.838 8.70303 93.8384 8.74189C93.8457 9.55578 93.8449 10.3697 93.8305 11.1836C93.8235 11.9975 93.8037 12.8115 93.7762 13.6254L93.776 13.6309C93.7757 13.6409 93.7736 13.6508 93.7698 13.6599C93.766 13.669 93.7606 13.6772 93.7539 13.684C93.7472 13.6909 93.7393 13.6962 93.7307 13.6997C93.7221 13.7032 93.713 13.7048 93.7038 13.7044C93.0746 13.6816 92.4453 13.6657 91.8161 13.6726C91.1869 13.6757 90.5577 13.7099 89.9285 13.7329C89.916 13.7334 89.9035 13.7312 89.8919 13.7264C89.8802 13.7216 89.8694 13.7143 89.8603 13.705C89.8512 13.6957 89.8438 13.6845 89.8387 13.6721C89.8335 13.6596 89.8307 13.6462 89.8302 13.6326L89.83 13.6254C89.8019 12.7977 89.8136 11.9622 89.8325 11.1402C89.8494 10.317 89.882 9.50728 89.9191 8.73161H89.9191Z" fill="#57827F"/>
<path d="M108.045 8.32116C108.111 9.97941 108.155 11.594 108.194 13.1958C108.239 14.8016 108.259 16.3793 108.276 17.9559C108.292 19.5314 108.27 21.0894 108.223 22.6556C108.183 24.2222 108.124 25.8008 108.12 27.3865L108.024 27.2819C108.884 27.295 109.743 27.2706 110.603 27.2667C111.463 27.2599 112.323 27.2239 113.183 27.2039L113.015 27.3865C112.968 25.7957 112.933 24.205 112.911 22.6143L112.862 17.8421C112.851 16.2513 112.854 14.6605 112.873 13.0698L112.954 8.29758L113.183 8.5476L110.659 8.44535L108.045 8.32116ZM108.002 8.27396L110.547 8.14983L113.183 8.04752C113.212 8.04639 113.241 8.05152 113.268 8.0626C113.295 8.07368 113.32 8.0905 113.341 8.1121C113.362 8.13371 113.379 8.15967 113.392 8.1885C113.404 8.21733 113.41 8.24848 113.411 8.28015L113.411 8.28296L113.412 8.2976L113.492 13.0699C113.51 14.6606 113.513 16.2513 113.504 17.8421L113.455 22.6143C113.431 24.205 113.396 25.7958 113.35 27.3865L113.35 27.3964C113.348 27.4434 113.33 27.4879 113.299 27.5202C113.267 27.5525 113.226 27.5701 113.183 27.5692C112.323 27.5492 111.463 27.5132 110.603 27.5064C109.743 27.5025 108.884 27.4781 108.024 27.4911C108.011 27.4913 107.999 27.4888 107.988 27.4838C107.976 27.4788 107.966 27.4714 107.957 27.4619C107.948 27.4525 107.941 27.4412 107.936 27.4288C107.931 27.4163 107.928 27.4029 107.928 27.3894L107.928 27.3865C107.924 25.7907 107.865 24.1878 107.825 22.5729C107.778 20.9576 107.755 19.3341 107.772 17.7282C107.789 16.1233 107.809 14.5195 107.854 12.9438C107.893 11.3641 107.937 9.79723 108.002 8.27396Z" fill="#57827F"/>
<path d="M104.294 35.2758V32.5508L100.392 32.1729V34.8482C98.0222 34.9181 96.2568 35.6277 96.1637 36.6747C96.0471 37.9884 98.6064 39.3345 101.881 39.6814C105.155 40.0282 107.903 39.2443 108.02 37.9306C108.112 36.8991 106.553 35.8477 104.294 35.2758Z" fill="#DAC3A2"/>
<path d="M67.7857 39.4505C69.7223 38.103 71.6813 36.7964 73.6469 35.5018C73.6699 35.487 73.6968 35.4814 73.7232 35.4859C75.5419 35.791 77.354 36.1409 79.1652 36.4958C80.9758 36.8556 82.7926 37.1736 84.6123 37.472L90.0708 38.3709C91.8882 38.6846 93.708 38.9827 95.5226 39.3152C95.5585 39.3216 95.5906 39.3433 95.6118 39.3756C95.6331 39.4078 95.6417 39.4479 95.6358 39.4871C95.6299 39.5252 95.611 39.5594 95.5828 39.5827C94.2354 40.6871 92.8785 41.7777 91.5122 42.8544L89.4698 44.4799L87.4144 46.0865C87.4116 46.0886 87.4081 46.0895 87.4047 46.0889C87.4013 46.0884 87.3982 46.0863 87.3961 46.0833C87.3941 46.0803 87.3932 46.0765 87.3936 46.0728C87.3941 46.0691 87.3958 46.0657 87.3985 46.0633L89.3903 44.3639L91.395 42.6834C92.7292 41.5598 94.0704 40.4464 95.4186 39.3431L95.4788 39.6106C93.6608 39.3006 91.8479 38.9562 90.0328 38.6274L84.5935 37.5989C82.7805 37.2549 80.9647 36.9304 79.1427 36.6477C77.3214 36.3602 75.5008 36.0676 73.6869 35.7303L73.7631 35.7144C71.7869 36.9896 69.8043 38.2529 67.7992 39.4752C67.7962 39.4771 67.7926 39.4775 67.7893 39.4766C67.786 39.4756 67.7832 39.4733 67.7814 39.47C67.7796 39.4668 67.7791 39.463 67.7799 39.4593C67.7807 39.4557 67.7828 39.4525 67.7857 39.4505V39.4505Z" fill="#57827F"/>
<path d="M70.1331 42.1035C71.2468 42.4146 72.352 42.7559 73.4559 43.1019L76.758 44.1738L80.0422 45.3095C81.1337 45.6997 82.2239 46.0942 83.3055 46.5196C82.1916 46.2089 81.0865 45.8674 79.9825 45.5217L76.6805 44.4493L73.3964 43.3131C72.305 42.9231 71.2148 42.5284 70.1331 42.1035Z" fill="#57827F"/>
<path d="M107.607 36.9243C108.275 36.8253 108.951 36.8038 109.623 36.8603C110.314 36.8965 110.99 37.0863 111.611 37.4182C111.936 37.6024 112.216 37.8684 112.427 38.1941C112.638 38.5342 112.755 38.9333 112.764 39.3439C112.77 39.738 112.716 40.1305 112.604 40.5051C112.504 40.8905 112.333 41.2496 112.101 41.5601C111.87 41.8707 111.585 42.1299 111.264 42.3236C110.963 42.5138 110.646 42.6745 110.319 42.8039C109.667 43.0689 108.98 43.2149 108.284 43.2362C107.598 43.2518 106.914 43.1545 106.255 42.9477C105.622 42.7347 104.948 42.7124 104.305 42.883C104.606 42.7046 104.941 42.6065 105.283 42.5967C105.624 42.5724 105.967 42.5854 106.306 42.6355C106.95 42.7623 107.607 42.7986 108.259 42.7436C108.902 42.6865 109.534 42.5289 110.136 42.2758C110.435 42.1493 110.725 41.9987 111.004 41.8252C111.272 41.6703 111.511 41.4598 111.706 41.2055C111.902 40.9513 112.052 40.6589 112.147 40.3439C112.253 40.0269 112.309 39.6929 112.314 39.3556C112.319 39.0319 112.241 38.713 112.088 38.4358C111.921 38.156 111.697 37.9226 111.433 37.7543C110.865 37.4083 110.243 37.1808 109.598 37.0835C108.94 36.9689 108.274 36.9157 107.607 36.9243V36.9243Z" fill="#57827F"/>
<path d="M104.884 44.84C104.884 44.84 104.77 48.8953 102.795 51.3313C102.874 51.1343 102.913 50.9208 102.908 50.7057C102.903 50.4907 102.854 50.2796 102.766 50.0873C103.083 49.256 102.322 47.5935 102.322 47.5935C102.766 46.4852 101.624 45.3768 101.624 45.3768C101.624 45.3768 102.322 43.7835 100.482 43.2294C100.482 43.2294 105.51 40.6664 104.884 44.84Z" fill="#57827F"/>
<path d="M115.679 75.174C115.661 75.1741 115.643 75.1711 115.626 75.165L81.594 62.8796C81.573 62.872 81.5535 62.86 81.5368 62.8442C81.52 62.8284 81.5063 62.8092 81.4963 62.7876C81.4864 62.7661 81.4804 62.7426 81.4788 62.7185C81.4772 62.6944 81.4799 62.6702 81.4868 62.6472C81.4938 62.6243 81.5048 62.6031 81.5193 62.5848C81.5337 62.5665 81.5513 62.5515 81.5711 62.5406C81.5908 62.5298 81.6124 62.5233 81.6344 62.5215C81.6565 62.5197 81.6787 62.5227 81.6997 62.5303L115.66 74.7901L159.387 47.4868V45.2967L78.2903 29.1501L65.0095 34.7421C64.9679 34.7595 64.9217 34.7581 64.8809 34.7383C64.8402 34.7186 64.8084 34.682 64.7923 34.6366C64.7763 34.5912 64.7773 34.5407 64.7953 34.4962C64.8133 34.4517 64.8467 34.4168 64.8882 34.3991L78.2132 28.7882C78.2423 28.7768 78.2735 28.7736 78.3041 28.7788L159.586 44.9622C159.625 44.97 159.66 44.9923 159.685 45.0254C159.71 45.0584 159.724 45.1001 159.724 45.1431V47.5937C159.724 47.626 159.716 47.6579 159.701 47.6859C159.686 47.7139 159.665 47.737 159.639 47.7531L115.762 75.1497C115.737 75.1656 115.708 75.174 115.679 75.174V75.174Z" fill="#57827F"/>
<path d="M115.583 72.8485C115.57 72.8485 115.556 72.8462 115.543 72.8417L79.3758 60.3498C79.3593 60.3441 79.344 60.3349 79.3307 60.3227C79.3174 60.3105 79.3065 60.2956 79.2985 60.2788C79.2824 60.2448 79.2793 60.2053 79.2899 60.1689C79.3004 60.1324 79.3238 60.1021 79.3549 60.0845C79.386 60.0669 79.4222 60.0635 79.4556 60.075L115.568 72.5477L159.489 45.0177C159.505 45.0082 159.521 45.0021 159.538 44.9997C159.556 44.9973 159.573 44.9986 159.59 45.0036C159.607 45.0085 159.622 45.017 159.636 45.0286C159.65 45.0402 159.661 45.0546 159.67 45.0711C159.679 45.0875 159.684 45.1057 159.686 45.1245C159.689 45.1433 159.687 45.1624 159.683 45.1807C159.678 45.199 159.671 45.2162 159.66 45.2312C159.649 45.2462 159.636 45.2588 159.621 45.2682L115.649 72.8296C115.629 72.842 115.606 72.8485 115.583 72.8485V72.8485Z" fill="#57827F"/>
<path d="M115.678 75.1341C115.644 75.1341 115.612 75.1198 115.587 75.0942C115.563 75.0686 115.548 75.0337 115.547 74.9967L115.451 72.7109C115.45 72.692 115.453 72.6731 115.459 72.6552C115.465 72.6374 115.474 72.621 115.486 72.607C115.497 72.5929 115.512 72.5816 115.527 72.5735C115.543 72.5655 115.56 72.5609 115.577 72.5601C115.612 72.5597 115.646 72.5736 115.671 72.5991C115.697 72.6246 115.713 72.6597 115.715 72.6975L115.811 74.9832C115.811 75.0022 115.809 75.0211 115.803 75.0389C115.797 75.0568 115.788 75.0732 115.776 75.0872C115.764 75.1012 115.75 75.1126 115.735 75.1206C115.719 75.1286 115.702 75.1332 115.684 75.1341H115.678Z" fill="#57827F"/>
<path d="M115.691 74.3186L115.955 91.9689L116.153 109.619C116.225 115.503 116.372 121.386 116.285 127.27C116.238 130.211 116.19 133.153 116.085 136.095L115.926 140.507C115.847 141.978 115.792 143.449 115.691 144.92C115.689 144.938 115.682 144.955 115.67 144.967C115.657 144.98 115.641 144.987 115.624 144.987C115.608 144.987 115.592 144.98 115.579 144.967C115.567 144.955 115.56 144.938 115.558 144.92C115.457 143.449 115.402 141.978 115.323 140.507L115.164 136.095C115.059 133.153 115.011 130.211 114.963 127.27C114.877 121.386 115.024 115.503 115.096 109.619L115.294 91.9689L115.558 74.3186C115.559 74.2996 115.566 74.2816 115.578 74.2683C115.59 74.255 115.607 74.2476 115.624 74.2476C115.642 74.2476 115.658 74.255 115.671 74.2683C115.683 74.2816 115.69 74.2996 115.691 74.3186Z" fill="#57827F"/>
<path d="M156.195 50.0873L156.459 67.7376L156.658 85.3879C156.729 91.2714 156.876 97.1548 156.79 103.038C156.742 105.98 156.695 108.922 156.59 111.863L156.431 116.276C156.351 117.747 156.296 119.218 156.195 120.689C156.194 120.707 156.186 120.724 156.174 120.736C156.162 120.749 156.146 120.755 156.129 120.755C156.112 120.755 156.096 120.749 156.084 120.736C156.072 120.724 156.064 120.707 156.063 120.689C155.961 119.218 155.907 117.747 155.827 116.276L155.668 111.863C155.563 108.922 155.516 105.98 155.468 103.038C155.381 97.1548 155.529 91.2714 155.6 85.3879L155.798 67.7376L156.063 50.0873C156.063 50.0683 156.07 50.0502 156.082 50.0369C156.095 50.0236 156.112 50.0161 156.129 50.0161C156.146 50.0161 156.163 50.0236 156.175 50.0369C156.188 50.0502 156.195 50.0683 156.195 50.0873H156.195Z" fill="#57827F"/>
<path d="M88.8385 98.5771C88.8385 98.5771 91.8622 98.8522 102.249 106.638C103.949 107.936 106.028 108.501 108.087 108.225C108.635 108.158 109.172 108.008 109.682 107.778C109.682 107.778 117.582 110.007 110.539 111.462C110.539 111.462 100.45 111.773 92.9311 105.747L93.0263 109.072H89.2192C89.2192 109.072 87.506 100.447 88.8385 98.5771Z" fill="#825757"/>
<path d="M92.0698 85.9111C92.6539 86.985 93.208 88.076 93.778 89.1579L95.4372 92.4329C95.9968 93.5198 96.5225 94.6299 97.065 95.7239C97.6014 96.8041 98.2426 97.8183 98.9775 98.749C99.3388 99.219 99.7224 99.6682 100.127 100.095C100.529 100.518 100.965 100.92 101.396 101.329C102.256 102.146 103.139 102.934 104.012 103.733C104.89 104.526 105.784 105.298 106.708 106.022C107.167 106.39 107.636 106.742 108.122 107.062L108.491 107.294L108.873 107.5C109.128 107.637 109.401 107.731 109.682 107.778C109.108 107.712 108.554 107.513 108.055 107.196C107.543 106.91 107.047 106.592 106.563 106.256C105.6 105.574 104.673 104.836 103.759 104.081C102.841 103.332 101.964 102.528 101.084 101.729C100.648 101.326 100.205 100.93 99.7786 100.495C98.5005 99.1966 97.4389 97.6658 96.6412 95.9707C96.1168 94.8589 95.5828 93.759 95.0788 92.6384L93.5498 89.2888C93.057 88.1625 92.5485 87.0454 92.0698 85.9111Z" fill="#57827F"/>
<path d="M85.0825 93.5435C85.8463 94.244 86.544 95.0261 87.1653 95.8781C87.8048 96.714 88.3653 97.6183 88.8382 98.5772C88.0737 97.8775 87.3759 97.0953 86.7555 96.2425C86.1169 95.4059 85.5565 94.5017 85.0825 93.5435Z" fill="#57827F"/>
<path d="M67.1275 123.863C67.1275 123.863 70.1578 123.696 81.402 129.903C83.2446 130.942 85.3744 131.2 87.3809 130.627C87.9164 130.481 88.4305 130.254 88.9079 129.952C88.9079 129.952 97.0092 131.013 90.2061 133.478C90.2061 133.478 80.2451 135.254 72.058 130.374L72.5579 133.655L68.7846 134.209C68.7846 134.209 66.0349 125.91 67.1275 123.863Z" fill="#57827F"/>
<path d="M73.5071 113.604C73.7568 114.62 73.9734 115.643 74.2075 116.663L74.5313 118.198C74.6211 118.7 74.7643 119.188 74.9581 119.654C75.1532 120.11 75.402 120.537 75.6982 120.923C76.0026 121.309 76.3348 121.686 76.6746 122.044C77.3538 122.764 78.0897 123.417 78.874 123.996C80.467 125.149 82.0913 126.278 83.7285 127.363C84.5485 127.904 85.3792 128.427 86.2316 128.901C86.6526 129.149 87.085 129.372 87.5273 129.571C87.9617 129.791 88.43 129.92 88.908 129.952C88.4222 129.983 87.9358 129.902 87.4803 129.715C87.0186 129.555 86.5648 129.369 86.1208 129.157C85.2359 128.73 84.3768 128.246 83.5264 127.748C81.8264 126.744 80.1963 125.63 78.5767 124.473C77.7702 123.869 77.0163 123.186 76.3243 122.432C75.9805 122.051 75.6539 121.661 75.3411 121.243C75.0267 120.815 74.7724 120.339 74.5866 119.83C74.4047 119.328 74.2768 118.804 74.2054 118.27L73.955 116.719C73.8063 115.68 73.6401 114.646 73.5071 113.604Z" fill="#57827F"/>
<path d="M66.8708 116.142C67.1003 117.411 67.2315 118.699 67.2631 119.992C67.3186 121.284 67.2732 122.579 67.1274 123.863C66.8968 122.594 66.7656 121.306 66.7351 120.013C66.6808 118.72 66.7262 117.426 66.8708 116.142Z" fill="#57827F"/>
<path d="M58.1146 13.3914C57.5755 13.449 57.0322 13.3478 56.5411 13.0983C56.285 12.9748 56.0604 12.7846 55.8871 12.5445C55.7145 12.3032 55.636 11.9974 55.6686 11.6934C55.7414 11.9542 55.8683 12.1932 56.0394 12.3917C56.2106 12.5903 56.4214 12.7431 56.6554 12.8383C57.1279 13.0637 57.6158 13.2487 58.1146 13.3914V13.3914Z" fill="#57827F"/>
<path d="M109.241 10.6425C109.405 10.6363 109.56 10.5609 109.674 10.4322C109.787 10.3036 109.851 10.1317 109.851 9.95282C109.851 9.77395 109.787 9.60206 109.674 9.47341C109.56 9.34475 109.405 9.26938 109.241 9.26318C109.077 9.26938 108.922 9.34475 108.808 9.47341C108.694 9.60206 108.631 9.77395 108.631 9.95282C108.631 10.1317 108.694 10.3036 108.808 10.4322C108.922 10.5609 109.077 10.6363 109.241 10.6425V10.6425Z" fill="#57827F"/>
<path d="M109.342 14.4491C109.506 14.4429 109.661 14.3675 109.775 14.2389C109.889 14.1102 109.952 13.9383 109.952 13.7594C109.952 13.5806 109.889 13.4087 109.775 13.28C109.661 13.1514 109.506 13.076 109.342 13.0698C109.178 13.076 109.023 13.1514 108.909 13.28C108.796 13.4087 108.732 13.5806 108.732 13.7594C108.732 13.9383 108.796 14.1102 108.909 14.2389C109.023 14.3675 109.178 14.4429 109.342 14.4491Z" fill="#57827F"/>
<path d="M109.392 18.5316C109.556 18.5254 109.711 18.45 109.825 18.3214C109.939 18.1927 110.003 18.0208 110.003 17.842C110.003 17.6631 109.939 17.4912 109.825 17.3626C109.711 17.2339 109.556 17.1585 109.392 17.1523C109.229 17.1585 109.074 17.2339 108.96 17.3626C108.846 17.4912 108.782 17.6631 108.782 17.842C108.782 18.0208 108.846 18.1927 108.96 18.3214C109.074 18.45 109.229 18.5254 109.392 18.5316V18.5316Z" fill="#57827F"/>
<path d="M109.392 23.056C109.556 23.0498 109.711 22.9745 109.825 22.8458C109.939 22.7172 110.003 22.5453 110.003 22.3664C110.003 22.1875 109.939 22.0156 109.825 21.887C109.711 21.7583 109.556 21.683 109.392 21.6768C109.229 21.683 109.074 21.7583 108.96 21.887C108.846 22.0156 108.782 22.1875 108.782 22.3664C108.782 22.5453 108.846 22.7172 108.96 22.8458C109.074 22.9745 109.229 23.0498 109.392 23.056V23.056Z" fill="#57827F"/>
<path d="M109.494 26.6971C109.657 26.6909 109.813 26.6156 109.926 26.4869C110.04 26.3583 110.104 26.1864 110.104 26.0075C110.104 25.8286 110.04 25.6567 109.926 25.5281C109.813 25.3994 109.657 25.3241 109.494 25.3179C109.33 25.3241 109.175 25.3994 109.061 25.5281C108.947 25.6567 108.884 25.8286 108.884 26.0075C108.884 26.1864 108.947 26.3583 109.061 26.4869C109.175 26.6156 109.33 26.6909 109.494 26.6971V26.6971Z" fill="#57827F"/>
<path d="M91.8001 11.4649C91.8916 11.4643 91.9811 11.4356 92.0584 11.3821C92.1357 11.3286 92.1976 11.2524 92.2371 11.1622C92.3015 11.0049 92.3453 10.8385 92.3673 10.6679C92.3873 10.5767 92.3897 10.482 92.3745 10.3897C92.3592 10.2974 92.3267 10.2095 92.2788 10.1317C92.2204 10.059 92.145 10.005 92.0607 9.97528C91.9765 9.94557 91.8864 9.9413 91.8001 9.96291C91.6462 9.9969 91.5073 10.0867 91.406 10.2177C91.3211 10.3497 91.2759 10.5072 91.2767 10.6684C91.273 10.837 91.3039 11.0043 91.3671 11.1582C91.4055 11.2486 91.4665 11.3254 91.5431 11.3796C91.6197 11.4339 91.7088 11.4634 91.8001 11.4649V11.4649ZM91.8001 11.5057C91.5851 11.5202 91.3712 11.4629 91.1869 11.3414C91.09 11.2641 91.0115 11.1627 90.9577 11.0457C90.9039 10.9286 90.8764 10.7992 90.8775 10.6683C90.8757 10.5356 90.8988 10.404 90.9453 10.2815C90.9919 10.159 91.061 10.0482 91.1483 9.95595C91.2335 9.86619 91.337 9.79976 91.4503 9.76209C91.5636 9.72441 91.6835 9.71657 91.8001 9.7392C92.0128 9.7752 92.2106 9.88053 92.3676 10.0414C92.536 10.2035 92.6463 10.4255 92.6788 10.6681C92.6922 10.7957 92.6743 10.9248 92.6269 11.0424C92.5795 11.1599 92.5043 11.2615 92.4091 11.3368C92.2263 11.4588 92.014 11.5177 91.8001 11.5057V11.5057Z" fill="#57827F"/>
<path d="M93.0109 13.6399C92.6201 13.7114 92.2259 13.7594 91.8303 13.7835C91.6181 13.7937 91.4039 13.8057 91.187 13.7996C90.9702 13.7941 90.7533 13.7631 90.5429 13.7416L90.5214 13.7394C90.5091 13.7381 90.4971 13.7342 90.4862 13.7279C90.4753 13.7216 90.4656 13.713 90.4577 13.7026C90.4498 13.6922 90.4438 13.6802 90.4402 13.6673C90.4366 13.6544 90.4353 13.6409 90.4365 13.6274L90.4366 13.6256C90.4667 13.3766 90.4833 13.126 90.4865 12.875C90.4718 12.6129 90.5059 12.3503 90.5868 12.103C90.682 11.8366 90.8479 11.6072 91.0631 11.4442C91.2784 11.2811 91.5332 11.1918 91.7952 11.1877C92.0571 11.1835 92.3143 11.2646 92.5338 11.4207C92.7533 11.5768 92.9252 11.8008 93.0276 12.0641C93.1265 12.3253 93.1556 12.6117 93.1114 12.8901C93.0859 13.165 93.0437 13.4209 93.0109 13.6399ZM92.9848 13.6113L92.8842 12.8599C92.8733 12.6381 92.8177 12.4216 92.7212 12.226C92.6225 12.0429 92.4843 11.8889 92.3185 11.7775C92.1528 11.6662 91.9646 11.6008 91.7704 11.5871C91.5666 11.5815 91.365 11.6338 91.1853 11.739C91.0057 11.8442 90.8542 11.9986 90.7458 12.187C90.6322 12.3939 90.5809 12.6346 90.5992 12.875C90.6024 13.126 90.6191 13.3766 90.6491 13.6255L90.5429 13.5096C90.7417 13.4881 90.934 13.457 91.1262 13.4516C91.3185 13.4455 91.5135 13.4575 91.7104 13.4676C92.1061 13.4937 92.5189 13.5459 92.9848 13.6113V13.6113Z" fill="#57827F"/>
<path d="M95.3499 8.75205C95.3869 9.60427 95.4195 10.4223 95.4365 11.227C95.4554 12.0328 95.4671 12.8252 95.439 13.6254L95.3406 13.518C95.9698 13.541 96.599 13.5752 97.2282 13.5783C97.8574 13.5852 98.4867 13.5693 99.1159 13.5465L99.0436 13.6254C99.0161 12.8115 98.9962 11.9975 98.9893 11.1837C98.9749 10.3697 98.974 9.55579 98.9814 8.74192L99.1159 8.88879C98.5035 8.89171 97.8884 8.85848 97.2662 8.84198L95.3499 8.75205ZM95.3312 8.73161L97.1902 8.64165C97.8264 8.62521 98.4698 8.592 99.1159 8.5949C99.1515 8.59529 99.1855 8.61089 99.2107 8.63838C99.2359 8.66586 99.2501 8.70303 99.2505 8.74189C99.2578 9.55578 99.257 10.3697 99.2425 11.1836C99.2356 11.9975 99.2158 12.8115 99.1883 13.6254L99.1881 13.6309C99.1878 13.6409 99.1857 13.6508 99.1819 13.6599C99.1781 13.669 99.1727 13.6772 99.166 13.684C99.1593 13.6909 99.1514 13.6962 99.1428 13.6997C99.1342 13.7032 99.1251 13.7048 99.1159 13.7044C98.4867 13.6816 97.8574 13.6657 97.2282 13.6726C96.599 13.6757 95.9698 13.7099 95.3406 13.7329C95.3281 13.7334 95.3157 13.7312 95.304 13.7264C95.2923 13.7216 95.2816 13.7143 95.2724 13.705C95.2633 13.6957 95.256 13.6845 95.2508 13.6721C95.2456 13.6596 95.2428 13.6462 95.2424 13.6326L95.2421 13.6254C95.214 12.7977 95.2257 11.9622 95.2446 11.1402C95.2615 10.317 95.2942 9.50728 95.3312 8.73161Z" fill="#57827F"/>
<path d="M97.2125 11.4649C97.304 11.4643 97.3935 11.4356 97.4708 11.3821C97.5481 11.3286 97.61 11.2524 97.6495 11.1622C97.7139 11.0049 97.7577 10.8385 97.7797 10.6679C97.7997 10.5767 97.8021 10.482 97.7869 10.3897C97.7716 10.2974 97.7391 10.2095 97.6912 10.1317C97.6327 10.059 97.5574 10.005 97.4731 9.97528C97.3888 9.94557 97.2988 9.9413 97.2125 9.96291C97.0585 9.9969 96.9196 10.0867 96.8183 10.2177C96.7334 10.3497 96.6882 10.5072 96.689 10.6684C96.6853 10.837 96.7162 11.0043 96.7795 11.1582C96.8179 11.2486 96.8789 11.3254 96.9555 11.3796C97.0321 11.4339 97.1212 11.4634 97.2125 11.4649V11.4649ZM97.2125 11.5057C96.9975 11.5202 96.7836 11.4629 96.5992 11.3414C96.5024 11.2641 96.4238 11.1627 96.37 11.0457C96.3162 10.9286 96.2888 10.7992 96.2899 10.6683C96.2881 10.5356 96.3111 10.404 96.3577 10.2815C96.4042 10.159 96.4733 10.0482 96.5606 9.95595C96.6459 9.86619 96.7494 9.79976 96.8627 9.76209C96.976 9.72441 97.0959 9.71657 97.2125 9.7392C97.4252 9.7752 97.623 9.88053 97.78 10.0414C97.9484 10.2035 98.0587 10.4255 98.0912 10.6681C98.1046 10.7957 98.0867 10.9248 98.0393 11.0424C97.9919 11.1599 97.9167 11.2615 97.8214 11.3368C97.6387 11.4588 97.4264 11.5177 97.2125 11.5057Z" fill="#57827F"/>
<path d="M98.423 13.6399C98.0322 13.7114 97.638 13.7594 97.2424 13.7836C97.0302 13.7937 96.816 13.8057 96.5991 13.7996C96.3823 13.7942 96.1654 13.7631 95.955 13.7416L95.9335 13.7394C95.9212 13.7381 95.9092 13.7342 95.8983 13.7279C95.8874 13.7216 95.8777 13.713 95.8698 13.7026C95.8619 13.6922 95.856 13.6802 95.8523 13.6673C95.8487 13.6544 95.8474 13.6409 95.8486 13.6274L95.8487 13.6256C95.8788 13.3767 95.8954 13.126 95.8986 12.875C95.8839 12.6129 95.918 12.3503 95.9989 12.103C96.0942 11.8366 96.26 11.6072 96.4753 11.4442C96.6905 11.2811 96.9454 11.1918 97.2073 11.1877C97.4693 11.1835 97.7264 11.2646 97.9459 11.4207C98.1654 11.5768 98.3373 11.8008 98.4397 12.0641C98.5386 12.3253 98.5677 12.6117 98.5235 12.8901C98.498 13.165 98.4558 13.4209 98.423 13.6399ZM98.3969 13.6113L98.2963 12.8599C98.2854 12.6381 98.2298 12.4216 98.1333 12.226C98.0346 12.0429 97.8964 11.8889 97.7306 11.7776C97.5649 11.6662 97.3767 11.6008 97.1825 11.5871C96.9787 11.5815 96.7771 11.6338 96.5974 11.739C96.4178 11.8442 96.2663 11.9986 96.1579 12.187C96.0443 12.394 95.993 12.6346 96.0113 12.875C96.0145 13.126 96.0312 13.3766 96.0612 13.6256L95.955 13.5096C96.1538 13.4881 96.3461 13.457 96.5383 13.4516C96.7306 13.4455 96.9256 13.4575 97.1225 13.4676C97.5182 13.4937 97.9311 13.5459 98.3969 13.6113Z" fill="#57827F"/>
<path d="M100.863 8.75205C100.9 9.60427 100.932 10.4223 100.949 11.227C100.968 12.0328 100.98 12.8252 100.952 13.6254L100.853 13.518C101.483 13.541 102.112 13.5752 102.741 13.5783C103.37 13.5852 103.999 13.5693 104.629 13.5465L104.556 13.6254C104.529 12.8115 104.509 11.9975 104.502 11.1837C104.488 10.3697 104.487 9.55579 104.494 8.74192L104.629 8.88879C104.016 8.89171 103.401 8.85848 102.779 8.84198L100.863 8.75205ZM100.844 8.73161L102.703 8.64165C103.339 8.62521 103.982 8.592 104.629 8.5949C104.664 8.59528 104.698 8.61089 104.723 8.63837C104.749 8.66585 104.763 8.70302 104.763 8.74189C104.771 9.55578 104.77 10.3697 104.755 11.1836C104.748 11.9975 104.728 12.8115 104.701 13.6254L104.701 13.6309C104.701 13.6409 104.698 13.6508 104.695 13.6599C104.691 13.669 104.685 13.6772 104.679 13.684C104.672 13.6909 104.664 13.6962 104.656 13.6997C104.647 13.7032 104.638 13.7048 104.629 13.7044C103.999 13.6816 103.37 13.6657 102.741 13.6726C102.112 13.6757 101.483 13.7099 100.853 13.7329C100.841 13.7334 100.828 13.7312 100.817 13.7264C100.805 13.7216 100.794 13.7143 100.785 13.705C100.776 13.6957 100.769 13.6845 100.763 13.6721C100.758 13.6596 100.755 13.6462 100.755 13.6326L100.755 13.6254C100.727 12.7977 100.738 11.9622 100.757 11.1402C100.774 10.317 100.807 9.50728 100.844 8.73161Z" fill="#57827F"/>
<path d="M102.725 11.4649C102.817 11.4643 102.906 11.4356 102.984 11.3821C103.061 11.3286 103.123 11.2524 103.162 11.1622C103.227 11.0049 103.27 10.8385 103.292 10.6679C103.312 10.5767 103.315 10.482 103.3 10.3897C103.284 10.2974 103.252 10.2095 103.204 10.1317C103.145 10.059 103.07 10.005 102.986 9.97528C102.902 9.94557 102.811 9.9413 102.725 9.96291C102.571 9.99691 102.432 10.0867 102.331 10.2177C102.246 10.3496 102.201 10.5072 102.202 10.6684C102.198 10.837 102.229 11.0043 102.292 11.1582C102.331 11.2486 102.392 11.3254 102.468 11.3796C102.545 11.4338 102.634 11.4634 102.725 11.4649V11.4649ZM102.725 11.5057C102.51 11.5202 102.296 11.4629 102.112 11.3414C102.015 11.2641 101.937 11.1627 101.883 11.0456C101.829 10.9286 101.801 10.7992 101.803 10.6683C101.801 10.5356 101.824 10.404 101.87 10.2815C101.917 10.159 101.986 10.0482 102.073 9.95595C102.159 9.86619 102.262 9.79976 102.375 9.76209C102.489 9.72441 102.609 9.71657 102.725 9.7392C102.938 9.77519 103.136 9.88051 103.293 10.0414C103.461 10.2035 103.571 10.4255 103.604 10.6681C103.617 10.7957 103.599 10.9248 103.552 11.0424C103.505 11.1599 103.429 11.2615 103.334 11.3368C103.151 11.4588 102.939 11.5177 102.725 11.5057Z" fill="#57827F"/>
<path d="M103.936 13.6399C103.545 13.7114 103.151 13.7594 102.755 13.7836C102.543 13.7937 102.329 13.8057 102.112 13.7996C101.895 13.7942 101.678 13.7631 101.468 13.7416L101.446 13.7394C101.434 13.7381 101.422 13.7342 101.411 13.7279C101.4 13.7216 101.39 13.713 101.382 13.7026C101.375 13.6922 101.369 13.6802 101.365 13.6673C101.361 13.6544 101.36 13.6409 101.361 13.6274L101.361 13.6256C101.391 13.3767 101.408 13.126 101.411 12.875C101.397 12.6129 101.431 12.3503 101.512 12.103C101.607 11.8366 101.773 11.6072 101.988 11.4442C102.203 11.2811 102.458 11.1918 102.72 11.1877C102.982 11.1835 103.239 11.2646 103.459 11.4207C103.678 11.5768 103.85 11.8008 103.952 12.0641C104.051 12.3253 104.08 12.6117 104.036 12.8902C104.011 13.165 103.969 13.4209 103.936 13.6399ZM103.91 13.6113L103.809 12.86C103.798 12.6381 103.742 12.4216 103.646 12.2261C103.547 12.0429 103.409 11.8889 103.243 11.7776C103.078 11.6662 102.889 11.6008 102.695 11.5871C102.491 11.5815 102.29 11.6338 102.11 11.739C101.93 11.8442 101.779 11.9986 101.671 12.187C101.557 12.394 101.506 12.6346 101.524 12.875C101.527 13.126 101.544 13.3766 101.574 13.6256L101.468 13.5096C101.667 13.4881 101.859 13.457 102.051 13.4516C102.243 13.4455 102.438 13.4575 102.635 13.4676C103.031 13.4937 103.444 13.5459 103.91 13.6113Z" fill="#57827F"/>
<path d="M98.4195 14.8165C98.4565 15.6687 98.4891 16.4868 98.5061 17.2915C98.525 18.0973 98.5366 18.8897 98.5086 19.6899L98.4102 19.5824C99.0394 19.6055 99.6686 19.6397 100.298 19.6428C100.927 19.6497 101.556 19.6338 102.185 19.6109L102.113 19.6899C102.086 18.876 102.066 18.062 102.059 17.2481C102.044 16.4342 102.044 15.6202 102.051 14.8064L102.185 14.9533C101.573 14.9562 100.958 14.9229 100.336 14.9065L98.4195 14.8165ZM98.4008 14.7961L100.26 14.7061C100.896 14.6897 101.539 14.6565 102.185 14.6594C102.221 14.6597 102.255 14.6754 102.28 14.7028C102.305 14.7303 102.32 14.7675 102.32 14.8063C102.327 15.6202 102.327 16.4342 102.312 17.2481C102.305 18.062 102.285 18.8759 102.258 19.6899L102.258 19.6954C102.257 19.7054 102.255 19.7153 102.251 19.7244C102.248 19.7335 102.242 19.7417 102.236 19.7485C102.229 19.7553 102.221 19.7607 102.212 19.7642C102.204 19.7676 102.195 19.7693 102.185 19.7689C101.556 19.746 100.927 19.7302 100.298 19.7371C99.6686 19.7401 99.0394 19.7743 98.4102 19.7974C98.385 19.7983 98.3604 19.7883 98.342 19.7695C98.3236 19.7507 98.3127 19.7246 98.3119 19.6971L98.3117 19.6899C98.2836 18.8622 98.2953 18.0267 98.3141 17.2047C98.3311 16.3815 98.3638 15.5717 98.4008 14.7961Z" fill="#57827F"/>
<path d="M100.282 17.5298C100.374 17.5293 100.463 17.5006 100.54 17.447C100.618 17.3935 100.68 17.3173 100.719 17.2271C100.783 17.0698 100.827 16.9035 100.849 16.7329C100.869 16.6416 100.872 16.5469 100.856 16.4546C100.841 16.3623 100.809 16.2745 100.761 16.1966C100.702 16.124 100.627 16.0699 100.543 16.0402C100.458 16.0105 100.368 16.0062 100.282 16.0278C100.128 16.0618 99.9892 16.1516 99.8879 16.2826C99.803 16.4146 99.7578 16.5721 99.7586 16.7334C99.7549 16.9019 99.7858 17.0693 99.849 17.2231C99.8875 17.3136 99.9485 17.3903 100.025 17.4446C100.102 17.4988 100.191 17.5283 100.282 17.5298ZM100.282 17.5706C100.067 17.5852 99.8532 17.5279 99.6688 17.4064C99.572 17.3291 99.4934 17.2277 99.4396 17.1106C99.3858 16.9935 99.3584 16.8642 99.3595 16.7332C99.3576 16.6006 99.3807 16.4689 99.4273 16.3464C99.4738 16.2239 99.5429 16.1131 99.6302 16.0209C99.7154 15.9311 99.819 15.8647 99.9323 15.827C100.046 15.7894 100.165 15.7815 100.282 15.8041C100.495 15.8401 100.693 15.9455 100.85 16.1063C101.018 16.2684 101.128 16.4905 101.161 16.733C101.174 16.8606 101.156 16.9898 101.109 17.1073C101.061 17.2248 100.986 17.3265 100.891 17.4018C100.708 17.5238 100.496 17.5826 100.282 17.5707V17.5706Z" fill="#57827F"/>
<path d="M101.492 19.7043C101.102 19.7759 100.707 19.8238 100.312 19.848C100.1 19.8582 99.8854 19.8702 99.6685 19.8641C99.4516 19.8586 99.2347 19.8276 99.0244 19.8061L99.0029 19.8038C98.9906 19.8026 98.9786 19.7987 98.9676 19.7924C98.9567 19.7861 98.947 19.7775 98.9391 19.7671C98.9312 19.7567 98.9253 19.7447 98.9217 19.7318C98.918 19.7189 98.9167 19.7053 98.9179 19.6919L98.918 19.69C98.9481 19.4411 98.9648 19.1905 98.968 18.9394C98.9532 18.6774 98.9873 18.4148 99.0682 18.1675C99.1635 17.9011 99.3293 17.6717 99.5446 17.5086C99.7598 17.3456 100.015 17.2563 100.277 17.2521C100.539 17.2479 100.796 17.3291 101.015 17.4852C101.235 17.6413 101.407 17.8653 101.509 18.1285C101.608 18.3897 101.637 18.6761 101.593 18.9546C101.567 19.2295 101.525 19.4854 101.492 19.7043ZM101.466 19.6758L101.366 18.9244C101.355 18.7026 101.299 18.4861 101.203 18.2905C101.104 18.1074 100.966 17.9534 100.8 17.842C100.634 17.7306 100.446 17.6652 100.252 17.6515C100.048 17.6459 99.8464 17.6982 99.6667 17.8034C99.4871 17.9086 99.3356 18.063 99.2272 18.2515C99.1136 18.4584 99.0623 18.699 99.0806 18.9394C99.0838 19.1905 99.1005 19.4411 99.1305 19.69L99.0243 19.5741C99.2231 19.5525 99.4154 19.5215 99.6077 19.516C99.7999 19.5099 99.9949 19.5219 100.192 19.5321C100.588 19.5582 101 19.6104 101.466 19.6758V19.6758Z" fill="#57827F"/>
<path d="M92.5325 14.8165C92.5695 15.6687 92.6022 16.4868 92.6191 17.2915C92.638 18.0973 92.6497 18.8897 92.6216 19.6899L92.5232 19.5824C93.1524 19.6055 93.7816 19.6397 94.4108 19.6428C95.0401 19.6497 95.6693 19.6338 96.2985 19.6109L96.2262 19.6899C96.1987 18.876 96.1789 18.062 96.172 17.2481C96.1575 16.4342 96.1566 15.6202 96.164 14.8064L96.2985 14.9533C95.6862 14.9562 95.0711 14.9229 94.4488 14.9065L92.5325 14.8165ZM92.5138 14.7961L94.3729 14.7061C95.009 14.6897 95.6524 14.6565 96.2985 14.6594C96.3341 14.6597 96.3682 14.6754 96.3933 14.7028C96.4185 14.7303 96.4328 14.7675 96.4331 14.8063C96.4405 15.6202 96.4396 16.4342 96.4251 17.2481C96.4182 18.062 96.3984 18.8759 96.3709 19.6899L96.3707 19.6954C96.3704 19.7054 96.3683 19.7153 96.3645 19.7244C96.3607 19.7335 96.3553 19.7417 96.3486 19.7485C96.3419 19.7553 96.334 19.7607 96.3254 19.7641C96.3168 19.7676 96.3077 19.7693 96.2985 19.7689C95.6693 19.746 95.0401 19.7302 94.4108 19.7371C93.7816 19.7401 93.1524 19.7743 92.5232 19.7974C92.5107 19.7979 92.4983 19.7956 92.4866 19.7908C92.4749 19.786 92.4642 19.7788 92.4551 19.7695C92.4459 19.7602 92.4386 19.749 92.4334 19.7366C92.4283 19.7241 92.4254 19.7107 92.425 19.6971L92.4247 19.6899C92.3966 18.8622 92.4083 18.0267 92.4272 17.2047C92.4441 16.3815 92.4768 15.5717 92.5138 14.7961Z" fill="#57827F"/>
<path d="M89.9378 21.1339C89.9748 21.9861 90.0074 22.8042 90.0244 23.6089C90.0433 24.4147 90.0549 25.2071 90.0269 26.0073L89.9285 25.8998C90.5577 25.9229 91.1869 25.957 91.8161 25.9601C92.4453 25.967 93.0746 25.9511 93.7038 25.9283L93.6315 26.0073C93.604 25.1933 93.5841 24.3794 93.5772 23.5655C93.5628 22.7516 93.5619 21.9376 93.5693 21.1238L93.7038 21.2706C93.0915 21.2736 92.4763 21.2403 91.8541 21.2238L89.9378 21.1339ZM89.9191 21.1135L91.7781 21.0235C92.4143 21.007 93.0577 20.9738 93.7038 20.9767C93.7394 20.9771 93.7734 20.9927 93.7986 21.0202C93.8238 21.0477 93.838 21.0849 93.8384 21.1237C93.8457 21.9376 93.8449 22.7516 93.8305 23.5655C93.8235 24.3794 93.8037 25.1933 93.7762 26.0072L93.776 26.0128C93.7757 26.0228 93.7736 26.0326 93.7698 26.0417C93.766 26.0508 93.7606 26.059 93.7539 26.0659C93.7472 26.0727 93.7393 26.078 93.7307 26.0815C93.7221 26.085 93.713 26.0866 93.7038 26.0863C93.0746 26.0634 92.4453 26.0476 91.8161 26.0544C91.1869 26.0575 90.5577 26.0917 89.9285 26.1148C89.916 26.1152 89.9035 26.113 89.8919 26.1082C89.8802 26.1034 89.8694 26.0961 89.8603 26.0868C89.8512 26.0775 89.8438 26.0663 89.8387 26.0539C89.8335 26.0415 89.8307 26.0281 89.8302 26.0144L89.83 26.0073C89.8019 25.1795 89.8136 24.3441 89.8325 23.5221C89.8494 22.6988 89.882 21.8891 89.9191 21.1134L89.9191 21.1135Z" fill="#57827F"/>
<path d="M91.8001 23.8472C91.8916 23.8466 91.9812 23.8179 92.0584 23.7644C92.1357 23.7109 92.1976 23.6346 92.2371 23.5445C92.3015 23.3872 92.3453 23.2208 92.3673 23.0502C92.3873 22.959 92.3897 22.8643 92.3745 22.772C92.3593 22.6797 92.3267 22.5918 92.2788 22.514C92.2204 22.4413 92.145 22.3873 92.0607 22.3576C91.9765 22.3279 91.8864 22.3236 91.8001 22.3452C91.6462 22.3792 91.5073 22.469 91.406 22.6C91.3211 22.732 91.2759 22.8895 91.2767 23.0507C91.273 23.2193 91.3039 23.3866 91.3671 23.5405C91.4055 23.6309 91.4665 23.7077 91.5431 23.7619C91.6197 23.8162 91.7088 23.8457 91.8001 23.8472V23.8472ZM91.8001 23.888C91.5851 23.9026 91.3712 23.8453 91.1869 23.7238C91.09 23.6464 91.0115 23.545 90.9577 23.428C90.9039 23.3109 90.8764 23.1815 90.8775 23.0506C90.8757 22.918 90.8988 22.7863 90.9453 22.6638C90.9919 22.5413 91.061 22.4305 91.1483 22.3383C91.2335 22.2485 91.337 22.1821 91.4503 22.1444C91.5636 22.1067 91.6835 22.0989 91.8001 22.1215C92.0128 22.1575 92.2107 22.2628 92.3676 22.4237C92.536 22.5858 92.6463 22.8078 92.6788 23.0503C92.6922 23.1779 92.6743 23.3071 92.6269 23.4246C92.5795 23.5422 92.5043 23.6438 92.4091 23.7191C92.2263 23.8411 92.014 23.9 91.8001 23.888V23.888Z" fill="#57827F"/>
<path d="M93.0109 26.0217C92.6201 26.0932 92.2259 26.1412 91.8303 26.1654C91.6181 26.1755 91.4039 26.1875 91.187 26.1814C90.9702 26.176 90.7533 26.1449 90.5429 26.1234L90.5214 26.1212C90.5091 26.1199 90.4971 26.1161 90.4862 26.1097C90.4753 26.1034 90.4656 26.0948 90.4577 26.0844C90.4498 26.074 90.4438 26.062 90.4402 26.0491C90.4366 26.0362 90.4353 26.0227 90.4365 26.0092L90.4366 26.0074C90.4667 25.7585 90.4833 25.5079 90.4865 25.2568C90.4718 24.9947 90.5059 24.7321 90.5868 24.4848C90.682 24.2184 90.8479 23.989 91.0631 23.826C91.2784 23.663 91.5332 23.5737 91.7952 23.5695C92.0571 23.5653 92.3143 23.6465 92.5338 23.8026C92.7533 23.9587 92.9252 24.1827 93.0276 24.4459C93.1265 24.7071 93.1556 24.9935 93.1114 25.272C93.0859 25.5468 93.0437 25.8028 93.0109 26.0217ZM92.9848 25.9931L92.8842 25.2417C92.8733 25.0199 92.8177 24.8034 92.7212 24.6079C92.6225 24.4247 92.4843 24.2708 92.3185 24.1594C92.1528 24.048 91.9646 23.9826 91.7704 23.9689C91.5666 23.9633 91.365 24.0156 91.1853 24.1208C91.0057 24.226 90.8542 24.3804 90.7458 24.5689C90.6322 24.7758 90.5809 25.0164 90.5992 25.2568C90.6024 25.5079 90.6191 25.7585 90.6491 26.0074L90.5429 25.8914C90.7417 25.8699 90.934 25.8389 91.1262 25.8334C91.3185 25.8273 91.5135 25.8393 91.7104 25.8495C92.1061 25.8756 92.5189 25.9277 92.9848 25.9931V25.9931Z" fill="#57827F"/>
<path d="M95.3499 21.1339C95.3869 21.9861 95.4195 22.8042 95.4365 23.6089C95.4554 24.4147 95.4671 25.2071 95.439 26.0073L95.3406 25.8998C95.9698 25.9229 96.599 25.957 97.2282 25.9601C97.8574 25.967 98.4867 25.9511 99.1159 25.9283L99.0436 26.0073C99.0161 25.1933 98.9962 24.3794 98.9893 23.5655C98.9749 22.7516 98.974 21.9376 98.9814 21.1238L99.1159 21.2706C98.5035 21.2736 97.8884 21.2403 97.2662 21.2238L95.3499 21.1339ZM95.3312 21.1135L97.1902 21.0235C97.8264 21.007 98.4698 20.9738 99.1159 20.9767C99.1515 20.9771 99.1855 20.9927 99.2107 21.0202C99.2359 21.0477 99.2501 21.0849 99.2505 21.1237C99.2578 21.9376 99.257 22.7516 99.2425 23.5655C99.2356 24.3794 99.2158 25.1933 99.1883 26.0072L99.1881 26.0128C99.1878 26.0228 99.1857 26.0326 99.1819 26.0417C99.1781 26.0508 99.1727 26.059 99.166 26.0659C99.1593 26.0727 99.1514 26.078 99.1428 26.0815C99.1342 26.085 99.1251 26.0866 99.1159 26.0863C98.4867 26.0634 97.8574 26.0476 97.2282 26.0544C96.599 26.0575 95.9698 26.0917 95.3406 26.1148C95.3281 26.1152 95.3157 26.113 95.304 26.1082C95.2923 26.1034 95.2816 26.0961 95.2724 26.0868C95.2633 26.0775 95.256 26.0663 95.2508 26.0539C95.2456 26.0415 95.2428 26.0281 95.2424 26.0144L95.2421 26.0073C95.214 25.1795 95.2257 24.3441 95.2446 23.5221C95.2615 22.6988 95.2942 21.8891 95.3312 21.1134V21.1135Z" fill="#57827F"/>
<path d="M100.817 21.1339C100.854 21.9861 100.887 22.8042 100.904 23.6089C100.922 24.4147 100.934 25.2071 100.906 26.0073L100.808 25.8998C101.437 25.9229 102.066 25.957 102.695 25.9601C103.325 25.967 103.954 25.9511 104.583 25.9283L104.511 26.0073C104.483 25.1933 104.463 24.3794 104.456 23.5655C104.442 22.7516 104.441 21.9376 104.448 21.1238L104.583 21.2706C103.971 21.2736 103.356 21.2403 102.733 21.2238L100.817 21.1339ZM100.798 21.1135L102.657 21.0235C103.293 21.007 103.937 20.9738 104.583 20.9767C104.619 20.9771 104.653 20.9927 104.678 21.0202C104.703 21.0477 104.717 21.0849 104.718 21.1237C104.725 21.9376 104.724 22.7516 104.71 23.5655C104.703 24.3794 104.683 25.1933 104.655 26.0072L104.655 26.0128C104.655 26.0228 104.653 26.0326 104.649 26.0417C104.645 26.0508 104.64 26.0591 104.633 26.0659C104.626 26.0727 104.618 26.078 104.61 26.0815C104.601 26.085 104.592 26.0866 104.583 26.0863C103.954 26.0634 103.325 26.0476 102.695 26.0544C102.066 26.0575 101.437 26.0917 100.808 26.1148C100.795 26.1152 100.783 26.113 100.771 26.1082C100.759 26.1034 100.749 26.0961 100.739 26.0868C100.73 26.0775 100.723 26.0663 100.718 26.0539C100.713 26.0415 100.71 26.0281 100.709 26.0144L100.709 26.0073C100.681 25.1795 100.693 24.3441 100.712 23.5221C100.729 22.6988 100.761 21.8891 100.798 21.1134V21.1135Z" fill="#57827F"/>
<path d="M102.679 23.8472C102.771 23.8466 102.861 23.818 102.938 23.7644C103.015 23.7109 103.077 23.6346 103.116 23.5445C103.181 23.3872 103.225 23.2208 103.247 23.0502C103.267 22.959 103.269 22.8643 103.254 22.772C103.239 22.6797 103.206 22.5918 103.158 22.514C103.1 22.4413 103.024 22.3873 102.94 22.3576C102.856 22.3279 102.766 22.3236 102.679 22.3452C102.526 22.3792 102.387 22.469 102.285 22.6C102.2 22.7319 102.155 22.8895 102.156 23.0507C102.152 23.2193 102.183 23.3866 102.246 23.5405C102.285 23.6309 102.346 23.7077 102.422 23.7619C102.499 23.8162 102.588 23.8457 102.679 23.8472ZM102.679 23.888C102.464 23.9026 102.251 23.8453 102.066 23.7238C101.969 23.6464 101.891 23.545 101.837 23.428C101.783 23.3109 101.756 23.1815 101.757 23.0506C101.755 22.918 101.778 22.7863 101.825 22.6638C101.871 22.5413 101.94 22.4305 102.028 22.3383C102.113 22.2485 102.216 22.1821 102.33 22.1444C102.443 22.1067 102.563 22.0989 102.679 22.1215C102.892 22.1575 103.09 22.2628 103.247 22.4237C103.415 22.5858 103.526 22.8078 103.558 23.0503C103.572 23.1779 103.554 23.3071 103.506 23.4246C103.459 23.5421 103.384 23.6438 103.288 23.7191C103.106 23.8411 102.893 23.9 102.679 23.888V23.888Z" fill="#57827F"/>
<path d="M103.89 26.0217C103.499 26.0932 103.105 26.1412 102.709 26.1654C102.497 26.1755 102.283 26.1875 102.066 26.1814C101.849 26.176 101.632 26.1449 101.422 26.1234L101.401 26.1212C101.388 26.1199 101.376 26.1161 101.365 26.1097C101.354 26.1034 101.345 26.0948 101.337 26.0845C101.329 26.0741 101.323 26.0621 101.319 26.0491C101.316 26.0362 101.314 26.0227 101.316 26.0092L101.316 26.0074C101.346 25.7585 101.363 25.5079 101.366 25.2568C101.351 24.9947 101.385 24.7321 101.466 24.4848C101.561 24.2184 101.727 23.989 101.942 23.826C102.158 23.663 102.412 23.5737 102.674 23.5695C102.936 23.5653 103.193 23.6465 103.413 23.8026C103.632 23.9587 103.804 24.1827 103.907 24.4459C104.006 24.7071 104.035 24.9935 103.991 25.272C103.965 25.5468 103.923 25.8028 103.89 26.0217ZM103.864 25.9931L103.763 25.2417C103.752 25.0199 103.697 24.8034 103.6 24.6079C103.502 24.4247 103.363 24.2708 103.198 24.1594C103.032 24.048 102.844 23.9826 102.649 23.9689C102.446 23.9633 102.244 24.0156 102.064 24.1208C101.885 24.226 101.733 24.3804 101.625 24.5689C101.511 24.7758 101.46 25.0164 101.478 25.2568C101.482 25.5079 101.498 25.7585 101.528 26.0074L101.422 25.8914C101.621 25.8699 101.813 25.8389 102.005 25.8334C102.198 25.8273 102.393 25.8393 102.59 25.8495C102.985 25.8756 103.398 25.9277 103.864 25.9931Z" fill="#57827F"/>
<path d="M73.8782 37.461L73.8054 37.9136L74.2202 37.993L74.293 37.5405L73.8782 37.461Z" fill="#57827F"/>
<path d="M89.0843 40.8308L88.2585 40.6732L88.3309 40.2206L89.1567 40.3782L89.0843 40.8308ZM87.4325 40.5156L86.6067 40.358L86.6791 39.9054L87.5049 40.063L87.4325 40.5156ZM85.7809 40.2004L84.9551 40.0428L85.0275 39.5902L85.8533 39.7478L85.7809 40.2004ZM84.1291 39.8852L83.3033 39.7272L83.3761 39.2746L84.2019 39.4326L84.1291 39.8852ZM82.4776 39.5696L81.6518 39.412L81.7242 38.9594L82.55 39.117L82.4776 39.5696ZM80.826 39.2544L80.0002 39.0968L80.0726 38.6442L80.8984 38.8018L80.826 39.2544ZM79.1742 38.9392L78.3484 38.7816L78.4208 38.3291L79.2466 38.4867L79.1742 38.9392ZM77.5226 38.6236L76.6968 38.466L76.7692 38.0134L77.595 38.171L77.5226 38.6236ZM75.871 38.3084L75.0452 38.1508L75.1175 37.6982L75.9434 37.8558L75.871 38.3084Z" fill="#57827F"/>
<path d="M89.9839 40.5357L89.9111 40.9883L90.3259 41.0677L90.3986 40.6152L89.9839 40.5357Z" fill="#57827F"/>
<path d="M72.5204 39.0394L72.4324 39.4893L72.8442 39.5853L72.9323 39.1355L72.5204 39.0394Z" fill="#57827F"/>
<path d="M87.2881 42.9446L86.4858 42.7578L86.5738 42.3079L87.3761 42.4947L87.2881 42.9446ZM85.6836 42.5715L84.881 42.3847L84.9686 41.9348L85.7712 42.1216L85.6836 42.5715ZM84.0787 42.1979L83.2763 42.0116L83.3639 41.5617L84.1663 41.7481L84.0787 42.1979ZM82.4735 41.8248L81.6712 41.6381L81.7592 41.1882L82.5616 41.375L82.4735 41.8248ZM80.8688 41.4513L80.0664 41.265L80.154 40.8151L80.9564 41.0014L80.8688 41.4513ZM79.2641 41.0782L78.4615 40.8914L78.5491 40.4415L79.3517 40.6283L79.2641 41.0782ZM77.6589 40.7051L76.8566 40.5183L76.9446 40.0684L77.747 40.2552L77.6589 40.7051ZM76.054 40.3315L75.2517 40.1448L75.3397 39.6949L76.142 39.8817L76.054 40.3315ZM74.4491 39.9584L73.6467 39.7717L73.7348 39.3218L74.5371 39.5086L74.4491 39.9584Z" fill="#57827F"/>
<path d="M88.1789 42.6815L88.0908 43.1313L88.5027 43.2274L88.5908 42.7776L88.1789 42.6815Z" fill="#57827F"/>
<path d="M73.8174 41.6895C74.5368 41.7342 75.2494 41.8653 75.9425 42.0805C76.6405 42.2761 77.3163 42.556 77.9575 42.915C77.238 42.8711 76.5252 42.74 75.8323 42.5239C75.1347 42.3273 74.4589 42.0475 73.8174 41.6895V41.6895Z" fill="#57827F"/>
</svg>
