<svg width="303" height="130" viewBox="0 0 303 130" fill="none" xmlns="http://www.w3.org/2000/svg">
<path d="M22.1543 2.92645C21.8192 3.03094 21.568 3.05185 21.568 2.98914C21.568 2.92645 21.2748 3.26085 20.9398 3.72066C20.5838 4.20136 20.3325 4.66117 20.3535 4.74477C20.3744 4.84927 20.2906 5.12098 20.1441 5.37178C19.9975 5.64349 19.9347 5.85249 20.0184 5.85249C20.0812 5.85249 20.0394 5.99879 19.8928 6.16599C19.7462 6.3332 19.6834 6.6049 19.7462 6.7721C19.809 6.93931 19.7881 7.10651 19.6834 7.14831C19.5787 7.19011 19.4321 7.58722 19.3693 8.04702C19.3065 8.50683 19.1599 9.25924 19.0552 9.71905C18.8248 10.7432 18.4479 13.4602 18.3223 15.1531C18.2595 15.8428 18.1757 16.7834 18.1129 17.2432C18.071 17.703 18.0082 18.9779 17.9872 20.0647C17.9454 22.0293 17.9454 22.0711 16.7937 24.3493C16.1655 25.6033 15.5582 26.6901 15.4745 26.7528C15.1604 26.9618 11.9147 33.6499 12.0403 33.838C12.1031 33.9425 12.0403 34.0679 11.9147 34.1097C11.7681 34.1515 11.7262 34.3814 11.81 34.6531C11.9984 35.1965 12.7942 35.2801 13.2339 34.7994C13.883 34.0679 14.0296 33.8589 14.0296 33.5663C14.0296 33.3991 14.1134 33.2319 14.1971 33.1901C14.3018 33.1483 14.6997 32.4586 15.1185 31.6644C16.1655 29.5534 17.4009 27.3171 17.6103 27.0663C17.7778 26.8991 17.9244 28.3412 17.8197 28.9264C17.7988 29.0309 17.7778 31.4345 17.7988 34.256C17.8197 37.0776 17.8407 39.5438 17.8407 39.711C17.8407 39.8782 17.8197 40.4843 17.8197 41.0695C17.8197 41.6338 17.8407 42.4489 17.8825 42.8461C17.9035 43.2432 17.8407 43.703 17.736 43.8284C17.6103 44.0165 17.6103 44.1001 17.7569 44.1001C18.0082 44.1001 18.071 46.3782 17.9872 51.9586C17.9454 53.4634 18.0082 54.801 18.0919 54.9264C18.1757 55.0727 18.1548 55.1772 18.0291 55.1772C17.9035 55.1772 17.8616 55.3235 17.9454 55.5116C18.0501 55.8042 18.0082 55.8251 17.6103 55.5952C17.359 55.4698 16.9821 55.3235 16.7937 55.2817C16.6052 55.2399 15.6839 54.8637 14.7625 54.4457C12.4382 53.3589 11.1818 52.8991 10.3023 52.7528C9.90445 52.6901 9.31814 52.5438 9.02498 52.4184C7.49637 51.8332 4.37632 52.5856 3.68531 53.7142C3.51779 54.0068 3.16181 54.4666 2.88959 54.7592C2.61737 55.0518 2.3661 55.428 2.32422 55.5952C2.17764 56.2641 2.1567 61.5727 2.32422 61.8862C2.40798 62.0534 2.53362 62.7432 2.59643 63.3702C2.65925 64.0181 2.80583 64.7914 2.93147 65.084C3.03617 65.3766 3.09899 65.6274 3.03617 65.6274C2.99429 65.6274 3.07805 65.8782 3.24557 66.1917C3.41309 66.5052 3.49685 66.8187 3.45497 66.9023C3.39215 66.9859 3.49685 67.3203 3.66437 67.6338C3.83189 67.9682 3.97847 68.3653 3.97847 68.4907C3.97847 68.7206 4.96264 70.9988 5.71648 72.4827C6.05151 73.1515 7.74764 74.8235 8.08268 74.8235C8.2502 74.8235 8.37584 74.928 8.37584 75.0534C8.37584 75.3878 11.5378 75.2415 11.9775 74.8653C12.166 74.6981 12.4172 74.6354 12.5219 74.6981C12.6266 74.7608 12.8779 74.6354 13.0873 74.4055C13.2967 74.1756 13.5899 73.9875 13.7155 73.9875C14.2809 73.9875 17.6522 69.7239 17.9035 68.6997C17.9872 68.3862 18.1129 68.1354 18.1966 68.1354C18.2804 68.1354 18.5107 67.7592 18.7201 67.2994C18.9295 66.8396 19.1808 66.4634 19.2855 66.4634C19.4112 66.4634 19.4321 66.3798 19.3693 66.2544C19.3065 66.1499 19.3902 65.7946 19.5577 65.4811C19.9137 64.8123 20.1441 64.1853 20.2069 63.7464C20.3116 63.0149 20.7513 61.6563 20.9398 61.5518C21.1073 61.4473 22.4893 61.9071 23.9761 62.5759C24.332 62.7432 24.9393 62.9313 25.3371 63.0149C25.735 63.0985 26.1957 63.2448 26.3841 63.3284C26.5517 63.412 27.4521 63.6628 28.3734 63.8509C29.2948 64.0599 30.1952 64.2689 30.3627 64.3316C30.7606 64.457 31.7657 64.5824 33.4618 64.666C35.1789 64.7496 36.1002 64.3107 36.1631 63.3493C36.2049 62.994 36.1212 62.7014 35.9955 62.7014C35.8908 62.7014 35.5767 62.5132 35.3464 62.2833C34.8648 61.8444 33.4199 61.3428 32.8336 61.4264C32.6452 61.4473 32.4358 61.3637 32.352 61.2383C32.2892 61.1338 31.8494 61.0293 31.4097 61.0293C30.97 61.0293 30.5512 60.9457 30.4884 60.8412C30.3627 60.674 29.1482 60.3396 28.4781 60.2978C28.3106 60.2978 27.8499 60.1306 27.4521 59.9216C27.0752 59.7126 26.447 59.5245 26.07 59.5036C25.6931 59.4827 25.4209 59.3991 25.4837 59.2946C25.5256 59.211 25.4418 59.1483 25.2743 59.1483C25.1068 59.1483 24.8555 59.002 24.7089 58.8348C24.5624 58.6676 24.3948 58.5631 24.3111 58.6049C24.1017 58.7303 21.547 57.5808 21.3586 57.2673C21.2748 57.121 21.2748 56.7448 21.3586 56.4522C21.4423 56.1387 21.5051 53.338 21.5051 50.2239C21.5051 47.1097 21.5889 44.4554 21.6517 44.33C21.7355 44.2046 21.7145 44.1001 21.6098 44.1001C21.5051 44.1001 21.4214 43.3686 21.4214 42.4698C21.4214 41.592 21.3586 40.5052 21.2748 40.0663C21.191 39.6065 21.212 39.293 21.2957 39.3557C21.4842 39.4811 21.5051 38.6869 21.3376 38.3316C21.2748 38.2271 21.2329 34.0052 21.2329 28.9264C21.2539 21.4441 21.3167 19.6467 21.547 19.375C21.6936 19.166 21.7774 19.0197 21.7145 19.0197C21.6517 19.0197 21.8402 18.4763 22.1333 17.8075C22.4265 17.1596 22.6568 16.5953 22.6359 16.5744C22.615 16.5117 22.6778 16.3444 23.2222 14.6724C23.4735 13.9618 23.662 13.1885 23.662 12.9377C23.662 12.7078 23.7457 12.3525 23.8714 12.1435C24.0598 11.7464 24.1854 10.8686 24.3948 8.04702C24.4786 7.12741 24.5624 6.10329 24.6042 5.76889C24.6461 5.45538 24.5414 4.72387 24.353 4.15956C24.1017 3.36535 23.8923 3.11455 23.3897 2.94735C23.0547 2.82195 22.7615 2.71745 22.7406 2.73834C22.7197 2.73834 22.4684 2.82195 22.1543 2.92645ZM9.42283 56.3268C9.59035 56.4522 10.1348 56.6821 10.6373 56.8284C11.119 56.9538 11.5168 57.1837 11.5168 57.3091C11.5168 57.4345 11.5796 57.4763 11.6634 57.4136C11.7262 57.33 11.9147 57.3718 12.0822 57.4972C12.2288 57.6226 12.3544 57.6644 12.3544 57.6017C12.3544 57.5181 12.5638 57.5808 12.836 57.7271C13.0873 57.8734 13.3386 57.9988 13.4014 58.0197C13.8411 58.1242 15.2022 58.8139 15.3069 58.9811C15.3698 59.0856 15.4745 59.1692 15.5163 59.1483C15.5582 59.1274 15.7467 59.1692 15.9142 59.2319C17.4637 59.7753 17.4219 59.7544 17.2962 60.3605C17.2334 60.674 17.1287 61.1965 17.0868 61.5518C17.045 61.8862 16.7518 62.7223 16.4586 63.412C16.1655 64.0808 15.9142 64.7496 15.9142 64.875C15.9142 65.2094 15.4116 66.2544 15.2651 66.2544C15.1813 66.2544 14.8253 66.8605 14.4275 67.6129C13.6318 69.1595 11.9984 71.2078 11.7681 70.957C11.7053 70.8943 11.5587 70.9988 11.4331 71.1451C11.3074 71.3123 10.8677 71.5004 10.4489 71.5631C9.84163 71.6467 9.61129 71.584 9.25532 71.2078C8.83652 70.748 7.11945 67.6129 7.11945 67.2785C7.11945 67.1949 7.01475 66.8605 6.86817 66.5261C6.74253 66.2126 6.59595 65.7946 6.57501 65.6274C6.53313 65.4602 6.32373 64.4988 6.07245 63.4747C5.84212 62.4714 5.65366 61.2592 5.65366 60.7576C5.65366 60.2769 5.63272 59.2737 5.61178 58.5213C5.61178 57.6853 5.6746 57.1628 5.84212 57.1001C5.96776 57.0583 6.00963 56.912 5.94682 56.8075C5.86306 56.6821 5.9887 56.4522 6.19809 56.285C6.67971 55.9296 8.96216 55.9506 9.42283 56.3268Z" fill="black"/>
<path d="M194.845 8.17241C194.783 8.256 194.448 8.29781 194.113 8.2351C193.673 8.1306 193.422 8.21421 193.149 8.52771C192.94 8.77851 192.71 8.92482 192.647 8.88301C192.416 8.73671 189.506 11.83 189.506 12.2062C189.506 12.3943 189.359 12.5406 189.192 12.5406C189.024 12.5406 188.878 12.6869 188.878 12.8541C188.878 13.0213 188.815 13.1676 188.731 13.1676C188.626 13.1676 188.459 13.3766 188.333 13.6483C188.207 13.8991 187.621 15.0486 187.056 16.1981C185.674 18.9152 185.108 20.1901 185.108 20.5872C185.108 20.7544 185.025 20.9007 184.92 20.9007C184.815 20.9007 184.752 21.0679 184.773 21.256C184.815 21.465 184.669 21.7994 184.459 22.0293C184.25 22.2383 184.124 22.51 184.187 22.5936C184.229 22.6981 184.208 22.928 184.103 23.137C183.978 23.346 183.81 23.7431 183.684 24.0357C182.993 25.8123 182.805 26.3139 182.679 26.9618C182.617 27.3589 182.449 27.8396 182.302 28.0068C182.177 28.174 182.072 28.5502 182.072 28.8428C182.072 29.1354 181.988 29.428 181.905 29.4907C181.821 29.5534 181.716 29.9296 181.674 30.3476C181.632 30.7448 181.465 31.3927 181.276 31.7689C181.067 32.1451 180.92 32.6885 180.92 32.9602C180.92 33.2319 180.774 33.7335 180.606 34.0679C180.376 34.5068 180.355 34.7158 180.523 34.8203C180.69 34.9039 180.648 35.0293 180.397 35.1756C180.187 35.2801 180.125 35.4264 180.25 35.51C180.376 35.5936 180.376 35.8026 180.25 36.1579C179.936 36.9103 179.873 37.7882 179.832 40.965C179.79 43.4312 179.852 43.9747 180.292 45.3541C180.564 46.211 180.879 46.9843 180.983 47.047C181.088 47.1306 181.109 47.3187 181.025 47.465C180.92 47.6322 180.92 47.6949 181.025 47.6113C181.193 47.465 182.596 49.3669 182.596 49.7431C182.596 49.8476 182.742 49.9522 182.91 49.9522C183.077 49.9522 183.224 50.0358 183.224 50.1403C183.224 50.2448 183.412 50.3911 183.622 50.4747C183.831 50.5374 184.417 50.8927 184.92 51.248C185.422 51.6033 186.113 51.9377 186.469 51.9795C189.296 52.2721 191.39 51.8959 193.254 50.7255C194.636 49.8685 194.845 49.764 195.767 49.3042C196.688 48.8653 197.714 48.0711 197.358 48.0711C197.254 48.0711 197.337 47.9457 197.526 47.7994C198.07 47.4023 198.301 46.3573 197.986 45.7512C197.421 44.7062 196.06 44.9361 192.856 46.6081C190.741 47.6949 188.312 48.1338 187.851 47.5068C187.789 47.4232 187.475 47.2142 187.16 47.047C186.867 46.9007 186.553 46.5454 186.49 46.2737C186.407 46.002 186.26 45.7721 186.134 45.7721C186.009 45.7721 185.967 45.6885 186.03 45.584C186.093 45.4795 186.03 45.3541 185.862 45.2914C185.506 45.1451 185.025 43.055 185.15 42.1772C185.213 41.7801 185.15 41.5084 184.962 41.4457C184.815 41.383 184.752 41.2367 184.836 41.0904C184.92 40.965 185.004 40.5261 185.046 40.129C185.192 37.5583 185.36 36.2624 185.527 36.1997C185.82 36.0952 185.778 34.9039 185.485 34.9039C185.36 34.9039 185.402 34.7576 185.59 34.5277C185.799 34.3187 185.946 33.8589 185.946 33.5245C185.946 33.1901 186.155 32.3541 186.386 31.6644C186.616 30.9747 186.825 30.1177 186.867 29.7833C186.909 29.428 187.077 28.801 187.265 28.3621C187.454 27.9232 187.642 27.3171 187.684 27.0454C187.726 26.7528 187.851 26.4393 187.956 26.3766C188.061 26.293 188.187 25.875 188.228 25.4361C188.249 24.9972 188.417 24.3911 188.584 24.0775C188.752 23.764 188.878 23.346 188.878 23.137C188.878 22.719 189.548 21.0052 190.155 19.8139C190.385 19.375 190.574 18.9779 190.553 18.9152C190.553 18.8525 190.699 18.5181 190.867 18.1837C191.055 17.8284 191.118 17.5566 191.034 17.5566C190.93 17.5566 190.972 17.473 191.118 17.3894C191.244 17.3058 191.579 16.7624 191.851 16.1981C192.563 14.7142 193.757 12.9586 194.071 12.9586C194.217 12.9586 194.301 12.875 194.238 12.7705C194.092 12.5406 194.699 12.0181 194.908 12.2062C195.264 12.5824 195.034 15.383 194.552 16.5743C194.008 17.912 194.071 18.7062 194.783 18.8734C195.557 19.0824 195.934 18.539 197.044 15.6756C197.526 14.4216 197.589 14.129 197.756 12.1644C197.84 11.0984 197.798 10.7222 197.421 10.0743C196.667 8.77851 195.16 7.64989 194.845 8.17241Z" fill="black"/>
<path d="M120.655 9.94895C120.404 10.1162 120.195 10.4088 120.195 10.576C120.195 10.7432 120.111 10.8477 120.027 10.785C119.776 10.6387 119.441 11.6001 119.064 13.5856C118.875 14.5679 118.666 15.5502 118.624 15.7801C118.582 16.01 118.499 16.5326 118.436 16.9297C118.373 17.3268 118.247 18.0165 118.143 18.4345C118.017 18.8734 117.975 19.2287 118.038 19.2287C118.101 19.2287 118.038 19.375 117.891 19.5422C117.766 19.7094 117.64 20.1901 117.64 20.629C117.64 21.0679 117.556 21.5904 117.452 21.7785C117.347 21.9875 117.221 22.4055 117.179 22.719C117.117 23.0326 117.033 23.576 116.949 23.9313C116.886 24.2657 116.802 24.8091 116.781 25.1226C116.761 25.4361 116.698 25.7078 116.635 25.7078C116.572 25.7078 116.488 26.0213 116.446 26.3766C116.384 27.2753 116.3 27.7351 116.153 28.6338C115.923 29.7834 115.797 31.8943 115.797 34.0052C115.776 35.1129 115.693 35.9699 115.588 35.9699C115.462 35.9908 115.295 36.0117 115.19 36.0326C114.729 36.0953 114.373 37.203 114.813 37.203C114.981 37.203 114.981 37.2657 114.792 37.4538C114.604 37.6419 114.688 37.7673 115.169 37.9554C115.651 38.1644 115.797 38.3734 115.818 38.8123C115.818 39.1258 115.86 39.7319 115.902 40.129C115.944 40.5261 116.028 41.4666 116.09 42.219C116.153 42.9715 116.258 43.7657 116.3 43.9956C116.363 44.2255 116.509 44.9779 116.656 45.6676C116.802 46.3573 116.97 46.9634 117.033 47.0261C117.117 47.0888 117.347 47.5277 117.556 48.0084C117.787 48.51 118.038 48.9072 118.122 48.9072C118.205 48.9072 118.457 49.1789 118.666 49.5342C118.855 49.8686 119.148 50.1612 119.294 50.1612C119.462 50.1612 119.629 50.3075 119.692 50.4747C119.776 50.6419 119.902 50.7464 119.985 50.6837C120.09 50.621 120.216 50.6628 120.278 50.7673C120.467 51.0599 121.305 50.7882 121.702 50.2866C122.121 49.785 122.205 49.2207 121.828 49.4506C121.681 49.5551 121.64 49.4924 121.723 49.2834C121.786 49.0744 121.598 48.7399 121.242 48.3846C120.111 47.2978 119.336 43.8493 119.273 39.502C119.252 37.5374 119.252 37.5165 119.776 37.4538C120.76 37.3493 123.713 36.5551 124.383 36.2416C125.116 35.8654 125.472 35.1756 125.199 34.6531C124.969 34.2351 123.482 34.3187 121.556 34.8621C120.09 35.2801 119.022 35.3219 119.085 34.9666C119.127 34.8412 119.148 33.7544 119.169 32.5631C119.19 31.3718 119.273 30.2014 119.378 29.9506C119.566 29.4281 119.755 28.1949 120.069 25.3525C120.111 24.8718 120.216 24.3702 120.299 24.2657C120.362 24.1403 120.467 23.7014 120.509 23.2625C120.551 22.8236 120.676 22.2174 120.802 21.9039C120.907 21.6113 120.949 21.2978 120.886 21.2351C120.802 21.1724 120.865 21.1097 120.99 21.1097C121.116 21.1097 121.179 20.9425 121.137 20.7335C121.095 20.5036 121.242 19.6885 121.472 18.8943C121.681 18.1001 121.87 17.2014 121.87 16.9088C121.87 16.6162 122.016 16.1982 122.184 15.9682C122.456 15.6129 122.477 15.592 122.498 15.9473C122.498 16.1563 122.749 16.8043 123.063 17.4104C123.378 18.0165 123.65 18.6226 123.671 18.748C123.692 18.8943 123.859 19.166 124.048 19.3541C124.236 19.5213 124.383 19.7512 124.383 19.8139C124.383 20.1901 126.895 22.5727 127.607 22.8654C128.466 23.2207 129.304 23.1371 129.492 22.6563C129.618 22.3219 128.968 20.6917 128.487 20.1274C128.298 19.9184 127.859 19.4377 127.524 19.0406C127.168 18.6435 126.833 18.0792 126.749 17.7866C126.686 17.494 126.519 17.0969 126.372 16.9297C126.142 16.6162 125.702 15.592 124.822 13.1258C123.754 10.158 122.121 8.92484 120.655 9.94895Z" fill="black"/>
<path d="M76.4514 16.0727C75.9907 16.1981 75.1322 17.3267 75.195 17.7238C75.216 17.8074 75.195 17.9119 75.1741 17.9746C75.1322 18.1209 75.0275 18.6225 74.8809 19.5212C74.8181 19.9601 74.7134 20.3782 74.6506 20.4618C74.6087 20.5454 74.504 22.1129 74.4412 23.9521C74.3784 25.7704 74.2946 27.3589 74.2946 27.4843C74.2527 27.9441 74.5878 31.9987 74.6925 32.5421C74.7553 32.8556 74.8391 33.5245 74.8391 34.0052C74.86 34.5068 74.9228 34.9039 75.0275 34.9039C75.1113 34.9039 75.1741 35.2174 75.1741 35.5727C75.1741 35.9489 75.3207 37.0566 75.5091 38.0389C75.6766 39.0212 75.8651 40.0872 75.9279 40.4425C76.0745 41.3621 76.0745 43.2222 75.907 44.4135C75.8232 44.9778 75.7185 46.1691 75.6976 47.0261C75.6557 47.883 75.6138 48.6145 75.5929 48.6354C75.5091 48.8026 75.551 51.1225 75.6976 52.6691C75.9907 56.1804 76.8074 57.7061 78.3151 57.5389C79.3621 57.4344 79.7809 57.0791 80.3044 55.7624C80.7441 54.6547 80.786 54.2994 80.765 50.9971C80.7441 49.0534 80.7441 47.4441 80.786 47.4441C80.8279 47.4441 81.2048 47.674 81.6236 47.9666C82.0424 48.2592 82.503 48.4891 82.6496 48.4891C82.7753 48.4891 83.1522 48.6981 83.4872 48.9698C84.0317 49.4296 84.6389 49.7431 85.1205 49.8476C85.7697 49.973 86.2513 50.2238 86.1466 50.391C86.0838 50.4955 86.2303 50.5791 86.4607 50.5791C86.712 50.5791 86.9004 50.6627 86.9004 50.7672C86.9004 50.9553 87.2355 51.0598 88.5337 51.3106C88.785 51.3524 89.5388 51.5196 90.2089 51.6868C91.6957 52.063 93.7687 52.1257 94.1456 51.8122C94.2922 51.6868 94.5225 51.645 94.6482 51.7286C94.7529 51.7913 94.9204 51.7077 94.9832 51.5405C95.046 51.3524 95.1926 51.2688 95.2973 51.3315C95.5067 51.4569 95.5067 51.4569 95.5905 50.2238C95.6114 49.7222 95.5695 49.3878 95.4858 49.4296C95.402 49.4923 95.1717 49.3042 94.9832 49.0116C94.7948 48.719 94.5644 48.51 94.4807 48.51C94.3969 48.5309 94.2922 48.51 94.2294 48.4891C94.1666 48.4682 93.9781 48.4264 93.8106 48.3846C93.6431 48.3428 93.0777 48.2174 92.5542 48.0711C92.0307 47.9457 91.4653 47.8203 91.2978 47.7785C91.1303 47.7576 90.7952 47.6531 90.5649 47.5695C88.5128 46.7544 87.403 46.2736 87.2983 46.1273C87.2355 46.0228 87.0889 45.9392 86.9842 45.9392C86.6701 45.9392 85.1205 45.1032 84.974 44.8524C84.8902 44.727 84.8064 44.7061 84.8064 44.8106C84.8064 44.9151 84.6389 44.8524 84.4505 44.6852C84.2411 44.4971 83.7176 44.2463 83.2988 44.1C82.859 43.9746 82.503 43.7656 82.503 43.6611C82.503 43.5566 82.3565 43.473 82.189 43.473C81.6864 43.473 81.812 43.1386 82.6077 42.4489C83.0265 42.0936 83.2778 41.801 83.1941 41.801C83.1103 41.801 83.2988 41.592 83.6338 41.3203C83.9479 41.0695 84.5552 40.338 84.974 39.7109C85.3928 39.0839 85.8534 38.4778 86 38.3942C86.1466 38.3106 86.2722 38.1225 86.2722 38.018C86.2722 37.8926 86.6282 37.0775 87.0889 36.1788C87.8846 34.5695 88.2825 33.3781 88.1778 32.8556C88.1568 32.6884 88.2196 32.4585 88.3453 32.3122C88.6594 31.936 88.4709 28.6129 88.1149 27.9859C87.6124 27.1081 86.8585 26.6482 85.8534 26.6273C84.8274 26.6064 83.7594 26.899 83.7594 27.2126C83.7594 27.3171 83.6757 27.338 83.55 27.2753C83.4453 27.2126 83.3406 27.2335 83.3406 27.3589C83.3406 27.4843 83.1731 27.5261 82.9847 27.4425C82.7753 27.3798 82.6706 27.3798 82.7543 27.4634C82.8171 27.547 82.524 27.965 82.0633 28.3621C81.6236 28.7592 81.2467 29.1772 81.2467 29.2817C81.2467 29.3653 80.9535 29.7624 80.6185 30.1386C80.2625 30.5148 79.6762 31.4344 79.3202 32.1868C78.9642 32.9392 78.6292 33.5872 78.5873 33.6499C78.336 33.9425 77.9382 32.3122 77.7706 30.2013C77.3728 24.9971 77.4147 20.1064 77.8753 18.9569C78.2523 17.9955 78.3988 16.7206 78.1266 16.7206C78.001 16.7206 77.8963 16.5743 77.8963 16.4071C77.8963 16.2399 77.8125 16.0936 77.7078 16.0936C77.6031 16.0936 77.3937 16.0518 77.2262 16.01C77.0796 15.9682 76.7236 15.9891 76.4514 16.0727ZM85.1205 31.6016C85.0787 32.4376 84.7227 33.8798 84.4086 34.3814C84.3458 34.4859 84.2829 34.6322 84.262 34.6949C84.1992 35.1129 82.9009 37.5791 82.6287 37.809C82.4402 37.9553 82.2937 38.1643 82.2937 38.2688C82.2937 38.4987 80.3881 40.4007 80.2834 40.2753C80.2415 40.2335 80.3462 39.7318 80.5138 39.1884C80.6813 38.6241 80.786 38.1225 80.7441 38.0807C80.6603 38.018 81.2048 36.6177 81.7073 35.5936C81.833 35.3219 81.8958 35.0502 81.833 34.9875C81.7492 34.9248 81.8749 34.6949 82.1052 34.465C82.3146 34.256 82.503 33.9216 82.503 33.7544C82.503 33.5872 82.6077 33.4408 82.7124 33.4408C82.8381 33.4408 82.9218 33.3363 82.9218 33.2109C82.9218 32.9183 84.7646 30.7238 84.9949 30.7238C85.0787 30.7238 85.1205 31.1209 85.1205 31.6016Z" fill="black"/>
<path d="M254.44 23.5549C254.21 23.8266 253.959 24.2655 253.896 24.5163C253.749 24.997 252.87 27.2542 252.43 28.3201C252.263 28.6546 251.886 29.7623 251.593 30.7864C251.278 31.7896 250.922 32.6674 250.818 32.7301C250.713 32.7928 250.671 32.9809 250.734 33.1272C250.86 33.4616 250.231 33.7124 249.729 33.5243C249.54 33.4616 249.394 33.4825 249.394 33.5661C249.394 33.6706 248.891 33.7124 248.263 33.6915C246.944 33.6079 246.043 34.0468 246.043 34.7992C246.043 35.6353 246.776 36.0324 248.493 36.116L250.064 36.1996L249.917 36.8684C249.855 37.2237 249.729 37.7462 249.687 38.0388C249.624 38.3314 249.478 38.9375 249.373 39.3973C249.268 39.8571 249.143 40.505 249.08 40.8603C249.038 41.1947 248.933 41.8218 248.87 42.2189C248.514 44.3298 248.347 46.0854 248.305 47.9037C248.242 49.9729 248.096 50.4118 247.677 49.9938C247.53 49.8475 246.923 49.743 246.316 49.743C245.122 49.743 243.698 49.1369 243.07 48.3845C242.693 47.9246 242.484 46.9005 242.358 45.0404C242.086 40.2751 241.939 39.6481 240.829 38.5404C240.097 37.788 239.05 37.5581 238.128 37.9552C237.291 38.3105 235.511 40.0661 234.903 41.1738C233.982 42.8459 233.249 45.2285 233.165 46.9632C233.082 48.3427 233.145 48.7398 233.542 49.5131C234.108 50.6208 235.448 51.6449 236.474 51.7285C237.458 51.8121 239.217 50.9552 239.699 50.1401C240.117 49.4295 240.306 49.3877 240.599 49.952C240.808 50.3491 241.855 51.4777 241.855 51.3105C241.855 51.2478 242.253 51.4359 242.756 51.7076C244.012 52.3764 246.797 52.4391 247.614 51.7912C247.907 51.5613 248.2 51.3941 248.221 51.4359C248.263 51.4777 248.347 51.8539 248.41 52.2719C248.514 53.1706 249.143 54.5501 249.457 54.5501C249.582 54.5501 249.603 54.6128 249.54 54.6755C249.373 54.8636 250.901 56.0131 251.111 55.8877C251.216 55.825 251.278 55.8877 251.278 55.9922C251.278 56.5147 254.252 55.9922 254.901 55.3652C255.069 55.198 255.78 54.571 256.471 53.9439C257.183 53.3378 257.833 52.6063 257.895 52.3346C257.958 52.0838 258.147 51.8121 258.314 51.7494C258.67 51.6031 258.607 50.3491 258.209 49.8684C257.791 49.3668 256.89 49.7012 255.927 50.6835C255.445 51.206 254.943 51.624 254.838 51.624C254.713 51.624 254.629 51.7076 254.629 51.8121C254.629 52.1256 252.744 53.1288 252.409 53.0034C251.551 52.669 251.404 50.788 251.823 45.1449C251.907 44.0581 251.969 42.9922 251.99 42.7832C251.99 42.5951 252.053 42.4279 252.116 42.4279C252.179 42.4279 252.221 42.1771 252.242 41.8427C252.284 40.7349 252.556 38.7703 252.786 38.0388C252.912 37.6417 253.037 37.1401 253.058 36.8893C253.079 36.6594 253.121 36.4086 253.142 36.325C253.142 36.2414 254.231 36.1578 255.529 36.1578C256.807 36.1578 258.084 36.1369 258.335 36.0742C259.068 35.9279 260.01 35.3636 260.157 35.0082C260.366 34.423 260.303 34.2976 259.612 33.9423C259.11 33.6706 258.251 33.5661 256.534 33.5034C255.215 33.4616 254.084 33.378 254.042 33.3362C253.854 33.1481 255.362 28.2574 255.948 27.0661C256.074 26.8362 256.178 26.46 256.22 26.2301C256.241 26.0002 256.346 25.3732 256.451 24.8298C256.702 23.7012 256.576 23.5131 255.487 23.1996C254.922 23.0533 254.796 23.0951 254.44 23.5549ZM239.008 40.9021C238.903 41.1111 238.777 42.4906 238.715 43.9954C238.568 46.8796 238.442 47.4857 237.772 48.3636C236.935 49.4713 235.971 48.698 236.097 47.0259C236.181 45.7719 236.558 44.1835 236.956 43.452C237.123 43.1176 237.207 42.8459 237.144 42.8459C236.997 42.8459 237.772 41.6755 238.359 41.0066C238.861 40.4632 239.259 40.4005 239.008 40.9021Z" fill="black"/>
<path d="M157.845 31.9988C157.635 32.1033 157.468 32.1451 157.468 32.0824C157.468 31.8316 155.646 33.211 155.018 33.9425C154.683 34.3605 154.264 34.6949 154.117 34.6949C153.971 34.6949 153.908 34.7576 153.971 34.8203C154.054 34.9039 153.824 35.2801 153.489 35.6772C153.133 36.0534 152.861 36.4923 152.861 36.6177C152.861 36.7431 152.798 36.8058 152.735 36.7222C152.672 36.6595 152.379 36.8476 152.107 37.1611L151.605 37.7255L151.018 37.0357C150.683 36.6804 150.306 36.3669 150.181 36.3669C150.034 36.3669 149.929 36.2833 149.929 36.1788C149.929 35.9071 148.338 35.3219 147.584 35.3219C145.804 35.3219 144.59 37.3284 145.846 38.1644C146.307 38.457 146.474 38.4779 146.893 38.248C147.312 38.0181 147.479 38.039 148.087 38.4152C148.484 38.666 148.966 39.0422 149.175 39.2512C149.594 39.7319 149.887 41.174 149.552 41.174C149.427 41.174 149.28 41.4457 149.196 41.801C149.113 42.1354 148.966 42.4698 148.861 42.5325C148.757 42.6161 148.484 43.0759 148.254 43.5984C148.024 44.1001 147.71 44.5181 147.584 44.5181C147.396 44.5181 147.396 44.5808 147.563 44.748C147.71 44.8943 147.731 45.2496 147.605 45.7303C147.521 46.1483 147.479 46.5454 147.521 46.6081C147.563 46.6917 147.626 47.1515 147.668 47.674C147.71 48.5518 148.526 50.1611 148.924 50.1611C149.029 50.1611 149.05 50.2448 148.987 50.3702C148.924 50.4747 149.05 50.5792 149.28 50.5792C149.531 50.5792 149.72 50.6628 149.72 50.7882C149.72 51.2689 151.039 51.666 152.275 51.5406C153.908 51.3734 154.662 50.8091 155.06 49.4296C155.457 48.0502 155.332 46.9425 154.473 44.3091C153.908 42.5952 153.803 42.01 153.971 41.6338C154.096 41.383 154.264 41.174 154.369 41.174C154.473 41.174 154.515 41.0904 154.452 40.9859C154.369 40.8814 154.39 40.756 154.473 40.7142C154.578 40.6933 154.976 40.1499 155.374 39.5647C155.772 38.9586 156.169 38.457 156.253 38.457C156.337 38.457 156.567 38.1644 156.735 37.83C156.923 37.4747 157.342 36.9312 157.677 36.5968C158.033 36.2833 158.305 35.9698 158.305 35.9071C158.305 35.8444 158.619 35.4682 158.996 35.0711C160.462 33.5245 159.52 31.0165 157.845 31.9988ZM151.96 45.9811C151.898 46.211 151.94 46.3573 152.023 46.2946C152.107 46.2319 152.254 46.6708 152.337 47.256C152.526 48.5518 152.149 48.9907 151.563 48.2174C151.186 47.7576 151.165 46.7335 151.5 45.9184C151.709 45.4168 152.107 45.4586 151.96 45.9811Z" fill="black"/>
<path d="M214.005 33.6914C214.005 33.775 213.943 33.8377 213.859 33.8168C213.608 33.7332 212.33 34.3603 212.33 34.5275C212.33 34.632 212.205 34.6947 212.037 34.6947C211.87 34.6947 211.576 34.9037 211.409 35.1545C211.22 35.4053 211.074 35.5516 211.074 35.468C211.074 35.3844 210.885 35.5098 210.634 35.7606L210.215 36.1786L209.545 35.5307C209.168 35.1545 208.498 34.632 208.058 34.3394C207.367 33.9004 207.074 33.8377 206.216 33.9214C204.917 34.0886 204.834 34.1513 204.666 34.9873C204.582 35.4889 204.645 35.8651 204.897 36.2413C205.106 36.5548 205.315 36.7429 205.378 36.6802C205.441 36.6384 205.608 36.6802 205.776 36.8056C205.964 36.9937 206.048 36.9728 206.048 36.8056C206.048 36.3667 206.614 36.5757 207.242 37.2654C207.87 37.9551 208.247 38.8747 207.912 38.8747C207.807 38.8747 207.723 39.0628 207.723 39.2927C207.723 39.5226 207.64 39.7107 207.535 39.7107C207.43 39.7107 207.284 39.9824 207.2 40.3378C207.116 40.6722 206.97 40.9648 206.865 40.9648C206.76 40.9648 206.676 41.1111 206.676 41.2783C206.676 41.4455 206.446 41.9889 206.153 42.4905C205.881 43.013 205.692 43.4728 205.755 43.5355C205.818 43.5982 205.797 43.7863 205.713 43.9326C205.504 44.2461 205.504 44.267 205.253 45.7509C205.043 46.9841 205.148 48.4889 205.441 48.4889C205.546 48.4889 205.629 48.6561 205.629 48.8651C205.629 49.5757 206.718 50.9342 207.849 51.603C208.812 52.1882 209.105 52.2509 210.048 52.1673C211.409 52.0419 212.058 51.5821 212.791 50.2445C213.356 49.2622 213.377 49.1159 213.293 46.9214C213.189 44.3088 212.979 42.4278 212.749 42.1143C212.602 41.9053 212.414 41.1947 212.205 40.0242C212.079 39.3136 212.393 38.9165 213.901 37.7252C214.32 37.3699 214.885 36.931 215.136 36.7011C215.367 36.4921 215.743 36.1995 215.953 36.0532C216.372 35.7606 216.769 34.4648 216.539 34.1304C216.183 33.566 214.005 33.1898 214.005 33.6914ZM210.111 43.6191C210.718 45.8136 210.718 49.5548 210.09 49.5339C209.985 49.5339 209.671 49.304 209.357 49.0114C208.561 48.3217 208.352 46.4406 208.938 45.2911C209.168 44.8731 209.273 44.5178 209.147 44.5178C209.043 44.5178 209.105 44.3715 209.273 44.1834C209.461 44.0162 209.608 43.7236 209.608 43.5564C209.608 43.1384 209.985 43.2011 210.111 43.6191Z" fill="black"/>
<path d="M133.094 34.5273C133.198 34.6945 133.136 34.7154 132.905 34.6318C132.696 34.5482 132.549 34.59 132.549 34.7154C132.549 34.8408 132.424 34.9035 132.277 34.8408C131.879 34.6945 131.46 35.4261 131.021 37.0981C130.539 38.9791 130.413 40.1077 130.434 42.9502C130.434 45.4164 130.602 46.754 130.895 46.9421C131 47.0048 131.083 47.2347 131.083 47.4646C131.083 47.8408 131.188 48.0289 131.837 48.7605C131.963 48.9068 132.172 49.2203 132.319 49.492C132.445 49.7428 132.759 49.9518 132.968 49.9518C133.198 49.9518 133.366 50.0145 133.345 50.0981C133.303 50.2026 133.387 50.2862 133.492 50.328C133.617 50.3698 133.868 50.537 134.057 50.7251C134.266 50.9132 134.79 51.0386 135.292 51.0386C135.753 51.0177 136.36 51.1013 136.612 51.1849C137.219 51.4357 139.124 50.7042 139.648 50.0354C139.857 49.7637 140.15 49.5338 140.276 49.5338C140.632 49.5338 142.14 47.5064 142.684 46.2942C142.977 45.709 143.249 44.7894 143.333 44.2878C143.647 42.1769 142.579 39.2299 140.779 37.2444C140.276 36.701 139.878 36.1785 139.878 36.0949C139.878 35.9904 139.794 35.9695 139.69 36.0322C139.585 36.0949 139.397 36.0113 139.25 35.8441C139.103 35.6769 138.831 35.5306 138.622 35.5306C138.433 35.5306 138.203 35.4679 138.119 35.3842C137.91 35.1752 137.428 35.0916 136.004 35.0498C135.209 35.008 134.559 34.8617 134.224 34.6318C133.638 34.2138 132.863 34.1511 133.094 34.5273ZM137.847 39.2299C138.266 39.5225 138.685 40.0032 138.747 40.254C138.831 40.5257 138.957 40.7556 139.062 40.7556C139.145 40.7556 139.418 41.1945 139.669 41.7379C140.318 43.201 139.92 44.7685 138.475 46.3569C137.889 47.0048 137.47 47.2765 136.905 47.381C135.941 47.5273 135.606 47.2765 134.978 45.9807C134.58 45.1447 134.539 44.7058 134.539 41.947C134.559 39.4807 134.622 38.8119 134.853 38.6656C135.376 38.3521 137.009 38.6656 137.847 39.2299Z" fill="black"/>
<path d="M223.826 36.2417C223.763 36.3044 223.533 36.388 223.303 36.4298C222.696 36.5552 222.13 36.806 221.46 37.2867C220.581 37.9346 217.942 40.568 218.068 40.6934C218.131 40.7561 218.005 41.0696 217.817 41.3622C217.146 42.3237 216.728 44.0584 216.937 45.0407C216.958 45.1452 216.958 45.605 216.937 46.0439C216.916 46.4828 217 46.9635 217.146 47.1098C217.272 47.277 217.356 47.486 217.314 47.5696C217.188 48.0085 218.947 50.4539 219.24 50.2658C219.345 50.2031 219.471 50.2449 219.555 50.3494C219.806 50.7674 221.816 51.5825 223.512 51.9796C224.057 52.0841 227.637 52.0632 227.847 51.9169C227.93 51.8751 228.349 51.7915 228.789 51.7288C230.108 51.5407 230.213 51.5198 230.883 51.1227C231.553 50.7256 232.223 49.806 232.223 49.2626C232.223 49.0954 232.077 48.8237 231.888 48.6774C231.448 48.3221 230.171 47.8831 230.024 48.0503C229.962 48.113 229.606 48.1757 229.229 48.1966C227.323 48.2803 226.611 48.3012 225.941 48.2594C225.522 48.2175 225.083 48.2594 224.957 48.343C224.831 48.4266 224.664 48.4057 224.58 48.2803C224.496 48.1548 224.371 48.113 224.266 48.1757C224.161 48.2384 223.826 48.1757 223.491 48.0294C223.177 47.904 222.863 47.7786 222.8 47.7577C221.607 47.3606 220.832 46.7336 220.602 45.9603C220.392 45.3124 220.434 44.1002 220.685 43.4314C220.874 42.9089 220.958 42.8671 221.439 43.0552C221.753 43.1806 222.465 43.2851 223.052 43.306C223.617 43.3269 224.14 43.4314 224.203 43.5359C224.266 43.6195 224.559 43.6613 224.852 43.5777C225.166 43.515 226.025 43.4314 226.779 43.3896C227.533 43.3478 228.454 43.1597 228.831 42.9716C230.129 42.3028 230.569 40.4426 229.731 39.0632C229.48 38.6661 229.229 38.1854 229.166 37.9764C229.082 37.7883 228.915 37.6211 228.768 37.6211C228.642 37.6211 228.349 37.433 228.14 37.2031C227.93 36.9732 227.637 36.7851 227.491 36.7851C227.344 36.7851 227.198 36.6806 227.156 36.5552C227.072 36.3253 224.036 36.0327 223.826 36.2417ZM226.046 39.7111C226.13 39.8365 226.276 39.8783 226.381 39.8156C226.486 39.732 226.569 39.8156 226.569 40.0037C226.569 40.1709 226.695 40.359 226.842 40.4008C226.967 40.4635 226.36 40.4844 225.439 40.4426C224.538 40.4008 223.743 40.2963 223.68 40.2336C223.617 40.1709 223.743 39.9828 223.973 39.8156C224.434 39.4603 225.857 39.3976 226.046 39.7111Z" fill="black"/>
<path d="M266.585 40.0663C266.062 40.1708 265.224 40.6515 264.722 41.1113C264.429 41.383 264.324 43.055 264.554 43.4521C264.638 43.5775 264.638 43.682 264.533 43.682C264.177 43.682 263.319 46.4618 263.549 46.838C263.591 46.9216 263.549 47.047 263.423 47.1306C263.298 47.2142 263.256 47.3605 263.319 47.465C263.403 47.5695 263.382 47.7576 263.319 47.8621C262.942 48.4682 263.235 53.0872 263.654 53.0872C263.758 53.0872 263.842 53.2126 263.842 53.3589C263.842 53.5261 264.031 53.8605 264.24 54.1113C264.47 54.383 264.68 54.6547 264.722 54.7174C265.099 55.5116 267.486 56.473 268.114 56.0759C268.24 55.9923 268.449 55.9087 268.575 55.8878C269.266 55.7833 271.381 53.6933 271.381 53.1081C271.381 52.9827 271.464 52.8782 271.59 52.8782C271.695 52.8782 271.841 52.6483 271.925 52.3557C271.988 52.0631 272.155 51.8332 272.281 51.8332C272.407 51.8332 272.449 51.7705 272.386 51.7078C272.302 51.6451 272.386 51.2898 272.532 50.9345C272.679 50.5582 272.805 49.764 272.805 49.1579C272.825 48.5727 272.867 47.9875 272.93 47.9039C273.286 47.3187 271.674 42.3862 271.046 42.1354C270.878 42.0727 270.752 41.9055 270.752 41.7592C270.752 41.3412 269.684 40.4425 268.889 40.1708C268.177 39.92 267.528 39.8991 266.585 40.0663ZM269.496 44.8943C269.81 45.5004 270.145 46.211 270.229 46.4618C270.396 47.0261 270.396 49.8685 270.208 50.4537C270.061 50.9345 269.077 52.3139 268.805 52.4184C268.721 52.4602 268.7 52.5856 268.784 52.6901C268.847 52.7946 268.805 52.8782 268.679 52.8782C268.575 52.8782 268.323 53.0245 268.135 53.2126C267.716 53.6515 267.36 53.5052 266.669 52.5856C266.167 51.9168 266.104 51.6451 266.083 50.1193C266.062 48.2801 266.25 46.1065 266.481 45.7512C266.543 45.6258 266.648 45.2287 266.711 44.8734C266.816 44.1209 266.941 43.9537 267.653 43.5775C268.323 43.2222 268.784 43.5357 269.496 44.8943Z" fill="black"/>
<path d="M285.934 40.0662C284.761 40.2961 282.228 41.6547 281.348 42.5534C281.013 42.8669 280.95 42.846 280.28 42.1563C279.128 40.965 277.432 41.0695 277.118 42.3235C276.993 42.8669 277.558 43.682 278.102 43.682C278.668 43.682 279.17 44.4344 279.17 45.2704C279.17 45.6884 279.087 46.0855 278.982 46.1691C278.249 46.6707 277.265 50.2238 277.474 51.6241C277.746 53.4006 277.83 53.6514 278.437 54.5084C279.861 56.5566 282.039 57.0164 283.107 55.5116C283.505 54.9264 283.568 54.5502 283.589 52.5646C283.589 50.5791 283.484 49.6386 283.023 48.0084C282.835 47.3396 282.688 46.6498 282.688 46.4826C282.688 46.0855 284.615 44.1836 285.201 43.9955C285.431 43.9328 285.62 43.7865 285.62 43.7029C285.62 43.5984 285.913 43.4103 286.248 43.264C287.086 42.9087 287.756 41.9473 287.672 41.2367C287.63 40.9023 287.504 40.6724 287.358 40.6933C287.211 40.7351 287.148 40.6097 287.211 40.4425C287.295 40.2752 287.253 40.1289 287.169 40.108C287.065 40.108 286.834 40.0662 286.667 40.0453C286.499 40.0244 286.164 40.0244 285.934 40.0662ZM281.118 53.2752C280.992 53.5678 280.95 53.5469 280.741 53.1916C280.448 52.6691 280.406 50.5582 280.699 50.2447C280.95 49.9521 281.327 52.7109 281.118 53.2752Z" fill="black"/>
<path d="M294.833 40.2543C292.865 40.9649 290.436 42.7414 290.75 43.2639C290.813 43.3893 290.75 43.4729 290.604 43.4729C290.289 43.4729 289.933 44.2044 289.577 45.6048C289.284 46.8379 289.557 48.1128 290.373 49.3459C290.855 50.0983 294.038 52.481 295.001 52.8154C295.441 52.9617 296.299 53.7141 296.299 53.944C296.299 54.0485 296.174 54.0694 296.048 54.0276C295.901 53.9858 295.357 53.8813 294.833 53.8395C293.116 53.6305 292.216 53.4633 292.111 53.317C292.048 53.2543 291.546 53.1498 290.96 53.108C290.248 53.0662 289.724 52.8781 289.326 52.5437C288.698 52.0212 288.384 51.9585 287.337 52.1675C286.332 52.3765 285.892 53.5887 286.311 55.0726C286.436 55.5324 286.499 55.9922 286.478 56.1176C286.457 56.2221 286.499 56.2639 286.583 56.1803C286.646 56.0967 286.96 56.2012 287.253 56.4311C287.525 56.661 287.839 56.7864 287.944 56.7237C288.049 56.661 288.133 56.7028 288.133 56.8073C288.133 56.8909 288.51 56.9745 288.97 56.9536C289.431 56.9327 289.808 56.9745 289.808 57.0372C289.808 57.1835 290.331 57.2253 293.472 57.288C296.132 57.3507 297.828 56.9536 298.665 56.034C299.21 55.4488 299.524 54.7591 299.252 54.7591C299.168 54.7591 299.126 54.4874 299.189 54.153C299.231 53.8395 299.105 53.2543 298.917 52.8781C298.561 52.1675 296.509 49.9938 296.509 50.3073C296.509 50.3909 296.425 50.37 296.341 50.2446C296.257 50.0983 295.629 49.6803 294.938 49.3041C294.268 48.9279 293.389 48.3427 292.991 47.9874C292.342 47.4022 292.279 47.2559 292.362 46.399C292.425 45.8765 292.677 45.124 292.949 44.706C293.807 43.4102 295.964 42.3443 296.718 42.8459C296.886 42.9504 296.948 43.0549 296.823 43.0549C296.718 43.0549 296.739 43.1385 296.886 43.2221C297.032 43.3266 297.179 43.6192 297.241 43.87C297.409 44.7478 297.577 45.1031 297.849 45.2077C298.309 45.3749 298.98 45.1449 299.126 44.7687C299.377 44.1626 299.44 42.4488 299.231 42.3234C299.105 42.2607 299.021 42.0308 299.021 41.8427C299.021 41.4665 298.33 40.7559 297.995 40.7559C297.891 40.7559 297.765 40.6514 297.723 40.526C297.639 40.2961 295.357 40.0871 294.833 40.2543Z" fill="black"/>
<path d="M60.8302 42.0099C60.7673 42.1144 60.5789 42.1562 60.4114 42.0935C60.2438 42.0099 59.6156 42.4697 58.8618 43.2012C58.1708 43.87 57.396 44.6224 57.1238 44.8523C56.1396 45.751 55.7208 48.7607 55.993 52.6691C56.0349 53.0871 56.1606 53.6096 56.3071 53.8604C56.4328 54.1112 56.4747 54.4456 56.4118 54.6128C56.349 54.78 56.4537 55.0517 56.6212 55.2189C56.7888 55.407 57.0819 56.0131 57.2704 56.5774C57.6892 57.8732 59.2178 59.5244 60.5998 60.1723C61.1443 60.4231 61.6678 60.5903 61.7096 60.5276C61.7724 60.4649 62.0028 60.5067 62.2122 60.6321C62.4425 60.7366 62.61 60.7575 62.61 60.653C62.61 60.5485 62.8613 60.5067 63.1964 60.5485C63.5105 60.6112 64.0549 60.5276 64.3899 60.3813C64.7459 60.235 65.081 60.1096 65.1857 60.1096C65.8557 60.026 67.7613 56.7655 67.9916 55.2816C68.0544 54.8218 68.1801 54.3411 68.2638 54.2366C68.4313 53.9649 68.3895 51.6449 68.1801 50.3073C68.0125 49.2205 66.798 46.7125 66.2117 46.19C66.0233 46.0228 65.8557 45.751 65.8348 45.6047C65.7929 45.0404 65.7301 44.9568 65.3322 44.8314C65.1019 44.7687 64.9134 44.5597 64.9134 44.3925C64.9134 44.2253 64.7669 44.0999 64.5784 44.0999C64.4109 44.0999 64.3062 44.0163 64.3899 43.9118C64.4528 43.7864 64.3062 43.5983 64.034 43.452C63.7827 43.3266 63.3848 43.034 63.1754 42.825C62.6519 42.3443 60.9767 41.7591 60.8302 42.0099ZM62.1912 46.4199C62.4844 46.7752 63.0079 47.3604 63.3429 47.7157C63.9502 48.3636 64.0549 48.5517 64.8297 50.2655C65.3741 51.4986 65.3322 53.944 64.7459 55.2398C64.4946 55.7832 64.3271 56.2639 64.3481 56.3057C64.369 56.3475 64.2015 56.5983 63.9711 56.8491C63.3848 57.497 62.1912 57.3298 61.4793 56.5147C61.1861 56.1803 60.9349 55.825 60.9349 55.7414C60.9349 55.6369 60.7464 55.3025 60.537 54.989C59.9507 54.1739 59.4272 52.0002 59.3225 49.9102C59.2387 48.1755 59.2597 48.0501 59.7622 47.5485C60.0344 47.2768 60.4532 46.7543 60.6417 46.399C61.1233 45.6047 61.5212 45.6047 62.1912 46.4199Z" fill="black"/>
<path d="M40.5814 45.6674C39.7438 46.1272 39.3459 47.6111 39.2412 50.7461C39.1994 51.9375 39.1156 52.9825 39.0528 53.087C38.99 53.1915 39.0318 53.3169 39.1575 53.4005C39.2622 53.4632 39.325 53.8603 39.2831 54.2574C39.2203 54.6545 39.3041 55.4278 39.4716 55.9712C39.6182 56.5146 39.8276 57.3716 39.8904 57.8941C39.9741 58.3957 40.1207 58.96 40.2254 59.1481C40.3301 59.3153 40.5814 59.8796 40.8117 60.4021C41.0421 60.9246 41.4818 61.6143 41.7959 61.9278C42.11 62.2413 42.2985 62.4921 42.2147 62.4921C41.9425 62.4921 42.6126 63.0146 43.4502 63.4326C44.4134 63.9134 47.3869 64.1433 47.6381 63.7671C47.701 63.6417 47.8475 63.579 47.9522 63.6417C48.036 63.7044 48.371 63.4744 48.6433 63.1191C48.9364 62.7847 49.2715 62.4921 49.3761 62.4921C49.6274 62.4921 50.6325 60.5693 51.0304 59.3571C51.4911 57.8732 51.6167 54.3828 51.2189 53.6095C51.0304 53.2542 50.8838 52.8571 50.8838 52.7108C50.8838 52.5854 50.7791 52.46 50.6325 52.46C50.5069 52.46 50.465 52.3973 50.5278 52.3346C50.6744 52.1883 50.13 51.1015 49.6693 50.5998C49.5018 50.4326 49.1458 49.931 48.8527 49.4503C48.5595 48.9905 48.1198 48.4471 47.8685 48.2381C47.6172 48.05 47.5125 47.8828 47.5963 47.8619C47.8685 47.8619 46.2142 46.378 45.6907 46.169C45.4185 46.0645 44.7903 45.9809 44.3087 45.9809C43.8061 45.9809 42.9895 45.8346 42.5079 45.6674C41.4399 45.2912 41.2934 45.2912 40.5814 45.6674ZM46.8215 52.7526C46.9052 53.0034 47.1146 53.3378 47.3031 53.505C48.6851 54.759 48.1616 60.0259 46.6121 60.6111C45.7954 60.9037 44.4134 59.9841 44.0784 58.9182C43.9946 58.6465 43.848 58.3748 43.7433 58.3121C43.6386 58.2494 43.5549 57.8941 43.513 57.5179C43.492 57.1416 43.4083 56.849 43.3455 56.849C43.2198 56.849 42.8429 55.1979 42.6126 53.7349C42.5497 53.3378 42.445 52.9407 42.4032 52.8571C42.2566 52.6481 42.7382 52.3137 43.3873 52.1465C43.7014 52.0629 44.0155 51.8121 44.0993 51.5822C44.1621 51.3523 44.3715 50.9761 44.56 50.767C44.895 50.3908 44.9369 50.4117 45.7954 51.3523C46.277 51.8748 46.7587 52.5018 46.8215 52.7526Z" fill="black"/>
<path d="M146.935 66.1498C145.574 66.4215 145.302 66.6305 145.218 67.3829C145.176 67.6755 145.071 68.0308 144.988 68.1771C144.883 68.3234 144.82 68.9713 144.799 69.5983C144.799 70.2253 144.715 70.8732 144.632 70.9986C144.527 71.1658 144.548 71.2703 144.673 71.2703C144.904 71.2703 144.904 71.7928 144.673 72.2108C144.527 72.4825 144.569 72.6916 144.883 73.444C145.05 73.8829 145.071 74.1128 144.883 74.3218C144.736 74.489 144.736 74.6144 144.862 74.6144C144.967 74.6144 145.05 75.1578 145.029 75.8684C145.029 76.5581 145.092 77.1224 145.176 77.1224C145.281 77.1224 145.323 77.4568 145.26 77.8539C145.197 78.251 145.218 78.5854 145.302 78.5854C145.385 78.5854 145.427 79.3379 145.406 80.2575C145.364 81.1771 145.406 81.9086 145.49 81.8459C145.574 81.8041 145.658 81.9295 145.658 82.1594C145.658 82.3684 145.595 82.5565 145.511 82.5565C145.427 82.5565 145.406 82.8073 145.448 83.1208C145.49 83.4552 145.574 84.5002 145.637 85.4616C145.699 86.4231 145.804 87.3009 145.867 87.4054C145.93 87.5099 145.888 87.7189 145.741 87.8861C145.616 88.0324 145.595 88.2205 145.699 88.2832C145.804 88.3459 145.825 88.7848 145.741 89.2864C145.637 89.8298 145.658 90.2896 145.783 90.4359C145.909 90.6031 145.909 90.833 145.762 91.1047C145.637 91.3346 145.616 91.5645 145.699 91.6272C145.93 91.7735 145.762 99.7784 145.532 99.862C145.406 99.9038 145.323 100.029 145.323 100.134C145.323 100.259 145.406 100.301 145.511 100.238C145.616 100.175 145.679 100.677 145.658 101.367C145.658 102.14 145.532 102.642 145.385 102.704C145.092 102.83 145.008 103.269 145.281 103.227C145.658 103.164 145.72 103.29 145.511 103.812C145.385 104.147 145.239 104.857 145.197 105.442C145.176 106.007 145.113 106.634 145.113 106.801C145.05 107.511 144.883 108.055 144.694 108.055C144.506 108.055 144.15 107.24 144.234 106.947C144.255 106.843 144.192 106.822 144.066 106.905C143.961 106.968 143.857 106.884 143.857 106.717C143.857 106.529 143.773 106.383 143.647 106.383C143.48 106.383 142.37 104.878 141.553 103.499C141.386 103.206 141.072 102.788 140.883 102.579C140.674 102.37 140.506 102.056 140.506 101.889C140.506 101.722 140.423 101.576 140.297 101.576C140.192 101.576 139.836 101.074 139.543 100.468C139.229 99.8829 138.936 99.3395 138.852 99.2768C138.517 99.005 137.784 97.7928 137.784 97.5002C137.784 97.3121 137.533 96.915 137.24 96.6224C136.926 96.3298 136.674 95.8491 136.653 95.5774C136.653 95.3266 136.507 95.0967 136.381 95.0967C136.235 95.0967 136.109 95.034 136.13 94.9295C136.172 94.5951 135.837 93.8427 135.648 93.8427C135.523 93.8427 135.481 93.6546 135.544 93.4247C135.606 93.1948 135.565 93.0067 135.481 93.0067C135.376 93.0067 135.062 92.5051 134.79 91.8989C133.931 90.1015 132.801 89.4745 131.502 90.1015C130.56 90.5613 130.434 90.7703 130.371 91.7944C130.371 92.1706 130.288 92.5259 130.204 92.5886C130.141 92.6514 130.225 93.0276 130.392 93.4247C130.581 93.8218 130.748 94.198 130.769 94.2607C130.79 94.3234 130.853 94.5115 130.937 94.6787C131 94.8459 131.209 95.4102 131.377 95.9327C131.9 97.5002 132.235 98.3153 132.424 98.6079C132.507 98.7542 132.528 98.9423 132.465 99.005C132.403 99.0886 132.528 99.2559 132.759 99.4231C132.989 99.5903 133.177 99.9247 133.177 100.175C133.177 100.426 133.366 100.907 133.575 101.241C133.806 101.597 133.952 101.931 133.889 102.036C133.827 102.119 133.889 102.203 133.994 102.203C134.12 102.203 134.392 102.579 134.58 103.039C134.79 103.499 135.02 103.875 135.104 103.875C135.188 103.875 135.209 104.021 135.125 104.188C135.062 104.397 135.125 104.502 135.292 104.46C135.439 104.418 135.586 104.544 135.606 104.711C135.669 105.484 135.711 105.568 135.9 105.442C136.025 105.38 136.109 105.463 136.109 105.651C136.109 105.839 136.339 106.216 136.633 106.508C136.926 106.801 137.156 107.177 137.156 107.344C137.156 107.511 137.303 107.888 137.491 108.159C137.679 108.452 137.763 108.682 137.679 108.682C137.617 108.682 137.889 109.1 138.287 109.602C138.706 110.082 139.041 110.647 139.041 110.814C139.041 111.002 139.187 111.253 139.355 111.399C139.522 111.545 139.606 111.733 139.543 111.838C139.48 111.942 139.585 112.089 139.753 112.151C139.941 112.214 140.192 112.653 140.318 113.092C140.465 113.531 140.674 113.907 140.82 113.907C140.946 113.907 141.072 114.053 141.093 114.22C141.114 114.388 141.156 114.68 141.176 114.868C141.197 115.056 141.386 115.265 141.595 115.328C141.805 115.37 141.972 115.579 141.972 115.767C141.972 115.955 142.161 116.269 142.391 116.478C142.621 116.666 142.81 116.958 142.81 117.105C142.81 117.251 142.998 117.565 143.208 117.815C143.689 118.338 144.276 119.425 144.276 119.822C144.276 119.989 144.464 120.177 144.673 120.24C144.946 120.302 145.113 120.595 145.218 121.201C145.302 121.661 145.448 122.1 145.553 122.183C145.658 122.246 145.846 122.476 145.972 122.727C146.16 123.061 146.139 123.124 145.909 122.978C145.699 122.852 145.72 122.915 145.951 123.229C146.558 124.023 147.437 124.754 147.689 124.65C147.835 124.608 148.045 124.775 148.149 125.026C148.401 125.548 149.05 125.695 149.49 125.339C149.72 125.151 149.762 125.151 149.657 125.339C149.427 125.695 150.767 125.193 151.29 124.712C151.521 124.483 151.919 124.232 152.191 124.127C152.442 124.023 152.714 123.772 152.777 123.584C152.84 123.375 152.987 123.02 153.07 122.79C153.28 122.267 153.468 121.41 153.573 120.177C153.636 119.613 153.824 119.132 154.034 118.986C154.243 118.839 154.327 118.714 154.201 118.714C154.096 118.714 154.159 118.61 154.327 118.505C154.578 118.338 154.578 118.296 154.348 118.296C154.138 118.296 154.117 118.233 154.306 118.024C154.431 117.857 154.494 117.69 154.431 117.627C154.285 117.481 156.379 113.447 156.756 113.155C156.923 113.029 157.049 112.778 157.049 112.611C157.049 112.423 157.195 112.172 157.363 112.026C157.531 111.88 157.635 111.692 157.572 111.608C157.51 111.503 157.593 111.399 157.719 111.357C157.866 111.294 157.991 111.085 157.991 110.856C157.991 110.647 158.117 110.438 158.263 110.438C158.745 110.375 158.766 110.354 158.536 110.082C158.368 109.852 158.41 109.664 158.724 109.309C158.954 109.037 159.206 108.577 159.289 108.285C159.352 107.992 159.562 107.574 159.75 107.344C159.939 107.135 160.064 106.926 160.043 106.884C159.876 106.634 160.022 106.174 160.253 106.216C160.399 106.257 160.483 106.09 160.441 105.798C160.399 105.526 160.504 105.275 160.692 105.212C160.881 105.15 161.027 104.962 161.027 104.836C161.027 104.69 161.216 104.376 161.446 104.126C161.97 103.582 161.97 103.436 161.509 103.582C161.153 103.687 161.153 103.687 161.509 103.394C161.718 103.227 161.907 102.893 161.949 102.684C162.095 102.015 163.582 98.9841 163.896 98.7542C164.064 98.6288 164.189 98.4407 164.168 98.3362C164.106 97.9809 164.42 97.1867 164.608 97.1867C164.713 97.1867 164.797 97.0404 164.797 96.8732C164.797 96.706 164.88 96.5597 164.985 96.5597C165.09 96.5597 165.236 96.288 165.32 95.9327C165.404 95.5774 165.55 95.3057 165.655 95.3057C165.844 95.3057 166.179 93.7382 166.032 93.5501C165.99 93.4874 166.137 93.2993 166.367 93.1321C166.597 92.944 166.681 92.7977 166.556 92.7977C166.409 92.7977 166.367 92.4005 166.43 91.6899C166.514 90.6867 166.451 90.4986 165.906 89.8925C165.341 89.2864 165.174 89.2237 164.21 89.2655C163.373 89.3073 163.101 89.4118 162.996 89.7044C162.933 89.8925 162.828 90.0597 162.745 90.0597C162.012 89.9552 160.881 90.7076 161.132 91.1256C161.195 91.2092 160.965 91.4182 160.63 91.5645C160.295 91.7108 160.043 91.8989 160.106 91.9825C160.148 92.0661 160.043 92.296 159.855 92.4632C159.666 92.6514 159.562 92.9231 159.624 93.0694C159.687 93.2366 159.436 93.6755 159.101 94.0726C158.745 94.4697 158.326 95.0967 158.159 95.4729C158.012 95.8491 157.782 96.0999 157.698 96.0372C157.593 95.9745 157.384 96.2671 157.258 96.6642C157.133 97.0613 156.923 97.3957 156.819 97.3957C156.714 97.3957 156.63 97.5629 156.63 97.751C156.63 97.9391 156.484 98.2526 156.295 98.4616C156.128 98.6497 155.96 98.9632 155.918 99.1304C155.897 99.3813 155.562 99.8411 154.515 101.116C154.41 101.241 154.327 101.492 154.348 101.638C154.431 102.056 153.615 103.248 153.238 103.248C153.007 103.248 152.903 103.373 152.966 103.645C153.007 103.875 152.903 104.209 152.735 104.439C152.421 104.794 152.421 104.794 152.505 104.335C152.568 104.084 152.547 103.875 152.442 103.875C152.17 103.875 152.4 100.886 152.693 100.698C152.861 100.593 152.882 100.531 152.735 100.531C152.568 100.531 152.505 99.6112 152.526 97.542C152.547 95.5565 152.463 94.2816 152.275 93.6755C152.065 93.0067 152.044 92.5886 152.212 92.1497C152.358 91.7317 152.358 91.5436 152.191 91.5436C152.044 91.5436 152.065 91.4391 152.233 91.2301C152.421 91.0002 152.442 90.833 152.254 90.6449C152.128 90.4777 152.023 89.6208 152.023 88.7012C152.002 85.9214 151.919 84.751 151.73 84.6047C151.625 84.542 151.521 84.0195 151.479 83.4552C151.353 80.8009 151.311 80.3411 151.102 80.0903C150.83 79.7141 150.788 77.5404 151.081 77.6658C151.186 77.7285 151.123 77.6449 150.914 77.4777C150.662 77.2687 150.62 77.1433 150.788 77.0806C150.976 77.0179 150.976 76.8716 150.767 76.4954C150.599 76.2028 150.453 75.534 150.432 74.9906C150.411 74.4681 150.327 73.8411 150.264 73.6112C150.076 73.0678 149.887 71.3539 149.887 70.4343C149.887 69.5147 149.071 66.6514 148.861 66.7977C148.757 66.8395 148.568 66.6723 148.422 66.4006C148.149 65.9198 148.108 65.8989 146.935 66.1498Z" fill="#BEAEE6"/>
</svg>
