<svg width="38" height="34" viewBox="0 0 38 34" fill="none" xmlns="http://www.w3.org/2000/svg">
<path fill-rule="evenodd" clip-rule="evenodd" d="M10.7881 31.0654L15.7286 32.381V30.6606L16.1319 30.2559H18.955V32.2797V33.6963H15.9303L12.1996 32.0773L10.7881 31.0654Z" fill="#CDBDB2"/>
<path fill-rule="evenodd" clip-rule="evenodd" d="M26.9207 31.0654L22.081 32.381V30.6606L21.6777 30.2559H18.8546V32.2797V33.6963H21.8794L25.6098 32.0773L26.9207 31.0654Z" fill="#CDBDB2"/>
<path fill-rule="evenodd" clip-rule="evenodd" d="M16.1318 27.322L15.7285 30.6612L16.2326 30.2564H21.4755L22.0804 30.6612L21.6771 27.322L20.8705 26.8159L16.8375 26.9172L16.1318 27.322Z" fill="#393939"/>
<path fill-rule="evenodd" clip-rule="evenodd" d="M13.4099 4.75635L15.8297 10.423L16.9389 26.9172H20.871L22.0809 10.423L24.2991 4.75635H13.4099Z" fill="#F89C35"/>
<path fill-rule="evenodd" clip-rule="evenodd" d="M2.82311 17.2032L0 25.3995L7.05778 24.9948H11.5948V21.4532L11.3932 14.1675L10.3849 14.977L2.82311 17.2032Z" fill="#F89D35"/>
<path fill-rule="evenodd" clip-rule="evenodd" d="M8.1665 18.1138L16.4342 18.3162L15.5269 22.5661L11.5946 21.5542L8.1665 18.1138Z" fill="#D87C30"/>
<path fill-rule="evenodd" clip-rule="evenodd" d="M8.1665 18.2148L11.5946 21.4529V24.691L8.1665 18.2148Z" fill="#EA8D3A"/>
<path fill-rule="evenodd" clip-rule="evenodd" d="M11.5947 21.5542L15.6277 22.5661L16.9386 26.9174L16.031 27.4232L11.5947 24.7923V21.5542Z" fill="#F89D35"/>
<path fill-rule="evenodd" clip-rule="evenodd" d="M11.5947 24.7915L10.7881 31.0653L16.1319 27.3214L11.5947 24.7915Z" fill="#EB8F35"/>
<path fill-rule="evenodd" clip-rule="evenodd" d="M16.4348 18.3169L16.939 26.9182L15.4265 22.5163L16.4348 18.3169Z" fill="#EA8E3A"/>
<path fill-rule="evenodd" clip-rule="evenodd" d="M6.95679 24.8928L11.5948 24.7915L10.7882 31.0653L6.95679 24.8928Z" fill="#D87C30"/>
<path fill-rule="evenodd" clip-rule="evenodd" d="M2.21816 33.7983L10.7882 31.0661L6.95687 24.8936L0 25.3994L2.21816 33.7983Z" fill="#EB8F35"/>
<path fill-rule="evenodd" clip-rule="evenodd" d="M15.8292 10.4229L11.4938 14.0657L8.1665 18.1133L16.4342 18.417L15.8292 10.4229Z" fill="#E8821E"/>
<path fill-rule="evenodd" clip-rule="evenodd" d="M10.7881 31.0662L16.1319 27.3223L15.7286 30.5604V32.3818L12.0989 31.6734L10.7881 31.0662Z" fill="#DFCEC3"/>
<path fill-rule="evenodd" clip-rule="evenodd" d="M26.9207 31.0662L21.6777 27.3223L22.081 30.5604V32.3818L25.7107 31.6734L26.9207 31.0662Z" fill="#DFCEC3"/>
<path fill-rule="evenodd" clip-rule="evenodd" d="M14.2165 20.1377L15.3257 22.4652L11.3934 21.4533L14.2165 20.1377Z" fill="#393939"/>
<path fill-rule="evenodd" clip-rule="evenodd" d="M2.11694 0L15.8292 10.4225L13.5103 4.75586L2.11694 0Z" fill="#E88F35"/>
<path fill-rule="evenodd" clip-rule="evenodd" d="M2.11833 0.000488281L0.303467 5.56597L1.31172 11.6374L0.605943 12.0422L1.6142 12.9529L0.807594 13.6612L1.91667 14.6731L1.2109 15.2803L2.8241 17.3041L10.386 14.9767C14.0829 12.0084 15.8978 10.4906 15.8306 10.4231C15.7634 10.3556 11.1926 6.88144 2.11833 0.000488281Z" fill="#8E5A30"/>
<path fill-rule="evenodd" clip-rule="evenodd" d="M34.8851 17.2032L37.7083 25.3995L30.6505 24.9948H26.1134V21.4532L26.3151 14.1675L27.3233 14.977L34.8851 17.2032Z" fill="#F89D35"/>
<path fill-rule="evenodd" clip-rule="evenodd" d="M29.5415 18.1133L21.2738 18.3157L22.1811 22.5657L26.1134 21.5538L29.5415 18.1133Z" fill="#D87C30"/>
<path fill-rule="evenodd" clip-rule="evenodd" d="M29.5415 18.2139L26.1134 21.452V24.6901L29.5415 18.2139Z" fill="#EA8D3A"/>
<path fill-rule="evenodd" clip-rule="evenodd" d="M26.1135 21.5527L22.0805 22.5646L20.7697 26.9159L21.6772 27.4218L26.1135 24.7908V21.5527Z" fill="#F89D35"/>
<path fill-rule="evenodd" clip-rule="evenodd" d="M26.1136 24.792L26.9202 31.0658L21.6772 27.4229L26.1136 24.792Z" fill="#EB8F35"/>
<path fill-rule="evenodd" clip-rule="evenodd" d="M21.274 18.3154L20.7698 26.9167L22.2822 22.5149L21.274 18.3154Z" fill="#EA8E3A"/>
<path fill-rule="evenodd" clip-rule="evenodd" d="M30.752 24.8933L26.114 24.792L26.9206 31.0658L30.752 24.8933Z" fill="#D87C30"/>
<path fill-rule="evenodd" clip-rule="evenodd" d="M35.4901 33.7973L26.92 31.0651L30.7514 24.8926L37.7083 25.3984L35.4901 33.7973Z" fill="#EB8F35"/>
<path fill-rule="evenodd" clip-rule="evenodd" d="M21.8788 10.4229L26.2142 14.0657L29.5415 18.1133L21.2738 18.417L21.8788 10.4229Z" fill="#E8821E"/>
<path fill-rule="evenodd" clip-rule="evenodd" d="M23.492 20.1377L22.3828 22.4652L26.3151 21.4533L23.492 20.1377Z" fill="#393939"/>
<path fill-rule="evenodd" clip-rule="evenodd" d="M35.5913 0L21.879 10.4225L24.1979 4.75586L35.5913 0Z" fill="#E88F35"/>
<path fill-rule="evenodd" clip-rule="evenodd" d="M35.5914 0L37.4062 5.56548L36.398 11.6369L37.1038 12.0417L36.0955 12.9524L36.9021 13.6607L35.793 14.6726L36.4988 15.2798L34.8856 17.3036L27.3237 14.9762C23.6268 12.0079 21.8119 10.4901 21.8791 10.4226C21.9463 10.3552 26.5171 6.88095 35.5914 0Z" fill="#8E5A30"/>
</svg>
