<svg width="209" height="68" viewBox="0 0 209 68" fill="none" xmlns="http://www.w3.org/2000/svg">
<path d="M15.792 65.904C15.088 66.096 14.096 66.288 12.816 66.48C11.536 66.672 10.192 66.768 8.784 66.768C5.776 66.768 3.664 66.256 2.448 65.232C1.296 64.144 0.72 62.256 0.72 59.568V7.632C1.424 7.504 2.416 7.344 3.696 7.152C5.04 6.96 6.352 6.86399 7.632 6.86399C10.512 6.86399 12.592 7.344 13.872 8.304C15.152 9.264 15.792 11.152 15.792 13.968V31.248L37.008 7.248C40.848 7.248 43.6 7.984 45.264 9.456C46.928 10.864 47.76 12.592 47.76 14.64C47.76 16.176 47.376 17.616 46.608 18.96C45.904 20.24 44.72 21.712 43.056 23.376L29.424 37.008C33.84 41.808 37.808 46.096 41.328 49.872C44.912 53.648 47.856 56.688 50.16 58.992C50.096 61.488 49.232 63.44 47.568 64.848C45.968 66.256 44.08 66.96 41.904 66.96C39.536 66.96 37.584 66.384 36.048 65.232C34.576 64.016 33.136 62.608 31.728 61.008L15.792 42.96V65.904ZM102.664 42.864C102.664 46.64 102.088 50.064 100.936 53.136C99.7838 56.144 98.1198 58.704 95.9438 60.816C93.8318 62.928 91.2718 64.56 88.2638 65.712C85.2558 66.864 81.8958 67.44 78.1838 67.44C74.4718 67.44 71.0798 66.896 68.0078 65.808C64.9998 64.656 62.4078 63.024 60.2318 60.912C58.1198 58.8 56.4878 56.24 55.3358 53.232C54.1838 50.16 53.6078 46.704 53.6078 42.864C53.6078 39.152 54.1838 35.792 55.3358 32.784C56.5518 29.712 58.2158 27.12 60.3278 25.008C62.5038 22.896 65.0958 21.264 68.1038 20.112C71.1758 18.96 74.5358 18.384 78.1838 18.384C81.8318 18.384 85.1598 18.96 88.1678 20.112C91.1758 21.264 93.7358 22.928 95.8478 25.104C98.0238 27.216 99.6878 29.776 100.84 32.784C102.056 35.792 102.664 39.152 102.664 42.864ZM78.1838 29.904C75.1758 29.904 72.8398 31.024 71.1758 33.264C69.5118 35.504 68.6798 38.704 68.6798 42.864C68.6798 47.152 69.4798 50.416 71.0798 52.656C72.7438 54.832 75.1118 55.92 78.1838 55.92C81.2558 55.92 83.5918 54.8 85.1918 52.56C86.8558 50.32 87.6878 47.088 87.6878 42.864C87.6878 38.768 86.8558 35.6 85.1918 33.36C83.5278 31.056 81.1918 29.904 78.1838 29.904ZM64.0718 11.76C63.7518 11.12 63.4318 10.32 63.1118 9.36C62.7918 8.4 62.6318 7.408 62.6318 6.384C62.6318 4.272 63.0478 2.8 63.8798 1.96799C64.7758 1.07199 65.9598 0.623995 67.4318 0.623995H92.1998C92.7118 1.264 93.0638 2.064 93.2558 3.024C93.5118 3.92 93.6398 4.912 93.6398 6C93.6398 8.112 93.1918 9.616 92.2958 10.512C91.4638 11.344 90.3118 11.76 88.8398 11.76H64.0718ZM123.887 49.008C124.783 51.696 126.351 53.616 128.591 54.768C130.831 55.856 133.423 56.4 136.367 56.4C139.055 56.4 141.583 56.048 143.951 55.344C146.319 54.576 148.239 53.744 149.711 52.848C150.671 53.488 151.471 54.32 152.111 55.344C152.751 56.368 153.071 57.488 153.071 58.704C153.071 60.176 152.623 61.456 151.727 62.544C150.831 63.632 149.583 64.56 147.983 65.328C146.447 66.032 144.591 66.544 142.415 66.864C140.303 67.248 137.967 67.44 135.407 67.44C131.631 67.44 128.143 66.928 124.943 65.904C121.743 64.816 118.991 63.248 116.687 61.2C114.383 59.088 112.559 56.464 111.215 53.328C109.935 50.192 109.295 46.512 109.295 42.288C109.295 38.192 109.935 34.64 111.215 31.632C112.559 28.624 114.319 26.128 116.495 24.144C118.735 22.16 121.263 20.72 124.079 19.824C126.959 18.864 129.903 18.384 132.911 18.384C136.175 18.384 139.151 18.896 141.839 19.92C144.591 20.88 146.927 22.256 148.847 24.048C150.831 25.84 152.367 27.984 153.455 30.48C154.543 32.976 155.087 35.696 155.087 38.64C155.087 40.688 154.543 42.224 153.455 43.248C152.367 44.272 150.831 44.944 148.847 45.264L123.887 49.008ZM133.007 29.232C130.255 29.232 127.951 30.096 126.095 31.824C124.303 33.488 123.247 35.92 122.927 39.12L141.263 36.144C141.135 34.48 140.399 32.912 139.055 31.44C137.711 29.968 135.695 29.232 133.007 29.232ZM193.388 36.528C193.388 34.288 192.716 32.624 191.372 31.536C190.028 30.448 188.236 29.904 185.996 29.904C184.46 29.904 183.052 30.096 181.772 30.48C180.492 30.864 179.308 31.344 178.22 31.92V65.904C177.58 66.096 176.684 66.256 175.532 66.384C174.38 66.576 173.1 66.672 171.692 66.672C168.812 66.672 166.732 66.224 165.452 65.328C164.172 64.368 163.532 62.544 163.532 59.856V30.192C163.532 28.528 163.884 27.184 164.588 26.16C165.292 25.136 166.284 24.176 167.564 23.28C169.612 21.808 172.236 20.624 175.436 19.728C178.7 18.832 182.284 18.384 186.188 18.384C193.164 18.384 198.54 19.92 202.316 22.992C206.156 26.064 208.076 30.448 208.076 36.144V65.904C207.372 66.096 206.444 66.256 205.292 66.384C204.14 66.576 202.86 66.672 201.452 66.672C198.572 66.672 196.492 66.224 195.212 65.328C193.996 64.368 193.388 62.544 193.388 59.856V36.528Z" fill="#3A5C91"/>
</svg>
