<svg width="148" height="121" viewBox="0 0 148 121" fill="none" xmlns="http://www.w3.org/2000/svg">
<path d="M30.4726 27.4819L9.1912 29.8791C9.1912 29.8791 4.06313 30.6743 4.06313 37.0376C4.06313 40.6168 3 103.441 3 110.599C3 117.758 131.365 121.835 142.354 113.881C143.946 102.335 143.946 90.3902 143.946 90.3902" stroke="black" stroke-width="4.77784" stroke-linecap="round" stroke-linejoin="round"/>
<path d="M6.18506 34.6489C27.814 40.2231 127.751 32.6582 145 37.0378C145 44.563 143.407 80.8347 143.407 80.8347C143.407 80.8347 131.187 80.8347 122.894 80.8347C114.601 80.8347 114.601 61.615 122.894 61.615C131.187 61.615 145.843 61.615 143.407 61.615" stroke="black" stroke-width="4.77784" stroke-linecap="round" stroke-linejoin="round"/>
<path d="M17.3335 34.6486L86.214 2L97.3623 15.5372" stroke="black" stroke-width="3.18523" stroke-linecap="round" stroke-linejoin="round"/>
<path d="M53.9634 36.6392L109.307 9.96289L132.001 35.0466" stroke="black" stroke-width="3.18523" stroke-linecap="round" stroke-linejoin="round"/>
</svg>
